<svg xmlns="http://www.w3.org/2000/svg" viewBox="0 0 221.83 68.92"><title>Resurs 14</title><g id="Lager_2" data-name="Lager 2"><g id="Lager_1-2" data-name="Lager 1"><path d="M141.93,15.41V2.59h1.76l2.36,6.79h0l2.34-6.79h1.79V15.41h-1.84V7.61h0l-1.81,5.51h-.92l-1.8-5.51h0v7.8Z" transform="translate(-0.86 -2.48)"/><path d="M151.83,5.62a3.25,3.25,0,0,1,.27-1.37,2.82,2.82,0,0,1,.72-1,2.93,2.93,0,0,1,1-.58,3.24,3.24,0,0,1,1.1-.2,3.29,3.29,0,0,1,1.11.2,3.23,3.23,0,0,1,1,.58,2.9,2.9,0,0,1,.7,1A3.25,3.25,0,0,1,158,5.62v6.76a3.25,3.25,0,0,1-.27,1.39,2.83,2.83,0,0,1-.7,1,2.93,2.93,0,0,1-1,.6,3.29,3.29,0,0,1-1.11.2,3.24,3.24,0,0,1-1.1-.2,2.68,2.68,0,0,1-1-.6,2.75,2.75,0,0,1-.72-1,3.25,3.25,0,0,1-.27-1.39Zm1.83,6.76a1.22,1.22,0,0,0,.37,1,1.39,1.39,0,0,0,1.75,0,1.25,1.25,0,0,0,.37-1V5.62a1.27,1.27,0,0,0-.37-1,1.39,1.39,0,0,0-1.75,0,1.23,1.23,0,0,0-.37,1Z" transform="translate(-0.86 -2.48)"/><path d="M159.6,15.41V2.59h2.72a3.12,3.12,0,0,1,2.4.87,3.38,3.38,0,0,1,.82,2.44v6a3.57,3.57,0,0,1-.87,2.65,3.44,3.44,0,0,1-2.51.86Zm1.84-11.09v9.36h.84a1.35,1.35,0,0,0,1.1-.39,1.82,1.82,0,0,0,.33-1.21V5.9a2,2,0,0,0-.31-1.17,1.33,1.33,0,0,0-1.12-.41Z" transform="translate(-0.86 -2.48)"/><path d="M167.27,15.41V2.59h5.47V4.32h-3.63V8.08h3.16V9.81h-3.16v3.76h3.63v1.84Z" transform="translate(-0.86 -2.48)"/><path d="M173.93,15.41V2.59h1.84v11h3.63v1.84Z" transform="translate(-0.86 -2.48)"/><path d="M180.48,11.32V9.49h1.84v1.83Zm0,4.09V13.57h1.84v1.84Z" transform="translate(-0.86 -2.48)"/><path d="M183.4,5.76V2.59h1.83V4.43Zm2.52,0V2.59h1.83V4.43Z" transform="translate(-0.86 -2.48)"/><path d="M188.83,5.62a3.25,3.25,0,0,1,.27-1.37,2.82,2.82,0,0,1,.72-1,3.14,3.14,0,0,1,1-.58,3.26,3.26,0,0,1,3.22.58,2.9,2.9,0,0,1,.7,1A3.25,3.25,0,0,1,195,5.62v.64h-1.84V5.62a1.23,1.23,0,0,0-.37-1,1.32,1.32,0,0,0-.87-.31,1.34,1.34,0,0,0-.87.31,1.23,1.23,0,0,0-.37,1v6.76a1.22,1.22,0,0,0,.37,1,1.29,1.29,0,0,0,.87.31,1.27,1.27,0,0,0,.87-.31,1.22,1.22,0,0,0,.37-1V10H191.7V8.35H195v4a3.25,3.25,0,0,1-.27,1.39,2.83,2.83,0,0,1-.7,1,3,3,0,0,1-1,.6,3.18,3.18,0,0,1-2.22,0,2.85,2.85,0,0,1-1-.6,2.75,2.75,0,0,1-.72-1,3.25,3.25,0,0,1-.27-1.39Z" transform="translate(-0.86 -2.48)"/><path d="M196.5,5.62a3.25,3.25,0,0,1,.27-1.37,2.82,2.82,0,0,1,.72-1,3.14,3.14,0,0,1,1-.58,3.26,3.26,0,0,1,3.22.58,3,3,0,0,1,.7,1,3.25,3.25,0,0,1,.27,1.37v6.76a3.25,3.25,0,0,1-.27,1.39,3,3,0,0,1-.7,1,3,3,0,0,1-1,.6,3.18,3.18,0,0,1-2.22,0,2.85,2.85,0,0,1-1-.6,2.75,2.75,0,0,1-.72-1,3.25,3.25,0,0,1-.27-1.39Zm1.84,6.76a1.22,1.22,0,0,0,.37,1,1.38,1.38,0,0,0,1.74,0,1.22,1.22,0,0,0,.37-1V5.62a1.23,1.23,0,0,0-.37-1,1.38,1.38,0,0,0-1.74,0,1.23,1.23,0,0,0-.37,1Z" transform="translate(-0.86 -2.48)"/><path d="M204.28,15.41V2.59h1.83v11h3.64v1.84Z" transform="translate(-0.86 -2.48)"/><path d="M210.94,15.41V2.59h2.72a3.15,3.15,0,0,1,2.4.87,3.43,3.43,0,0,1,.82,2.44v6a3.53,3.53,0,0,1-.88,2.65,3.44,3.44,0,0,1-2.51.86Zm1.83-11.09v9.36h.85a1.36,1.36,0,0,0,1.1-.39,1.88,1.88,0,0,0,.32-1.21V5.9a2,2,0,0,0-.3-1.17,1.34,1.34,0,0,0-1.12-.41Z" transform="translate(-0.86 -2.48)"/><path d="M218.07,5.76V2.59h1.83V4.43Zm2.52,0V2.59h1.83V4.43Z" transform="translate(-0.86 -2.48)"/><path d="M58,25.75v.8a2.84,2.84,0,0,1-.23,1.12,3.18,3.18,0,0,1-.62.95,2.94,2.94,0,0,1-.93.65,2.57,2.57,0,0,1-1.14.25A3.93,3.93,0,0,1,54,29.37a2.37,2.37,0,0,1-1-.5,2.68,2.68,0,0,1-.71-.93A3.23,3.23,0,0,1,52,26.49v-7a3.2,3.2,0,0,1,.21-1.17,2.88,2.88,0,0,1,.61-.94,3,3,0,0,1,1-.62A3.18,3.18,0,0,1,55,16.48a2.8,2.8,0,0,1,2.11.85,3.09,3.09,0,0,1,.62,1A3.32,3.32,0,0,1,58,19.54v.72H56.14v-.61a1.43,1.43,0,0,0-.31-.93,1,1,0,0,0-.82-.4.93.93,0,0,0-.91.42,2.29,2.29,0,0,0-.23,1.07v6.56a1.61,1.61,0,0,0,.25.93,1,1,0,0,0,.87.38,1.43,1.43,0,0,0,.39-.06,1.11,1.11,0,0,0,.38-.21A1.08,1.08,0,0,0,56,27a1.58,1.58,0,0,0,.11-.63v-.63Z" transform="translate(-0.86 -2.48)"/><path d="M59.36,19.62a3.25,3.25,0,0,1,.27-1.37,2.82,2.82,0,0,1,.72-1,3.14,3.14,0,0,1,1-.58,3.26,3.26,0,0,1,3.22.58,3,3,0,0,1,.7,1,3.25,3.25,0,0,1,.27,1.37v6.76a3.25,3.25,0,0,1-.27,1.39,3,3,0,0,1-.7.95,3,3,0,0,1-1,.6,3.18,3.18,0,0,1-2.22,0,2.85,2.85,0,0,1-1-.6,2.75,2.75,0,0,1-.72-.95,3.25,3.25,0,0,1-.27-1.39Zm1.84,6.76a1.22,1.22,0,0,0,.37,1,1.38,1.38,0,0,0,1.74,0,1.22,1.22,0,0,0,.37-1V19.62a1.23,1.23,0,0,0-.37-1,1.38,1.38,0,0,0-1.74,0,1.23,1.23,0,0,0-.37,1Z" transform="translate(-0.86 -2.48)"/><path d="M67.14,29.41V16.59h3c2.16,0,3.24,1.26,3.24,3.76A4.82,4.82,0,0,1,73,22.28a2.76,2.76,0,0,1-1.23,1.28l2,5.85h-2l-1.71-5.47H69v5.47ZM69,18.32v4h1a1.83,1.83,0,0,0,.77-.14,1.07,1.07,0,0,0,.45-.39,1.68,1.68,0,0,0,.2-.62,5.4,5.4,0,0,0,0-.85,5.53,5.53,0,0,0,0-.86,1.79,1.79,0,0,0-.22-.64,1.46,1.46,0,0,0-1.29-.5Z" transform="translate(-0.86 -2.48)"/><path d="M74.81,29.41V16.59h5.47v1.73H76.64v3.76h3.17v1.73H76.64v3.76h3.64v1.84Z" transform="translate(-0.86 -2.48)"/><path d="M84.71,19.62A3.25,3.25,0,0,1,85,18.25a2.82,2.82,0,0,1,.72-1,2.93,2.93,0,0,1,1-.58,3.24,3.24,0,0,1,1.1-.2,3.29,3.29,0,0,1,1.11.2,3.23,3.23,0,0,1,1,.58,2.9,2.9,0,0,1,.7,1,3.25,3.25,0,0,1,.27,1.37v6.76a3.25,3.25,0,0,1-.27,1.39,2.83,2.83,0,0,1-.7.95,2.93,2.93,0,0,1-1,.6,3.29,3.29,0,0,1-1.11.2,3.24,3.24,0,0,1-1.1-.2,2.68,2.68,0,0,1-1-.6,2.75,2.75,0,0,1-.72-.95,3.25,3.25,0,0,1-.27-1.39Zm1.83,6.76a1.22,1.22,0,0,0,.37,1,1.39,1.39,0,0,0,1.75,0,1.25,1.25,0,0,0,.37-1V19.62a1.27,1.27,0,0,0-.37-1,1.39,1.39,0,0,0-1.75,0,1.23,1.23,0,0,0-.37,1Z" transform="translate(-0.86 -2.48)"/><path d="M92.48,29.41V16.59H98v1.73H94.32v3.89h3.17v1.73H94.32v5.47Z" transform="translate(-0.86 -2.48)"/><path d="M102.49,29.41V16.59h2.75a4.2,4.2,0,0,1,1.34.2,2.59,2.59,0,0,1,1,.7,2.8,2.8,0,0,1,.65,1.18,7.39,7.39,0,0,1,.18,1.83,9.93,9.93,0,0,1-.1,1.46,3.26,3.26,0,0,1-.42,1.11,2.71,2.71,0,0,1-1,1,3.33,3.33,0,0,1-1.66.35h-.93v5Zm1.84-11.09v4.36h.88a1.82,1.82,0,0,0,.86-.17.9.9,0,0,0,.45-.45,1.6,1.6,0,0,0,.17-.66c0-.27,0-.56,0-.88s0-.59,0-.86a1.73,1.73,0,0,0-.16-.71,1.09,1.09,0,0,0-.43-.47,1.7,1.7,0,0,0-.83-.16Z" transform="translate(-0.86 -2.48)"/><path d="M109.87,29.41V16.59h1.84V29.41Z" transform="translate(-0.86 -2.48)"/><path d="M113.42,29.41V16.59h1.76L118,24.31h0V16.59h1.83V29.41H118.1l-2.81-7.71h0v7.71Z" transform="translate(-0.86 -2.48)"/><path d="M121.48,29.41V16.59H127v1.73h-3.63v3.76h3.16v1.73h-3.16v3.76H127v1.84Z" transform="translate(-0.86 -2.48)"/><path d="M128,30.74V27.57h1.84v1.84Z" transform="translate(-0.86 -2.48)"/><path d="M136,29.41V18.32h-2.12V16.59H140v1.73h-2.12V29.41Z" transform="translate(-0.86 -2.48)"/><path d="M140.49,19.62a3.25,3.25,0,0,1,.27-1.37,2.82,2.82,0,0,1,.72-1,2.93,2.93,0,0,1,1-.58,3.25,3.25,0,0,1,3.21.58,2.9,2.9,0,0,1,.7,1,3.25,3.25,0,0,1,.27,1.37v6.76a3.25,3.25,0,0,1-.27,1.39,2.83,2.83,0,0,1-.7.95,2.93,2.93,0,0,1-1,.6,3.15,3.15,0,0,1-2.21,0,2.68,2.68,0,0,1-1-.6,2.75,2.75,0,0,1-.72-.95,3.25,3.25,0,0,1-.27-1.39Zm1.83,6.76a1.25,1.25,0,0,0,.37,1,1.39,1.39,0,0,0,1.75,0,1.25,1.25,0,0,0,.37-1V19.62a1.27,1.27,0,0,0-.37-1,1.39,1.39,0,0,0-1.75,0,1.27,1.27,0,0,0-.37,1Z" transform="translate(-0.86 -2.48)"/><path d="M148.19,29.41V16.59H150l2.78,7.72h0V16.59h1.84V29.41h-1.73l-2.81-7.71h0v7.71Z" transform="translate(-0.86 -2.48)"/><path d="M156.15,19.62a3.25,3.25,0,0,1,.27-1.37,2.82,2.82,0,0,1,.72-1,2.93,2.93,0,0,1,1-.58,3.24,3.24,0,0,1,1.1-.2,3.29,3.29,0,0,1,1.11.2,3.23,3.23,0,0,1,1,.58,2.9,2.9,0,0,1,.7,1,3.25,3.25,0,0,1,.27,1.37v.64h-1.83v-.64a1.27,1.27,0,0,0-.37-1,1.39,1.39,0,0,0-1.75,0,1.23,1.23,0,0,0-.37,1v6.76a1.22,1.22,0,0,0,.37,1,1.39,1.39,0,0,0,1.75,0,1.25,1.25,0,0,0,.37-1V24H159V22.35h3.29v4a3.25,3.25,0,0,1-.27,1.39,2.83,2.83,0,0,1-.7.95,2.93,2.93,0,0,1-1,.6,3.29,3.29,0,0,1-1.11.2,3.24,3.24,0,0,1-1.1-.2,2.68,2.68,0,0,1-1-.6,2.75,2.75,0,0,1-.72-.95,3.25,3.25,0,0,1-.27-1.39Z" transform="translate(-0.86 -2.48)"/><path d="M169.86,16.59v9.94a2.92,2.92,0,0,1-.22,1.16,3,3,0,0,1-.64.94,3,3,0,0,1-1,.65,2.79,2.79,0,0,1-1.15.24,2.71,2.71,0,0,1-1.14-.24,3.09,3.09,0,0,1-1.59-1.59,2.77,2.77,0,0,1-.24-1.16V16.59h1.84v9.76a1.42,1.42,0,0,0,.32,1,1.13,1.13,0,0,0,.81.32,1.1,1.1,0,0,0,.81-.32,1.38,1.38,0,0,0,.33-1V16.59Z" transform="translate(-0.86 -2.48)"/><path d="M171.59,29.41V16.59h5.47v1.73h-3.63v3.76h3.16v1.73h-3.16v3.76h3.63v1.84Z" transform="translate(-0.86 -2.48)"/><path d="M181.49,19.62a3.25,3.25,0,0,1,.27-1.37,2.82,2.82,0,0,1,.72-1,3,3,0,0,1,1-.58,3.34,3.34,0,0,1,1.11-.2,3.31,3.31,0,0,1,2.1.78,2.92,2.92,0,0,1,.71,1,3.25,3.25,0,0,1,.27,1.37v6.76a3.25,3.25,0,0,1-.27,1.39,2.86,2.86,0,0,1-.71.95,2.93,2.93,0,0,1-1,.6,3.24,3.24,0,0,1-1.1.2,3.34,3.34,0,0,1-1.11-.2,3.16,3.16,0,0,1-1.7-1.55,3.25,3.25,0,0,1-.27-1.39Zm1.84,6.76a1.25,1.25,0,0,0,.36,1,1.39,1.39,0,0,0,1.75,0,1.22,1.22,0,0,0,.37-1V19.62a1.23,1.23,0,0,0-.37-1,1.39,1.39,0,0,0-1.75,0,1.26,1.26,0,0,0-.36,1Z" transform="translate(-0.86 -2.48)"/><path d="M189.27,29.41V16.59h5.47v1.73H191.1v3.89h3.17v1.73H191.1v5.47Z" transform="translate(-0.86 -2.48)"/><path d="M199.27,29.41V16.59H201l2.36,6.79h0l2.34-6.79h1.78V29.41h-1.83v-7.8h0l-1.82,5.51H203l-1.8-5.51h0v7.8Z" transform="translate(-0.86 -2.48)"/><path d="M209.28,29.41V16.59H212a3.14,3.14,0,0,1,2.4.87,3.38,3.38,0,0,1,.82,2.44v6a3.57,3.57,0,0,1-.87,2.65,3.44,3.44,0,0,1-2.51.86Zm1.84-11.09v9.36H212a1.35,1.35,0,0,0,1.1-.39,1.83,1.83,0,0,0,.32-1.21V19.9a2,2,0,0,0-.3-1.17,1.33,1.33,0,0,0-1.12-.41Z" transform="translate(-0.86 -2.48)"/><path d="M217,29.41V16.59h5.47v1.73h-3.63v3.89H222v1.73h-3.16v5.47Z" transform="translate(-0.86 -2.48)"/><path d="M.86,43.41V30.59h3c2.16,0,3.24,1.26,3.24,3.76a4.82,4.82,0,0,1-.35,1.93,2.78,2.78,0,0,1-1.24,1.28l2,5.85H5.51L3.8,37.94H2.7v5.47ZM2.7,32.32v4h1a1.84,1.84,0,0,0,.78-.14A1.07,1.07,0,0,0,5,35.79a1.88,1.88,0,0,0,.2-.62,7,7,0,0,0,0-.85,7.12,7.12,0,0,0,0-.86A1.79,1.79,0,0,0,5,32.82a1.48,1.48,0,0,0-1.3-.5Z" transform="translate(-0.86 -2.48)"/><path d="M8.53,43.41V30.59H14v1.73H10.37v3.76h3.17v1.73H10.37v3.76H14v1.84Z" transform="translate(-0.86 -2.48)"/><path d="M15.19,43.41V30.59h2.72a3.12,3.12,0,0,1,2.4.87,3.38,3.38,0,0,1,.82,2.44v6a3.57,3.57,0,0,1-.87,2.65,3.44,3.44,0,0,1-2.51.86ZM17,32.32v9.36h.84a1.35,1.35,0,0,0,1.1-.39,1.82,1.82,0,0,0,.33-1.21V33.9A2,2,0,0,0,19,32.73a1.33,1.33,0,0,0-1.12-.41Z" transform="translate(-0.86 -2.48)"/><path d="M22.75,44.74V41.57h1.84v1.84Z" transform="translate(-0.86 -2.48)"/><path d="M39.08,30.59,37.17,43.41H35.44L34,35.09h0l-1.38,8.32H30.89L29,30.59h1.94l.92,8.14h0l1.44-8.14h1.4l1.5,8.34h0l.88-8.34Z" transform="translate(-0.86 -2.48)"/><path d="M40.23,43.41V30.59h1.84v5.49h2.26V30.59h1.84V43.41H44.33V37.7H42.07v5.71Z" transform="translate(-0.86 -2.48)"/><path d="M48,43.41V30.59h1.84V43.41Z" transform="translate(-0.86 -2.48)"/><path d="M52.77,43.41V32.32H50.65V30.59h6.08v1.73H54.61V43.41Z" transform="translate(-0.86 -2.48)"/><path d="M57.54,43.41V30.59H63v1.73H59.38v3.76h3.17v1.73H59.38v3.76H63v1.84Z" transform="translate(-0.86 -2.48)"/><path d="M66.72,43.41l2.87-12.82h1.53L74,43.41H72.14l-.54-2.76H69.1l-.54,2.76Zm4.54-4.48-.9-4.65h0l-.9,4.65Z" transform="translate(-0.86 -2.48)"/><path d="M74.81,43.41V30.59h1.76l2.77,7.72h0V30.59h1.83V43.41H79.49L76.68,35.7h0v7.71Z" transform="translate(-0.86 -2.48)"/><path d="M82.87,43.41V30.59h2.72a3.15,3.15,0,0,1,2.4.87,3.38,3.38,0,0,1,.82,2.44v6a3.57,3.57,0,0,1-.87,2.65,3.46,3.46,0,0,1-2.51.86Zm1.84-11.09v9.36h.84a1.36,1.36,0,0,0,1.1-.39A1.83,1.83,0,0,0,87,40.08V33.9a2,2,0,0,0-.3-1.17,1.34,1.34,0,0,0-1.12-.41Z" transform="translate(-0.86 -2.48)"/><path d="M93.78,33.62a3.25,3.25,0,0,1,.27-1.37,2.82,2.82,0,0,1,.72-1,3,3,0,0,1,1-.58,3.25,3.25,0,0,1,3.21.58,2.9,2.9,0,0,1,.7,1,3.25,3.25,0,0,1,.27,1.37v.64H98.1v-.64a1.27,1.27,0,0,0-.37-1,1.39,1.39,0,0,0-1.75,0,1.27,1.27,0,0,0-.37,1v6.76a1.25,1.25,0,0,0,.37,1,1.39,1.39,0,0,0,1.75,0,1.25,1.25,0,0,0,.37-1V38H96.64V36.35h3.29v4a3.25,3.25,0,0,1-.27,1.39,2.83,2.83,0,0,1-.7.95,2.93,2.93,0,0,1-1,.6,3.15,3.15,0,0,1-2.21,0,3.16,3.16,0,0,1-1.7-1.55,3.25,3.25,0,0,1-.27-1.39Z" transform="translate(-0.86 -2.48)"/><path d="M101.45,33.62a3.25,3.25,0,0,1,.27-1.37,2.82,2.82,0,0,1,.72-1,2.93,2.93,0,0,1,1-.58,3.24,3.24,0,0,1,1.1-.2,3.29,3.29,0,0,1,1.11.2,3.23,3.23,0,0,1,1,.58,2.9,2.9,0,0,1,.7,1,3.25,3.25,0,0,1,.27,1.37v6.76a3.25,3.25,0,0,1-.27,1.39,2.83,2.83,0,0,1-.7.95,2.93,2.93,0,0,1-1,.6,3.29,3.29,0,0,1-1.11.2,3.24,3.24,0,0,1-1.1-.2,2.68,2.68,0,0,1-1-.6,2.75,2.75,0,0,1-.72-.95,3.25,3.25,0,0,1-.27-1.39Zm1.83,6.76a1.22,1.22,0,0,0,.37,1,1.39,1.39,0,0,0,1.75,0,1.25,1.25,0,0,0,.37-1V33.62a1.27,1.27,0,0,0-.37-1,1.39,1.39,0,0,0-1.75,0,1.23,1.23,0,0,0-.37,1Z" transform="translate(-0.86 -2.48)"/><path d="M109.22,43.41V30.59h1.84v11h3.63v1.84Z" transform="translate(-0.86 -2.48)"/><path d="M115.88,43.41V30.59h2.72a3.12,3.12,0,0,1,2.4.87,3.38,3.38,0,0,1,.82,2.44v6a3.57,3.57,0,0,1-.87,2.65,3.44,3.44,0,0,1-2.51.86Zm1.84-11.09v9.36h.84a1.35,1.35,0,0,0,1.1-.39,1.82,1.82,0,0,0,.33-1.21V33.9a2,2,0,0,0-.31-1.17,1.33,1.33,0,0,0-1.12-.41Z" transform="translate(-0.86 -2.48)"/><path d="M123.44,44.74V41.57h1.84v1.84Z" transform="translate(-0.86 -2.48)"/><path d="M130.14,33.62a3.25,3.25,0,0,1,.27-1.37,2.82,2.82,0,0,1,.72-1,3,3,0,0,1,1-.58,3.25,3.25,0,0,1,3.21.58,2.9,2.9,0,0,1,.7,1,3.25,3.25,0,0,1,.27,1.37v.64h-1.83v-.64a1.27,1.27,0,0,0-.37-1,1.39,1.39,0,0,0-1.75,0,1.27,1.27,0,0,0-.37,1v6.76a1.25,1.25,0,0,0,.37,1,1.39,1.39,0,0,0,1.75,0,1.25,1.25,0,0,0,.37-1V38H133V36.35h3.29v4a3.25,3.25,0,0,1-.27,1.39,2.83,2.83,0,0,1-.7.95,2.93,2.93,0,0,1-1,.6,3.15,3.15,0,0,1-2.21,0,3.16,3.16,0,0,1-1.7-1.55,3.25,3.25,0,0,1-.27-1.39Z" transform="translate(-0.86 -2.48)"/><path d="M137.91,43.41V30.59h1.84v11h3.63v1.84Z" transform="translate(-0.86 -2.48)"/><path d="M144.46,33.62a3.41,3.41,0,0,1,.27-1.37,2.84,2.84,0,0,1,.73-1,2.93,2.93,0,0,1,1-.58,3.24,3.24,0,0,1,1.1-.2,3.29,3.29,0,0,1,1.11.2,3.23,3.23,0,0,1,1,.58,2.9,2.9,0,0,1,.7,1,3.25,3.25,0,0,1,.27,1.37v6.76a3.25,3.25,0,0,1-.27,1.39,2.83,2.83,0,0,1-.7.95,2.93,2.93,0,0,1-1,.6,3.29,3.29,0,0,1-1.11.2,3.24,3.24,0,0,1-1.1-.2,2.68,2.68,0,0,1-1-.6,2.78,2.78,0,0,1-.73-.95,3.41,3.41,0,0,1-.27-1.39Zm1.84,6.76a1.22,1.22,0,0,0,.37,1,1.39,1.39,0,0,0,1.75,0,1.25,1.25,0,0,0,.37-1V33.62a1.27,1.27,0,0,0-.37-1,1.39,1.39,0,0,0-1.75,0,1.23,1.23,0,0,0-.37,1Z" transform="translate(-0.86 -2.48)"/><path d="M158.18,34.28h-1.84v-.41a1.93,1.93,0,0,0-.29-1.09,1.09,1.09,0,0,0-1-.46,1.09,1.09,0,0,0-1,.5,1.59,1.59,0,0,0-.2.54,4,4,0,0,0-.05.62c0,.25,0,.46,0,.63a1.39,1.39,0,0,0,.14.45,1.1,1.1,0,0,0,.31.34,3.7,3.7,0,0,0,.57.29l1.4.55a3.74,3.74,0,0,1,1,.55,2.56,2.56,0,0,1,.59.73,3.61,3.61,0,0,1,.27,1,9.49,9.49,0,0,1,.07,1.25,6.6,6.6,0,0,1-.16,1.51,3.26,3.26,0,0,1-.52,1.18,2.67,2.67,0,0,1-1,.79,3.55,3.55,0,0,1-1.5.29,3.19,3.19,0,0,1-1.24-.24,2.89,2.89,0,0,1-1-.65,3.1,3.1,0,0,1-.66-1,3,3,0,0,1-.24-1.2v-.68h1.84v.58a1.56,1.56,0,0,0,.29.91,1.18,1.18,0,0,0,1,.4,1.6,1.6,0,0,0,.73-.14.89.89,0,0,0,.41-.38,1.56,1.56,0,0,0,.17-.61c0-.23,0-.49,0-.78s0-.61,0-.83a1.62,1.62,0,0,0-.14-.52,1,1,0,0,0-.34-.32,3.13,3.13,0,0,0-.55-.27L154,37.29A2.91,2.91,0,0,1,152.38,36a4.41,4.41,0,0,1-.41-2,4.66,4.66,0,0,1,.2-1.36,3.07,3.07,0,0,1,.59-1.12,2.9,2.9,0,0,1,1-.75,3.28,3.28,0,0,1,1.39-.28,3,3,0,0,1,1.25.26,3.08,3.08,0,0,1,1,.66,2.81,2.81,0,0,1,.83,2Z" transform="translate(-0.86 -2.48)"/><path d="M165.49,34.28h-1.84v-.41a2,2,0,0,0-.29-1.09,1.1,1.1,0,0,0-1-.46,1.24,1.24,0,0,0-.62.14,1.27,1.27,0,0,0-.37.36,1.4,1.4,0,0,0-.2.54,3,3,0,0,0-.06.62,5.53,5.53,0,0,0,0,.63,1.18,1.18,0,0,0,.14.45,1,1,0,0,0,.31.34,3.7,3.7,0,0,0,.57.29l1.4.55a3.52,3.52,0,0,1,1,.55,2.6,2.6,0,0,1,.6.73,3.61,3.61,0,0,1,.27,1,11.59,11.59,0,0,1,.07,1.25,7.21,7.21,0,0,1-.16,1.51,3.27,3.27,0,0,1-.53,1.18,2.59,2.59,0,0,1-1,.79,3.47,3.47,0,0,1-1.49.29,3.19,3.19,0,0,1-1.24-.24,2.71,2.71,0,0,1-1-.65,3,3,0,0,1-.9-2.16v-.68H161v.58a1.51,1.51,0,0,0,.3.91,1.18,1.18,0,0,0,1,.4,1.6,1.6,0,0,0,.73-.14.87.87,0,0,0,.4-.38,1.41,1.41,0,0,0,.18-.61c0-.23,0-.49,0-.78s0-.61,0-.83a1.61,1.61,0,0,0-.15-.52.92.92,0,0,0-.33-.32,3.13,3.13,0,0,0-.55-.27l-1.31-.54a2.9,2.9,0,0,1-1.6-1.29,4.41,4.41,0,0,1-.4-2,4.35,4.35,0,0,1,.2-1.36,3.07,3.07,0,0,1,.59-1.12,2.77,2.77,0,0,1,1-.75,3.33,3.33,0,0,1,1.4-.28,3,3,0,0,1,1.25.26,3.19,3.19,0,0,1,1,.66,2.81,2.81,0,0,1,.83,2Z" transform="translate(-0.86 -2.48)"/><path d="M168.57,43.41V38l-2.52-7.4H168l1.48,5.1h0l1.48-5.1h1.94L170.4,38v5.42Z" transform="translate(-0.86 -2.48)"/><path d="M183,39.75v.8a2.83,2.83,0,0,1-.22,1.12,3.08,3.08,0,0,1-1.55,1.6,2.65,2.65,0,0,1-1.15.25,4,4,0,0,1-1.06-.15,2.43,2.43,0,0,1-1-.5,2.68,2.68,0,0,1-.71-.93,3.23,3.23,0,0,1-.28-1.45V33.44a3,3,0,0,1,.22-1.17,2.59,2.59,0,0,1,.61-.94,2.9,2.9,0,0,1,.94-.62,3.19,3.19,0,0,1,1.22-.23,2.79,2.79,0,0,1,2.1.85,3,3,0,0,1,.63,1,3.32,3.32,0,0,1,.22,1.23v.72h-1.84v-.61a1.48,1.48,0,0,0-.3-.93,1,1,0,0,0-.83-.4.93.93,0,0,0-.91.42,2.29,2.29,0,0,0-.22,1.07v6.56a1.69,1.69,0,0,0,.24.93,1,1,0,0,0,.87.38,1.43,1.43,0,0,0,.39-.06,1.06,1.06,0,0,0,.39-.21,1.4,1.4,0,0,0,.27-.4,1.6,1.6,0,0,0,.1-.63v-.63Z" transform="translate(-0.86 -2.48)"/><path d="M184.41,33.62a3.25,3.25,0,0,1,.27-1.37,2.82,2.82,0,0,1,.72-1,2.93,2.93,0,0,1,1-.58,3.24,3.24,0,0,1,1.1-.2,3.29,3.29,0,0,1,1.11.2,3.23,3.23,0,0,1,1,.58,2.9,2.9,0,0,1,.7,1,3.25,3.25,0,0,1,.27,1.37v6.76a3.25,3.25,0,0,1-.27,1.39,2.83,2.83,0,0,1-.7.95,2.93,2.93,0,0,1-1,.6,3.29,3.29,0,0,1-1.11.2,3.24,3.24,0,0,1-1.1-.2,2.68,2.68,0,0,1-1-.6,2.75,2.75,0,0,1-.72-.95,3.25,3.25,0,0,1-.27-1.39Zm1.83,6.76a1.22,1.22,0,0,0,.37,1,1.39,1.39,0,0,0,1.75,0,1.25,1.25,0,0,0,.37-1V33.62a1.27,1.27,0,0,0-.37-1,1.39,1.39,0,0,0-1.75,0,1.23,1.23,0,0,0-.37,1Z" transform="translate(-0.86 -2.48)"/><path d="M191.14,43.41,194,30.59h1.53l2.86,12.82h-1.83L196,40.65h-2.51L193,43.41Zm4.53-4.48-.9-4.65h0l-.9,4.65Z" transform="translate(-0.86 -2.48)"/><path d="M199.51,43.41V32.32h-2.13V30.59h6.09v1.73h-2.13V43.41Z" transform="translate(-0.86 -2.48)"/><path d="M204.33,43.41V30.59h1.84V43.41Z" transform="translate(-0.86 -2.48)"/><path d="M207.88,43.41V30.59h1.76l2.77,7.72h0V30.59h1.84V43.41h-1.73l-2.81-7.71h0v7.71Z" transform="translate(-0.86 -2.48)"/><path d="M215.83,33.62a3.25,3.25,0,0,1,.27-1.37,2.82,2.82,0,0,1,.72-1,3.14,3.14,0,0,1,1-.58,3.26,3.26,0,0,1,3.22.58,2.9,2.9,0,0,1,.7,1,3.25,3.25,0,0,1,.27,1.37v.64h-1.84v-.64a1.23,1.23,0,0,0-.37-1,1.32,1.32,0,0,0-.87-.31,1.34,1.34,0,0,0-.87.31,1.23,1.23,0,0,0-.37,1v6.76a1.22,1.22,0,0,0,.37,1,1.29,1.29,0,0,0,.87.31,1.27,1.27,0,0,0,.87-.31,1.22,1.22,0,0,0,.37-1V38H218.7V36.35H222v4a3.25,3.25,0,0,1-.27,1.39,2.83,2.83,0,0,1-.7.95,3,3,0,0,1-1,.6,3.18,3.18,0,0,1-2.22,0,2.85,2.85,0,0,1-1-.6,2.75,2.75,0,0,1-.72-.95,3.25,3.25,0,0,1-.27-1.39Z" transform="translate(-0.86 -2.48)"/><path d="M41.92,57.41V44.59h1.84v11h3.63v1.84Z" transform="translate(-0.86 -2.48)"/><path d="M48.58,57.41V44.59h5.47v1.73H50.42v3.76h3.16v1.73H50.42v3.76h3.63v1.84Z" transform="translate(-0.86 -2.48)"/><path d="M55.17,57.41V44.59h1.76l2.77,7.72h0V44.59h1.84V57.41H59.85L57,49.7h0v7.71Z" transform="translate(-0.86 -2.48)"/><path d="M63.12,47.62a3.25,3.25,0,0,1,.27-1.37,2.82,2.82,0,0,1,.72-1,3.07,3.07,0,0,1,1-.58,3.24,3.24,0,0,1,1.1-.2,3.34,3.34,0,0,1,1.11.2,3.23,3.23,0,0,1,1,.58,2.9,2.9,0,0,1,.7,1,3.25,3.25,0,0,1,.27,1.37v.64H67.44v-.64a1.26,1.26,0,0,0-.36-1,1.39,1.39,0,0,0-1.75,0,1.23,1.23,0,0,0-.37,1v6.76a1.22,1.22,0,0,0,.37,1,1.39,1.39,0,0,0,1.75,0,1.25,1.25,0,0,0,.36-1V52H66V50.35h3.29v4A3.25,3.25,0,0,1,69,55.77a2.83,2.83,0,0,1-.7.95,2.93,2.93,0,0,1-1,.6,3.34,3.34,0,0,1-1.11.2,3.24,3.24,0,0,1-1.1-.2,2.8,2.8,0,0,1-1-.6,2.75,2.75,0,0,1-.72-.95,3.25,3.25,0,0,1-.27-1.39Z" transform="translate(-0.86 -2.48)"/><path d="M72.11,57.41V46.32H70V44.59h6.09v1.73H73.94V57.41Z" transform="translate(-0.86 -2.48)"/><path d="M76.88,57.41V44.59h1.83v5.49H81V44.59h1.84V57.41H81V51.7H78.71v5.71Z" transform="translate(-0.86 -2.48)"/><path d="M84.44,53.32V51.49h1.83v1.83Zm0,4.09V55.57h1.83v1.84Z" transform="translate(-0.86 -2.48)"/><path d="M91,57.41V55.68l3.31-6.25a2.35,2.35,0,0,0,.29-.81c0-.24,0-.53,0-.88,0-.15,0-.32,0-.49a1.08,1.08,0,0,0-.09-.46.79.79,0,0,0-.27-.33.88.88,0,0,0-.53-.14.92.92,0,0,0-.65.23.9.9,0,0,0-.25.69v1H91v-1a2.81,2.81,0,0,1,.21-1.08,3,3,0,0,1,.6-.88,2.77,2.77,0,0,1,.86-.6,2.65,2.65,0,0,1,1.08-.23,2.6,2.6,0,0,1,1.23.27,2.38,2.38,0,0,1,.86.71,3.19,3.19,0,0,1,.48,1,4.88,4.88,0,0,1,.15,1.23c0,.31,0,.57,0,.78a3.79,3.79,0,0,1-.07.6,3.22,3.22,0,0,1-.18.58c-.08.19-.2.42-.34.7l-2.7,5.2h3.31v1.84Z" transform="translate(-0.86 -2.48)"/><path d="M97.68,47.24a2.78,2.78,0,0,1,.23-1.15,2.7,2.7,0,0,1,.6-.87,2.63,2.63,0,0,1,.87-.55,3,3,0,0,1,1-.19,3,3,0,0,1,1,.19,2.67,2.67,0,0,1,.88.55,2.7,2.7,0,0,1,.6.87,2.78,2.78,0,0,1,.23,1.15v7.52a2.78,2.78,0,0,1-.23,1.15,2.7,2.7,0,0,1-.6.87,2.67,2.67,0,0,1-.88.55,3,3,0,0,1-1,.19,3,3,0,0,1-1-.19,2.63,2.63,0,0,1-.87-.55,2.7,2.7,0,0,1-.6-.87,2.78,2.78,0,0,1-.23-1.15Zm1.84,7.52a.9.9,0,1,0,1.8,0V47.24a.91.91,0,0,0-.25-.66.94.94,0,0,0-1.3,0,.91.91,0,0,0-.25.66Z" transform="translate(-0.86 -2.48)"/><path d="M106.47,54.78a.9.9,0,0,0,.24.67.93.93,0,0,0,.66.23.71.71,0,0,0,.69-.31,1.77,1.77,0,0,0,.21-.61h1.83a2.6,2.6,0,0,1-1.6,2.54,2.88,2.88,0,0,1-1.13.22,2.81,2.81,0,0,1-1.47-.36,2.45,2.45,0,0,1-1.2-1.79,6.45,6.45,0,0,1-.07-1v-3a6.45,6.45,0,0,1,.07-1,2.45,2.45,0,0,1,1.2-1.79,2.81,2.81,0,0,1,1.47-.36,3,3,0,0,1,1.14.22,2.53,2.53,0,0,1,.87.59,3.07,3.07,0,0,1,.72,2.11h-1.83a1.15,1.15,0,0,0-.25-.82,1,1,0,0,0-1.31,0,1.14,1.14,0,0,0-.24.78Z" transform="translate(-0.86 -2.48)"/><path d="M111.18,57.41V48.28H113v.88h0a2.74,2.74,0,0,1,.69-.71,1.81,1.81,0,0,1,1-.28,1.64,1.64,0,0,1,1,.29,2.79,2.79,0,0,1,.65.63,3.91,3.91,0,0,1,.76-.65,2.08,2.08,0,0,1,1.15-.27,2.19,2.19,0,0,1,.7.12,1.74,1.74,0,0,1,.65.39,2.05,2.05,0,0,1,.47.69,2.66,2.66,0,0,1,.18,1v7h-1.84V51.09a1.24,1.24,0,0,0-.23-.79.83.83,0,0,0-.67-.29.78.78,0,0,0-.72.32,1.85,1.85,0,0,0-.2.94v6.14h-1.83V51.09a1.18,1.18,0,0,0-.24-.79.79.79,0,0,0-.66-.29.78.78,0,0,0-.72.32,1.75,1.75,0,0,0-.2.94v6.14Z" transform="translate(-0.86 -2.48)"/><path d="M134.82,44.59l-1.91,12.82h-1.73l-1.4-8.32h0l-1.39,8.32h-1.72l-1.91-12.82h1.94l.92,8.14h0l1.44-8.14h1.4L132,52.93h0l.88-8.34Z" transform="translate(-0.86 -2.48)"/><path d="M136,57.41V44.59h5.47v1.73H137.8v3.76H141v1.73H137.8v3.76h3.64v1.84Z" transform="translate(-0.86 -2.48)"/><path d="M142.68,57.41V44.59h1.84V57.41Z" transform="translate(-0.86 -2.48)"/><path d="M146.19,47.62a3.25,3.25,0,0,1,.27-1.37,2.82,2.82,0,0,1,.72-1,3.14,3.14,0,0,1,1-.58,3.26,3.26,0,0,1,3.22.58,3,3,0,0,1,.7,1,3.25,3.25,0,0,1,.27,1.37v.64h-1.84v-.64a1.23,1.23,0,0,0-.37-1,1.38,1.38,0,0,0-1.74,0,1.23,1.23,0,0,0-.37,1v6.76a1.22,1.22,0,0,0,.37,1,1.38,1.38,0,0,0,1.74,0,1.22,1.22,0,0,0,.37-1V52h-1.46V50.35h3.3v4a3.25,3.25,0,0,1-.27,1.39,3,3,0,0,1-.7.95,3,3,0,0,1-1,.6,3.18,3.18,0,0,1-2.22,0,2.85,2.85,0,0,1-1-.6,2.75,2.75,0,0,1-.72-.95,3.25,3.25,0,0,1-.27-1.39Z" transform="translate(-0.86 -2.48)"/><path d="M154,57.41V44.59h1.83v5.49h2.27V44.59h1.84V57.41h-1.84V51.7H155.8v5.71Z" transform="translate(-0.86 -2.48)"/><path d="M162.84,57.41V46.32h-2.12V44.59h6.08v1.73h-2.12V57.41Z" transform="translate(-0.86 -2.48)"/><path d="M172.89,57.41V46.54l-1.84,1.35v-2l1.84-1.35h1.83V57.41Z" transform="translate(-0.86 -2.48)"/><path d="M178.07,57.41,180.16,52l0,0a.67.67,0,0,1-.28.12,2.19,2.19,0,0,1-.49,0,1.83,1.83,0,0,1-.9-.23,1.89,1.89,0,0,1-.65-.6,1.52,1.52,0,0,1-.2-.38,2.87,2.87,0,0,1-.11-.53,7.64,7.64,0,0,1-.07-.82c0-.33,0-.75,0-1.25s0-.77,0-1a5.7,5.7,0,0,1,.07-.69,2.47,2.47,0,0,1,.12-.47,2.28,2.28,0,0,1,.21-.41,2.42,2.42,0,0,1,1-.92,2.79,2.79,0,0,1,1.36-.33,2.76,2.76,0,0,1,1.35.34,2.51,2.51,0,0,1,.95.91,3.32,3.32,0,0,1,.22.41,1.86,1.86,0,0,1,.14.47,5.92,5.92,0,0,1,.06.69c0,.27,0,.62,0,1s0,.72,0,1a5.17,5.17,0,0,1-.06.65,4.66,4.66,0,0,1-.11.52c-.05.15-.1.31-.16.47l-2.41,6.45Zm1.17-7.8a.87.87,0,0,0,.27.67.92.92,0,0,0,1.26,0,.87.87,0,0,0,.27-.67V47.24a.87.87,0,0,0-.27-.67.92.92,0,0,0-1.26,0,.87.87,0,0,0-.27.67Z" transform="translate(-0.86 -2.48)"/><path d="M184.1,47.24a2.78,2.78,0,0,1,.22-1.15,2.73,2.73,0,0,1,.61-.87,2.63,2.63,0,0,1,.87-.55,3,3,0,0,1,1-.19,3,3,0,0,1,1,.19,2.63,2.63,0,0,1,.87.55,2.58,2.58,0,0,1,.61.87,2.78,2.78,0,0,1,.22,1.15v7.52a2.78,2.78,0,0,1-.22,1.15,2.58,2.58,0,0,1-.61.87,2.63,2.63,0,0,1-.87.55,3,3,0,0,1-1,.19,3,3,0,0,1-1-.19,2.63,2.63,0,0,1-.87-.55,2.73,2.73,0,0,1-.61-.87,2.78,2.78,0,0,1-.22-1.15Zm1.84,7.52a.89.89,0,0,0,.25.66.93.93,0,0,0,1.29,0,.9.9,0,0,0,.26-.66V47.24a.91.91,0,0,0-.26-.66.93.93,0,0,0-1.29,0,.91.91,0,0,0-.25.66Z" transform="translate(-0.86 -2.48)"/><path d="M196.12,58.47a1.07,1.07,0,0,0,.26.61.9.9,0,0,0,.72.29.71.71,0,0,0,.64-.28,1.15,1.15,0,0,0,.2-.71v-1.8h0a2.27,2.27,0,0,1-.73.69,1.88,1.88,0,0,1-1,.25,1.66,1.66,0,0,1-1.61-.87,2.66,2.66,0,0,1-.23-.75,7.86,7.86,0,0,1-.07-1.21V51.22c0-.66,0-1.15.05-1.46a1.72,1.72,0,0,1,.85-1.35,1.79,1.79,0,0,1,1-.24,2,2,0,0,1,.59.08,1.58,1.58,0,0,1,.44.19,2.6,2.6,0,0,1,.36.3l.34.37v-.83h1.84V58.52a2.87,2.87,0,0,1-.16.95,2.2,2.2,0,0,1-.49.85,2.52,2.52,0,0,1-.86.64,3,3,0,0,1-2.11.11,2.2,2.2,0,0,1-.83-.46,2.51,2.51,0,0,1-.67-.82,3.5,3.5,0,0,1-.37-1.32Zm0-3.87a1.56,1.56,0,0,0,.19.76.77.77,0,0,0,.71.32.84.84,0,0,0,.66-.28,1,1,0,0,0,.26-.71V51.14a1.24,1.24,0,0,0-.25-.81A.82.82,0,0,0,197,50a.74.74,0,0,0-.68.34,1.71,1.71,0,0,0-.22.9Z" transform="translate(-0.86 -2.48)"/><path d="M201.29,57.41V48.28h1.83v1a6,6,0,0,1,1.1-.79,2.86,2.86,0,0,1,1.34-.29v1.95A1.55,1.55,0,0,0,205,50a2.05,2.05,0,0,0-.62.1,1.72,1.72,0,0,0-.61.33,1.67,1.67,0,0,0-.46.61,2.22,2.22,0,0,0-.19.94v5.42Z" transform="translate(-0.86 -2.48)"/><path d="M209.66,57.41v-.94h0a3.26,3.26,0,0,1-.73.78,1.71,1.71,0,0,1-1,.27,2.51,2.51,0,0,1-.66-.1,1.83,1.83,0,0,1-.64-.37,1.74,1.74,0,0,1-.49-.73,3.31,3.31,0,0,1-.19-1.23,6.09,6.09,0,0,1,.13-1.36,2.18,2.18,0,0,1,.46-1,1.88,1.88,0,0,1,.88-.57,4.46,4.46,0,0,1,1.43-.19h.2l.19,0,.22,0h.27v-.95a1.4,1.4,0,0,0-.2-.77.78.78,0,0,0-.72-.31,1.08,1.08,0,0,0-.66.23,1.17,1.17,0,0,0-.38.69h-1.78a2.89,2.89,0,0,1,.82-2,2.63,2.63,0,0,1,.87-.57,2.88,2.88,0,0,1,1.13-.21,3.22,3.22,0,0,1,1.08.18,2.41,2.41,0,0,1,.88.54,2.59,2.59,0,0,1,.58.9,3.46,3.46,0,0,1,.22,1.26v6.36Zm0-3.93a3.64,3.64,0,0,0-.5,0,1.77,1.77,0,0,0-1,.28,1.13,1.13,0,0,0-.42,1,1.31,1.31,0,0,0,.25.84.83.83,0,0,0,.7.33.94.94,0,0,0,.73-.31,1.3,1.3,0,0,0,.26-.86Z" transform="translate(-0.86 -2.48)"/><path d="M212.84,57.41V48.28h1.84v.88h0a2.74,2.74,0,0,1,.69-.71,1.81,1.81,0,0,1,1-.28,1.69,1.69,0,0,1,1,.29,3,3,0,0,1,.64.63,3.91,3.91,0,0,1,.76-.65,2.08,2.08,0,0,1,1.15-.27,2.19,2.19,0,0,1,.7.12,1.74,1.74,0,0,1,.65.39,2.05,2.05,0,0,1,.47.69,2.66,2.66,0,0,1,.18,1v7h-1.84V51.09a1.24,1.24,0,0,0-.23-.79.83.83,0,0,0-.67-.29.78.78,0,0,0-.72.32,1.85,1.85,0,0,0-.2.94v6.14H216.5V51.09a1.18,1.18,0,0,0-.24-.79.79.79,0,0,0-.66-.29.78.78,0,0,0-.72.32,1.85,1.85,0,0,0-.2.94v6.14Z" transform="translate(-0.86 -2.48)"/><path d="M63.16,71.41V58.59H65v5.49h2.26V58.59H69.1V71.41H67.26V65.7H65v5.71Z" transform="translate(-0.86 -2.48)"/><path d="M70,71.41l2.86-12.82h1.53l2.86,12.82H75.42l-.54-2.76h-2.5l-.55,2.76Zm4.53-4.48-.9-4.65h0l-.9,4.65Z" transform="translate(-0.86 -2.48)"/><path d="M78.08,71.41V58.59h1.76l2.78,7.72h0V58.59h1.84V71.41H82.76L80,63.7h0v7.71Z" transform="translate(-0.86 -2.48)"/><path d="M86.14,71.41V58.59h2.72a3.16,3.16,0,0,1,2.41.87,3.42,3.42,0,0,1,.81,2.44v6a3.57,3.57,0,0,1-.87,2.65,3.44,3.44,0,0,1-2.51.86ZM88,60.32v9.36h.85a1.34,1.34,0,0,0,1.09-.39,1.82,1.82,0,0,0,.33-1.21V61.9a1.91,1.91,0,0,0-.31-1.17,1.3,1.3,0,0,0-1.11-.41Z" transform="translate(-0.86 -2.48)"/><path d="M93.81,71.41V58.59h1.77l2.35,6.79h0l2.34-6.79h1.78V71.41h-1.83v-7.8h0L98.4,69.12h-.92l-1.8-5.51h0v7.8Z" transform="translate(-0.86 -2.48)"/><path d="M103,71.41l2.86-12.82h1.53l2.87,12.82h-1.84l-.54-2.76h-2.5l-.54,2.76Zm4.54-4.48-.9-4.65h0l-.9,4.65Z" transform="translate(-0.86 -2.48)"/><path d="M111.15,71.41V58.59h2.71a3.16,3.16,0,0,1,2.41.87,3.43,3.43,0,0,1,.82,2.44v6a3.57,3.57,0,0,1-.88,2.65,3.44,3.44,0,0,1-2.51.86ZM113,60.32v9.36h.85a1.37,1.37,0,0,0,1.1-.39,1.88,1.88,0,0,0,.32-1.21V61.9a1.91,1.91,0,0,0-.31-1.17,1.3,1.3,0,0,0-1.11-.41Z" transform="translate(-0.86 -2.48)"/><path d="M118.81,71.41V58.59h5.48v1.73h-3.64v3.76h3.17v1.73h-3.17v3.76h3.64v1.84Z" transform="translate(-0.86 -2.48)"/><path d="M128.75,67.34V65.5h5.42v1.84Z" transform="translate(-0.86 -2.48)"/><path d="M139.17,71.41V58.59h2.72a3.12,3.12,0,0,1,2.4.87,3.38,3.38,0,0,1,.82,2.44v6a3.57,3.57,0,0,1-.87,2.65,3.44,3.44,0,0,1-2.51.86ZM141,60.32v9.36h.84a1.35,1.35,0,0,0,1.1-.39,1.82,1.82,0,0,0,.33-1.21V61.9a2,2,0,0,0-.31-1.17,1.33,1.33,0,0,0-1.12-.41Z" transform="translate(-0.86 -2.48)"/><path d="M145.8,71.41l2.86-12.82h1.53l2.86,12.82h-1.84l-.54-2.76h-2.5l-.54,2.76Zm4.53-4.48-.9-4.65h0l-.9,4.65Z" transform="translate(-0.86 -2.48)"/><path d="M154.17,71.41V60.32H152V58.59h6.09v1.73H156V71.41Z" transform="translate(-0.86 -2.48)"/><path d="M157.12,71.41,160,58.59h1.53l2.86,12.82h-1.83L162,68.65h-2.51L159,71.41Zm4.53-4.48-.9-4.65h0l-.9,4.65Z" transform="translate(-0.86 -2.48)"/><path d="M168.62,71.41V58.59h1.76l2.36,6.79h0l2.34-6.79h1.78V71.41h-1.84v-7.8h0l-1.82,5.51h-.92l-1.8-5.51h0v7.8Z" transform="translate(-0.86 -2.48)"/><path d="M177.8,71.41l2.86-12.82h1.53l2.86,12.82h-1.83l-.54-2.76h-2.5l-.54,2.76Zm4.54-4.48-.9-4.65h0l-.9,4.65Z" transform="translate(-0.86 -2.48)"/><path d="M186.67,71.41V66l-2.52-7.4h1.95l1.47,5.1h0l1.48-5.1H191L188.51,66v5.42Z" transform="translate(-0.86 -2.48)"/><path d="M201.52,58.59,198.9,71.41h-1.62l-2.61-12.82h1.94l1.46,9h0l1.48-9Z" transform="translate(-0.86 -2.48)"/><path d="M201.13,71.41,204,58.59h1.53l2.86,12.82h-1.83L206,68.65H203.5L203,71.41Zm4.53-4.48-.9-4.65h0l-.9,4.65Z" transform="translate(-0.86 -2.48)"/><path d="M209.28,71.41V58.59h2.95c2.16,0,3.24,1.26,3.24,3.76a4.66,4.66,0,0,1-.35,1.93,2.71,2.71,0,0,1-1.23,1.28l2,5.85h-2l-1.71-5.47h-1.09v5.47Zm1.84-11.09v4h1a1.91,1.91,0,0,0,.78-.14,1,1,0,0,0,.44-.39,1.51,1.51,0,0,0,.2-.62,5.3,5.3,0,0,0,.06-.85,5.43,5.43,0,0,0-.06-.86,1.61,1.61,0,0,0-.21-.64,1.48,1.48,0,0,0-1.3-.5Z" transform="translate(-0.86 -2.48)"/><path d="M218.34,71.41V66l-2.52-7.4h1.94l1.48,5.1h0l1.48-5.1h1.94L220.17,66v5.42Z" transform="translate(-0.86 -2.48)"/></g></g></svg>