<svg xmlns="http://www.w3.org/2000/svg" viewBox="0 0 215.26 68.92"><title>Resurs 12</title><g id="Lager_2" data-name="Lager 2"><g id="Lager_1-2" data-name="Lager 1"><path d="M131.56,15.41V2.59h1.76l2.36,6.79h0l2.34-6.79h1.78V15.41H138V7.61h0l-1.82,5.51h-.92l-1.8-5.51h0v7.8Z" transform="translate(-0.86 -2.48)"/><path d="M141.46,5.62a3.25,3.25,0,0,1,.27-1.37,2.82,2.82,0,0,1,.72-1,3,3,0,0,1,1-.58,3.29,3.29,0,0,1,1.11-.2,3.31,3.31,0,0,1,2.1.78,2.9,2.9,0,0,1,.7,1,3.25,3.25,0,0,1,.27,1.37v6.76a3.25,3.25,0,0,1-.27,1.39,2.83,2.83,0,0,1-.7,1,2.93,2.93,0,0,1-1,.6,3.24,3.24,0,0,1-1.1.2,3.29,3.29,0,0,1-1.11-.2,3.16,3.16,0,0,1-1.7-1.55,3.25,3.25,0,0,1-.27-1.39Zm1.83,6.76a1.25,1.25,0,0,0,.37,1,1.39,1.39,0,0,0,1.75,0,1.22,1.22,0,0,0,.37-1V5.62a1.23,1.23,0,0,0-.37-1,1.39,1.39,0,0,0-1.75,0,1.27,1.27,0,0,0-.37,1Z" transform="translate(-0.86 -2.48)"/><path d="M149.23,15.41V2.59H152a3.16,3.16,0,0,1,2.41.87,3.42,3.42,0,0,1,.81,2.44v6a3.57,3.57,0,0,1-.87,2.65,3.44,3.44,0,0,1-2.51.86Zm1.84-11.09v9.36h.85a1.34,1.34,0,0,0,1.09-.39,1.82,1.82,0,0,0,.33-1.21V5.9A1.91,1.91,0,0,0,153,4.73a1.3,1.3,0,0,0-1.11-.41Z" transform="translate(-0.86 -2.48)"/><path d="M156.9,15.41V2.59h5.47V4.32h-3.63V8.08h3.17V9.81h-3.17v3.76h3.63v1.84Z" transform="translate(-0.86 -2.48)"/><path d="M163.56,15.41V2.59h1.84v11H169v1.84Z" transform="translate(-0.86 -2.48)"/><path d="M170.11,11.32V9.49H172v1.83Zm0,4.09V13.57H172v1.84Z" transform="translate(-0.86 -2.48)"/><path d="M173,5.76V2.59h1.84V4.43Zm2.52,0V2.59h1.84V4.43Z" transform="translate(-0.86 -2.48)"/><path d="M188.1,2.59l-1.91,12.82h-1.73l-1.4-8.32h0l-1.39,8.32h-1.72L178,2.59h1.94l.92,8.14h0l1.44-8.14h1.4l1.49,8.34h0l.88-8.34Z" transform="translate(-0.86 -2.48)"/><path d="M188.92,5.62a3.25,3.25,0,0,1,.27-1.37,2.82,2.82,0,0,1,.72-1,3.07,3.07,0,0,1,1-.58,3.24,3.24,0,0,1,1.1-.2,3.34,3.34,0,0,1,1.11.2,3.23,3.23,0,0,1,1,.58,2.9,2.9,0,0,1,.7,1,3.25,3.25,0,0,1,.27,1.37v6.76a3.25,3.25,0,0,1-.27,1.39,2.83,2.83,0,0,1-.7,1,2.93,2.93,0,0,1-1,.6,3.34,3.34,0,0,1-1.11.2,3.24,3.24,0,0,1-1.1-.2,2.8,2.8,0,0,1-1-.6,2.75,2.75,0,0,1-.72-1,3.25,3.25,0,0,1-.27-1.39Zm1.84,6.76a1.22,1.22,0,0,0,.37,1,1.39,1.39,0,0,0,1.75,0,1.25,1.25,0,0,0,.36-1V5.62a1.26,1.26,0,0,0-.36-1,1.39,1.39,0,0,0-1.75,0,1.23,1.23,0,0,0-.37,1Z" transform="translate(-0.86 -2.48)"/><path d="M196.59,5.62a3.25,3.25,0,0,1,.27-1.37,2.82,2.82,0,0,1,.72-1,3.14,3.14,0,0,1,1-.58,3.26,3.26,0,0,1,3.22.58,3,3,0,0,1,.7,1,3.25,3.25,0,0,1,.27,1.37v6.76a3.25,3.25,0,0,1-.27,1.39,3,3,0,0,1-.7,1,3,3,0,0,1-1,.6,3.18,3.18,0,0,1-2.22,0,2.85,2.85,0,0,1-1-.6,2.75,2.75,0,0,1-.72-1,3.25,3.25,0,0,1-.27-1.39Zm1.84,6.76a1.22,1.22,0,0,0,.37,1,1.38,1.38,0,0,0,1.74,0,1.22,1.22,0,0,0,.37-1V5.62a1.23,1.23,0,0,0-.37-1,1.38,1.38,0,0,0-1.74,0,1.23,1.23,0,0,0-.37,1Z" transform="translate(-0.86 -2.48)"/><path d="M204.37,15.41V2.59h2.72a3.15,3.15,0,0,1,2.4.87,3.43,3.43,0,0,1,.82,2.44v6a3.57,3.57,0,0,1-.87,2.65,3.47,3.47,0,0,1-2.52.86ZM206.2,4.32v9.36h.85a1.36,1.36,0,0,0,1.1-.39,1.88,1.88,0,0,0,.32-1.21V5.9a2,2,0,0,0-.3-1.17,1.34,1.34,0,0,0-1.12-.41Z" transform="translate(-0.86 -2.48)"/><path d="M211.5,5.76V2.59h1.83V4.43Zm2.52,0V2.59h1.83V4.43Z" transform="translate(-0.86 -2.48)"/><path d="M146.88,25.75v.8a2.84,2.84,0,0,1-.23,1.12,3.18,3.18,0,0,1-.62.95,2.94,2.94,0,0,1-.93.65,2.57,2.57,0,0,1-1.14.25,3.93,3.93,0,0,1-1.06-.15,2.43,2.43,0,0,1-1-.5,2.68,2.68,0,0,1-.71-.93,3.23,3.23,0,0,1-.28-1.45v-7a3.2,3.2,0,0,1,.21-1.17,2.75,2.75,0,0,1,.62-.94,2.8,2.8,0,0,1,.94-.62,3.19,3.19,0,0,1,1.22-.23,2.79,2.79,0,0,1,2.1.85,3.09,3.09,0,0,1,.62,1,3.32,3.32,0,0,1,.23,1.23v.72H145v-.61a1.48,1.48,0,0,0-.3-.93,1,1,0,0,0-.83-.4.93.93,0,0,0-.91.42,2.29,2.29,0,0,0-.23,1.07v6.56a1.61,1.61,0,0,0,.25.93,1,1,0,0,0,.87.38,1.43,1.43,0,0,0,.39-.06,1.11,1.11,0,0,0,.38-.21,1.08,1.08,0,0,0,.27-.4,1.42,1.42,0,0,0,.11-.63v-.63Z" transform="translate(-0.86 -2.48)"/><path d="M148.26,19.62a3.25,3.25,0,0,1,.27-1.37,2.82,2.82,0,0,1,.72-1,3.14,3.14,0,0,1,1-.58,3.26,3.26,0,0,1,3.22.58,2.9,2.9,0,0,1,.7,1,3.25,3.25,0,0,1,.27,1.37v6.76a3.25,3.25,0,0,1-.27,1.39,2.83,2.83,0,0,1-.7.95,3,3,0,0,1-1,.6,3.18,3.18,0,0,1-2.22,0,2.85,2.85,0,0,1-1-.6,2.75,2.75,0,0,1-.72-.95,3.25,3.25,0,0,1-.27-1.39Zm1.84,6.76a1.22,1.22,0,0,0,.37,1,1.29,1.29,0,0,0,.87.31,1.27,1.27,0,0,0,.87-.31,1.22,1.22,0,0,0,.37-1V19.62a1.23,1.23,0,0,0-.37-1,1.32,1.32,0,0,0-.87-.31,1.34,1.34,0,0,0-.87.31,1.23,1.23,0,0,0-.37,1Z" transform="translate(-0.86 -2.48)"/><path d="M156,29.41V16.59h3c2.16,0,3.24,1.26,3.24,3.76a4.82,4.82,0,0,1-.35,1.93,2.76,2.76,0,0,1-1.23,1.28l2,5.85h-1.95L159,23.94h-1.09v5.47Zm1.84-11.09v4h1a1.83,1.83,0,0,0,.77-.14,1.07,1.07,0,0,0,.45-.39,1.68,1.68,0,0,0,.2-.62,5.3,5.3,0,0,0,.06-.85,5.43,5.43,0,0,0-.06-.86,1.79,1.79,0,0,0-.22-.64,1.46,1.46,0,0,0-1.29-.5Z" transform="translate(-0.86 -2.48)"/><path d="M163.71,29.41V16.59h5.47v1.73h-3.64v3.76h3.17v1.73h-3.17v3.76h3.64v1.84Z" transform="translate(-0.86 -2.48)"/><path d="M173.61,19.62a3.25,3.25,0,0,1,.27-1.37,2.82,2.82,0,0,1,.72-1,2.93,2.93,0,0,1,1-.58,3.25,3.25,0,0,1,3.21.58,2.9,2.9,0,0,1,.7,1,3.25,3.25,0,0,1,.27,1.37v6.76a3.25,3.25,0,0,1-.27,1.39,2.83,2.83,0,0,1-.7.95,2.93,2.93,0,0,1-1,.6,3.15,3.15,0,0,1-2.21,0,2.68,2.68,0,0,1-1-.6,2.75,2.75,0,0,1-.72-.95,3.25,3.25,0,0,1-.27-1.39Zm1.83,6.76a1.25,1.25,0,0,0,.37,1,1.39,1.39,0,0,0,1.75,0,1.25,1.25,0,0,0,.37-1V19.62a1.27,1.27,0,0,0-.37-1,1.39,1.39,0,0,0-1.75,0,1.27,1.27,0,0,0-.37,1Z" transform="translate(-0.86 -2.48)"/><path d="M181.38,29.41V16.59h5.47v1.73h-3.63v3.89h3.17v1.73h-3.17v5.47Z" transform="translate(-0.86 -2.48)"/><path d="M191.39,29.41V16.59h2.75a4.2,4.2,0,0,1,1.34.2,2.59,2.59,0,0,1,1,.7,2.8,2.8,0,0,1,.65,1.18,7.39,7.39,0,0,1,.18,1.83,9.93,9.93,0,0,1-.1,1.46,3.26,3.26,0,0,1-.42,1.11,2.71,2.71,0,0,1-1,1,3.33,3.33,0,0,1-1.66.35h-.93v5Zm1.84-11.09v4.36h.88a1.82,1.82,0,0,0,.86-.17.9.9,0,0,0,.45-.45,1.46,1.46,0,0,0,.17-.66c0-.27,0-.56,0-.88s0-.59,0-.86a1.73,1.73,0,0,0-.16-.71,1.09,1.09,0,0,0-.43-.47,1.7,1.7,0,0,0-.83-.16Z" transform="translate(-0.86 -2.48)"/><path d="M198.77,29.41V16.59h1.84V29.41Z" transform="translate(-0.86 -2.48)"/><path d="M202.32,29.41V16.59h1.76l2.77,7.72h0V16.59h1.83V29.41H207l-2.81-7.71h0v7.71Z" transform="translate(-0.86 -2.48)"/><path d="M210.38,29.41V16.59h5.47v1.73h-3.63v3.76h3.16v1.73h-3.16v3.76h3.63v1.84Z" transform="translate(-0.86 -2.48)"/><path d="M.86,43.41V30.59H3.55a3.79,3.79,0,0,1,1.5.27,2.94,2.94,0,0,1,1,.72,2.69,2.69,0,0,1,.56,1,4.07,4.07,0,0,1,.17,1.21v.47a3.72,3.72,0,0,1-.08.88,2,2,0,0,1-.24.63,2.49,2.49,0,0,1-.94.87,2,2,0,0,1,1,.9,3.6,3.6,0,0,1,.3,1.62v.72A3.71,3.71,0,0,1,6,42.51a3.35,3.35,0,0,1-2.61.9ZM2.7,32.32v3.53h.83a1.39,1.39,0,0,0,1.23-.46,2.37,2.37,0,0,0,.32-1.34,2.06,2.06,0,0,0-.35-1.3,1.57,1.57,0,0,0-1.27-.43Zm0,5.15v4.1h.79a2,2,0,0,0,.88-.16A1.2,1.2,0,0,0,4.84,41a1.6,1.6,0,0,0,.2-.68c0-.27,0-.56,0-.87A5.17,5.17,0,0,0,5,38.57,1.62,1.62,0,0,0,4.81,38a1.14,1.14,0,0,0-.49-.37,2.51,2.51,0,0,0-.81-.11Z" transform="translate(-0.86 -2.48)"/><path d="M8.53,43.41V30.59h3c2.16,0,3.24,1.26,3.24,3.76a4.66,4.66,0,0,1-.35,1.93,2.71,2.71,0,0,1-1.23,1.28l2,5.85H13.18l-1.71-5.47h-1.1v5.47Zm1.84-11.09v4h1a1.88,1.88,0,0,0,.78-.14,1.07,1.07,0,0,0,.45-.39,1.68,1.68,0,0,0,.19-.62,5.3,5.3,0,0,0,.06-.85,5.43,5.43,0,0,0-.06-.86,1.61,1.61,0,0,0-.21-.64,1.48,1.48,0,0,0-1.3-.5Z" transform="translate(-0.86 -2.48)"/><path d="M16.09,33.62a3.25,3.25,0,0,1,.27-1.37,2.82,2.82,0,0,1,.72-1,3.14,3.14,0,0,1,1-.58,3.26,3.26,0,0,1,3.22.58,3,3,0,0,1,.7,1,3.25,3.25,0,0,1,.27,1.37v6.76A3.25,3.25,0,0,1,22,41.77a3,3,0,0,1-.7.95,3,3,0,0,1-1,.6,3.18,3.18,0,0,1-2.22,0,2.85,2.85,0,0,1-1-.6,2.75,2.75,0,0,1-.72-.95,3.25,3.25,0,0,1-.27-1.39Zm1.84,6.76a1.22,1.22,0,0,0,.37,1,1.38,1.38,0,0,0,1.74,0,1.22,1.22,0,0,0,.37-1V33.62a1.23,1.23,0,0,0-.37-1,1.38,1.38,0,0,0-1.74,0,1.23,1.23,0,0,0-.37,1Z" transform="translate(-0.86 -2.48)"/><path d="M33.17,30.59l-1.9,12.82H29.54l-1.41-8.32h0l-1.39,8.32H25l-1.9-12.82H25l.92,8.14h0l1.44-8.14h1.41l1.49,8.34h0l.88-8.34Z" transform="translate(-0.86 -2.48)"/><path d="M34.25,43.41V30.59H36l2.77,7.72h0V30.59h1.83V43.41H38.93l-2.8-7.71h0v7.71Z" transform="translate(-0.86 -2.48)"/><path d="M44.84,43.41,47.7,30.59h1.53l2.86,12.82H50.26l-.54-2.76H47.21l-.54,2.76Zm4.53-4.48-.9-4.65h0l-.9,4.65Z" transform="translate(-0.86 -2.48)"/><path d="M52.92,43.41V30.59h1.76l2.78,7.72h0V30.59h1.84V43.41H57.6L54.79,35.7h0v7.71Z" transform="translate(-0.86 -2.48)"/><path d="M61,43.41V30.59H63.7a3.12,3.12,0,0,1,2.4.87,3.38,3.38,0,0,1,.82,2.44v6a3.57,3.57,0,0,1-.87,2.65,3.44,3.44,0,0,1-2.51.86Zm1.84-11.09v9.36h.84a1.35,1.35,0,0,0,1.1-.39,1.82,1.82,0,0,0,.33-1.21V33.9a2,2,0,0,0-.31-1.17,1.33,1.33,0,0,0-1.12-.41Z" transform="translate(-0.86 -2.48)"/><path d="M71.89,33.62a3.25,3.25,0,0,1,.27-1.37,2.82,2.82,0,0,1,.72-1,3.14,3.14,0,0,1,1-.58,3.18,3.18,0,0,1,2.22,0,3.3,3.3,0,0,1,1,.58,2.92,2.92,0,0,1,.71,1,3.25,3.25,0,0,1,.27,1.37v6.76a3.25,3.25,0,0,1-.27,1.39,2.86,2.86,0,0,1-.71.95,3,3,0,0,1-1,.6,3.18,3.18,0,0,1-2.22,0,2.85,2.85,0,0,1-1-.6,2.75,2.75,0,0,1-.72-.95,3.25,3.25,0,0,1-.27-1.39Zm1.84,6.76a1.22,1.22,0,0,0,.37,1,1.27,1.27,0,0,0,.87.31,1.29,1.29,0,0,0,.87-.31,1.22,1.22,0,0,0,.37-1V33.62a1.23,1.23,0,0,0-.37-1,1.34,1.34,0,0,0-.87-.31,1.32,1.32,0,0,0-.87.31,1.23,1.23,0,0,0-.37,1Z" transform="translate(-0.86 -2.48)"/><path d="M79.67,43.41V30.59h3c2.16,0,3.24,1.26,3.24,3.76a4.82,4.82,0,0,1-.35,1.93,2.78,2.78,0,0,1-1.24,1.28l2,5.85H84.31L82.6,37.94H81.5v5.47ZM81.5,32.32v4h1a1.83,1.83,0,0,0,.77-.14,1.07,1.07,0,0,0,.45-.39,1.68,1.68,0,0,0,.2-.62,7,7,0,0,0,0-.85,7.12,7.12,0,0,0,0-.86,1.79,1.79,0,0,0-.22-.64,1.47,1.47,0,0,0-1.29-.5Z" transform="translate(-0.86 -2.48)"/><path d="M86.51,43.41l2.86-12.82H90.9l2.86,12.82H91.92l-.54-2.76h-2.5l-.54,2.76ZM91,38.93l-.9-4.65h0l-.9,4.65Z" transform="translate(-0.86 -2.48)"/><path d="M94.59,43.41V30.59h1.76l2.77,7.72h0V30.59H101V43.41H99.27L96.46,35.7h0v7.71Z" transform="translate(-0.86 -2.48)"/><path d="M102.54,33.62a3.25,3.25,0,0,1,.27-1.37,2.82,2.82,0,0,1,.72-1,3.07,3.07,0,0,1,1-.58,3.24,3.24,0,0,1,1.1-.2,3.34,3.34,0,0,1,1.11.2,3.23,3.23,0,0,1,1,.58,2.9,2.9,0,0,1,.7,1,3.25,3.25,0,0,1,.27,1.37v.64h-1.84v-.64a1.26,1.26,0,0,0-.36-1,1.39,1.39,0,0,0-1.75,0,1.23,1.23,0,0,0-.37,1v6.76a1.22,1.22,0,0,0,.37,1,1.39,1.39,0,0,0,1.75,0,1.25,1.25,0,0,0,.36-1V38h-1.45V36.35h3.29v4a3.25,3.25,0,0,1-.27,1.39,2.83,2.83,0,0,1-.7.95,2.93,2.93,0,0,1-1,.6,3.34,3.34,0,0,1-1.11.2,3.24,3.24,0,0,1-1.1-.2,2.8,2.8,0,0,1-1-.6,2.75,2.75,0,0,1-.72-.95,3.25,3.25,0,0,1-.27-1.39Z" transform="translate(-0.86 -2.48)"/><path d="M110.32,43.41V30.59h5.47v1.73h-3.63v3.76h3.16v1.73h-3.16v3.76h3.63v1.84Z" transform="translate(-0.86 -2.48)"/><path d="M116.87,44.74V41.57h1.84v1.84Z" transform="translate(-0.86 -2.48)"/><path d="M123.57,33.62a3.25,3.25,0,0,1,.27-1.37,2.82,2.82,0,0,1,.72-1,3,3,0,0,1,1-.58,3.25,3.25,0,0,1,3.21.58,2.9,2.9,0,0,1,.7,1,3.25,3.25,0,0,1,.27,1.37v.64h-1.83v-.64a1.27,1.27,0,0,0-.37-1,1.39,1.39,0,0,0-1.75,0,1.27,1.27,0,0,0-.37,1v6.76a1.25,1.25,0,0,0,.37,1,1.39,1.39,0,0,0,1.75,0,1.25,1.25,0,0,0,.37-1V38h-1.46V36.35h3.29v4a3.25,3.25,0,0,1-.27,1.39,2.83,2.83,0,0,1-.7.95,2.93,2.93,0,0,1-1,.6,3.15,3.15,0,0,1-2.21,0,3.16,3.16,0,0,1-1.7-1.55,3.25,3.25,0,0,1-.27-1.39Z" transform="translate(-0.86 -2.48)"/><path d="M131.34,43.41V30.59h1.84v11h3.64v1.84Z" transform="translate(-0.86 -2.48)"/><path d="M137.9,33.62a3.25,3.25,0,0,1,.27-1.37,2.7,2.7,0,0,1,.72-1,2.93,2.93,0,0,1,1-.58,3.24,3.24,0,0,1,1.1-.2,3.29,3.29,0,0,1,1.11.2,3.23,3.23,0,0,1,1,.58,2.9,2.9,0,0,1,.7,1,3.25,3.25,0,0,1,.27,1.37v6.76a3.25,3.25,0,0,1-.27,1.39,2.83,2.83,0,0,1-.7.95,2.93,2.93,0,0,1-1,.6,3.29,3.29,0,0,1-1.11.2,3.24,3.24,0,0,1-1.1-.2,2.68,2.68,0,0,1-1-.6,2.63,2.63,0,0,1-.72-.95,3.25,3.25,0,0,1-.27-1.39Zm1.83,6.76a1.22,1.22,0,0,0,.37,1,1.39,1.39,0,0,0,1.75,0,1.25,1.25,0,0,0,.37-1V33.62a1.27,1.27,0,0,0-.37-1,1.39,1.39,0,0,0-1.75,0,1.23,1.23,0,0,0-.37,1Z" transform="translate(-0.86 -2.48)"/><path d="M151.61,34.28h-1.84v-.41a1.93,1.93,0,0,0-.29-1.09,1.09,1.09,0,0,0-1-.46,1.09,1.09,0,0,0-1,.5,1.59,1.59,0,0,0-.2.54,4,4,0,0,0,0,.62c0,.25,0,.46,0,.63a1.39,1.39,0,0,0,.14.45,1.1,1.1,0,0,0,.31.34,3.7,3.7,0,0,0,.57.29l1.41.55a3.83,3.83,0,0,1,1,.55,2.56,2.56,0,0,1,.59.73,3.61,3.61,0,0,1,.27,1,9.49,9.49,0,0,1,.07,1.25,6.6,6.6,0,0,1-.16,1.51,3.26,3.26,0,0,1-.52,1.18,2.67,2.67,0,0,1-1,.79,3.55,3.55,0,0,1-1.5.29,3.19,3.19,0,0,1-1.24-.24,2.89,2.89,0,0,1-1-.65,3.28,3.28,0,0,1-.66-1,3,3,0,0,1-.24-1.2v-.68h1.84v.58a1.56,1.56,0,0,0,.29.91,1.2,1.2,0,0,0,1,.4,1.6,1.6,0,0,0,.73-.14.89.89,0,0,0,.41-.38,1.56,1.56,0,0,0,.17-.61c0-.23,0-.49,0-.78s0-.61,0-.83a1.62,1.62,0,0,0-.14-.52,1,1,0,0,0-.34-.32,3.13,3.13,0,0,0-.55-.27l-1.31-.54A2.91,2.91,0,0,1,145.81,36a4.41,4.41,0,0,1-.41-2,4.66,4.66,0,0,1,.2-1.36,3.07,3.07,0,0,1,.59-1.12,2.9,2.9,0,0,1,1-.75,3.28,3.28,0,0,1,1.39-.28,3,3,0,0,1,1.25.26,3.08,3.08,0,0,1,1,.66,2.81,2.81,0,0,1,.83,2Z" transform="translate(-0.86 -2.48)"/><path d="M158.92,34.28h-1.84v-.41a2,2,0,0,0-.29-1.09,1.09,1.09,0,0,0-1-.46,1.09,1.09,0,0,0-1,.5,1.59,1.59,0,0,0-.2.54,3.05,3.05,0,0,0,0,.62,5.83,5.83,0,0,0,0,.63,1.39,1.39,0,0,0,.14.45,1,1,0,0,0,.31.34,3.7,3.7,0,0,0,.57.29l1.4.55a3.52,3.52,0,0,1,1,.55,2.44,2.44,0,0,1,.6.73,3.61,3.61,0,0,1,.27,1,9.49,9.49,0,0,1,.07,1.25,6.6,6.6,0,0,1-.16,1.51,3.26,3.26,0,0,1-.52,1.18,2.75,2.75,0,0,1-1,.79,3.55,3.55,0,0,1-1.5.29,3.19,3.19,0,0,1-1.24-.24,2.71,2.71,0,0,1-1-.65,3,3,0,0,1-.9-2.16v-.68h1.84v.58a1.5,1.5,0,0,0,.29.91,1.18,1.18,0,0,0,1,.4,1.6,1.6,0,0,0,.73-.14.94.94,0,0,0,.41-.38,1.56,1.56,0,0,0,.17-.61c0-.23,0-.49,0-.78s0-.61,0-.83a1.39,1.39,0,0,0-.15-.52.92.92,0,0,0-.33-.32,3.13,3.13,0,0,0-.55-.27l-1.31-.54a2.94,2.94,0,0,1-1.6-1.29,4.41,4.41,0,0,1-.4-2,4.35,4.35,0,0,1,.2-1.36,3.07,3.07,0,0,1,.59-1.12,2.77,2.77,0,0,1,1-.75,3.33,3.33,0,0,1,1.4-.28,3,3,0,0,1,1.25.26,3.19,3.19,0,0,1,1,.66,2.81,2.81,0,0,1,.83,2Z" transform="translate(-0.86 -2.48)"/><path d="M162,43.41V38l-2.52-7.4h1.94l1.48,5.1h0l1.48-5.1h1.94L163.83,38v5.42Z" transform="translate(-0.86 -2.48)"/><path d="M176.45,39.75v.8a2.83,2.83,0,0,1-.22,1.12,3.08,3.08,0,0,1-1.55,1.6,2.65,2.65,0,0,1-1.15.25,4,4,0,0,1-1.06-.15,2.43,2.43,0,0,1-1-.5,2.8,2.8,0,0,1-.71-.93,3.23,3.23,0,0,1-.28-1.45V33.44a3,3,0,0,1,.22-1.17,2.59,2.59,0,0,1,.61-.94,2.9,2.9,0,0,1,.94-.62,3.19,3.19,0,0,1,1.22-.23,2.79,2.79,0,0,1,2.1.85,3,3,0,0,1,.63,1,3.32,3.32,0,0,1,.22,1.23v.72h-1.84v-.61a1.48,1.48,0,0,0-.3-.93,1,1,0,0,0-.83-.4.93.93,0,0,0-.91.42,2.29,2.29,0,0,0-.22,1.07v6.56a1.69,1.69,0,0,0,.24.93,1,1,0,0,0,.87.38,1.43,1.43,0,0,0,.39-.06,1.06,1.06,0,0,0,.39-.21,1.4,1.4,0,0,0,.27-.4,1.6,1.6,0,0,0,.1-.63v-.63Z" transform="translate(-0.86 -2.48)"/><path d="M177.84,33.62a3.25,3.25,0,0,1,.27-1.37,2.82,2.82,0,0,1,.72-1,2.93,2.93,0,0,1,1-.58,3.25,3.25,0,0,1,3.21.58,2.9,2.9,0,0,1,.7,1,3.25,3.25,0,0,1,.27,1.37v6.76a3.25,3.25,0,0,1-.27,1.39,2.83,2.83,0,0,1-.7.95,2.93,2.93,0,0,1-1,.6,3.15,3.15,0,0,1-2.21,0,2.68,2.68,0,0,1-1-.6,2.75,2.75,0,0,1-.72-.95,3.25,3.25,0,0,1-.27-1.39Zm1.83,6.76a1.25,1.25,0,0,0,.37,1,1.39,1.39,0,0,0,1.75,0,1.25,1.25,0,0,0,.37-1V33.62a1.27,1.27,0,0,0-.37-1,1.39,1.39,0,0,0-1.75,0,1.27,1.27,0,0,0-.37,1Z" transform="translate(-0.86 -2.48)"/><path d="M184.57,43.41l2.86-12.82H189l2.86,12.82H190l-.54-2.76h-2.51l-.54,2.76Zm4.53-4.48-.9-4.65h0l-.9,4.65Z" transform="translate(-0.86 -2.48)"/><path d="M192.94,43.41V32.32h-2.13V30.59h6.09v1.73h-2.13V43.41Z" transform="translate(-0.86 -2.48)"/><path d="M197.76,43.41V30.59h1.84V43.41Z" transform="translate(-0.86 -2.48)"/><path d="M201.31,43.41V30.59h1.76l2.77,7.72h0V30.59h1.84V43.41H206l-2.81-7.71h0v7.71Z" transform="translate(-0.86 -2.48)"/><path d="M209.26,33.62a3.25,3.25,0,0,1,.27-1.37,2.82,2.82,0,0,1,.72-1,3.14,3.14,0,0,1,1-.58,3.26,3.26,0,0,1,3.22.58,2.9,2.9,0,0,1,.7,1,3.25,3.25,0,0,1,.27,1.37v.64h-1.84v-.64a1.23,1.23,0,0,0-.37-1,1.32,1.32,0,0,0-.87-.31,1.34,1.34,0,0,0-.87.31,1.23,1.23,0,0,0-.37,1v6.76a1.22,1.22,0,0,0,.37,1,1.29,1.29,0,0,0,.87.31,1.27,1.27,0,0,0,.87-.31,1.22,1.22,0,0,0,.37-1V38h-1.45V36.35h3.29v4a3.25,3.25,0,0,1-.27,1.39,2.83,2.83,0,0,1-.7.95,3,3,0,0,1-1,.6,3.18,3.18,0,0,1-2.22,0,2.85,2.85,0,0,1-1-.6,2.75,2.75,0,0,1-.72-.95,3.25,3.25,0,0,1-.27-1.39Z" transform="translate(-0.86 -2.48)"/><path d="M35.35,57.41V44.59h1.84v11h3.63v1.84Z" transform="translate(-0.86 -2.48)"/><path d="M42,57.41V44.59h5.47v1.73H43.85v3.76H47v1.73H43.85v3.76h3.63v1.84Z" transform="translate(-0.86 -2.48)"/><path d="M48.6,57.41V44.59h1.76l2.78,7.72h0V44.59H55V57.41H53.28L50.47,49.7h0v7.71Z" transform="translate(-0.86 -2.48)"/><path d="M56.55,47.62a3.41,3.41,0,0,1,.27-1.37,2.82,2.82,0,0,1,.72-1,3.07,3.07,0,0,1,1-.58,3.24,3.24,0,0,1,1.1-.2,3.34,3.34,0,0,1,1.11.2,3.23,3.23,0,0,1,1,.58,2.9,2.9,0,0,1,.7,1,3.25,3.25,0,0,1,.27,1.37v.64H60.88v-.64a1.27,1.27,0,0,0-.37-1,1.39,1.39,0,0,0-1.75,0,1.23,1.23,0,0,0-.37,1v6.76a1.22,1.22,0,0,0,.37,1,1.39,1.39,0,0,0,1.75,0,1.25,1.25,0,0,0,.37-1V52H59.42V50.35h3.29v4a3.25,3.25,0,0,1-.27,1.39,2.83,2.83,0,0,1-.7.95,2.93,2.93,0,0,1-1,.6,3.34,3.34,0,0,1-1.11.2,3.24,3.24,0,0,1-1.1-.2,2.8,2.8,0,0,1-1-.6,2.75,2.75,0,0,1-.72-.95,3.41,3.41,0,0,1-.27-1.39Z" transform="translate(-0.86 -2.48)"/><path d="M65.54,57.41V46.32H63.41V44.59H69.5v1.73H67.37V57.41Z" transform="translate(-0.86 -2.48)"/><path d="M70.31,57.41V44.59h1.83v5.49h2.27V44.59h1.84V57.41H74.41V51.7H72.14v5.71Z" transform="translate(-0.86 -2.48)"/><path d="M77.87,53.32V51.49H79.7v1.83Zm0,4.09V55.57H79.7v1.84Z" transform="translate(-0.86 -2.48)"/><path d="M84.42,57.41V55.68l3.31-6.25a2.35,2.35,0,0,0,.29-.81c0-.24,0-.53,0-.88,0-.15,0-.32,0-.49a1.08,1.08,0,0,0-.09-.46.79.79,0,0,0-.27-.33.88.88,0,0,0-.53-.14.92.92,0,0,0-.65.23.9.9,0,0,0-.25.69v1H84.42v-1a2.81,2.81,0,0,1,.21-1.08,3,3,0,0,1,.6-.88,2.77,2.77,0,0,1,.86-.6,2.82,2.82,0,0,1,2.32,0,2.43,2.43,0,0,1,.85.71,3,3,0,0,1,.48,1,4.88,4.88,0,0,1,.15,1.23c0,.31,0,.57,0,.78a3.79,3.79,0,0,1-.07.6,3.22,3.22,0,0,1-.18.58c-.08.19-.2.42-.34.7l-2.7,5.2h3.31v1.84Z" transform="translate(-0.86 -2.48)"/><path d="M91.11,47.94c0-.35,0-.65,0-.89a2.67,2.67,0,0,1,.13-.64,3.13,3.13,0,0,1,.2-.49,4.39,4.39,0,0,1,.3-.45,2.44,2.44,0,0,1,.9-.72,2.67,2.67,0,0,1,2.34,0,2.44,2.44,0,0,1,.9.72c.12.16.22.31.31.45a3.14,3.14,0,0,1,.21.49,2.7,2.7,0,0,1,.12.64c0,.24,0,.54,0,.89s0,.71,0,1a2.78,2.78,0,0,1-.11.7,1.51,1.51,0,0,1-.28.55,3.08,3.08,0,0,1-.51.52,2.43,2.43,0,0,1,.51.5,1.69,1.69,0,0,1,.28.59,3.81,3.81,0,0,1,.11.84c0,.33,0,.74,0,1.22s0,.72,0,1,0,.48-.08.67a2.38,2.38,0,0,1-.15.49,3.77,3.77,0,0,1-.25.41,2.73,2.73,0,0,1-4.7-.41,1.88,1.88,0,0,1-.16-.49c0-.19-.06-.41-.08-.67s0-.59,0-1,0-.89,0-1.22a3.81,3.81,0,0,1,.11-.84,1.69,1.69,0,0,1,.28-.59,2.7,2.7,0,0,1,.51-.5,3.52,3.52,0,0,1-.51-.52,1.51,1.51,0,0,1-.28-.55,2.78,2.78,0,0,1-.11-.7C91.12,48.65,91.11,48.32,91.11,47.94Zm3.64-.72a.87.87,0,0,0-.27-.64.89.89,0,0,0-1.26,0,.87.87,0,0,0-.27.64v1.87a.9.9,0,0,0,1.8,0Zm0,5a.85.85,0,0,0-.27-.64.89.89,0,0,0-1.26,0,.85.85,0,0,0-.27.64v2.52a.85.85,0,0,0,.27.64.89.89,0,0,0,1.26,0,.85.85,0,0,0,.27-.64Z" transform="translate(-0.86 -2.48)"/><path d="M99.9,54.78a.9.9,0,0,0,.24.67.93.93,0,0,0,.66.23.7.7,0,0,0,.69-.31,1.77,1.77,0,0,0,.21-.61h1.83a2.65,2.65,0,0,1-.73,2,2.53,2.53,0,0,1-.87.59,2.88,2.88,0,0,1-1.13.22,2.81,2.81,0,0,1-1.47-.36,2.45,2.45,0,0,1-1.2-1.79,7.91,7.91,0,0,1-.07-1v-3a7.91,7.91,0,0,1,.07-1,2.45,2.45,0,0,1,1.2-1.79,2.81,2.81,0,0,1,1.47-.36,3,3,0,0,1,1.14.22,2.53,2.53,0,0,1,.87.59,3.07,3.07,0,0,1,.72,2.11H101.7a1.15,1.15,0,0,0-.25-.82,1,1,0,0,0-1.31,0,1.14,1.14,0,0,0-.24.78Z" transform="translate(-0.86 -2.48)"/><path d="M104.61,57.41V48.28h1.84v.88h0a2.74,2.74,0,0,1,.69-.71,1.81,1.81,0,0,1,1-.28,1.64,1.64,0,0,1,1,.29,2.79,2.79,0,0,1,.65.63,3.91,3.91,0,0,1,.76-.65,2.08,2.08,0,0,1,1.15-.27,2.19,2.19,0,0,1,.7.12,1.74,1.74,0,0,1,.65.39,2.05,2.05,0,0,1,.47.69,2.66,2.66,0,0,1,.18,1v7h-1.84V51.09a1.24,1.24,0,0,0-.23-.79A.83.83,0,0,0,111,50a.78.78,0,0,0-.72.32,1.85,1.85,0,0,0-.2.94v6.14h-1.83V51.09a1.18,1.18,0,0,0-.24-.79.79.79,0,0,0-.66-.29.78.78,0,0,0-.72.32,1.85,1.85,0,0,0-.2.94v6.14Z" transform="translate(-0.86 -2.48)"/><path d="M128.25,44.59l-1.91,12.82h-1.73l-1.4-8.32h0l-1.38,8.32h-1.73l-1.91-12.82h1.94l.92,8.14h0l1.44-8.14h1.4l1.5,8.34h0l.88-8.34Z" transform="translate(-0.86 -2.48)"/><path d="M129.4,57.41V44.59h5.47v1.73h-3.63v3.76h3.16v1.73h-3.16v3.76h3.63v1.84Z" transform="translate(-0.86 -2.48)"/><path d="M136.11,57.41V44.59H138V57.41Z" transform="translate(-0.86 -2.48)"/><path d="M139.62,47.62a3.25,3.25,0,0,1,.27-1.37,2.82,2.82,0,0,1,.72-1,3.14,3.14,0,0,1,1-.58,3.26,3.26,0,0,1,3.22.58,2.9,2.9,0,0,1,.7,1,3.25,3.25,0,0,1,.27,1.37v.64h-1.84v-.64a1.23,1.23,0,0,0-.37-1,1.32,1.32,0,0,0-.87-.31,1.34,1.34,0,0,0-.87.31,1.23,1.23,0,0,0-.37,1v6.76a1.22,1.22,0,0,0,.37,1,1.29,1.29,0,0,0,.87.31,1.27,1.27,0,0,0,.87-.31,1.22,1.22,0,0,0,.37-1V52h-1.45V50.35h3.29v4a3.25,3.25,0,0,1-.27,1.39,2.83,2.83,0,0,1-.7.95,3,3,0,0,1-1,.6,3.18,3.18,0,0,1-2.22,0,2.85,2.85,0,0,1-1-.6,2.75,2.75,0,0,1-.72-.95,3.25,3.25,0,0,1-.27-1.39Z" transform="translate(-0.86 -2.48)"/><path d="M147.4,57.41V44.59h1.84v5.49h2.26V44.59h1.84V57.41H151.5V51.7h-2.26v5.71Z" transform="translate(-0.86 -2.48)"/><path d="M156.27,57.41V46.32h-2.12V44.59h6.08v1.73h-2.12V57.41Z" transform="translate(-0.86 -2.48)"/><path d="M166.32,50a2.22,2.22,0,0,0,1.14-.2c.21-.13.31-.43.31-.91V47.22a.92.92,0,0,0-.24-.65.86.86,0,0,0-.66-.25.76.76,0,0,0-.69.31,1,1,0,0,0-.21.59v1h-1.83V47.2a2.75,2.75,0,0,1,.21-1.06,2.66,2.66,0,0,1,.6-.86,2.84,2.84,0,0,1,2-.8,2.39,2.39,0,0,1,1.25.3,3.07,3.07,0,0,1,.75.6,3.94,3.94,0,0,1,.31.44,1.93,1.93,0,0,1,.23.52,7,7,0,0,1,.16,1.76q0,.67,0,1.08a2.12,2.12,0,0,1-.13.69,1.42,1.42,0,0,1-.35.48,4.07,4.07,0,0,1-.62.43,3.5,3.5,0,0,1,.65.51,1.5,1.5,0,0,1,.34.54,2.75,2.75,0,0,1,.12.76c0,.3,0,.67,0,1.13s0,.77,0,1a3.86,3.86,0,0,1-.08.69,1.83,1.83,0,0,1-.14.48,3.14,3.14,0,0,1-.24.42,2.88,2.88,0,0,1-.87.83,2.51,2.51,0,0,1-1.39.34,3.1,3.1,0,0,1-.92-.15,2.27,2.27,0,0,1-.88-.47,2.33,2.33,0,0,1-.66-.84,2.92,2.92,0,0,1-.26-1.28v-1H166v.95a1.06,1.06,0,0,0,.25.71.91.91,0,0,0,1.31,0,1.11,1.11,0,0,0,.24-.75V52.82c0-.51-.09-.84-.28-1a.77.77,0,0,0-.44-.18,4.9,4.9,0,0,0-.73,0Z" transform="translate(-0.86 -2.48)"/><path d="M173,50a2.26,2.26,0,0,0,1.15-.2c.2-.13.31-.43.31-.91V47.22a.92.92,0,0,0-.24-.65.87.87,0,0,0-.66-.25.76.76,0,0,0-.69.31,1,1,0,0,0-.21.59v1h-1.84V47.2a2.76,2.76,0,0,1,.22-1.06,2.49,2.49,0,0,1,.59-.86,3,3,0,0,1,.89-.58,2.74,2.74,0,0,1,1.08-.22,2.39,2.39,0,0,1,1.25.3,2.82,2.82,0,0,1,.74.6,4.07,4.07,0,0,1,.32.44,1.94,1.94,0,0,1,.22.52,6.94,6.94,0,0,1,.17,1.76q0,.67,0,1.08a2.1,2.1,0,0,1-.14.69,1.3,1.3,0,0,1-.35.48,3.62,3.62,0,0,1-.62.43,3.3,3.3,0,0,1,.66.51,1.36,1.36,0,0,1,.33.54,2.73,2.73,0,0,1,.13.76c0,.3,0,.67,0,1.13s0,.77,0,1-.05.51-.08.69a2.27,2.27,0,0,1-.15.48,2.75,2.75,0,0,1-1.1,1.25,2.55,2.55,0,0,1-1.4.34,3.15,3.15,0,0,1-.92-.15,2.46,2.46,0,0,1-1.53-1.31,2.78,2.78,0,0,1-.27-1.28v-1h1.84v.95a1.05,1.05,0,0,0,.24.71.92.92,0,0,0,1.32,0,1.11,1.11,0,0,0,.24-.75V52.82a1.25,1.25,0,0,0-.29-1,.74.74,0,0,0-.44-.18,4.81,4.81,0,0,0-.73,0Z" transform="translate(-0.86 -2.48)"/><path d="M177.53,47.24a2.78,2.78,0,0,1,.22-1.15,2.73,2.73,0,0,1,.61-.87,2.63,2.63,0,0,1,.87-.55,3,3,0,0,1,1-.19,3,3,0,0,1,1,.19,2.63,2.63,0,0,1,.87.55,2.58,2.58,0,0,1,.61.87,2.78,2.78,0,0,1,.22,1.15v7.52a2.78,2.78,0,0,1-.22,1.15,2.58,2.58,0,0,1-.61.87,2.63,2.63,0,0,1-.87.55,3,3,0,0,1-1,.19,3,3,0,0,1-1-.19,2.63,2.63,0,0,1-.87-.55,2.73,2.73,0,0,1-.61-.87,2.78,2.78,0,0,1-.22-1.15Zm1.84,7.52a.89.89,0,0,0,.25.66.87.87,0,0,0,.65.26.85.85,0,0,0,.64-.26.9.9,0,0,0,.26-.66V47.24a.91.91,0,0,0-.26-.66.85.85,0,0,0-.64-.26.87.87,0,0,0-.65.26.91.91,0,0,0-.25.66Z" transform="translate(-0.86 -2.48)"/><path d="M189.55,58.47a1.07,1.07,0,0,0,.26.61.9.9,0,0,0,.72.29.71.71,0,0,0,.64-.28,1.15,1.15,0,0,0,.2-.71v-1.8h0a2.27,2.27,0,0,1-.73.69,1.88,1.88,0,0,1-1,.25,1.66,1.66,0,0,1-1.61-.87,2.66,2.66,0,0,1-.23-.75,7.86,7.86,0,0,1-.07-1.21V51.22c0-.66,0-1.15.05-1.46a1.74,1.74,0,0,1,.85-1.35,1.79,1.79,0,0,1,1-.24,2,2,0,0,1,.59.08,1.58,1.58,0,0,1,.44.19,2.6,2.6,0,0,1,.36.3l.34.37v-.83h1.84V58.52a2.87,2.87,0,0,1-.16.95,2.2,2.2,0,0,1-.49.85,2.52,2.52,0,0,1-.86.64,3,3,0,0,1-2.11.11,2.2,2.2,0,0,1-.83-.46,2.51,2.51,0,0,1-.67-.82,3.5,3.5,0,0,1-.37-1.32Zm0-3.87a1.56,1.56,0,0,0,.19.76.77.77,0,0,0,.71.32.84.84,0,0,0,.66-.28,1,1,0,0,0,.26-.71V51.14a1.24,1.24,0,0,0-.25-.81.82.82,0,0,0-.67-.32.74.74,0,0,0-.68.34,1.71,1.71,0,0,0-.22.9Z" transform="translate(-0.86 -2.48)"/><path d="M194.72,57.41V48.28h1.84v1a5.63,5.63,0,0,1,1.09-.79,2.86,2.86,0,0,1,1.34-.29v1.95a1.55,1.55,0,0,0-.56-.11,2.05,2.05,0,0,0-.62.1,1.72,1.72,0,0,0-.61.33,1.79,1.79,0,0,0-.46.61,2.22,2.22,0,0,0-.18.94v5.42Z" transform="translate(-0.86 -2.48)"/><path d="M203.09,57.41v-.94h0a3.26,3.26,0,0,1-.73.78,1.71,1.71,0,0,1-1,.27,2.51,2.51,0,0,1-.66-.1,1.83,1.83,0,0,1-.64-.37,1.74,1.74,0,0,1-.49-.73,3.31,3.31,0,0,1-.19-1.23,6.09,6.09,0,0,1,.13-1.36,2.18,2.18,0,0,1,.46-1,1.86,1.86,0,0,1,.89-.57,4.35,4.35,0,0,1,1.42-.19h.2l.19,0,.22,0h.27v-.95a1.4,1.4,0,0,0-.2-.77.78.78,0,0,0-.72-.31,1.08,1.08,0,0,0-.66.23,1.17,1.17,0,0,0-.38.69h-1.78a2.89,2.89,0,0,1,.82-2,2.63,2.63,0,0,1,.87-.57,2.88,2.88,0,0,1,1.13-.21,3.14,3.14,0,0,1,1.08.18,2.41,2.41,0,0,1,.88.54,2.59,2.59,0,0,1,.58.9,3.46,3.46,0,0,1,.22,1.26v6.36Zm0-3.93a3.64,3.64,0,0,0-.5,0,1.77,1.77,0,0,0-1,.28,1.13,1.13,0,0,0-.42,1,1.31,1.31,0,0,0,.25.84.83.83,0,0,0,.7.33.94.94,0,0,0,.73-.31,1.3,1.3,0,0,0,.26-.86Z" transform="translate(-0.86 -2.48)"/><path d="M206.28,57.41V48.28h1.83v.88h0a2.74,2.74,0,0,1,.69-.71,1.85,1.85,0,0,1,1-.28,1.68,1.68,0,0,1,1,.29,2.74,2.74,0,0,1,.64.63,3.91,3.91,0,0,1,.76-.65,2.1,2.1,0,0,1,1.15-.27,2.19,2.19,0,0,1,.7.12,1.74,1.74,0,0,1,.65.39,2.05,2.05,0,0,1,.47.69,2.66,2.66,0,0,1,.18,1v7h-1.84V51.09a1.18,1.18,0,0,0-.23-.79.83.83,0,0,0-.67-.29.8.8,0,0,0-.72.32,1.86,1.86,0,0,0-.19.94v6.14h-1.84V51.09a1.24,1.24,0,0,0-.23-.79A.83.83,0,0,0,209,50a.78.78,0,0,0-.72.32,1.85,1.85,0,0,0-.2.94v6.14Z" transform="translate(-0.86 -2.48)"/><path d="M56.59,71.41V58.59h1.84v5.49h2.26V58.59h1.84V71.41H60.69V65.7H58.43v5.71Z" transform="translate(-0.86 -2.48)"/><path d="M63.43,71.41l2.86-12.82h1.53l2.86,12.82H68.85l-.54-2.76h-2.5l-.54,2.76ZM68,66.93l-.9-4.65h0l-.9,4.65Z" transform="translate(-0.86 -2.48)"/><path d="M71.51,71.41V58.59h1.77l2.77,7.72h0V58.59h1.84V71.41H76.19L73.38,63.7h0v7.71Z" transform="translate(-0.86 -2.48)"/><path d="M79.57,71.41V58.59h2.72a3.16,3.16,0,0,1,2.41.87,3.43,3.43,0,0,1,.82,2.44v6a3.57,3.57,0,0,1-.88,2.65,3.44,3.44,0,0,1-2.51.86Zm1.84-11.09v9.36h.85a1.34,1.34,0,0,0,1.09-.39,1.82,1.82,0,0,0,.33-1.21V61.9a1.91,1.91,0,0,0-.31-1.17,1.3,1.3,0,0,0-1.11-.41Z" transform="translate(-0.86 -2.48)"/><path d="M87.24,71.41V58.59H89l2.35,6.79h0l2.34-6.79h1.78V71.41H93.69v-7.8h0l-1.82,5.51h-.91l-1.81-5.51h0v7.8Z" transform="translate(-0.86 -2.48)"/><path d="M96.42,71.41l2.87-12.82h1.53l2.86,12.82h-1.84l-.54-2.76H98.8l-.54,2.76ZM101,66.93l-.9-4.65h0l-.9,4.65Z" transform="translate(-0.86 -2.48)"/><path d="M104.58,71.41V58.59h2.71a3.16,3.16,0,0,1,2.41.87,3.43,3.43,0,0,1,.82,2.44v6a3.53,3.53,0,0,1-.88,2.65,3.44,3.44,0,0,1-2.51.86Zm1.83-11.09v9.36h.85a1.37,1.37,0,0,0,1.1-.39,1.88,1.88,0,0,0,.32-1.21V61.9a2,2,0,0,0-.3-1.17,1.34,1.34,0,0,0-1.12-.41Z" transform="translate(-0.86 -2.48)"/><path d="M112.24,71.41V58.59h5.48v1.73h-3.64v3.76h3.17v1.73h-3.17v3.76h3.64v1.84Z" transform="translate(-0.86 -2.48)"/><path d="M122.18,67.34V65.5h5.42v1.84Z" transform="translate(-0.86 -2.48)"/><path d="M132.6,71.41V58.59h2.72a3.12,3.12,0,0,1,2.4.87,3.38,3.38,0,0,1,.82,2.44v6a3.57,3.57,0,0,1-.87,2.65,3.44,3.44,0,0,1-2.51.86Zm1.84-11.09v9.36h.84a1.35,1.35,0,0,0,1.1-.39,1.82,1.82,0,0,0,.33-1.21V61.9a2,2,0,0,0-.31-1.17,1.33,1.33,0,0,0-1.12-.41Z" transform="translate(-0.86 -2.48)"/><path d="M139.23,71.41l2.86-12.82h1.53l2.86,12.82h-1.84l-.54-2.76h-2.5l-.54,2.76Zm4.53-4.48-.9-4.65h0l-.9,4.65Z" transform="translate(-0.86 -2.48)"/><path d="M147.6,71.41V60.32h-2.13V58.59h6.09v1.73h-2.13V71.41Z" transform="translate(-0.86 -2.48)"/><path d="M150.55,71.41l2.86-12.82h1.53l2.86,12.82H156l-.54-2.76h-2.51l-.54,2.76Zm4.53-4.48-.9-4.65h0l-.9,4.65Z" transform="translate(-0.86 -2.48)"/><path d="M162.05,71.41V58.59h1.76l2.36,6.79h0l2.34-6.79h1.78V71.41h-1.84v-7.8h0l-1.82,5.51h-.92l-1.8-5.51h0v7.8Z" transform="translate(-0.86 -2.48)"/><path d="M171.23,71.41l2.86-12.82h1.53l2.86,12.82h-1.83l-.54-2.76h-2.5l-.54,2.76Zm4.54-4.48-.9-4.65h0l-.9,4.65Z" transform="translate(-0.86 -2.48)"/><path d="M180.1,71.41V66l-2.52-7.4h1.95l1.47,5.1h0l1.48-5.1h1.94L181.94,66v5.42Z" transform="translate(-0.86 -2.48)"/><path d="M195,58.59l-2.62,12.82h-1.62L188.1,58.59H190l1.46,9h0l1.48-9Z" transform="translate(-0.86 -2.48)"/><path d="M194.56,71.41l2.86-12.82H199l2.86,12.82H200l-.54-2.76h-2.51l-.54,2.76Zm4.53-4.48-.9-4.65h0l-.9,4.65Z" transform="translate(-0.86 -2.48)"/><path d="M202.71,71.41V58.59h2.95c2.16,0,3.24,1.26,3.24,3.76a4.66,4.66,0,0,1-.35,1.93,2.71,2.71,0,0,1-1.23,1.28l2,5.85h-1.94l-1.71-5.47h-1.1v5.47Zm1.84-11.09v4h1a1.88,1.88,0,0,0,.78-.14,1.07,1.07,0,0,0,.45-.39,1.68,1.68,0,0,0,.19-.62,5.3,5.3,0,0,0,.06-.85,5.43,5.43,0,0,0-.06-.86,1.61,1.61,0,0,0-.21-.64,1.48,1.48,0,0,0-1.3-.5Z" transform="translate(-0.86 -2.48)"/><path d="M211.77,71.41V66l-2.52-7.4h1.94l1.48,5.1h0l1.48-5.1h1.94L213.6,66v5.42Z" transform="translate(-0.86 -2.48)"/></g></g></svg>