<svg id="Lager_1" data-name="Lager 1" xmlns="http://www.w3.org/2000/svg" viewBox="0 0 157.38 54.06"><defs><style>.cls-1{stroke:lime;stroke-miterlimit:10;}</style></defs><title>click here for alt wob</title><path class="cls-1" d="M337.47,380.42V382a5.9,5.9,0,0,1-.45,2.25,6.35,6.35,0,0,1-1.25,1.89,5.81,5.81,0,0,1-1.85,1.31,5.35,5.35,0,0,1-2.29.49,8.32,8.32,0,0,1-2.12-.29,5,5,0,0,1-1.94-1,5.69,5.69,0,0,1-1.43-1.85,6.61,6.61,0,0,1-.55-2.9V367.79a6.2,6.2,0,0,1,.43-2.34,5.41,5.41,0,0,1,1.22-1.87,5.72,5.72,0,0,1,1.89-1.25,6.34,6.34,0,0,1,2.43-.45,5.56,5.56,0,0,1,4.21,1.7,6.09,6.09,0,0,1,1.25,2,6.81,6.81,0,0,1,.45,2.46v1.44h-3.68v-1.22a3,3,0,0,0-.61-1.87,2,2,0,0,0-1.65-.79,1.87,1.87,0,0,0-1.82.84,4.55,4.55,0,0,0-.45,2.14v13.11a3.42,3.42,0,0,0,.48,1.87,1.94,1.94,0,0,0,1.75.76,2.76,2.76,0,0,0,.77-.13,2.25,2.25,0,0,0,.78-.41,2.44,2.44,0,0,0,.54-.8,3.25,3.25,0,0,0,.21-1.26v-1.26Z" transform="translate(-325.09 -361.38)"/><path class="cls-1" d="M340.45,387.73V362.1h3.67v22h7.28v3.67Z" transform="translate(-325.09 -361.38)"/><path class="cls-1" d="M353.88,387.73V362.1h3.67v25.63Z" transform="translate(-325.09 -361.38)"/><path class="cls-1" d="M372.78,380.42V382a5.72,5.72,0,0,1-.45,2.25,6.13,6.13,0,0,1-1.24,1.89,6,6,0,0,1-1.86,1.31A5.31,5.31,0,0,1,367,388a8.33,8.33,0,0,1-2.13-.29,5,5,0,0,1-1.94-1,5.54,5.54,0,0,1-1.42-1.85,6.6,6.6,0,0,1-.56-2.9V367.79a6.2,6.2,0,0,1,.43-2.34,5.44,5.44,0,0,1,1.23-1.87,5.52,5.52,0,0,1,1.89-1.25,6.34,6.34,0,0,1,2.43-.45,5.57,5.57,0,0,1,4.21,1.7,5.9,5.9,0,0,1,1.24,2,6.6,6.6,0,0,1,.45,2.46v1.44h-3.67v-1.22a3,3,0,0,0-.61-1.87,2,2,0,0,0-1.66-.79,1.87,1.87,0,0,0-1.82.84,4.55,4.55,0,0,0-.45,2.14v13.11a3.34,3.34,0,0,0,.49,1.87,1.91,1.91,0,0,0,1.74.76,2.89,2.89,0,0,0,.78-.13,2.3,2.3,0,0,0,.77-.41,2.17,2.17,0,0,0,.54-.8,3.06,3.06,0,0,0,.22-1.26v-1.26Z" transform="translate(-325.09 -361.38)"/><path class="cls-1" d="M375.77,387.73V362.1h3.67v11.7h.07l5.37-11.7h3.67l-5,10.26,5.94,15.37H385.6l-4.18-11.37-2,3.7v7.67Z" transform="translate(-325.09 -361.38)"/><path class="cls-1" d="M397.8,387.73V362.1h3.67v11H406v-11h3.67v25.63H406V376.32h-4.54v11.41Z" transform="translate(-325.09 -361.38)"/><path class="cls-1" d="M413.14,387.73V362.1h10.94v3.46h-7.27v7.52h6.33v3.46h-6.33v7.52h7.27v3.67Z" transform="translate(-325.09 -361.38)"/><path class="cls-1" d="M426.46,387.73V362.1h5.9q6.48,0,6.48,7.52a9.48,9.48,0,0,1-.7,3.86,5.47,5.47,0,0,1-2.47,2.55l4,11.7h-3.89l-3.42-10.94h-2.19v10.94Zm3.67-22.17v8h2.09a3.67,3.67,0,0,0,1.54-.27,2,2,0,0,0,.9-.78,3.29,3.29,0,0,0,.4-1.24,13.35,13.35,0,0,0,0-3.42,3.52,3.52,0,0,0-.43-1.28,2.93,2.93,0,0,0-2.59-1Z" transform="translate(-325.09 -361.38)"/><path class="cls-1" d="M441.79,387.73V362.1h10.95v3.46h-7.28v7.52h6.34v3.46h-6.34v7.52h7.28v3.67Z" transform="translate(-325.09 -361.38)"/><path class="cls-1" d="M339.19,414.73V389.1h10.95v3.46h-7.28v7.77h6.34v3.46h-6.34v10.94Z" transform="translate(-325.09 -361.38)"/><path class="cls-1" d="M352.3,395.15a6.57,6.57,0,0,1,.54-2.74,5.82,5.82,0,0,1,1.44-2,6,6,0,0,1,2-1.15,6.33,6.33,0,0,1,4.43,0,6.5,6.5,0,0,1,2,1.15,6,6,0,0,1,1.41,2,6.57,6.57,0,0,1,.54,2.74v13.53a6.53,6.53,0,0,1-.54,2.78,5.69,5.69,0,0,1-1.41,1.9,6.06,6.06,0,0,1-2,1.19,6.33,6.33,0,0,1-4.43,0,5.64,5.64,0,0,1-2-1.19,5.5,5.5,0,0,1-1.44-1.9,6.53,6.53,0,0,1-.54-2.78ZM356,408.68a2.43,2.43,0,0,0,.74,2,2.73,2.73,0,0,0,3.49,0,2.46,2.46,0,0,0,.74-2V395.15a2.44,2.44,0,0,0-.74-2,2.73,2.73,0,0,0-3.49,0,2.41,2.41,0,0,0-.74,2Z" transform="translate(-325.09 -361.38)"/><path class="cls-1" d="M367.85,414.73V389.1h5.9q6.48,0,6.48,7.52a9.48,9.48,0,0,1-.7,3.86,5.47,5.47,0,0,1-2.47,2.55l4,11.7h-3.88l-3.42-10.94h-2.2v10.94Zm3.67-22.17v8h2.09a3.72,3.72,0,0,0,1.55-.27,2.14,2.14,0,0,0,.9-.78,3.48,3.48,0,0,0,.39-1.24,13.35,13.35,0,0,0,0-3.42,3.34,3.34,0,0,0-.43-1.28,2.93,2.93,0,0,0-2.59-1Z" transform="translate(-325.09 -361.38)"/><path class="cls-1" d="M388.22,414.73,394,389.1H397l5.72,25.63h-3.67L398,409.22h-5l-1.08,5.51Zm9.08-9-1.8-9.29h-.08l-1.8,9.29Z" transform="translate(-325.09 -361.38)"/><path class="cls-1" d="M404.53,414.73V389.1h3.67v22h7.28v3.67Z" transform="translate(-325.09 -361.38)"/><path class="cls-1" d="M417.6,414.73V392.56h-4.25V389.1h12.17v3.46h-4.25v22.17Z" transform="translate(-325.09 -361.38)"/><path class="cls-1" d="M452.88,389.1l-3.82,25.63h-3.45L442.8,398.1h-.07L440,414.73H436.5l-3.82-25.63h3.89l1.84,16.27h.07l2.88-16.27h2.81l3,16.67h.08L449,389.1Z" transform="translate(-325.09 -361.38)"/><path class="cls-1" d="M454.53,395.15a6.57,6.57,0,0,1,.54-2.74,5.82,5.82,0,0,1,1.44-2,6.08,6.08,0,0,1,2-1.15,6.31,6.31,0,0,1,4.42,0,6.44,6.44,0,0,1,2,1.15,6,6,0,0,1,1.41,2,6.57,6.57,0,0,1,.54,2.74v13.53a6.53,6.53,0,0,1-.54,2.78,5.69,5.69,0,0,1-1.41,1.9,6,6,0,0,1-2,1.19,6.31,6.31,0,0,1-4.42,0,5.68,5.68,0,0,1-2-1.19,5.5,5.5,0,0,1-1.44-1.9,6.53,6.53,0,0,1-.54-2.78Zm3.68,13.53a2.46,2.46,0,0,0,.73,2,2.75,2.75,0,0,0,3.5,0,2.46,2.46,0,0,0,.73-2V395.15a2.44,2.44,0,0,0-.73-2,2.75,2.75,0,0,0-3.5,0,2.44,2.44,0,0,0-.73,2Z" transform="translate(-325.09 -361.38)"/><path class="cls-1" d="M470.09,414.73V389.1h5.36a7.53,7.53,0,0,1,3,.54,5.74,5.74,0,0,1,2,1.44,5.24,5.24,0,0,1,1.13,2.07,8.55,8.55,0,0,1,.35,2.43v.94a8,8,0,0,1-.17,1.76,4.19,4.19,0,0,1-.48,1.26,5.08,5.08,0,0,1-1.87,1.73,4,4,0,0,1,1.9,1.8,7.1,7.1,0,0,1,.62,3.24v1.44a7.45,7.45,0,0,1-1.64,5.18q-1.63,1.8-5.24,1.8Zm3.67-22.17v7.05h1.65a2.79,2.79,0,0,0,2.47-.92,4.72,4.72,0,0,0,.63-2.68,4,4,0,0,0-.7-2.59,3.12,3.12,0,0,0-2.54-.86Zm0,10.29v8.21h1.58a4,4,0,0,0,1.75-.32,2.24,2.24,0,0,0,1-.9,3.39,3.39,0,0,0,.4-1.37c.05-.53.07-1.1.07-1.73a11.77,11.77,0,0,0-.11-1.69,3,3,0,0,0-.43-1.23,2,2,0,0,0-1-.73,4.54,4.54,0,0,0-1.62-.24Z" transform="translate(-325.09 -361.38)"/></svg>