<svg xmlns="http://www.w3.org/2000/svg" viewBox="0 0 233.58 134.84"><defs><style>.cls-1{fill:#d0f7ef;}</style></defs><title>Resurs 10</title><g id="Lager_2" data-name="Lager 2"><g id="Lager_1-2" data-name="Lager 1"><path d="M9.43,1.08l7.28,32.11,6.55-23.4C24.84,4.18,27.87.65,33.63,1.08l9.14,32.11L48,9.72c1.44-6.19,4.75-9.5,11.38-8.64L48,51.34H38.81L29.59,18.87,20.52,51.34H11.45L0,1.08Z"/><path d="M100.51,7.7a25.48,25.48,0,0,1,7.64,18.73,25.14,25.14,0,0,1-7.49,18.5,24.84,24.84,0,0,1-18.29,7.56,24.89,24.89,0,0,1-18.72-7.77,25.85,25.85,0,0,1-7.42-18.51c0-2.81.5-7.13,1.94-9.94,4.69-9.36,22-7.49,18.94,4.18-3.67-4.39-11.59-2.38-11.23,7.06a15.51,15.51,0,0,0,5.9,12,16.1,16.1,0,0,0,10.59,3.82,15.48,15.48,0,0,0,11.45-4.9,16.72,16.72,0,0,0,4.75-12.1,16.83,16.83,0,0,0-4.75-12.09,15.84,15.84,0,0,0-11.67-4.9,16.62,16.62,0,0,0-5.76.94c-3.45-3.17-9.86-3.39-14.47-.51a26.34,26.34,0,0,1,7.27-6.26A25.58,25.58,0,0,1,82.3,0,24.77,24.77,0,0,1,100.51,7.7Z"/><path d="M107.13,9.43c.08-5.11,2.45-7.85,6.92-8.49h9.86a14.16,14.16,0,0,1,11.52,5.4c4.18,5.25,3.75,13.39-2.45,17.35,12,4.68,11.67,20.59.94,25.92-2.3,1.15-5.47,1.73-9.58,1.73H107.13Zm9.51,32.84c3,0,8.06.36,11-.51,7.34-1.94,5.76-10.58-1.08-12.17-2-.43-6.84-.79-8.28,1.44-2.31-5.4-1.23-9.14,6.4-10.58a5.2,5.2,0,0,0,4.18-5.18c0-2.74-2.23-4.4-4.61-4.9-2.09-.43-5.83-.22-7.63-.22Z"/><path d="M142.42,9.43c.07-5.11,2.44-7.85,6.91-8.49h9.86a14.16,14.16,0,0,1,11.52,5.4c4.18,5.25,3.75,13.39-2.45,17.35,12,4.68,11.67,20.59.94,25.92-2.3,1.15-5.47,1.73-9.58,1.73h-17.2Zm9.5,32.84c3,0,8.06.36,11-.51,7.34-1.94,5.76-10.58-1.08-12.17-2-.43-6.84-.79-8.28,1.44-2.31-5.4-1.23-9.14,6.4-10.58a5.2,5.2,0,0,0,4.18-5.18c0-2.74-2.23-4.4-4.61-4.9-2.09-.43-5.83-.22-7.63-.22Z"/><path d="M204.13,42.2v9.14H177.34V8.5c0-4.76,3.75-7.64,9.51-7.56V42.2Z"/><path d="M233.58,10.37H214.13V21.53h19.45c-.22,4.46-2.09,9.22-7.92,9.22H214.13V41.91h19.45v9.43h-29V9.65c0-5.55,3.53-8.71,8.28-8.71h20.74Z"/><path d="M11.43,51.08l7.28,32.11,6.55-23.4c1.58-5.61,4.61-9.14,10.37-8.71l9.14,32.11L50,59.72c1.44-6.19,4.75-9.5,11.38-8.64L50,101.34H40.81L31.59,68.87l-9.07,32.47H13.45L2,51.08Z"/><path d="M88.69,60.37H69.25V71.53H88.69c-.22,4.46-2.09,9.22-7.92,9.22H69.25V91.91H88.69v9.43h-29V59.65c0-5.55,3.53-8.71,8.28-8.71H88.69Z"/><path d="M115.55,92.2v9.14H88.77V58.5c0-4.76,3.74-7.64,9.5-7.56V92.2Z"/><path d="M141.47,50.94c0,5.9-3.67,9.5-7.85,9.5h-5.76v40.9h-9.72V60.44H107v-9.5Z"/><circle class="cls-1" cx="141.48" cy="115.34" r="19.5"/></g></g></svg>