<svg xmlns="http://www.w3.org/2000/svg" viewBox="0 0 310.34 11.15"><title>Resurs 11</title><g id="Lager_2" data-name="Lager 2"><g id="Lager_2-2" data-name="Lager 2"><path d="M2.43,10.3.15,1.71H1.31L2.62,7.34c.14.59.26,1.17.36,1.76q.33-1.38.39-1.59L5,1.71H6.38L7.61,6.06a22.93,22.93,0,0,1,.66,3c.11-.55.26-1.17.43-1.87l1.35-5.52h1.14L8.84,10.3H7.74L5.93,3.75c-.15-.54-.24-.88-.27-1-.09.39-.17.73-.25,1L3.59,10.3Z" transform="translate(-0.15 -1.67)"/><path d="M11.51,7.19a3.19,3.19,0,0,1,1-2.56,2.9,2.9,0,0,1,2-.7,2.75,2.75,0,0,1,2.09.85,3.16,3.16,0,0,1,.82,2.32A4.13,4.13,0,0,1,17,9a2.58,2.58,0,0,1-1.05,1.07,3.1,3.1,0,0,1-1.5.38,2.8,2.8,0,0,1-2.12-.84A3.37,3.37,0,0,1,11.51,7.19Zm1.08,0A2.71,2.71,0,0,0,13.11,9a1.7,1.7,0,0,0,1.32.59,1.65,1.65,0,0,0,1.3-.6,2.67,2.67,0,0,0,.52-1.82,2.58,2.58,0,0,0-.52-1.75,1.75,1.75,0,0,0-2.62,0A2.67,2.67,0,0,0,12.59,7.19Z" transform="translate(-0.15 -1.67)"/><path d="M19.55,10.3h-1V1.71h1.05V4.77a2.1,2.1,0,0,1,1.71-.84,2.58,2.58,0,0,1,1.09.24,2.17,2.17,0,0,1,.84.65,3.21,3.21,0,0,1,.52,1A4.26,4.26,0,0,1,24,7.09a3.57,3.57,0,0,1-.79,2.48,2.46,2.46,0,0,1-1.89.87,2,2,0,0,1-1.73-.92Zm0-3.16a3.3,3.3,0,0,0,.3,1.62,1.52,1.52,0,0,0,1.35.81A1.5,1.5,0,0,0,22.38,9a2.71,2.71,0,0,0,.51-1.79,2.74,2.74,0,0,0-.49-1.8,1.49,1.49,0,0,0-1.17-.58A1.51,1.51,0,0,0,20,5.4,2.62,2.62,0,0,0,19.54,7.14Z" transform="translate(-0.15 -1.67)"/><path d="M26.22,10.3h-1V1.71H26.3V4.77A2.07,2.07,0,0,1,28,3.93a2.55,2.55,0,0,1,1.09.24,2.17,2.17,0,0,1,.84.65,3,3,0,0,1,.52,1,4,4,0,0,1,.19,1.26,3.57,3.57,0,0,1-.79,2.48,2.48,2.48,0,0,1-1.9.87,2,2,0,0,1-1.73-.92Zm0-3.16a3.3,3.3,0,0,0,.3,1.62A1.52,1.52,0,0,0,29.06,9a2.77,2.77,0,0,0,.5-1.79,2.81,2.81,0,0,0-.48-1.8,1.5,1.5,0,0,0-1.17-.58,1.53,1.53,0,0,0-1.2.6A2.67,2.67,0,0,0,26.21,7.14Z" transform="translate(-0.15 -1.67)"/><path d="M31.9,10.3V1.71H33V10.3Z" transform="translate(-0.15 -1.67)"/><path d="M38.85,8.29l1.09.14a2.61,2.61,0,0,1-1,1.48,2.87,2.87,0,0,1-1.78.53A2.83,2.83,0,0,1,35,9.6a3.26,3.26,0,0,1-.8-2.36A3.48,3.48,0,0,1,35,4.8a2.74,2.74,0,0,1,2.1-.87,2.69,2.69,0,0,1,2,.85A3.38,3.38,0,0,1,40,7.17v.29H35.33A2.4,2.4,0,0,0,35.91,9a1.72,1.72,0,0,0,1.3.54,1.66,1.66,0,0,0,1-.3A2.08,2.08,0,0,0,38.85,8.29Zm-3.47-1.7h3.48a2.14,2.14,0,0,0-.4-1.18,1.61,1.61,0,0,0-1.31-.61,1.66,1.66,0,0,0-1.22.49A1.94,1.94,0,0,0,35.38,6.59Z" transform="translate(-0.15 -1.67)"/><path d="M42.41,10.3l-1.9-6.22H41.6l1,3.59L43,9c0-.06.12-.49.32-1.28l1-3.64h1.08l.93,3.6.31,1.19L47,7.67,48,4.08h1L47.1,10.3H46L45,6.57l-.24-1.06L43.51,10.3Z" transform="translate(-0.15 -1.67)"/><path d="M54.19,8.29l1.09.14a2.61,2.61,0,0,1-1,1.48,2.87,2.87,0,0,1-1.78.53,2.83,2.83,0,0,1-2.16-.84,3.26,3.26,0,0,1-.8-2.36,3.48,3.48,0,0,1,.8-2.44,2.74,2.74,0,0,1,2.1-.87,2.69,2.69,0,0,1,2,.85,3.38,3.38,0,0,1,.79,2.39v.29H50.67A2.4,2.4,0,0,0,51.25,9a1.72,1.72,0,0,0,1.3.54,1.66,1.66,0,0,0,1-.3A2.08,2.08,0,0,0,54.19,8.29Zm-3.47-1.7H54.2a2.14,2.14,0,0,0-.4-1.18,1.61,1.61,0,0,0-1.31-.61,1.66,1.66,0,0,0-1.22.49A1.94,1.94,0,0,0,50.72,6.59Z" transform="translate(-0.15 -1.67)"/><path d="M56.58,10.3V1.71h1.05V10.3Z" transform="translate(-0.15 -1.67)"/><path d="M61.57,9.35l.15.94a4,4,0,0,1-.79.09A1.79,1.79,0,0,1,60,10.2a1,1,0,0,1-.45-.48,3.64,3.64,0,0,1-.13-1.24V4.9h-.77V4.08h.77V2.53l1-.63V4.08h1.06V4.9H60.51V8.53a1.69,1.69,0,0,0,.06.58.37.37,0,0,0,.18.21.69.69,0,0,0,.36.08A3.31,3.31,0,0,0,61.57,9.35Z" transform="translate(-0.15 -1.67)"/><path d="M71.19,9.28v1H65.51a1.78,1.78,0,0,1,.12-.73,4,4,0,0,1,.7-1.15,10,10,0,0,1,1.38-1.3A11.53,11.53,0,0,0,69.6,5.3,2.14,2.14,0,0,0,70.09,4,1.39,1.39,0,0,0,69.64,3a1.61,1.61,0,0,0-1.17-.43A1.67,1.67,0,0,0,67.25,3a1.75,1.75,0,0,0-.46,1.27l-1.08-.11a2.66,2.66,0,0,1,.83-1.85,2.86,2.86,0,0,1,2-.64,2.7,2.7,0,0,1,2,.69,2.25,2.25,0,0,1,.72,1.7,2.58,2.58,0,0,1-.21,1,3.91,3.91,0,0,1-.7,1,16.62,16.62,0,0,1-1.62,1.51c-.64.53-1,.89-1.22,1.08a3.74,3.74,0,0,0-.45.57Z" transform="translate(-0.15 -1.67)"/><path d="M72.32,6.06a7.86,7.86,0,0,1,.31-2.45,3,3,0,0,1,.93-1.43,2.36,2.36,0,0,1,1.56-.51A2.6,2.6,0,0,1,76.33,2a2.35,2.35,0,0,1,.86.8A4,4,0,0,1,77.72,4a8.38,8.38,0,0,1,.2,2,8.09,8.09,0,0,1-.31,2.44,3.11,3.11,0,0,1-.93,1.44,2.36,2.36,0,0,1-1.56.5,2.33,2.33,0,0,1-2-.89A5.63,5.63,0,0,1,72.32,6.06Zm1.08,0a5.4,5.4,0,0,0,.5,2.82,1.41,1.41,0,0,0,2.44,0,5.36,5.36,0,0,0,.49-2.81,5.43,5.43,0,0,0-.49-2.82,1.47,1.47,0,0,0-1.23-.69A1.33,1.33,0,0,0,74,3.16,5.36,5.36,0,0,0,73.4,6.06Z" transform="translate(-0.15 -1.67)"/><path d="M79,6.06a7.86,7.86,0,0,1,.31-2.45,3,3,0,0,1,.94-1.43,2.35,2.35,0,0,1,1.55-.51A2.57,2.57,0,0,1,83,2a2.38,2.38,0,0,1,.87.8A4.56,4.56,0,0,1,84.4,4a8.45,8.45,0,0,1,.19,2,7.79,7.79,0,0,1-.31,2.44,3.11,3.11,0,0,1-.93,1.44,2.36,2.36,0,0,1-1.56.5,2.33,2.33,0,0,1-2-.89A5.63,5.63,0,0,1,79,6.06Zm1.08,0a5.4,5.4,0,0,0,.5,2.82,1.48,1.48,0,0,0,1.22.7A1.45,1.45,0,0,0,83,8.87a5.34,5.34,0,0,0,.5-2.81A5.4,5.4,0,0,0,83,3.24a1.47,1.47,0,0,0-1.23-.69,1.34,1.34,0,0,0-1.16.61A5.46,5.46,0,0,0,80.07,6.06Z" transform="translate(-0.15 -1.67)"/><path d="M85.73,2.83v-1h5.56v.82A12.23,12.23,0,0,0,89.67,5a14.28,14.28,0,0,0-1.25,3A11.17,11.17,0,0,0,88,10.3H86.94a10.57,10.57,0,0,1,.39-2.45,12.9,12.9,0,0,1,1.1-2.77,11.89,11.89,0,0,1,1.51-2.25Z" transform="translate(-0.15 -1.67)"/><path d="M94.49,10.3l3.3-8.59H99l3.51,8.59h-1.29l-1-2.6h-3.6l-.94,2.6ZM97,6.77h2.91L99,4.39c-.28-.72-.48-1.31-.61-1.78a10.84,10.84,0,0,1-.46,1.64Z" transform="translate(-0.15 -1.67)"/><path d="M103.28,10.3V1.71h1.06V10.3Z" transform="translate(-0.15 -1.67)"/><path d="M106,10.3V1.71h1V10.3Z" transform="translate(-0.15 -1.67)"/><path d="M112,10.3V4.08h1V5a2.6,2.6,0,0,1,.67-.87,1.13,1.13,0,0,1,.68-.22,2.13,2.13,0,0,1,1.08.34l-.36,1a1.55,1.55,0,0,0-.77-.23,1,1,0,0,0-.63.21,1.15,1.15,0,0,0-.39.58A4,4,0,0,0,113,7V10.3Z" transform="translate(-0.15 -1.67)"/><path d="M116,2.92V1.71H117V2.92Zm0,7.38V4.08H117V10.3Z" transform="translate(-0.15 -1.67)"/><path d="M118.44,10.81l1,.16a1,1,0,0,0,.35.69,1.82,1.82,0,0,0,1.08.29,2,2,0,0,0,1.13-.29,1.53,1.53,0,0,0,.54-.82,6.89,6.89,0,0,0,.07-1.36,2.14,2.14,0,0,1-1.72.82,2.35,2.35,0,0,1-2-.93,3.57,3.57,0,0,1-.7-2.22,4.21,4.21,0,0,1,.32-1.64,2.68,2.68,0,0,1,.94-1.17,2.56,2.56,0,0,1,1.44-.41,2.21,2.21,0,0,1,1.81.9V4.08h1V9.45a5.06,5.06,0,0,1-.29,2.06,2.13,2.13,0,0,1-.94,1,3.18,3.18,0,0,1-1.58.35,3,3,0,0,1-1.8-.5A1.71,1.71,0,0,1,118.44,10.81Zm.87-3.73a2.7,2.7,0,0,0,.49,1.78,1.52,1.52,0,0,0,1.22.56,1.57,1.57,0,0,0,1.22-.55,2.62,2.62,0,0,0,.49-1.76,2.52,2.52,0,0,0-.51-1.72A1.54,1.54,0,0,0,121,4.81a1.5,1.5,0,0,0-1.19.57A2.54,2.54,0,0,0,119.31,7.08Z" transform="translate(-0.15 -1.67)"/><path d="M125.31,10.3V1.71h1V4.79a2.39,2.39,0,0,1,1.87-.86,2.53,2.53,0,0,1,1.2.28,1.6,1.6,0,0,1,.73.75,3.59,3.59,0,0,1,.22,1.39v4h-1.06v-4A1.63,1.63,0,0,0,129,5.2a1.28,1.28,0,0,0-1-.36,1.63,1.63,0,0,0-.88.25,1.35,1.35,0,0,0-.59.66,2.92,2.92,0,0,0-.18,1.14V10.3Z" transform="translate(-0.15 -1.67)"/><path d="M134.29,9.35l.15.94a4.08,4.08,0,0,1-.8.09,1.82,1.82,0,0,1-.89-.18,1,1,0,0,1-.45-.48,4,4,0,0,1-.12-1.24V4.9h-.78V4.08h.78V2.53l1-.63V4.08h1.07V4.9h-1.07V8.53a1.69,1.69,0,0,0,.06.58.46.46,0,0,0,.18.21.74.74,0,0,0,.36.08A3.43,3.43,0,0,0,134.29,9.35Z" transform="translate(-0.15 -1.67)"/><path d="M134.89,8.44l1.05-.16a1.49,1.49,0,0,0,.49,1,1.7,1.7,0,0,0,1.12.33,1.72,1.72,0,0,0,1.08-.29.9.9,0,0,0,.35-.7.63.63,0,0,0-.31-.56,4.7,4.7,0,0,0-1.08-.36A8.8,8.8,0,0,1,136,7.15a1.58,1.58,0,0,1-.68-.59,1.6,1.6,0,0,1-.23-.83,1.54,1.54,0,0,1,.19-.77,1.65,1.65,0,0,1,.52-.59,2.09,2.09,0,0,1,.67-.31,3.33,3.33,0,0,1,.91-.13,3.42,3.42,0,0,1,1.29.22,1.69,1.69,0,0,1,.81.57,2.22,2.22,0,0,1,.37,1l-1,.14a1.16,1.16,0,0,0-.41-.75,1.47,1.47,0,0,0-.95-.27,1.73,1.73,0,0,0-1,.24.69.69,0,0,0-.31.56.56.56,0,0,0,.13.37.82.82,0,0,0,.4.28l.93.27a15,15,0,0,1,1.57.49,1.66,1.66,0,0,1,.69.56,1.52,1.52,0,0,1,.25.9,1.73,1.73,0,0,1-.31,1,2,2,0,0,1-.88.72,3.27,3.27,0,0,1-1.32.26,2.88,2.88,0,0,1-1.84-.51A2.31,2.31,0,0,1,134.89,8.44Z" transform="translate(-0.15 -1.67)"/><path d="M144.64,10.3V4.08h1V5a2.48,2.48,0,0,1,.67-.87,1.11,1.11,0,0,1,.68-.22,2.13,2.13,0,0,1,1.08.34l-.36,1a1.56,1.56,0,0,0-.78-.23,1,1,0,0,0-.62.21,1.15,1.15,0,0,0-.39.58A4,4,0,0,0,145.69,7V10.3Z" transform="translate(-0.15 -1.67)"/><path d="M152.91,8.29l1.09.14a2.66,2.66,0,0,1-1,1.48,3.24,3.24,0,0,1-3.95-.31,3.31,3.31,0,0,1-.8-2.36,3.44,3.44,0,0,1,.81-2.44,2.74,2.74,0,0,1,2.1-.87,2.69,2.69,0,0,1,2,.85A3.38,3.38,0,0,1,154,7.17v.29h-4.65A2.46,2.46,0,0,0,150,9a1.76,1.76,0,0,0,1.31.54,1.66,1.66,0,0,0,1-.3A2.08,2.08,0,0,0,152.91,8.29Zm-3.47-1.7h3.48a2.14,2.14,0,0,0-.4-1.18,1.61,1.61,0,0,0-1.31-.61,1.66,1.66,0,0,0-1.22.49A1.94,1.94,0,0,0,149.44,6.59Z" transform="translate(-0.15 -1.67)"/><path d="M154.9,8.44l1-.16a1.49,1.49,0,0,0,.49,1,1.72,1.72,0,0,0,1.12.33,1.68,1.68,0,0,0,1.08-.29.87.87,0,0,0,.35-.7.63.63,0,0,0-.31-.56,4.35,4.35,0,0,0-1.08-.36,8.37,8.37,0,0,1-1.6-.51,1.56,1.56,0,0,1-.92-1.42,1.66,1.66,0,0,1,.71-1.36,2.2,2.2,0,0,1,.67-.31,3.6,3.6,0,0,1,2.2.09,1.77,1.77,0,0,1,.82.57,2.22,2.22,0,0,1,.36,1l-1,.14a1.12,1.12,0,0,0-.41-.75,1.47,1.47,0,0,0-.95-.27,1.75,1.75,0,0,0-1,.24.72.72,0,0,0-.31.56.62.62,0,0,0,.13.37.85.85,0,0,0,.41.28q.15.06.93.27a14.58,14.58,0,0,1,1.56.49,1.55,1.55,0,0,1,.69.56,1.52,1.52,0,0,1,.26.9,1.81,1.81,0,0,1-.31,1,2,2,0,0,1-.89.72,3.22,3.22,0,0,1-1.31.26,2.89,2.89,0,0,1-1.85-.51A2.35,2.35,0,0,1,154.9,8.44Z" transform="translate(-0.15 -1.67)"/><path d="M165.58,8.29l1.09.14a2.61,2.61,0,0,1-1,1.48,3.22,3.22,0,0,1-3.94-.31,3.31,3.31,0,0,1-.8-2.36,3.44,3.44,0,0,1,.81-2.44,2.74,2.74,0,0,1,2.1-.87,2.66,2.66,0,0,1,2,.85,3.38,3.38,0,0,1,.8,2.39c0,.07,0,.16,0,.29h-4.64A2.4,2.4,0,0,0,162.64,9a1.74,1.74,0,0,0,1.3.54,1.62,1.62,0,0,0,1-.3A2.08,2.08,0,0,0,165.58,8.29Zm-3.46-1.7h3.47a2.14,2.14,0,0,0-.4-1.18,1.59,1.59,0,0,0-1.3-.61,1.64,1.64,0,0,0-1.22.49A1.86,1.86,0,0,0,162.12,6.59Z" transform="translate(-0.15 -1.67)"/><path d="M168,10.3V4.08h1V5a2.6,2.6,0,0,1,.67-.87,1.13,1.13,0,0,1,.68-.22,2.1,2.1,0,0,1,1.08.34l-.36,1a1.55,1.55,0,0,0-.77-.23,1,1,0,0,0-.62.21,1.11,1.11,0,0,0-.4.58A4.3,4.3,0,0,0,169,7V10.3Z" transform="translate(-0.15 -1.67)"/><path d="M173.72,10.3l-2.37-6.22h1.11L173.8,7.8c.15.4.28.82.4,1.26.09-.33.22-.73.39-1.19L176,4.08h1.09L174.7,10.3Z" transform="translate(-0.15 -1.67)"/><path d="M182.25,8.29l1.09.14a2.61,2.61,0,0,1-1,1.48,3.22,3.22,0,0,1-3.94-.31,3.31,3.31,0,0,1-.8-2.36,3.44,3.44,0,0,1,.81-2.44,2.73,2.73,0,0,1,2.09-.87,2.66,2.66,0,0,1,2,.85,3.38,3.38,0,0,1,.8,2.39c0,.07,0,.16,0,.29h-4.64A2.4,2.4,0,0,0,179.31,9a1.74,1.74,0,0,0,1.3.54,1.62,1.62,0,0,0,1-.3A2.08,2.08,0,0,0,182.25,8.29Zm-3.46-1.7h3.47a2.14,2.14,0,0,0-.4-1.18,1.59,1.59,0,0,0-1.3-.61,1.68,1.68,0,0,0-1.23.49A1.89,1.89,0,0,0,178.79,6.59Z" transform="translate(-0.15 -1.67)"/><path d="M188.7,10.3V9.51a1.92,1.92,0,0,1-1.74.93,2.47,2.47,0,0,1-1.37-.41,2.72,2.72,0,0,1-1-1.15,3.92,3.92,0,0,1-.35-1.69,4.58,4.58,0,0,1,.31-1.69,2.48,2.48,0,0,1,2.32-1.57,2.09,2.09,0,0,1,1,.24,2.14,2.14,0,0,1,.71.62V1.71h1.05V10.3Zm-3.33-3.11a2.75,2.75,0,0,0,.5,1.79,1.51,1.51,0,0,0,2.37,0,2.65,2.65,0,0,0,.48-1.73,3,3,0,0,0-.49-1.87,1.53,1.53,0,0,0-1.22-.6,1.45,1.45,0,0,0-1.17.57A2.8,2.8,0,0,0,185.37,7.19Z" transform="translate(-0.15 -1.67)"/><path d="M191.64,10.3V9.1h1.2v1.2Z" transform="translate(-0.15 -1.67)"/><path d="M199.15,10.3l-1.9-6.22h1.09l1,3.59L199.7,9c0-.06.12-.49.32-1.28l1-3.64h1.09l.93,3.6.31,1.19.36-1.2,1.06-3.59h1l-1.95,6.22h-1.09l-1-3.73-.24-1.06-1.26,4.79Z" transform="translate(-0.15 -1.67)"/><path d="M207.82,10.3l-1.9-6.22H207l1,3.59L208.37,9c0-.06.12-.49.32-1.28l1-3.64h1.08l.93,3.6L212,8.87l.36-1.2,1.07-3.59h1l-1.94,6.22h-1.1l-1-3.73-.24-1.06-1.26,4.79Z" transform="translate(-0.15 -1.67)"/><path d="M216.49,10.3l-1.91-6.22h1.09l1,3.59L217,9c0-.06.12-.49.32-1.28l1-3.64h1.09l.93,3.6.31,1.19.36-1.2,1.06-3.59h1l-2,6.22h-1.09l-1-3.73-.24-1.06-1.26,4.79Z" transform="translate(-0.15 -1.67)"/><path d="M223.64,10.3V9.1h1.2v1.2Z" transform="translate(-0.15 -1.67)"/><path d="M227.82,10.3l-1.9-6.22H227l1,3.59L228.37,9c0-.06.12-.49.32-1.28l1-3.64h1.09l.93,3.6L232,8.87l.36-1.2,1.06-3.59h1l-2,6.22h-1.09l-1-3.73-.24-1.06-1.26,4.79Z" transform="translate(-0.15 -1.67)"/><path d="M235,7.19a3.19,3.19,0,0,1,1-2.56,2.92,2.92,0,0,1,2-.7,2.75,2.75,0,0,1,2.09.85,3.16,3.16,0,0,1,.82,2.32A4.13,4.13,0,0,1,240.42,9a2.58,2.58,0,0,1-1,1.07,3.1,3.1,0,0,1-1.5.38,2.82,2.82,0,0,1-2.12-.84A3.37,3.37,0,0,1,235,7.19Zm1.08,0A2.71,2.71,0,0,0,236.55,9a1.7,1.7,0,0,0,1.32.59,1.64,1.64,0,0,0,1.3-.6,2.67,2.67,0,0,0,.53-1.82,2.58,2.58,0,0,0-.53-1.75,1.75,1.75,0,0,0-2.62,0A2.67,2.67,0,0,0,236,7.19Z" transform="translate(-0.15 -1.67)"/><path d="M243,10.3h-1V1.71h1.05V4.77a2.1,2.1,0,0,1,1.71-.84,2.58,2.58,0,0,1,1.09.24,2.17,2.17,0,0,1,.84.65,3.21,3.21,0,0,1,.52,1,4.26,4.26,0,0,1,.19,1.26,3.62,3.62,0,0,1-.79,2.48,2.48,2.48,0,0,1-1.9.87A2,2,0,0,1,243,9.52Zm0-3.16a3.3,3.3,0,0,0,.3,1.62,1.52,1.52,0,0,0,1.35.81,1.5,1.5,0,0,0,1.19-.6,2.71,2.71,0,0,0,.51-1.79,2.74,2.74,0,0,0-.49-1.8,1.48,1.48,0,0,0-1.16-.58,1.52,1.52,0,0,0-1.2.6A2.62,2.62,0,0,0,243,7.14Z" transform="translate(-0.15 -1.67)"/><path d="M249.66,10.3h-1V1.71h1.06V4.77a2.07,2.07,0,0,1,1.7-.84,2.52,2.52,0,0,1,1.09.24,2.17,2.17,0,0,1,.84.65,3,3,0,0,1,.52,1,4,4,0,0,1,.19,1.26,3.57,3.57,0,0,1-.79,2.48,2.48,2.48,0,0,1-1.9.87,2,2,0,0,1-1.73-.92Zm0-3.16A3.17,3.17,0,0,0,250,8.76a1.51,1.51,0,0,0,1.34.81,1.53,1.53,0,0,0,1.2-.6,2.77,2.77,0,0,0,.5-1.79,2.81,2.81,0,0,0-.48-1.8,1.49,1.49,0,0,0-1.17-.58,1.53,1.53,0,0,0-1.2.6A2.67,2.67,0,0,0,249.65,7.14Z" transform="translate(-0.15 -1.67)"/><path d="M255.34,10.3V1.71h1V10.3Z" transform="translate(-0.15 -1.67)"/><path d="M262.29,8.29l1.09.14a2.61,2.61,0,0,1-1,1.48,3.22,3.22,0,0,1-3.94-.31,3.26,3.26,0,0,1-.8-2.36,3.44,3.44,0,0,1,.81-2.44,2.72,2.72,0,0,1,2.09-.87,2.66,2.66,0,0,1,2,.85,3.38,3.38,0,0,1,.79,2.39v.29h-4.64A2.4,2.4,0,0,0,259.35,9a1.74,1.74,0,0,0,1.3.54,1.62,1.62,0,0,0,1-.3A2.08,2.08,0,0,0,262.29,8.29Zm-3.46-1.7h3.47a2.14,2.14,0,0,0-.4-1.18,1.59,1.59,0,0,0-1.3-.61,1.67,1.67,0,0,0-1.23.49A1.89,1.89,0,0,0,258.83,6.59Z" transform="translate(-0.15 -1.67)"/><path d="M265.85,10.3,264,4.08H265l1,3.59L266.4,9c0-.06.12-.49.32-1.28l1-3.64h1.08l.93,3.6L270,8.87l.35-1.2,1.07-3.59h1l-1.94,6.22h-1.1l-1-3.73-.24-1.06L267,10.3Z" transform="translate(-0.15 -1.67)"/><path d="M277.63,8.29l1.09.14a2.61,2.61,0,0,1-1,1.48,3.22,3.22,0,0,1-3.94-.31,3.26,3.26,0,0,1-.8-2.36,3.44,3.44,0,0,1,.81-2.44,2.72,2.72,0,0,1,2.09-.87,2.66,2.66,0,0,1,2,.85,3.38,3.38,0,0,1,.79,2.39v.29h-4.64A2.4,2.4,0,0,0,274.69,9a1.74,1.74,0,0,0,1.3.54,1.62,1.62,0,0,0,1-.3A2.08,2.08,0,0,0,277.63,8.29Zm-3.46-1.7h3.47a2.14,2.14,0,0,0-.4-1.18,1.59,1.59,0,0,0-1.3-.61,1.67,1.67,0,0,0-1.23.49A1.89,1.89,0,0,0,274.17,6.59Z" transform="translate(-0.15 -1.67)"/><path d="M280,10.3V1.71h1.05V10.3Z" transform="translate(-0.15 -1.67)"/><path d="M285,9.35l.15.94a4,4,0,0,1-.79.09,1.79,1.79,0,0,1-.89-.18,1,1,0,0,1-.45-.48,3.93,3.93,0,0,1-.13-1.24V4.9h-.77V4.08h.77V2.53L284,1.9V4.08H285V4.9H284V8.53a1.69,1.69,0,0,0,.06.58.37.37,0,0,0,.18.21.69.69,0,0,0,.36.08A3.17,3.17,0,0,0,285,9.35Z" transform="translate(-0.15 -1.67)"/><path d="M286.34,10.3V9.1h1.2v1.2Z" transform="translate(-0.15 -1.67)"/><path d="M293.44,8l1,.13a2.64,2.64,0,0,1-.87,1.68,2.5,2.5,0,0,1-1.72.61,2.66,2.66,0,0,1-2.05-.84,3.36,3.36,0,0,1-.78-2.39,4.35,4.35,0,0,1,.34-1.76,2.28,2.28,0,0,1,1-1.14,3,3,0,0,1,1.48-.38,2.59,2.59,0,0,1,1.66.52,2.37,2.37,0,0,1,.83,1.45l-1,.16a1.69,1.69,0,0,0-.52-.94,1.36,1.36,0,0,0-.9-.32,1.63,1.63,0,0,0-1.29.57,2.68,2.68,0,0,0-.5,1.81A2.79,2.79,0,0,0,290.62,9a1.56,1.56,0,0,0,1.25.57,1.5,1.5,0,0,0,1-.38A1.89,1.89,0,0,0,293.44,8Z" transform="translate(-0.15 -1.67)"/><path d="M295,7.19a3.16,3.16,0,0,1,1-2.56,2.88,2.88,0,0,1,1.95-.7,2.76,2.76,0,0,1,2.1.85,3.2,3.2,0,0,1,.81,2.32A4.13,4.13,0,0,1,300.45,9a2.61,2.61,0,0,1-1,1.07,3.11,3.11,0,0,1-1.51.38,2.79,2.79,0,0,1-2.11-.84A3.33,3.33,0,0,1,295,7.19Zm1.09,0A2.66,2.66,0,0,0,296.59,9a1.7,1.7,0,0,0,1.31.59,1.66,1.66,0,0,0,1.31-.6,2.67,2.67,0,0,0,.52-1.82,2.58,2.58,0,0,0-.52-1.75,1.7,1.7,0,0,0-1.31-.59,1.66,1.66,0,0,0-1.31.59A2.62,2.62,0,0,0,296.07,7.19Z" transform="translate(-0.15 -1.67)"/><path d="M302.05,10.3V4.08H303V5a2.19,2.19,0,0,1,1.89-1,2,2,0,0,1,1.13.29,1.52,1.52,0,0,1,.63.8,2.24,2.24,0,0,1,1.92-1.09,1.89,1.89,0,0,1,1.42.52,2.16,2.16,0,0,1,.5,1.58V10.3h-1.05V6.38a2.83,2.83,0,0,0-.1-.91A.86.86,0,0,0,309,5a1.19,1.19,0,0,0-.63-.17,1.44,1.44,0,0,0-1.09.44,1.9,1.9,0,0,0-.44,1.39V10.3h-1.05V6.25a1.78,1.78,0,0,0-.26-1,1,1,0,0,0-.84-.35,1.62,1.62,0,0,0-.83.23,1.34,1.34,0,0,0-.54.69,3.67,3.67,0,0,0-.17,1.3V10.3Z" transform="translate(-0.15 -1.67)"/></g></g></svg>