<svg xmlns="http://www.w3.org/2000/svg" viewBox="0 0 202.89 68.92"><title>Resurs 13</title><g id="Lager_2" data-name="Lager 2"><g id="Lager_1-2" data-name="Lager 1"><path d="M125.91,15.41V2.59h1.76L130,9.38h0l2.34-6.79h1.78V15.41h-1.84V7.61h0l-1.82,5.51h-.92l-1.8-5.51h0v7.8Z" transform="translate(-0.76 -2.48)"/><path d="M135.81,5.62a3.25,3.25,0,0,1,.27-1.37,2.82,2.82,0,0,1,.72-1,3,3,0,0,1,1-.58,3.25,3.25,0,0,1,3.21.58,2.9,2.9,0,0,1,.7,1A3.25,3.25,0,0,1,142,5.62v6.76a3.25,3.25,0,0,1-.27,1.39,2.83,2.83,0,0,1-.7,1,2.93,2.93,0,0,1-1,.6,3.15,3.15,0,0,1-2.21,0,3.16,3.16,0,0,1-1.7-1.55,3.25,3.25,0,0,1-.27-1.39Zm1.83,6.76a1.25,1.25,0,0,0,.37,1,1.39,1.39,0,0,0,1.75,0,1.25,1.25,0,0,0,.37-1V5.62a1.27,1.27,0,0,0-.37-1,1.39,1.39,0,0,0-1.75,0,1.27,1.27,0,0,0-.37,1Z" transform="translate(-0.76 -2.48)"/><path d="M143.58,15.41V2.59h2.72a3.12,3.12,0,0,1,2.4.87,3.38,3.38,0,0,1,.82,2.44v6a3.57,3.57,0,0,1-.87,2.65,3.44,3.44,0,0,1-2.51.86Zm1.84-11.09v9.36h.85a1.34,1.34,0,0,0,1.09-.39,1.82,1.82,0,0,0,.33-1.21V5.9a2,2,0,0,0-.31-1.17,1.3,1.3,0,0,0-1.11-.41Z" transform="translate(-0.76 -2.48)"/><path d="M151.25,15.41V2.59h5.47V4.32h-3.63V8.08h3.17V9.81h-3.17v3.76h3.63v1.84Z" transform="translate(-0.76 -2.48)"/><path d="M157.91,15.41V2.59h1.84v11h3.63v1.84Z" transform="translate(-0.76 -2.48)"/><path d="M164.46,11.32V9.49h1.84v1.83Zm0,4.09V13.57h1.84v1.84Z" transform="translate(-0.76 -2.48)"/><path d="M167.38,5.76V2.59h1.83V4.43Zm2.52,0V2.59h1.83V4.43Z" transform="translate(-0.76 -2.48)"/><path d="M178.86,6.28H177V5.87a1.94,1.94,0,0,0-.3-1.09,1.09,1.09,0,0,0-1-.46,1.2,1.2,0,0,0-.61.14,1.31,1.31,0,0,0-.38.36,1.83,1.83,0,0,0-.2.54,4,4,0,0,0,0,.62,5.53,5.53,0,0,0,0,.63,1.17,1.17,0,0,0,.13.45,1,1,0,0,0,.32.34,3.14,3.14,0,0,0,.56.29l1.41.55a3.67,3.67,0,0,1,1,.55,2.4,2.4,0,0,1,.59.73,3.61,3.61,0,0,1,.27,1,9.49,9.49,0,0,1,.07,1.25,6.6,6.6,0,0,1-.16,1.51,3.26,3.26,0,0,1-.52,1.18,2.59,2.59,0,0,1-1,.79,3.53,3.53,0,0,1-1.49.29,3.24,3.24,0,0,1-1.25-.24,2.89,2.89,0,0,1-1-.65,3.07,3.07,0,0,1-.65-1,2.8,2.8,0,0,1-.25-1.2v-.68h1.84v.58a1.51,1.51,0,0,0,.3.91,1.17,1.17,0,0,0,1,.4,1.56,1.56,0,0,0,.72-.14.89.89,0,0,0,.41-.38,1.56,1.56,0,0,0,.17-.61q0-.35,0-.78a6.47,6.47,0,0,0,0-.83,1.4,1.4,0,0,0-.14-.52,1,1,0,0,0-.34-.32,2.81,2.81,0,0,0-.55-.27l-1.31-.54A2.91,2.91,0,0,1,173.06,8a4.41,4.41,0,0,1-.41-2,4.66,4.66,0,0,1,.2-1.36,2.94,2.94,0,0,1,.6-1.12,2.77,2.77,0,0,1,1-.75,3.28,3.28,0,0,1,1.39-.28,3,3,0,0,1,1.25.26,3.24,3.24,0,0,1,1,.66,2.79,2.79,0,0,1,.82,2Z" transform="translate(-0.76 -2.48)"/><path d="M180.28,15.41V2.59h1.84V15.41Z" transform="translate(-0.76 -2.48)"/><path d="M183.83,15.41V2.59h1.76l2.78,7.72h0V2.59h1.84V15.41h-1.73L185.7,7.7h0v7.71Z" transform="translate(-0.76 -2.48)"/><path d="M191.89,15.41V2.59h1.84V8.44h0l2.68-5.85h1.83l-2.5,5.13,3,7.69h-1.94l-2.09-5.69-1,1.85v3.84Z" transform="translate(-0.76 -2.48)"/><path d="M199,5.76V2.59h1.84V4.43Zm2.52,0V2.59h1.84V4.43Z" transform="translate(-0.76 -2.48)"/><path d="M60.66,20.28H58.82v-.41a2,2,0,0,0-.29-1.09,1.09,1.09,0,0,0-1-.46,1.09,1.09,0,0,0-1,.5,1.59,1.59,0,0,0-.2.54,3.05,3.05,0,0,0-.05.62,5.83,5.83,0,0,0,0,.63,1.39,1.39,0,0,0,.14.45,1,1,0,0,0,.31.34,3.7,3.7,0,0,0,.57.29l1.4.55a3.52,3.52,0,0,1,1,.55,2.44,2.44,0,0,1,.6.73,3.61,3.61,0,0,1,.27,1,9.49,9.49,0,0,1,.07,1.25,6.6,6.6,0,0,1-.16,1.51A3.26,3.26,0,0,1,60,28.44a2.75,2.75,0,0,1-1,.79,3.55,3.55,0,0,1-1.5.29,3.19,3.19,0,0,1-1.24-.24,2.89,2.89,0,0,1-1-.65,3,3,0,0,1-.9-2.16v-.68H56.2v.58a1.5,1.5,0,0,0,.29.91,1.18,1.18,0,0,0,1,.4,1.6,1.6,0,0,0,.73-.14.94.94,0,0,0,.41-.38,1.56,1.56,0,0,0,.17-.61c0-.23,0-.49,0-.78s0-.61,0-.83a1.39,1.39,0,0,0-.15-.52.92.92,0,0,0-.33-.32,3.13,3.13,0,0,0-.55-.27l-1.31-.54A2.94,2.94,0,0,1,54.85,22a4.41,4.41,0,0,1-.4-2,4.66,4.66,0,0,1,.2-1.36,3.07,3.07,0,0,1,.59-1.12,2.77,2.77,0,0,1,1-.75,3.33,3.33,0,0,1,1.4-.28,3,3,0,0,1,1.25.26,3.08,3.08,0,0,1,1,.66,2.81,2.81,0,0,1,.83,2Z" transform="translate(-0.76 -2.48)"/><path d="M63.23,29.41V18.32H61.11V16.59h6.08v1.73H65.07V29.41Z" transform="translate(-0.76 -2.48)"/><path d="M66.19,29.41l2.86-12.82h1.53l2.86,12.82H71.6l-.54-2.76h-2.5L68,29.41Zm4.53-4.48-.9-4.65h0l-.9,4.65Z" transform="translate(-0.76 -2.48)"/><path d="M74.39,29.41V16.59h1.84V29.41Z" transform="translate(-0.76 -2.48)"/><path d="M77.94,29.41V16.59H79.7l2.78,7.72h0V16.59h1.84V29.41H82.62L79.81,21.7h0v7.71Z" transform="translate(-0.76 -2.48)"/><path d="M86,29.41V16.59h1.84v11h3.63v1.84Z" transform="translate(-0.76 -2.48)"/><path d="M92.66,29.41V16.59h5.47v1.73H94.5v3.76h3.17v1.73H94.5v3.76h3.63v1.84Z" transform="translate(-0.76 -2.48)"/><path d="M105.26,20.28h-1.83v-.41a1.94,1.94,0,0,0-.3-1.09,1.09,1.09,0,0,0-1-.46,1.2,1.2,0,0,0-.61.14,1.31,1.31,0,0,0-.38.36,1.59,1.59,0,0,0-.2.54,4,4,0,0,0,0,.62,5.53,5.53,0,0,0,0,.63,1.17,1.17,0,0,0,.13.45,1,1,0,0,0,.32.34,3.14,3.14,0,0,0,.56.29l1.41.55a3.83,3.83,0,0,1,1,.55,2.4,2.4,0,0,1,.59.73,3.61,3.61,0,0,1,.27,1,9.49,9.49,0,0,1,.07,1.25,6.6,6.6,0,0,1-.16,1.51,3.26,3.26,0,0,1-.52,1.18,2.59,2.59,0,0,1-1,.79,3.55,3.55,0,0,1-1.5.29,3.22,3.22,0,0,1-1.24-.24,2.89,2.89,0,0,1-1-.65,3.07,3.07,0,0,1-.65-1,2.8,2.8,0,0,1-.25-1.2v-.68h1.84v.58a1.51,1.51,0,0,0,.3.91,1.16,1.16,0,0,0,1,.4,1.57,1.57,0,0,0,.73-.14.89.89,0,0,0,.41-.38,1.56,1.56,0,0,0,.17-.61q0-.35,0-.78c0-.33,0-.61,0-.83a1.4,1.4,0,0,0-.14-.52,1,1,0,0,0-.34-.32,2.81,2.81,0,0,0-.55-.27l-1.31-.54A2.91,2.91,0,0,1,99.46,22a4.41,4.41,0,0,1-.41-2,4.66,4.66,0,0,1,.2-1.36,3.07,3.07,0,0,1,.59-1.12,2.9,2.9,0,0,1,1-.75,3.28,3.28,0,0,1,1.39-.28,3,3,0,0,1,1.25.26,3.08,3.08,0,0,1,1,.66,2.76,2.76,0,0,1,.83,2Z" transform="translate(-0.76 -2.48)"/><path d="M112.57,20.28h-1.84v-.41a1.93,1.93,0,0,0-.29-1.09,1.09,1.09,0,0,0-1-.46,1.09,1.09,0,0,0-1,.5,1.59,1.59,0,0,0-.2.54,3.05,3.05,0,0,0,0,.62c0,.25,0,.46,0,.63a1.39,1.39,0,0,0,.14.45,1.1,1.1,0,0,0,.31.34,3.7,3.7,0,0,0,.57.29l1.4.55a3.52,3.52,0,0,1,1,.55,2.44,2.44,0,0,1,.6.73,3.61,3.61,0,0,1,.27,1,9.49,9.49,0,0,1,.07,1.25,6.6,6.6,0,0,1-.16,1.51,3.26,3.26,0,0,1-.52,1.18,2.75,2.75,0,0,1-1,.79,3.55,3.55,0,0,1-1.5.29,3.19,3.19,0,0,1-1.24-.24,2.89,2.89,0,0,1-1-.65,3.1,3.1,0,0,1-.66-1,3,3,0,0,1-.24-1.2v-.68h1.84v.58a1.56,1.56,0,0,0,.29.91,1.18,1.18,0,0,0,1,.4,1.6,1.6,0,0,0,.73-.14.89.89,0,0,0,.41-.38,1.56,1.56,0,0,0,.17-.61c0-.23,0-.49,0-.78s0-.61,0-.83a1.39,1.39,0,0,0-.15-.52.92.92,0,0,0-.33-.32,3.13,3.13,0,0,0-.55-.27l-1.31-.54A2.91,2.91,0,0,1,106.77,22a4.41,4.41,0,0,1-.41-2,4.66,4.66,0,0,1,.2-1.36,3.07,3.07,0,0,1,.59-1.12,2.81,2.81,0,0,1,1-.75,3.28,3.28,0,0,1,1.39-.28,3,3,0,0,1,1.25.26,3.08,3.08,0,0,1,1,.66,2.81,2.81,0,0,1,.83,2Z" transform="translate(-0.76 -2.48)"/><path d="M123.23,20.28h-1.84v-.41a1.94,1.94,0,0,0-.3-1.09,1.08,1.08,0,0,0-1-.46,1.22,1.22,0,0,0-.61.14,1.45,1.45,0,0,0-.38.36,1.58,1.58,0,0,0-.19.54,3,3,0,0,0-.06.62,5.53,5.53,0,0,0,0,.63,1.37,1.37,0,0,0,.13.45,1.14,1.14,0,0,0,.32.34,3.7,3.7,0,0,0,.57.29l1.4.55a3.52,3.52,0,0,1,1,.55,2.4,2.4,0,0,1,.59.73,3,3,0,0,1,.27,1,9.38,9.38,0,0,1,.08,1.25,6.59,6.59,0,0,1-.17,1.51,3.1,3.1,0,0,1-.52,1.18,2.59,2.59,0,0,1-1,.79,3.5,3.5,0,0,1-1.49.29,3.15,3.15,0,0,1-1.24-.24,2.71,2.71,0,0,1-1-.65,3,3,0,0,1-.9-2.16v-.68h1.83v.58a1.51,1.51,0,0,0,.3.91,1.18,1.18,0,0,0,1,.4,1.63,1.63,0,0,0,.73-.14.87.87,0,0,0,.4-.38,1.41,1.41,0,0,0,.17-.61q0-.35,0-.78a6.47,6.47,0,0,0,0-.83,1.4,1.4,0,0,0-.14-.52,1,1,0,0,0-.33-.32,3.13,3.13,0,0,0-.55-.27L119,23.29A2.91,2.91,0,0,1,117.42,22a4.41,4.41,0,0,1-.4-2,4.66,4.66,0,0,1,.19-1.36,3.09,3.09,0,0,1,.6-1.12,2.77,2.77,0,0,1,1-.75,3.33,3.33,0,0,1,1.4-.28,3,3,0,0,1,1.25.26,3.31,3.31,0,0,1,1,.66,2.81,2.81,0,0,1,.83,2Z" transform="translate(-0.76 -2.48)"/><path d="M125.8,29.41V18.32h-2.12V16.59h6.08v1.73h-2.12V29.41Z" transform="translate(-0.76 -2.48)"/><path d="M130.57,29.41V16.59H136v1.73h-3.63v3.76h3.16v1.73h-3.16v3.76H136v1.84Z" transform="translate(-0.76 -2.48)"/><path d="M137.23,29.41V16.59h5.47v1.73h-3.63v3.76h3.16v1.73h-3.16v3.76h3.63v1.84Z" transform="translate(-0.76 -2.48)"/><path d="M143.89,29.41V16.59h1.84v11h3.63v1.84Z" transform="translate(-0.76 -2.48)"/><path d="M153.07,29.41l2.86-12.82h1.53l2.86,12.82h-1.83L158,26.65h-2.5l-.54,2.76Zm4.53-4.48-.89-4.65h0l-.9,4.65Z" transform="translate(-0.76 -2.48)"/><path d="M161.15,29.41V16.59h1.77l2.77,7.72h0V16.59h1.84V29.41h-1.73L163,21.7h0v7.71Z" transform="translate(-0.76 -2.48)"/><path d="M169.21,29.41V16.59h2.72a3.16,3.16,0,0,1,2.41.87,3.43,3.43,0,0,1,.82,2.44v6a3.57,3.57,0,0,1-.88,2.65,3.44,3.44,0,0,1-2.51.86Zm1.84-11.09v9.36h.85a1.37,1.37,0,0,0,1.1-.39,1.88,1.88,0,0,0,.32-1.21V19.9a1.91,1.91,0,0,0-.31-1.17,1.3,1.3,0,0,0-1.11-.41Z" transform="translate(-0.76 -2.48)"/><path d="M180.23,29.41V16.59H182l2.36,6.79h0l2.34-6.79h1.78V29.41h-1.84v-7.8h0l-1.82,5.51h-.92l-1.8-5.51h0v7.8Z" transform="translate(-0.76 -2.48)"/><path d="M190.24,29.41V16.59H193a3.15,3.15,0,0,1,2.4.87,3.38,3.38,0,0,1,.82,2.44v6a3.57,3.57,0,0,1-.87,2.65,3.47,3.47,0,0,1-2.52.86Zm1.83-11.09v9.36h.85a1.36,1.36,0,0,0,1.1-.39,1.88,1.88,0,0,0,.32-1.21V19.9a2,2,0,0,0-.3-1.17,1.34,1.34,0,0,0-1.12-.41Z" transform="translate(-0.76 -2.48)"/><path d="M197.91,29.41V16.59h5.47v1.73h-3.64v3.89h3.17v1.73h-3.17v5.47Z" transform="translate(-0.76 -2.48)"/><path d="M.76,33.62A3.25,3.25,0,0,1,1,32.25a2.82,2.82,0,0,1,.72-1,2.93,2.93,0,0,1,1-.58,3.24,3.24,0,0,1,1.1-.2,3.29,3.29,0,0,1,1.11.2,3.23,3.23,0,0,1,1,.58,2.9,2.9,0,0,1,.7,1,3.25,3.25,0,0,1,.27,1.37v.64H5.08v-.64a1.27,1.27,0,0,0-.37-1,1.39,1.39,0,0,0-1.75,0,1.23,1.23,0,0,0-.37,1v6.76a1.22,1.22,0,0,0,.37,1,1.31,1.31,0,0,0,.87.31,1.32,1.32,0,0,0,.88-.31,1.25,1.25,0,0,0,.37-1V38H3.62V36.35H6.91v4a3.25,3.25,0,0,1-.27,1.39,2.83,2.83,0,0,1-.7.95,2.93,2.93,0,0,1-1,.6,3.29,3.29,0,0,1-1.11.2,3.24,3.24,0,0,1-1.1-.2,2.68,2.68,0,0,1-1-.6A2.75,2.75,0,0,1,1,41.77a3.25,3.25,0,0,1-.27-1.39Z" transform="translate(-0.76 -2.48)"/><path d="M8.53,43.41V30.59h3c2.16,0,3.24,1.26,3.24,3.76a4.66,4.66,0,0,1-.35,1.93,2.71,2.71,0,0,1-1.23,1.28l2,5.85H13.18l-1.71-5.47h-1.1v5.47Zm1.84-11.09v4h1a1.88,1.88,0,0,0,.78-.14,1.07,1.07,0,0,0,.45-.39,1.68,1.68,0,0,0,.19-.62,5.3,5.3,0,0,0,.06-.85,5.43,5.43,0,0,0-.06-.86,1.61,1.61,0,0,0-.21-.64,1.48,1.48,0,0,0-1.3-.5Z" transform="translate(-0.76 -2.48)"/><path d="M16.2,43.41V30.59h5.47v1.73H18v3.76H21.2v1.73H18v3.76h3.63v1.84Z" transform="translate(-0.76 -2.48)"/><path d="M24.57,43.41V38l-2.52-7.4H24l1.48,5.1h0L27,30.59h1.95L26.41,38v5.42Z" transform="translate(-0.76 -2.48)"/><path d="M32.36,43.41l2.87-12.82h1.53l2.86,12.82H37.78l-.54-2.76h-2.5l-.54,2.76Zm4.54-4.48L36,34.28h0l-.9,4.65Z" transform="translate(-0.76 -2.48)"/><path d="M40.45,43.41V30.59h1.76L45,38.31h0V30.59h1.83V43.41H45.13L42.32,35.7h0v7.71Z" transform="translate(-0.76 -2.48)"/><path d="M48.51,43.41V30.59h2.72a3.15,3.15,0,0,1,2.4.87,3.38,3.38,0,0,1,.82,2.44v6a3.57,3.57,0,0,1-.87,2.65,3.47,3.47,0,0,1-2.52.86Zm1.84-11.09v9.36h.84a1.36,1.36,0,0,0,1.1-.39,1.88,1.88,0,0,0,.32-1.21V33.9a2,2,0,0,0-.3-1.17,1.34,1.34,0,0,0-1.12-.41Z" transform="translate(-0.76 -2.48)"/><path d="M59.42,33.62a3.25,3.25,0,0,1,.27-1.37,2.82,2.82,0,0,1,.72-1,2.93,2.93,0,0,1,1-.58,3.25,3.25,0,0,1,3.21.58,2.9,2.9,0,0,1,.7,1,3.25,3.25,0,0,1,.27,1.37v6.76a3.25,3.25,0,0,1-.27,1.39,2.83,2.83,0,0,1-.7.95,2.93,2.93,0,0,1-1,.6,3.15,3.15,0,0,1-2.21,0,2.68,2.68,0,0,1-1-.6,2.75,2.75,0,0,1-.72-.95,3.25,3.25,0,0,1-.27-1.39Zm1.83,6.76a1.25,1.25,0,0,0,.37,1,1.39,1.39,0,0,0,1.75,0,1.25,1.25,0,0,0,.37-1V33.62a1.27,1.27,0,0,0-.37-1,1.39,1.39,0,0,0-1.75,0,1.27,1.27,0,0,0-.37,1Z" transform="translate(-0.76 -2.48)"/><path d="M67.19,43.41V30.59h3c2.16,0,3.24,1.26,3.24,3.76A4.66,4.66,0,0,1,73,36.28a2.71,2.71,0,0,1-1.23,1.28l2,5.85H71.84l-1.71-5.47H69v5.47ZM69,32.32v4h1a1.88,1.88,0,0,0,.78-.14,1.07,1.07,0,0,0,.45-.39,1.68,1.68,0,0,0,.19-.62,5.3,5.3,0,0,0,.06-.85,5.43,5.43,0,0,0-.06-.86,1.61,1.61,0,0,0-.21-.64,1.48,1.48,0,0,0-1.3-.5Z" transform="translate(-0.76 -2.48)"/><path d="M74,43.41l2.86-12.82h1.53l2.87,12.82H79.45l-.54-2.76h-2.5l-.54,2.76Zm4.54-4.48-.9-4.65h0l-.9,4.65Z" transform="translate(-0.76 -2.48)"/><path d="M82.11,43.41V30.59h1.77l2.77,7.72h0V30.59h1.83V43.41H86.79L84,35.7h0v7.71Z" transform="translate(-0.76 -2.48)"/><path d="M90.07,33.62a3.25,3.25,0,0,1,.27-1.37,2.82,2.82,0,0,1,.72-1,3,3,0,0,1,1-.58,3.34,3.34,0,0,1,1.11-.2,3.31,3.31,0,0,1,2.1.78,2.92,2.92,0,0,1,.71,1,3.25,3.25,0,0,1,.27,1.37v.64H94.39v-.64a1.23,1.23,0,0,0-.37-1,1.39,1.39,0,0,0-1.75,0,1.26,1.26,0,0,0-.36,1v6.76a1.25,1.25,0,0,0,.36,1,1.39,1.39,0,0,0,1.75,0,1.22,1.22,0,0,0,.37-1V38H92.93V36.35h3.3v4A3.25,3.25,0,0,1,96,41.77a2.86,2.86,0,0,1-.71.95,2.93,2.93,0,0,1-1,.6,3.24,3.24,0,0,1-1.1.2,3.34,3.34,0,0,1-1.11-.2,3.16,3.16,0,0,1-1.7-1.55,3.25,3.25,0,0,1-.27-1.39Z" transform="translate(-0.76 -2.48)"/><path d="M97.85,43.41V30.59h5.47v1.73H99.68v3.76h3.17v1.73H99.68v3.76h3.64v1.84Z" transform="translate(-0.76 -2.48)"/><path d="M104.4,44.74V41.57h1.83v1.84Z" transform="translate(-0.76 -2.48)"/><path d="M111.09,33.62a3.25,3.25,0,0,1,.27-1.37,2.82,2.82,0,0,1,.72-1,3.14,3.14,0,0,1,1-.58,3.26,3.26,0,0,1,3.22.58,2.9,2.9,0,0,1,.7,1,3.25,3.25,0,0,1,.27,1.37v.64h-1.84v-.64a1.23,1.23,0,0,0-.37-1,1.32,1.32,0,0,0-.87-.31,1.34,1.34,0,0,0-.87.31,1.23,1.23,0,0,0-.37,1v6.76a1.22,1.22,0,0,0,.37,1,1.29,1.29,0,0,0,.87.31,1.27,1.27,0,0,0,.87-.31,1.22,1.22,0,0,0,.37-1V38H114V36.35h3.29v4a3.25,3.25,0,0,1-.27,1.39,2.83,2.83,0,0,1-.7.95,3,3,0,0,1-1,.6,3.18,3.18,0,0,1-2.22,0,2.85,2.85,0,0,1-1-.6,2.75,2.75,0,0,1-.72-.95,3.25,3.25,0,0,1-.27-1.39Z" transform="translate(-0.76 -2.48)"/><path d="M118.87,43.41V30.59h1.84v11h3.63v1.84Z" transform="translate(-0.76 -2.48)"/><path d="M125.42,33.62a3.25,3.25,0,0,1,.27-1.37,2.82,2.82,0,0,1,.72-1,3.14,3.14,0,0,1,1-.58,3.26,3.26,0,0,1,3.22.58,3,3,0,0,1,.7,1,3.25,3.25,0,0,1,.27,1.37v6.76a3.25,3.25,0,0,1-.27,1.39,3,3,0,0,1-.7.95,3,3,0,0,1-1,.6,3.18,3.18,0,0,1-2.22,0,2.85,2.85,0,0,1-1-.6,2.75,2.75,0,0,1-.72-.95,3.25,3.25,0,0,1-.27-1.39Zm1.84,6.76a1.22,1.22,0,0,0,.37,1,1.38,1.38,0,0,0,1.74,0,1.22,1.22,0,0,0,.37-1V33.62a1.23,1.23,0,0,0-.37-1,1.38,1.38,0,0,0-1.74,0,1.23,1.23,0,0,0-.37,1Z" transform="translate(-0.76 -2.48)"/><path d="M139.14,34.28H137.3v-.41a1.94,1.94,0,0,0-.3-1.09,1.07,1.07,0,0,0-1-.46,1.24,1.24,0,0,0-.62.14,1.27,1.27,0,0,0-.37.36,1.4,1.4,0,0,0-.2.54,3,3,0,0,0-.06.62,5.53,5.53,0,0,0,0,.63,1.18,1.18,0,0,0,.14.45,1,1,0,0,0,.31.34,3.7,3.7,0,0,0,.57.29l1.4.55a3.52,3.52,0,0,1,1,.55,2.6,2.6,0,0,1,.6.73,3.61,3.61,0,0,1,.27,1,11.59,11.59,0,0,1,.07,1.25,7.21,7.21,0,0,1-.16,1.51,3.27,3.27,0,0,1-.53,1.18,2.59,2.59,0,0,1-1,.79,3.47,3.47,0,0,1-1.49.29,3.19,3.19,0,0,1-1.24-.24,2.71,2.71,0,0,1-1-.65,3,3,0,0,1-.9-2.16v-.68h1.83v.58a1.51,1.51,0,0,0,.3.91,1.18,1.18,0,0,0,1,.4,1.63,1.63,0,0,0,.73-.14.87.87,0,0,0,.4-.38,1.28,1.28,0,0,0,.17-.61q0-.34,0-.78c0-.33,0-.61,0-.83a1.61,1.61,0,0,0-.15-.52.92.92,0,0,0-.33-.32,3.13,3.13,0,0,0-.55-.27l-1.31-.54a2.9,2.9,0,0,1-1.6-1.29,4.41,4.41,0,0,1-.4-2,4.35,4.35,0,0,1,.2-1.36,3.07,3.07,0,0,1,.59-1.12,2.77,2.77,0,0,1,1-.75,3.33,3.33,0,0,1,1.4-.28,3,3,0,0,1,1.25.26,3.19,3.19,0,0,1,1,.66,2.81,2.81,0,0,1,.83,2Z" transform="translate(-0.76 -2.48)"/><path d="M146.45,34.28h-1.84v-.41a1.94,1.94,0,0,0-.3-1.09,1.09,1.09,0,0,0-1-.46,1.22,1.22,0,0,0-.61.14,1.31,1.31,0,0,0-.38.36,1.83,1.83,0,0,0-.2.54,4,4,0,0,0-.05.62,5.53,5.53,0,0,0,0,.63,1.37,1.37,0,0,0,.13.45,1.14,1.14,0,0,0,.32.34,3.7,3.7,0,0,0,.57.29l1.4.55a3.52,3.52,0,0,1,1,.55,2.4,2.4,0,0,1,.59.73,3.29,3.29,0,0,1,.27,1,9.38,9.38,0,0,1,.08,1.25,6.59,6.59,0,0,1-.17,1.51,3.1,3.1,0,0,1-.52,1.18,2.59,2.59,0,0,1-1,.79,3.53,3.53,0,0,1-1.49.29,3.15,3.15,0,0,1-1.24-.24,2.84,2.84,0,0,1-1-.65,3.07,3.07,0,0,1-.65-1,3,3,0,0,1-.24-1.2v-.68H142v.58a1.51,1.51,0,0,0,.3.91,1.18,1.18,0,0,0,1,.4,1.63,1.63,0,0,0,.73-.14.92.92,0,0,0,.4-.38,1.41,1.41,0,0,0,.17-.61q0-.34,0-.78a6.47,6.47,0,0,0,0-.83,1.4,1.4,0,0,0-.14-.52,1,1,0,0,0-.33-.32,3.53,3.53,0,0,0-.55-.27l-1.32-.54A2.91,2.91,0,0,1,140.64,36a4.41,4.41,0,0,1-.4-2,4.66,4.66,0,0,1,.19-1.36,2.94,2.94,0,0,1,.6-1.12,2.77,2.77,0,0,1,1-.75,3.33,3.33,0,0,1,1.4-.28,3,3,0,0,1,1.25.26,3.31,3.31,0,0,1,1,.66,2.81,2.81,0,0,1,.83,2Z" transform="translate(-0.76 -2.48)"/><path d="M149.52,43.41V38L147,30.59H149l1.47,5.1h0l1.48-5.1h1.94L151.36,38v5.42Z" transform="translate(-0.76 -2.48)"/><path d="M164,39.75v.8a2.84,2.84,0,0,1-.23,1.12,3.18,3.18,0,0,1-.62.95,2.94,2.94,0,0,1-.93.65,2.57,2.57,0,0,1-1.14.25,3.93,3.93,0,0,1-1.06-.15,2.37,2.37,0,0,1-1-.5,2.68,2.68,0,0,1-.71-.93,3.23,3.23,0,0,1-.28-1.45V33.44a3.2,3.2,0,0,1,.21-1.17,2.88,2.88,0,0,1,.61-.94,3,3,0,0,1,.95-.62,3.18,3.18,0,0,1,1.21-.23,2.8,2.8,0,0,1,2.11.85,3.09,3.09,0,0,1,.62,1,3.32,3.32,0,0,1,.23,1.23v.72h-1.84v-.61a1.43,1.43,0,0,0-.31-.93,1,1,0,0,0-.82-.4.93.93,0,0,0-.91.42,2.29,2.29,0,0,0-.23,1.07v6.56a1.61,1.61,0,0,0,.25.93,1,1,0,0,0,.87.38,1.43,1.43,0,0,0,.39-.06,1.11,1.11,0,0,0,.38-.21A1.08,1.08,0,0,0,162,41a1.58,1.58,0,0,0,.11-.63v-.63Z" transform="translate(-0.76 -2.48)"/><path d="M165.36,33.62a3.25,3.25,0,0,1,.27-1.37,2.82,2.82,0,0,1,.72-1,3.14,3.14,0,0,1,1-.58,3.26,3.26,0,0,1,3.22.58,3,3,0,0,1,.7,1,3.25,3.25,0,0,1,.27,1.37v6.76a3.25,3.25,0,0,1-.27,1.39,3,3,0,0,1-.7.95,3,3,0,0,1-1,.6,3.18,3.18,0,0,1-2.22,0,2.85,2.85,0,0,1-1-.6,2.75,2.75,0,0,1-.72-.95,3.25,3.25,0,0,1-.27-1.39Zm1.84,6.76a1.22,1.22,0,0,0,.37,1,1.38,1.38,0,0,0,1.74,0,1.22,1.22,0,0,0,.37-1V33.62a1.23,1.23,0,0,0-.37-1,1.38,1.38,0,0,0-1.74,0,1.23,1.23,0,0,0-.37,1Z" transform="translate(-0.76 -2.48)"/><path d="M172.09,43.41,175,30.59h1.53l2.86,12.82h-1.84L177,40.65h-2.5l-.54,2.76Zm4.54-4.48-.9-4.65h0l-.9,4.65Z" transform="translate(-0.76 -2.48)"/><path d="M180.46,43.41V32.32h-2.12V30.59h6.08v1.73H182.3V43.41Z" transform="translate(-0.76 -2.48)"/><path d="M185.29,43.41V30.59h1.83V43.41Z" transform="translate(-0.76 -2.48)"/><path d="M188.83,43.41V30.59h1.77l2.77,7.72h0V30.59h1.83V43.41h-1.73l-2.8-7.71h0v7.71Z" transform="translate(-0.76 -2.48)"/><path d="M196.79,33.62a3.25,3.25,0,0,1,.27-1.37,2.82,2.82,0,0,1,.72-1,3.14,3.14,0,0,1,1-.58,3.18,3.18,0,0,1,2.22,0,3.3,3.3,0,0,1,1,.58,2.92,2.92,0,0,1,.71,1,3.25,3.25,0,0,1,.27,1.37v.64h-1.84v-.64a1.23,1.23,0,0,0-.37-1,1.34,1.34,0,0,0-.87-.31,1.32,1.32,0,0,0-.87.31,1.23,1.23,0,0,0-.37,1v6.76a1.22,1.22,0,0,0,.37,1,1.27,1.27,0,0,0,.87.31,1.29,1.29,0,0,0,.87-.31,1.22,1.22,0,0,0,.37-1V38h-1.46V36.35H203v4a3.25,3.25,0,0,1-.27,1.39,2.86,2.86,0,0,1-.71.95,3,3,0,0,1-1,.6,3.18,3.18,0,0,1-2.22,0,2.85,2.85,0,0,1-1-.6,2.75,2.75,0,0,1-.72-.95,3.25,3.25,0,0,1-.27-1.39Z" transform="translate(-0.76 -2.48)"/><path d="M22.88,57.41V44.59h1.83v11h3.64v1.84Z" transform="translate(-0.76 -2.48)"/><path d="M29.54,57.41V44.59H35v1.73H31.37v3.76h3.17v1.73H31.37v3.76H35v1.84Z" transform="translate(-0.76 -2.48)"/><path d="M36.13,57.41V44.59h1.76l2.77,7.72h0V44.59h1.83V57.41H40.81L38,49.7h0v7.71Z" transform="translate(-0.76 -2.48)"/><path d="M44.08,47.62a3.25,3.25,0,0,1,.27-1.37,2.82,2.82,0,0,1,.72-1,3.14,3.14,0,0,1,1-.58,3.26,3.26,0,0,1,3.22.58,3,3,0,0,1,.7,1,3.25,3.25,0,0,1,.27,1.37v.64H48.4v-.64a1.23,1.23,0,0,0-.37-1,1.38,1.38,0,0,0-1.74,0,1.23,1.23,0,0,0-.37,1v6.76a1.22,1.22,0,0,0,.37,1,1.38,1.38,0,0,0,1.74,0,1.22,1.22,0,0,0,.37-1V52H46.94V50.35h3.3v4A3.25,3.25,0,0,1,50,55.77a3,3,0,0,1-.7.95,3,3,0,0,1-1,.6,3.18,3.18,0,0,1-2.22,0,2.85,2.85,0,0,1-1-.6,2.75,2.75,0,0,1-.72-.95,3.25,3.25,0,0,1-.27-1.39Z" transform="translate(-0.76 -2.48)"/><path d="M53.06,57.41V46.32H50.94V44.59H57v1.73H54.9V57.41Z" transform="translate(-0.76 -2.48)"/><path d="M57.83,57.41V44.59h1.84v5.49h2.27V44.59h1.83V57.41H61.94V51.7H59.67v5.71Z" transform="translate(-0.76 -2.48)"/><path d="M65.39,53.32V51.49h1.84v1.83Zm0,4.09V55.57h1.84v1.84Z" transform="translate(-0.76 -2.48)"/><path d="M74.12,57.41V46.54l-1.83,1.35v-2l1.83-1.35H76V57.41Z" transform="translate(-0.76 -2.48)"/><path d="M78.64,47.94a7.52,7.52,0,0,1,0-.89,2.7,2.7,0,0,1,.12-.64,3.14,3.14,0,0,1,.21-.49,4.39,4.39,0,0,1,.3-.45,2.44,2.44,0,0,1,.9-.72,2.67,2.67,0,0,1,2.34,0,2.44,2.44,0,0,1,.9.72,4.39,4.39,0,0,1,.3.45,2.43,2.43,0,0,1,.22.49,2.7,2.7,0,0,1,.12.64c0,.24,0,.54,0,.89s0,.71,0,1a2.8,2.8,0,0,1-.1.7,1.68,1.68,0,0,1-.28.55,3.18,3.18,0,0,1-.52.52,2.5,2.5,0,0,1,.52.5,1.89,1.89,0,0,1,.28.59,3.87,3.87,0,0,1,.1.84c0,.33,0,.74,0,1.22s0,.72,0,1a5.2,5.2,0,0,1-.09.67,1.57,1.57,0,0,1-.15.49,3.61,3.61,0,0,1-.24.41,2.6,2.6,0,0,1-.87.8,2.52,2.52,0,0,1-1.36.34A2.56,2.56,0,0,1,80,57.18a2.7,2.7,0,0,1-.87-.8c-.09-.14-.17-.28-.24-.41a1.89,1.89,0,0,1-.15-.49,5.37,5.37,0,0,1-.08-.67c0-.26,0-.59,0-1s0-.89,0-1.22a3.81,3.81,0,0,1,.11-.84,1.69,1.69,0,0,1,.28-.59,2.21,2.21,0,0,1,.51-.5,2.74,2.74,0,0,1-.51-.52,1.51,1.51,0,0,1-.28-.55,2.78,2.78,0,0,1-.11-.7C78.65,48.65,78.64,48.32,78.64,47.94Zm3.64-.72a.87.87,0,0,0-.27-.64.89.89,0,0,0-1.26,0,.87.87,0,0,0-.27.64v1.87a.9.9,0,0,0,1.8,0Zm0,5a.85.85,0,0,0-.27-.64.89.89,0,0,0-1.26,0,.85.85,0,0,0-.27.64v2.52a.85.85,0,0,0,.27.64.89.89,0,0,0,1.26,0,.85.85,0,0,0,.27-.64Z" transform="translate(-0.76 -2.48)"/><path d="M87.42,54.78a.87.87,0,0,0,.25.67.92.92,0,0,0,.65.23.73.73,0,0,0,.7-.31,1.57,1.57,0,0,0,.2-.61h1.84a2.65,2.65,0,0,1-.74,2,2.59,2.59,0,0,1-.86.59,3,3,0,0,1-1.14.22,2.8,2.8,0,0,1-1.46-.36,2.45,2.45,0,0,1-1.2-1.79,6.45,6.45,0,0,1-.07-1v-3a6.45,6.45,0,0,1,.07-1,2.45,2.45,0,0,1,1.2-1.79,2.8,2.8,0,0,1,1.46-.36,3.06,3.06,0,0,1,1.15.22,2.53,2.53,0,0,1,.87.59,3.07,3.07,0,0,1,.72,2.11H89.22a1.2,1.2,0,0,0-.24-.82,1,1,0,0,0-1.31,0,1.09,1.09,0,0,0-.25.78Z" transform="translate(-0.76 -2.48)"/><path d="M92.14,57.41V48.28H94v.88h0a2.78,2.78,0,0,1,.7-.71,1.81,1.81,0,0,1,1-.28,1.64,1.64,0,0,1,1,.29,3,3,0,0,1,.65.63,4.17,4.17,0,0,1,.75-.65,2.12,2.12,0,0,1,1.16-.27,2.24,2.24,0,0,1,.7.12,1.82,1.82,0,0,1,.65.39,2,2,0,0,1,.46.69,2.66,2.66,0,0,1,.18,1v7H99.45V51.09a1.18,1.18,0,0,0-.24-.79.79.79,0,0,0-.66-.29.78.78,0,0,0-.72.32,1.85,1.85,0,0,0-.2.94v6.14H95.79V51.09a1.18,1.18,0,0,0-.23-.79.83.83,0,0,0-.67-.29.8.8,0,0,0-.72.32,1.86,1.86,0,0,0-.19.94v6.14Z" transform="translate(-0.76 -2.48)"/><path d="M115.77,44.59l-1.9,12.82h-1.73l-1.41-8.32h0l-1.39,8.32h-1.73l-1.9-12.82h1.94l.92,8.14h0L110,44.59h1.41l1.49,8.34h0l.88-8.34Z" transform="translate(-0.76 -2.48)"/><path d="M116.93,57.41V44.59h5.47v1.73h-3.64v3.76h3.17v1.73h-3.17v3.76h3.64v1.84Z" transform="translate(-0.76 -2.48)"/><path d="M123.64,57.41V44.59h1.84V57.41Z" transform="translate(-0.76 -2.48)"/><path d="M127.15,47.62a3.25,3.25,0,0,1,.27-1.37,2.82,2.82,0,0,1,.72-1,3,3,0,0,1,1-.58,3.34,3.34,0,0,1,1.11-.2,3.31,3.31,0,0,1,2.1.78,2.92,2.92,0,0,1,.71,1,3.25,3.25,0,0,1,.27,1.37v.64h-1.84v-.64a1.23,1.23,0,0,0-.37-1,1.39,1.39,0,0,0-1.75,0,1.26,1.26,0,0,0-.36,1v6.76a1.25,1.25,0,0,0,.36,1,1.39,1.39,0,0,0,1.75,0,1.22,1.22,0,0,0,.37-1V52H130V50.35h3.3v4a3.25,3.25,0,0,1-.27,1.39,2.86,2.86,0,0,1-.71.95,2.93,2.93,0,0,1-1,.6,3.24,3.24,0,0,1-1.1.2,3.34,3.34,0,0,1-1.11-.2,3.16,3.16,0,0,1-1.7-1.55,3.25,3.25,0,0,1-.27-1.39Z" transform="translate(-0.76 -2.48)"/><path d="M134.93,57.41V44.59h1.83v5.49H139V44.59h1.84V57.41H139V51.7h-2.27v5.71Z" transform="translate(-0.76 -2.48)"/><path d="M143.8,57.41V46.32h-2.13V44.59h6.09v1.73h-2.13V57.41Z" transform="translate(-0.76 -2.48)"/><path d="M153.84,57.41V46.54L152,47.89v-2l1.83-1.35h1.84V57.41Z" transform="translate(-0.76 -2.48)"/><path d="M163.17,44.59,161.08,50l0,0a.73.73,0,0,1,.28-.12,2.29,2.29,0,0,1,.5,0,1.88,1.88,0,0,1,.9.23,2,2,0,0,1,.65.6,1.75,1.75,0,0,1,.19.39,3.56,3.56,0,0,1,.13.52c0,.22,0,.49.05.82s0,.75,0,1.25,0,.77,0,1,0,.49-.05.67a3.08,3.08,0,0,1-.13.49c-.06.13-.13.27-.21.41a2.42,2.42,0,0,1-1,.92,2.82,2.82,0,0,1-1.36.33,2.6,2.6,0,0,1-1.35-.34,2.54,2.54,0,0,1-1-.91,2.37,2.37,0,0,1-.22-.41,1.53,1.53,0,0,1-.12-.49,3.83,3.83,0,0,1-.07-.67c0-.27,0-.62,0-1s0-.72,0-1,0-.48.05-.67a3.36,3.36,0,0,1,.11-.5l.16-.47,2.41-6.45ZM162,52.39a.87.87,0,0,0-.27-.67.92.92,0,0,0-1.26,0,.87.87,0,0,0-.27.67v2.37a.87.87,0,0,0,.27.67.92.92,0,0,0,1.26,0,.87.87,0,0,0,.27-.67Z" transform="translate(-0.76 -2.48)"/><path d="M165.06,47.24a2.78,2.78,0,0,1,.22-1.15,2.7,2.7,0,0,1,.6-.87,2.78,2.78,0,0,1,.88-.55,3,3,0,0,1,1-.19,3,3,0,0,1,1,.19,2.63,2.63,0,0,1,.87.55,2.7,2.7,0,0,1,.6.87,2.78,2.78,0,0,1,.23,1.15v7.52a2.78,2.78,0,0,1-.23,1.15,2.7,2.7,0,0,1-.6.87,2.63,2.63,0,0,1-.87.55,3,3,0,0,1-1,.19,3,3,0,0,1-1-.19,2.78,2.78,0,0,1-.88-.55,2.7,2.7,0,0,1-.6-.87,2.78,2.78,0,0,1-.22-1.15Zm1.83,7.52a.93.93,0,0,0,.25.66.89.89,0,0,0,.65.26.87.87,0,0,0,.65-.26.89.89,0,0,0,.25-.66V47.24a.91.91,0,0,0-.25-.66.87.87,0,0,0-.65-.26.89.89,0,0,0-.65.26,1,1,0,0,0-.25.66Z" transform="translate(-0.76 -2.48)"/><path d="M177.08,58.47a1,1,0,0,0,.26.61.88.88,0,0,0,.71.29.73.73,0,0,0,.65-.28,1.22,1.22,0,0,0,.2-.71v-1.8h0a2.09,2.09,0,0,1-.73.69,1.86,1.86,0,0,1-1,.25,1.64,1.64,0,0,1-1.6-.87,2.14,2.14,0,0,1-.23-.75,7.67,7.67,0,0,1-.08-1.21V51.22a12.69,12.69,0,0,1,.06-1.46,1.73,1.73,0,0,1,.84-1.35,1.8,1.8,0,0,1,1-.24,2.05,2.05,0,0,1,.59.08,1.72,1.72,0,0,1,.44.19,2.6,2.6,0,0,1,.36.3c.1.12.22.24.34.37v-.83h1.83V58.52a3.14,3.14,0,0,1-.15.95,2.34,2.34,0,0,1-.49.85,2.46,2.46,0,0,1-.87.64,3,3,0,0,1-2.1.11,2.2,2.2,0,0,1-.83-.46,2.53,2.53,0,0,1-.68-.82,3.7,3.7,0,0,1-.37-1.32Zm0-3.87a1.45,1.45,0,0,0,.19.76.76.76,0,0,0,.71.32.87.87,0,0,0,.66-.28,1,1,0,0,0,.26-.71V51.14a1.3,1.3,0,0,0-.25-.81A.82.82,0,0,0,178,50a.74.74,0,0,0-.68.34,1.62,1.62,0,0,0-.22.9Z" transform="translate(-0.76 -2.48)"/><path d="M182.25,57.41V48.28h1.83v1a5.67,5.67,0,0,1,1.1-.79,2.81,2.81,0,0,1,1.33-.29v1.95A1.51,1.51,0,0,0,186,50a2.1,2.1,0,0,0-.62.1,1.77,1.77,0,0,0-.6.33,1.81,1.81,0,0,0-.47.61,2.22,2.22,0,0,0-.18.94v5.42Z" transform="translate(-0.76 -2.48)"/><path d="M190.62,57.41v-.94h0a3.26,3.26,0,0,1-.73.78,1.73,1.73,0,0,1-1,.27,2.51,2.51,0,0,1-.66-.1,1.79,1.79,0,0,1-1.13-1.1,3.31,3.31,0,0,1-.19-1.23,6.81,6.81,0,0,1,.12-1.36,2.19,2.19,0,0,1,.47-1,1.88,1.88,0,0,1,.88-.57,4.39,4.39,0,0,1,1.42-.19h.2l.2,0,.22,0h.27v-.95a1.4,1.4,0,0,0-.2-.77.78.78,0,0,0-.72-.31,1.08,1.08,0,0,0-.66.23,1.13,1.13,0,0,0-.39.69h-1.78a3,3,0,0,1,.83-2,2.69,2.69,0,0,1,.86-.57,3,3,0,0,1,1.14-.21,3.22,3.22,0,0,1,1.08.18,2.49,2.49,0,0,1,.88.54,2.74,2.74,0,0,1,.58.9,3.47,3.47,0,0,1,.21,1.26v6.36Zm0-3.93a3.92,3.92,0,0,0-.51,0,1.76,1.76,0,0,0-1,.28,1.11,1.11,0,0,0-.43,1,1.37,1.37,0,0,0,.25.84.85.85,0,0,0,.71.33.94.94,0,0,0,.73-.31,1.3,1.3,0,0,0,.26-.86Z" transform="translate(-0.76 -2.48)"/><path d="M193.8,57.41V48.28h1.84v.88h0a3,3,0,0,1,.7-.71,1.81,1.81,0,0,1,1-.28,1.64,1.64,0,0,1,1,.29,2.79,2.79,0,0,1,.65.63,3.91,3.91,0,0,1,.76-.65,2.08,2.08,0,0,1,1.15-.27,2.19,2.19,0,0,1,.7.12,1.74,1.74,0,0,1,.65.39,2.05,2.05,0,0,1,.47.69,2.66,2.66,0,0,1,.18,1v7h-1.84V51.09a1.24,1.24,0,0,0-.23-.79.83.83,0,0,0-.67-.29.78.78,0,0,0-.72.32,1.85,1.85,0,0,0-.2.94v6.14h-1.83V51.09a1.18,1.18,0,0,0-.24-.79.81.81,0,0,0-.66-.29.78.78,0,0,0-.72.32,1.75,1.75,0,0,0-.2.94v6.14Z" transform="translate(-0.76 -2.48)"/><path d="M44.12,71.41V58.59H46v5.49h2.27V58.59h1.84V71.41H48.22V65.7H46v5.71Z" transform="translate(-0.76 -2.48)"/><path d="M51,71.41l2.86-12.82h1.53l2.86,12.82H56.37l-.54-2.76h-2.5l-.54,2.76Zm4.53-4.48-.9-4.65h0l-.9,4.65Z" transform="translate(-0.76 -2.48)"/><path d="M59,71.41V58.59H60.8l2.77,7.72h0V58.59h1.84V71.41H63.72L60.91,63.7h0v7.71Z" transform="translate(-0.76 -2.48)"/><path d="M67.1,71.41V58.59h2.72a3.12,3.12,0,0,1,2.4.87A3.38,3.38,0,0,1,73,61.9v6a3.57,3.57,0,0,1-.87,2.65,3.44,3.44,0,0,1-2.51.86Zm1.84-11.09v9.36h.84a1.35,1.35,0,0,0,1.1-.39,1.82,1.82,0,0,0,.33-1.21V61.9a2,2,0,0,0-.31-1.17,1.33,1.33,0,0,0-1.12-.41Z" transform="translate(-0.76 -2.48)"/><path d="M74.77,71.41V58.59h1.76l2.36,6.79h0l2.34-6.79h1.78V71.41H81.21v-7.8h0l-1.82,5.51h-.92l-1.8-5.51h0v7.8Z" transform="translate(-0.76 -2.48)"/><path d="M84,71.41l2.86-12.82h1.53L91.2,71.41H89.37l-.54-2.76h-2.5l-.54,2.76Zm4.54-4.48-.9-4.65h0l-.9,4.65Z" transform="translate(-0.76 -2.48)"/><path d="M92.1,71.41V58.59h2.72a3.12,3.12,0,0,1,2.4.87A3.38,3.38,0,0,1,98,61.9v6a3.57,3.57,0,0,1-.87,2.65,3.44,3.44,0,0,1-2.51.86Zm1.84-11.09v9.36h.85a1.34,1.34,0,0,0,1.09-.39,1.82,1.82,0,0,0,.33-1.21V61.9a2,2,0,0,0-.31-1.17,1.3,1.3,0,0,0-1.11-.41Z" transform="translate(-0.76 -2.48)"/><path d="M99.77,71.41V58.59h5.47v1.73h-3.63v3.76h3.17v1.73h-3.17v3.76h3.63v1.84Z" transform="translate(-0.76 -2.48)"/><path d="M109.71,67.34V65.5h5.41v1.84Z" transform="translate(-0.76 -2.48)"/><path d="M120.13,71.41V58.59h2.72a3.15,3.15,0,0,1,2.4.87,3.38,3.38,0,0,1,.82,2.44v6a3.57,3.57,0,0,1-.87,2.65,3.47,3.47,0,0,1-2.52.86ZM122,60.32v9.36h.85a1.36,1.36,0,0,0,1.1-.39,1.88,1.88,0,0,0,.32-1.21V61.9a2,2,0,0,0-.3-1.17,1.34,1.34,0,0,0-1.12-.41Z" transform="translate(-0.76 -2.48)"/><path d="M126.75,71.41l2.86-12.82h1.54L134,71.41h-1.84l-.54-2.76h-2.5l-.54,2.76Zm4.54-4.48-.9-4.65h0l-.9,4.65Z" transform="translate(-0.76 -2.48)"/><path d="M135.12,71.41V60.32H133V58.59h6.08v1.73H137V71.41Z" transform="translate(-0.76 -2.48)"/><path d="M138.07,71.41l2.87-12.82h1.53l2.86,12.82h-1.84L143,68.65h-2.5l-.54,2.76Zm4.54-4.48-.9-4.65h0l-.9,4.65Z" transform="translate(-0.76 -2.48)"/><path d="M149.58,71.41V58.59h1.76l2.36,6.79h0l2.34-6.79h1.79V71.41H156v-7.8h0l-1.81,5.51h-.92l-1.8-5.51h0v7.8Z" transform="translate(-0.76 -2.48)"/><path d="M158.76,71.41l2.86-12.82h1.53L166,71.41h-1.84l-.54-2.76h-2.5l-.54,2.76Zm4.53-4.48-.9-4.65h0l-.9,4.65Z" transform="translate(-0.76 -2.48)"/><path d="M167.63,71.41V66l-2.52-7.4h1.94l1.48,5.1h0l1.47-5.1h2L169.47,66v5.42Z" transform="translate(-0.76 -2.48)"/><path d="M182.48,58.59l-2.63,12.82h-1.62l-2.61-12.82h1.95l1.45,9h0l1.48-9Z" transform="translate(-0.76 -2.48)"/><path d="M182.08,71.41,185,58.59h1.53l2.86,12.82H187.5L187,68.65h-2.5l-.54,2.76Zm4.54-4.48-.9-4.65h0l-.9,4.65Z" transform="translate(-0.76 -2.48)"/><path d="M190.24,71.41V58.59h2.95c2.16,0,3.24,1.26,3.24,3.76a4.82,4.82,0,0,1-.35,1.93,2.76,2.76,0,0,1-1.23,1.28l2,5.85h-2l-1.71-5.47h-1.1v5.47Zm1.83-11.09v4h1.05a1.83,1.83,0,0,0,.77-.14,1.07,1.07,0,0,0,.45-.39,1.68,1.68,0,0,0,.2-.62,5.4,5.4,0,0,0,.05-.85,5.53,5.53,0,0,0-.05-.86,1.79,1.79,0,0,0-.22-.64,1.46,1.46,0,0,0-1.29-.5Z" transform="translate(-0.76 -2.48)"/><path d="M199.29,71.41V66l-2.52-7.4h1.95l1.47,5.1h0l1.47-5.1h2L201.13,66v5.42Z" transform="translate(-0.76 -2.48)"/></g></g></svg>