<svg xmlns="http://www.w3.org/2000/svg" viewBox="0 0 187.34 56.37"><title>Resurs 9</title><g id="Lager_2" data-name="Lager 2"><g id="Lager_1-2" data-name="Lager 1"><path d="M106,8.29h-1.36l-.11-5.91h0l-3.18,5.91H101l-1.41-6h0l-2,6H96.2L98.88.11h1.38l1.29,5.36L104.41.11h1.43Z"/><path d="M114.2,3.56A5.32,5.32,0,0,1,113.64,6a4.18,4.18,0,0,1-1.54,1.73,4,4,0,0,1-2.18.63,3.49,3.49,0,0,1-1.79-.47,3.14,3.14,0,0,1-1.24-1.29,3.92,3.92,0,0,1-.44-1.85A5.37,5.37,0,0,1,106.77,3a5,5,0,0,1,.93-1.56,4.13,4.13,0,0,1,1.39-1A4,4,0,0,1,110.8,0a3.48,3.48,0,0,1,1.77.45,3,3,0,0,1,1.21,1.27A4,4,0,0,1,114.2,3.56Zm-1.42,0a2.71,2.71,0,0,0-.25-1.2,1.81,1.81,0,0,0-.71-.81,2,2,0,0,0-1.08-.29,2.37,2.37,0,0,0-1.41.47A3.32,3.32,0,0,0,108.27,3a4.27,4.27,0,0,0-.41,1.81,2.86,2.86,0,0,0,.26,1.24,1.83,1.83,0,0,0,.73.82,2,2,0,0,0,1.08.29,2.31,2.31,0,0,0,1.42-.49,3.28,3.28,0,0,0,1.05-1.33A4.56,4.56,0,0,0,112.78,3.52Z"/><path d="M117,.11a5.82,5.82,0,0,1,2,.31,3.9,3.9,0,0,1,1.41.86,3.32,3.32,0,0,1,.84,1.28,4.58,4.58,0,0,1,.27,1.59A4.46,4.46,0,0,1,121,6.3a3.55,3.55,0,0,1-1.43,1.47,4.32,4.32,0,0,1-2.16.52h-3.35L115.21.11Zm3.09,4a2.91,2.91,0,0,0-.26-1.25,2.91,2.91,0,0,0-.69-.89,2.88,2.88,0,0,0-1-.54A3.59,3.59,0,0,0,117,1.26h-.59l-.81,5.88h1.27a3.33,3.33,0,0,0,2.37-.77A3,3,0,0,0,120.06,4.12Z"/><path d="M127.28.11l-.17,1.15H123.8l-.32,2.28h2.93l-.17,1.15h-2.93L123,7.14h4.15L127,8.29h-5.53L122.59.11Z"/><path d="M132.09,7.18l-.17,1.11h-4.87L128.2.11h1.38l-1,7.07Z"/><path d="M133,7.59a.78.78,0,0,1-.25.59.82.82,0,0,1-.59.25.84.84,0,0,1-.41-.11.79.79,0,0,1-.3-.3.8.8,0,0,1-.12-.43.88.88,0,0,1,.11-.42.92.92,0,0,1,.31-.31.83.83,0,0,1,.41-.1.81.81,0,0,1,.59.24A.79.79,0,0,1,133,7.59Zm.66-4a.79.79,0,0,1-.25.6.82.82,0,0,1-.58.24.78.78,0,0,1-.42-.11.89.89,0,0,1-.31-.3.89.89,0,0,1-.11-.43.78.78,0,0,1,.25-.59.81.81,0,0,1,.59-.24.82.82,0,0,1,.58.24A.78.78,0,0,1,133.69,3.57Z"/><path d="M141.62,4.63l-5.79,2.48V5.81L140.17,4l-4.34-1.76V1l5.79,2.49Z"/><path d="M147.5,4.63l-5.79,2.48V5.81L146.05,4l-4.34-1.76V1l5.79,2.49Z"/><path d="M154.77,1.44A8.7,8.7,0,0,0,153,1.22a5.48,5.48,0,0,0-1.71.26,4,4,0,0,0-1.34.74,3.37,3.37,0,0,0-.85,1.14,3,3,0,0,0-.31,1.35A2.73,2.73,0,0,0,149.1,6a2.14,2.14,0,0,0,.87.87,2.74,2.74,0,0,0,1.3.31,5.32,5.32,0,0,0,.69,0,3.22,3.22,0,0,0,.71-.18l.21-1.5h-1.31l.14-1.06h2.7l-.5,3.49a6,6,0,0,1-1.17.37,7.3,7.3,0,0,1-1.43.14,5,5,0,0,1-1.64-.26,3.77,3.77,0,0,1-1.26-.75,3.27,3.27,0,0,1-.79-1.17,3.74,3.74,0,0,1-.28-1.47,4.49,4.49,0,0,1,.26-1.49,4.69,4.69,0,0,1,.76-1.34,4.61,4.61,0,0,1,1.17-1,5.82,5.82,0,0,1,1.56-.66,8.06,8.06,0,0,1,2-.23,9.6,9.6,0,0,1,1.85.19Z"/><path d="M162.33,3.56A5.45,5.45,0,0,1,161.78,6a4.27,4.27,0,0,1-1.55,1.73,4,4,0,0,1-2.18.63,3.49,3.49,0,0,1-1.79-.47A3.21,3.21,0,0,1,155,6.64a3.92,3.92,0,0,1-.44-1.85A5.14,5.14,0,0,1,154.91,3a4.8,4.8,0,0,1,.92-1.56,4.07,4.07,0,0,1,1.4-1,3.94,3.94,0,0,1,1.7-.37,3.54,3.54,0,0,1,1.78.45,3,3,0,0,1,1.2,1.27A4,4,0,0,1,162.33,3.56Zm-1.42,0a2.86,2.86,0,0,0-.24-1.2,1.89,1.89,0,0,0-.72-.81,2,2,0,0,0-1.07-.29,2.37,2.37,0,0,0-1.42.47A3.32,3.32,0,0,0,156.4,3,4.27,4.27,0,0,0,156,4.83a2.86,2.86,0,0,0,.26,1.24,1.83,1.83,0,0,0,.73.82,2,2,0,0,0,1.08.29,2.31,2.31,0,0,0,1.42-.49,3.28,3.28,0,0,0,1.05-1.33A4.4,4.4,0,0,0,160.91,3.52Z"/><path d="M167.23,7.18l-.17,1.11h-4.87L163.34.11h1.38l-1,7.07Z"/><path d="M169.9.11a5.82,5.82,0,0,1,2,.31,3.82,3.82,0,0,1,1.41.86,3.32,3.32,0,0,1,.84,1.28,4.36,4.36,0,0,1,.28,1.59,4.58,4.58,0,0,1-.5,2.15,3.64,3.64,0,0,1-1.44,1.47,4.31,4.31,0,0,1-2.15.52H167L168.14.11Zm3.09,4a2.91,2.91,0,0,0-.26-1.25A2.64,2.64,0,0,0,172,2a2.79,2.79,0,0,0-1-.54A3.55,3.55,0,0,0,170,1.26h-.59l-.81,5.88h1.27a3.3,3.3,0,0,0,2.37-.77A3,3,0,0,0,173,4.12Z"/><path d="M180.33,4.63l-5.78,2.48V5.81L178.88,4l-4.33-1.76V1l5.78,2.49Z"/><path d="M186.21,4.63l-5.78,2.48V5.81L184.76,4l-4.33-1.76V1l5.78,2.49Z"/><path d="M47.44,13.38a4.19,4.19,0,0,0-.54-.09,5.49,5.49,0,0,0-.68,0,4.85,4.85,0,0,0-1.63.25,3.51,3.51,0,0,0-1.25.72,3.23,3.23,0,0,0-.81,1.17,3.48,3.48,0,0,0-.3,1.42,2.73,2.73,0,0,0,.28,1.24,1.91,1.91,0,0,0,.78.81,2.34,2.34,0,0,0,1.18.29,3.75,3.75,0,0,0,1.29-.26,7.17,7.17,0,0,0,1.4-.72l-.22,1.55a5.85,5.85,0,0,1-2.63.68A3.7,3.7,0,0,1,42.48,20a3.1,3.1,0,0,1-1.25-1.26,3.82,3.82,0,0,1-.45-1.86,4.66,4.66,0,0,1,.69-2.51,4.55,4.55,0,0,1,1.94-1.71A6.43,6.43,0,0,1,46.27,12,7.27,7.27,0,0,1,47,12l.67.09Z"/><path d="M54.71,15.56A5.45,5.45,0,0,1,54.15,18a4.2,4.2,0,0,1-1.55,1.73,4,4,0,0,1-2.18.63,3.52,3.52,0,0,1-1.79-.47,3.28,3.28,0,0,1-1.24-1.29A3.92,3.92,0,0,1,47,16.79,5.14,5.14,0,0,1,47.28,15a5,5,0,0,1,.92-1.56,4.17,4.17,0,0,1,1.4-1A4,4,0,0,1,51.31,12a3.48,3.48,0,0,1,1.77.45,3,3,0,0,1,1.2,1.27A4,4,0,0,1,54.71,15.56Zm-1.42,0a2.86,2.86,0,0,0-.25-1.2,1.89,1.89,0,0,0-.72-.81,2,2,0,0,0-1.07-.29,2.39,2.39,0,0,0-1.42.47A3.4,3.4,0,0,0,48.77,15a4.26,4.26,0,0,0-.4,1.81,2.86,2.86,0,0,0,.25,1.24,2,2,0,0,0,.73.82,2,2,0,0,0,1.08.29,2.29,2.29,0,0,0,1.42-.49,3.28,3.28,0,0,0,1-1.33A4.4,4.4,0,0,0,53.29,15.52Z"/><path d="M60.94,20.29h-1.5l-.87-1.81a11.37,11.37,0,0,0-.55-1,2.42,2.42,0,0,0-.32-.4.8.8,0,0,0-.35-.19,1.66,1.66,0,0,0-.5-.06h-.41L56,20.29h-1.4l1.15-8.18h2.08a4.12,4.12,0,0,1,1.3.18,2.47,2.47,0,0,1,.86.5,1.84,1.84,0,0,1,.47.73,2.7,2.7,0,0,1,.14.85,2,2,0,0,1-.48,1.33,2.3,2.3,0,0,1-1.32.76v.05a1.3,1.3,0,0,1,.43.38,2.65,2.65,0,0,1,.32.55Zm-1.83-5.92a1,1,0,0,0-.37-.82,1.69,1.69,0,0,0-1.06-.29H57l-.34,2.45h.7a2.57,2.57,0,0,0,1-.17,1.34,1.34,0,0,0,.61-.47A1.18,1.18,0,0,0,59.11,14.37Z"/><path d="M66.76,12.11l-.17,1.15H63.28L63,15.54h2.93l-.17,1.15H62.79l-.33,2.45h4.15l-.17,1.15H60.91l1.16-8.18Z"/><path d="M76.52,15.56A5.45,5.45,0,0,1,76,18a4.18,4.18,0,0,1-1.54,1.73,4,4,0,0,1-2.18.63,3.49,3.49,0,0,1-1.79-.47,3.14,3.14,0,0,1-1.24-1.29,3.8,3.8,0,0,1-.44-1.85A5.37,5.37,0,0,1,69.09,15,5,5,0,0,1,70,13.41,4.09,4.09,0,0,1,73.12,12a3.48,3.48,0,0,1,1.77.45,3,3,0,0,1,1.21,1.27A4,4,0,0,1,76.52,15.56Zm-1.42,0a2.71,2.71,0,0,0-.25-1.2,1.81,1.81,0,0,0-.71-.81,2,2,0,0,0-1.08-.29,2.42,2.42,0,0,0-1.42.47,3.39,3.39,0,0,0-1,1.33,4.27,4.27,0,0,0-.41,1.81,2.86,2.86,0,0,0,.26,1.24,1.87,1.87,0,0,0,.72.82,2.09,2.09,0,0,0,1.09.29,2.31,2.31,0,0,0,1.42-.49,3.18,3.18,0,0,0,1-1.33A4.4,4.4,0,0,0,75.1,15.52Z"/><path d="M81.81,12.11l-.15,1.15H78.75l-.31,2.28H81l-.16,1.15H78.27l-.52,3.6H76.38l1.17-8.18Z"/><path d="M88.89,14.48a2.47,2.47,0,0,1-.34,1.3,2.41,2.41,0,0,1-1,.9,3.05,3.05,0,0,1-1.44.32H85l-.45,3.29H83.1l1.13-8.18h2a4.21,4.21,0,0,1,1,.12,2.49,2.49,0,0,1,.85.41,2.05,2.05,0,0,1,.6.73A2.39,2.39,0,0,1,88.89,14.48Zm-1.42,0a1.28,1.28,0,0,0-.18-.68,1.11,1.11,0,0,0-.53-.44,2.08,2.08,0,0,0-.83-.16h-.45l-.37,2.66h.77a1.91,1.91,0,0,0,.86-.17,1.38,1.38,0,0,0,.55-.49A1.43,1.43,0,0,0,87.47,14.5Z"/><path d="M91,12.11l-1.15,8.18h-1.4l1.14-8.18Z"/><path d="M98.86,12.11l-1.13,8.18H96.64L92.9,14.51h0l-.81,5.78H90.74l1.15-8.18H93l3.74,5.71h0l.79-5.71Z"/><path d="M104.48,12.11l-.17,1.15H101l-.32,2.28h2.93l-.17,1.15h-2.93l-.34,2.45h4.15l-.16,1.15H98.63l1.16-8.18Z"/><path d="M105.5,20a1.76,1.76,0,0,1-.29,1,2.38,2.38,0,0,1-.82.75,3.11,3.11,0,0,1-1.2.35l.13-.62a1.29,1.29,0,0,0,.61-.34,1.08,1.08,0,0,0,.28-.61.8.8,0,0,1-.51-.74.81.81,0,0,1,.24-.6.89.89,0,0,1,1.29.08A1.16,1.16,0,0,1,105.5,20Z"/><path d="M113.73,12.11l-.17,1.17H111.1l-1,7h-1.4l1-7h-2.43l.17-1.17Z"/><path d="M120.08,15.56a5.45,5.45,0,0,1-.55,2.48A4.2,4.2,0,0,1,118,19.77a4,4,0,0,1-2.18.63,3.49,3.49,0,0,1-1.79-.47,3.21,3.21,0,0,1-1.24-1.29,3.92,3.92,0,0,1-.44-1.85,5.14,5.14,0,0,1,.33-1.82,4.8,4.8,0,0,1,.92-1.56,4.07,4.07,0,0,1,1.4-1,4,4,0,0,1,1.71-.37,3.48,3.48,0,0,1,1.77.45,3,3,0,0,1,1.2,1.27A4,4,0,0,1,120.08,15.56Zm-1.41,0a2.86,2.86,0,0,0-.25-1.2,1.89,1.89,0,0,0-.72-.81,2,2,0,0,0-1.07-.29,2.37,2.37,0,0,0-1.42.47A3.32,3.32,0,0,0,114.15,15a4.27,4.27,0,0,0-.41,1.81,2.86,2.86,0,0,0,.26,1.24,1.89,1.89,0,0,0,.73.82,2,2,0,0,0,1.08.29,2.31,2.31,0,0,0,1.42-.49,3.28,3.28,0,0,0,1-1.33A4.4,4.4,0,0,0,118.67,15.52Z"/><path d="M128.06,12.11l-1.14,8.18h-1.08l-3.74-5.78h0l-.8,5.78h-1.34l1.15-8.18h1.08l3.75,5.71h0l.79-5.71Z"/><path d="M135.19,13.44a8.71,8.71,0,0,0-1.78-.22,5.46,5.46,0,0,0-1.7.26,3.87,3.87,0,0,0-1.34.74,3.54,3.54,0,0,0-.86,1.14,3.16,3.16,0,0,0-.3,1.35,2.62,2.62,0,0,0,.31,1.29,2.14,2.14,0,0,0,.87.87,2.74,2.74,0,0,0,1.3.31,5.32,5.32,0,0,0,.69,0,3.22,3.22,0,0,0,.71-.18l.21-1.5H132l.15-1.06h2.7l-.5,3.49a6,6,0,0,1-1.17.37,7.3,7.3,0,0,1-1.43.14,5,5,0,0,1-1.64-.26,3.67,3.67,0,0,1-1.26-.75,3.27,3.27,0,0,1-.79-1.17,3.74,3.74,0,0,1-.28-1.47,4.47,4.47,0,0,1,1-2.83,4.61,4.61,0,0,1,1.17-1,5.82,5.82,0,0,1,1.56-.66,8.06,8.06,0,0,1,2-.23,9.6,9.6,0,0,1,1.85.19Z"/><path d="M142.66,12.11l-.7,5.08a3.85,3.85,0,0,1-1.13,2.38,3.51,3.51,0,0,1-2.45.83,4,4,0,0,1-1.69-.33,2.37,2.37,0,0,1-1.49-2.29,1.27,1.27,0,0,1,0-.2,1.41,1.41,0,0,1,0-.2c0-.07,0-.23.05-.48l.69-4.79h1.38l-.68,4.75a7.4,7.4,0,0,0-.07.86,1.41,1.41,0,0,0,.23.81,1.52,1.52,0,0,0,.63.48,2.53,2.53,0,0,0,1,.17,1.93,1.93,0,0,0,1.49-.57,3,3,0,0,0,.69-1.69l.67-4.81Z"/><path d="M148.27,12.11l-.17,1.15h-3.31l-.33,2.28h2.93l-.17,1.15h-2.93L144,19.14h4.15l-.17,1.15h-5.53l1.16-8.18Z"/><path d="M158,15.56a5.45,5.45,0,0,1-.55,2.48,4.27,4.27,0,0,1-1.55,1.73,4,4,0,0,1-2.18.63,3.49,3.49,0,0,1-1.79-.47,3.21,3.21,0,0,1-1.24-1.29,3.92,3.92,0,0,1-.44-1.85A5.14,5.14,0,0,1,150.6,15a4.8,4.8,0,0,1,.92-1.56,4.07,4.07,0,0,1,1.4-1,3.94,3.94,0,0,1,1.7-.37,3.51,3.51,0,0,1,1.78.45,3,3,0,0,1,1.2,1.27A4,4,0,0,1,158,15.56Zm-1.42,0a2.86,2.86,0,0,0-.24-1.2,1.89,1.89,0,0,0-.72-.81,2,2,0,0,0-1.07-.29,2.37,2.37,0,0,0-1.42.47A3.32,3.32,0,0,0,152.09,15a4.27,4.27,0,0,0-.41,1.81,2.86,2.86,0,0,0,.26,1.24,1.83,1.83,0,0,0,.73.82,2,2,0,0,0,1.08.29,2.31,2.31,0,0,0,1.42-.49,3.28,3.28,0,0,0,1.05-1.33A4.4,4.4,0,0,0,156.6,15.52Z"/><path d="M163.31,12.11l-.15,1.15h-2.91l-.31,2.28h2.58l-.15,1.15h-2.6l-.51,3.6h-1.38l1.17-8.18Z"/><path d="M173.82,20.29h-1.36l-.11-5.91h0l-3.18,5.91h-.38l-1.41-6h0l-2,6H164l2.68-8.18h1.38l1.29,5.36,2.86-5.36h1.43Z"/><path d="M177.15,12.11a5.72,5.72,0,0,1,2,.31,3.94,3.94,0,0,1,1.42.86,3.56,3.56,0,0,1,.84,1.28,4.58,4.58,0,0,1,.27,1.59,4.46,4.46,0,0,1-.5,2.15,3.55,3.55,0,0,1-1.43,1.47,4.32,4.32,0,0,1-2.16.52h-3.36l1.15-8.18Zm3.08,4a2.77,2.77,0,0,0-.26-1.25,2.74,2.74,0,0,0-.68-.89,2.88,2.88,0,0,0-1-.54,3.61,3.61,0,0,0-1.13-.18h-.58l-.82,5.88h1.27a3.34,3.34,0,0,0,2.38-.77A3,3,0,0,0,180.23,16.12Z"/><path d="M187,12.11l-.15,1.15H184l-.31,2.28h2.57l-.15,1.15H183.5l-.52,3.6H181.6l1.17-8.18Z"/><path d="M6.38,32.29H4.88L4,30.48a11.37,11.37,0,0,0-.55-1,2.42,2.42,0,0,0-.32-.4.86.86,0,0,0-.35-.19,1.66,1.66,0,0,0-.5-.06H1.88L1.4,32.29H0l1.15-8.18H3.23a4.12,4.12,0,0,1,1.3.18,2.33,2.33,0,0,1,.85.5,1.86,1.86,0,0,1,.48.73,2.7,2.7,0,0,1,.14.85,2,2,0,0,1-.48,1.33,2.37,2.37,0,0,1-1.32.76v.05a1.3,1.3,0,0,1,.43.38,2.65,2.65,0,0,1,.32.55ZM4.55,26.37a1,1,0,0,0-.37-.82,1.69,1.69,0,0,0-1.06-.29H2.38l-.33,2.45h.7a2.61,2.61,0,0,0,1-.17,1.34,1.34,0,0,0,.61-.47A1.18,1.18,0,0,0,4.55,26.37Z"/><path d="M12.2,24.11,12,25.26H8.72L8.4,27.54h2.93l-.17,1.15H8.23L7.9,31.14H12l-.16,1.15H6.35l1.16-8.18Z"/><path d="M14.89,24.11a5.82,5.82,0,0,1,2,.31,3.9,3.9,0,0,1,1.41.86,3.44,3.44,0,0,1,.84,1.28,4.58,4.58,0,0,1,.27,1.59,4.46,4.46,0,0,1-.5,2.15,3.55,3.55,0,0,1-1.43,1.47,4.32,4.32,0,0,1-2.16.52H12l1.14-8.18Zm3.09,4a2.74,2.74,0,0,0-1.92-2.68,3.59,3.59,0,0,0-1.12-.18h-.59l-.81,5.88h1.27a3.33,3.33,0,0,0,2.37-.77A3,3,0,0,0,18,28.12Z"/><path d="M20.59,32a1.68,1.68,0,0,1-.29,1,2.38,2.38,0,0,1-.82.75,3.11,3.11,0,0,1-1.2.35l.13-.62a1.29,1.29,0,0,0,.61-.34,1.08,1.08,0,0,0,.28-.61.8.8,0,0,1-.51-.74.81.81,0,0,1,.24-.6.85.85,0,0,1,.63-.24.84.84,0,0,1,.66.32A1.16,1.16,0,0,1,20.59,32Z"/><path d="M33,24.11l-4,8.26h-.55L27,26.74l-2.73,5.63h-.57l-1.81-8.26h1.37l1.14,5.42h0L27,24.11h.58L29,29.59h0l2.5-5.48Z"/><path d="M40.14,24.11,39,32.29h-1.4l.49-3.49H33.77l-.5,3.49h-1.4L33,24.11h1.4L34,27.52h4.31l.48-3.41Z"/><path d="M42.44,24.11l-1.16,8.18h-1.4L41,24.11Z"/><path d="M48.73,24.11l-.17,1.17H46.1l-1,7h-1.4l1-7H42.26l.17-1.17Z"/><path d="M53.63,24.11l-.17,1.15H50.15l-.32,2.28h2.93l-.17,1.15H49.66l-.33,2.45h4.15l-.17,1.15H47.78l1.16-8.18Z"/><path d="M60.55,32.29H59.2l-.39-2.22H56.26l-.95,2.22H53.84L57.63,24H59Zm-1.89-3.22-.54-3.48h0l-1.41,3.48Z"/><path d="M68.75,24.11l-1.14,8.18H66.53l-3.75-5.78h0L62,32.29H60.63l1.14-8.18h1.09l3.74,5.71h0l.8-5.71Z"/><path d="M71.42,24.11a5.82,5.82,0,0,1,2,.31,3.82,3.82,0,0,1,1.41.86,3.32,3.32,0,0,1,.84,1.28A4.36,4.36,0,0,1,76,28.15a4.58,4.58,0,0,1-.5,2.15A3.64,3.64,0,0,1,74,31.77a4.31,4.31,0,0,1-2.15.52H68.51l1.15-8.18Zm3.09,4a2.91,2.91,0,0,0-.26-1.25,2.64,2.64,0,0,0-.69-.89,2.79,2.79,0,0,0-1-.54,3.55,3.55,0,0,0-1.12-.18h-.59l-.81,5.88h1.27a3.3,3.3,0,0,0,2.37-.77A3,3,0,0,0,74.51,28.12Z"/><path d="M85.45,25.44a8.71,8.71,0,0,0-1.78-.22,5.46,5.46,0,0,0-1.7.26,3.87,3.87,0,0,0-1.34.74,3.54,3.54,0,0,0-.86,1.14,3.16,3.16,0,0,0-.3,1.35A2.62,2.62,0,0,0,79.78,30a2.14,2.14,0,0,0,.87.87,2.74,2.74,0,0,0,1.3.31,5.32,5.32,0,0,0,.69,0,3.22,3.22,0,0,0,.71-.18l.21-1.5H82.24l.15-1.06h2.7l-.5,3.49a6,6,0,0,1-1.17.37A7.3,7.3,0,0,1,82,32.4a5,5,0,0,1-1.64-.26,3.67,3.67,0,0,1-1.26-.75,3.27,3.27,0,0,1-.79-1.17A3.74,3.74,0,0,1,78,28.75a4.47,4.47,0,0,1,1-2.83,4.61,4.61,0,0,1,1.17-1,5.82,5.82,0,0,1,1.56-.66,8.06,8.06,0,0,1,2-.23,9.6,9.6,0,0,1,1.85.19Z"/><path d="M93,27.56A5.32,5.32,0,0,1,92.45,30a4.18,4.18,0,0,1-1.54,1.73,4,4,0,0,1-2.18.63,3.49,3.49,0,0,1-1.79-.47,3.14,3.14,0,0,1-1.24-1.29,3.92,3.92,0,0,1-.44-1.85A5.37,5.37,0,0,1,85.58,27a5,5,0,0,1,.93-1.56,4.13,4.13,0,0,1,1.39-1A4,4,0,0,1,89.61,24a3.48,3.48,0,0,1,1.77.45,3,3,0,0,1,1.21,1.27A4,4,0,0,1,93,27.56Zm-1.42,0a2.71,2.71,0,0,0-.25-1.2,1.81,1.81,0,0,0-.71-.81,2,2,0,0,0-1.08-.29,2.37,2.37,0,0,0-1.41.47A3.32,3.32,0,0,0,87.08,27a4.27,4.27,0,0,0-.41,1.81,2.86,2.86,0,0,0,.26,1.24,1.83,1.83,0,0,0,.73.82,2,2,0,0,0,1.08.29,2.31,2.31,0,0,0,1.42-.49,3.28,3.28,0,0,0,1-1.33A4.56,4.56,0,0,0,91.59,27.52Z"/><path d="M97.91,31.18l-.17,1.11H92.87L94,24.11H95.4l-1,7.07Z"/><path d="M100.58,24.11a5.82,5.82,0,0,1,2,.31,3.82,3.82,0,0,1,1.41.86,3.32,3.32,0,0,1,.84,1.28,4.58,4.58,0,0,1,.28,1.59,4.46,4.46,0,0,1-.51,2.15,3.55,3.55,0,0,1-1.43,1.47,4.31,4.31,0,0,1-2.15.52H97.67l1.15-8.18Zm3.09,4a2.91,2.91,0,0,0-.26-1.25,2.77,2.77,0,0,0-.69-.89,2.88,2.88,0,0,0-1-.54,3.59,3.59,0,0,0-1.12-.18H100l-.81,5.88h1.27a3.3,3.3,0,0,0,2.37-.77A3,3,0,0,0,103.67,28.12Z"/><path d="M106.21,31.59a.81.81,0,0,1-.24.59.86.86,0,0,1-.6.25.82.82,0,0,1-.71-.41.8.8,0,0,1-.12-.43.79.79,0,0,1,.12-.42.81.81,0,0,1,.3-.31.86.86,0,0,1,.41-.1.85.85,0,0,1,.6.24A.82.82,0,0,1,106.21,31.59Z"/><path d="M116.19,25.44a8.62,8.62,0,0,0-1.77-.22,5.41,5.41,0,0,0-1.7.26,3.78,3.78,0,0,0-1.34.74,3.4,3.4,0,0,0-.86,1.14,3.16,3.16,0,0,0-.3,1.35,2.73,2.73,0,0,0,.3,1.29,2.21,2.21,0,0,0,.87.87,2.74,2.74,0,0,0,1.3.31,5.32,5.32,0,0,0,.69,0,3.45,3.45,0,0,0,.72-.18l.2-1.5H113l.14-1.06h2.71l-.51,3.49a6,6,0,0,1-1.17.37,7.2,7.2,0,0,1-1.42.14,5.05,5.05,0,0,1-1.65-.26,3.63,3.63,0,0,1-1.25-.75,3.3,3.3,0,0,1-.8-1.17,3.93,3.93,0,0,1-.28-1.47,4.49,4.49,0,0,1,.26-1.49,4.69,4.69,0,0,1,.76-1.34,4.61,4.61,0,0,1,1.17-1,5.82,5.82,0,0,1,1.56-.66,8.12,8.12,0,0,1,2-.23,9.6,9.6,0,0,1,1.85.19Z"/><path d="M121,31.18l-.17,1.11H116l1.15-8.18h1.38l-1,7.07Z"/><path d="M128.32,27.56a5.45,5.45,0,0,1-.56,2.48,4.2,4.2,0,0,1-1.55,1.73,4,4,0,0,1-2.18.63,3.52,3.52,0,0,1-1.79-.47A3.28,3.28,0,0,1,121,30.64a3.92,3.92,0,0,1-.44-1.85,5.14,5.14,0,0,1,.33-1.82,5,5,0,0,1,.92-1.56,4.17,4.17,0,0,1,1.4-1,4,4,0,0,1,1.71-.37,3.48,3.48,0,0,1,1.77.45,3,3,0,0,1,1.2,1.27A3.84,3.84,0,0,1,128.32,27.56Zm-1.42,0a2.86,2.86,0,0,0-.25-1.2,1.89,1.89,0,0,0-.72-.81,2,2,0,0,0-1.07-.29,2.39,2.39,0,0,0-1.42.47A3.4,3.4,0,0,0,122.38,27a4.26,4.26,0,0,0-.4,1.81,2.86,2.86,0,0,0,.25,1.24,2,2,0,0,0,.73.82,2,2,0,0,0,1.08.29,2.34,2.34,0,0,0,1.43-.49,3.35,3.35,0,0,0,1-1.33A4.4,4.4,0,0,0,126.9,27.52Z"/><path d="M133,25.73a3.27,3.27,0,0,0-.84-.41,2.93,2.93,0,0,0-.87-.14,1.41,1.41,0,0,0-.94.3,1,1,0,0,0-.36.78.71.71,0,0,0,.11.4,1.81,1.81,0,0,0,.32.4c.15.13.38.31.7.54s.41.29.62.45a4.07,4.07,0,0,1,.56.54,3.18,3.18,0,0,1,.41.66,2.16,2.16,0,0,1,.15.83,2.22,2.22,0,0,1-1.23,2,2.91,2.91,0,0,1-1.34.3,4.42,4.42,0,0,1-2.34-.67l.2-1.31a4.68,4.68,0,0,0,1.13.61,2.82,2.82,0,0,0,1,.19,1.45,1.45,0,0,0,.59-.12,1.1,1.1,0,0,0,.45-.34.85.85,0,0,0,.16-.52,1,1,0,0,0-.1-.45,1.67,1.67,0,0,0-.29-.38,2.77,2.77,0,0,0-.4-.36l-.48-.36a5.91,5.91,0,0,1-1-.82,2.57,2.57,0,0,1-.46-.7,2,2,0,0,1-.17-.83,2.08,2.08,0,0,1,.36-1.19,2.37,2.37,0,0,1,1-.84,3.08,3.08,0,0,1,1.39-.31,3.72,3.72,0,0,1,1,.13,3.83,3.83,0,0,1,.9.34Z"/><path d="M137.83,25.73a3.38,3.38,0,0,0-.83-.41,3,3,0,0,0-.87-.14,1.44,1.44,0,0,0-.95.3,1,1,0,0,0-.36.78.8.8,0,0,0,.11.4,1.62,1.62,0,0,0,.33.4,6.85,6.85,0,0,0,.7.54l.61.45a4.07,4.07,0,0,1,.56.54,2.81,2.81,0,0,1,.41.66,2.15,2.15,0,0,1,.16.83,2.19,2.19,0,0,1-.33,1.18,2.15,2.15,0,0,1-.9.84,2.92,2.92,0,0,1-1.35.3,4.42,4.42,0,0,1-2.34-.67l.2-1.31a4.68,4.68,0,0,0,1.13.61,2.82,2.82,0,0,0,1,.19,1.45,1.45,0,0,0,.59-.12,1,1,0,0,0,.45-.34.85.85,0,0,0,.16-.52,1,1,0,0,0-.1-.45,1.67,1.67,0,0,0-.29-.38,2.33,2.33,0,0,0-.4-.36l-.48-.36a6.37,6.37,0,0,1-1-.82,2.57,2.57,0,0,1-.46-.7,2,2,0,0,1-.17-.83,2.08,2.08,0,0,1,.36-1.19,2.37,2.37,0,0,1,1-.84,3.11,3.11,0,0,1,1.39-.31,3.72,3.72,0,0,1,1,.13,4.09,4.09,0,0,1,.91.34Z"/><path d="M143.71,24.11l-3,4.39-.53,3.79h-1.38l.54-3.79-1.84-4.39H139l1.25,3.07,2-3.07Z"/><path d="M151.29,25.38a4.19,4.19,0,0,0-.54-.09,5.49,5.49,0,0,0-.68,0,4.85,4.85,0,0,0-1.63.25,3.51,3.51,0,0,0-1.25.72,3.23,3.23,0,0,0-.81,1.17,3.48,3.48,0,0,0-.3,1.42,2.73,2.73,0,0,0,.28,1.24,1.91,1.91,0,0,0,.78.81,2.34,2.34,0,0,0,1.18.29,3.75,3.75,0,0,0,1.29-.26,7.17,7.17,0,0,0,1.4-.72l-.22,1.55a5.85,5.85,0,0,1-2.63.68,3.7,3.7,0,0,1-1.83-.45,3.1,3.1,0,0,1-1.25-1.26,3.82,3.82,0,0,1-.45-1.86,4.66,4.66,0,0,1,.69-2.51,4.55,4.55,0,0,1,1.94-1.71,6.43,6.43,0,0,1,2.86-.61,7.27,7.27,0,0,1,.75,0l.67.09Z"/><path d="M158.56,27.56A5.45,5.45,0,0,1,158,30a4.2,4.2,0,0,1-1.55,1.73,4,4,0,0,1-2.18.63,3.52,3.52,0,0,1-1.79-.47,3.28,3.28,0,0,1-1.24-1.29,3.92,3.92,0,0,1-.44-1.85,5.14,5.14,0,0,1,.33-1.82,5,5,0,0,1,.92-1.56,4.17,4.17,0,0,1,1.4-1,4,4,0,0,1,1.71-.37,3.48,3.48,0,0,1,1.77.45,3,3,0,0,1,1.2,1.27A3.84,3.84,0,0,1,158.56,27.56Zm-1.42,0a2.86,2.86,0,0,0-.25-1.2,1.89,1.89,0,0,0-.72-.81,2,2,0,0,0-1.07-.29,2.39,2.39,0,0,0-1.42.47A3.4,3.4,0,0,0,152.62,27a4.26,4.26,0,0,0-.4,1.81,2.86,2.86,0,0,0,.25,1.24,2,2,0,0,0,.73.82,2,2,0,0,0,1.08.29,2.34,2.34,0,0,0,1.43-.49,3.35,3.35,0,0,0,1-1.33A4.4,4.4,0,0,0,157.14,27.52Z"/><path d="M164.07,32.29h-1.35l-.39-2.22h-2.55l-.95,2.22h-1.47L161.15,24h1.4Zm-1.89-3.22-.54-3.48h0l-1.41,3.48Z"/><path d="M169.71,24.11l-.17,1.17h-2.46l-1,7h-1.4l1-7h-2.44l.17-1.17Z"/><path d="M171.32,24.11l-1.15,8.18h-1.4l1.14-8.18Z"/><path d="M179.2,24.11l-1.13,8.18H177l-3.74-5.78h0l-.81,5.78h-1.34l1.15-8.18h1.08l3.75,5.71h0l.79-5.71Z"/><path d="M186.33,25.44a8.62,8.62,0,0,0-1.77-.22,5.52,5.52,0,0,0-1.71.26,3.82,3.82,0,0,0-1.33.74,3.28,3.28,0,0,0-.86,1.14,3.18,3.18,0,0,0-.31,1.35,2.73,2.73,0,0,0,.31,1.29,2.14,2.14,0,0,0,.87.87,2.74,2.74,0,0,0,1.3.31,5.32,5.32,0,0,0,.69,0,3.22,3.22,0,0,0,.71-.18l.21-1.5h-1.31l.14-1.06H186l-.5,3.49a6,6,0,0,1-1.17.37,7.3,7.3,0,0,1-1.43.14,5,5,0,0,1-1.64-.26,3.77,3.77,0,0,1-1.26-.75,3.41,3.41,0,0,1-.79-1.17,3.74,3.74,0,0,1-.28-1.47,4.49,4.49,0,0,1,.26-1.49,4.69,4.69,0,0,1,.76-1.34,4.61,4.61,0,0,1,1.17-1,5.82,5.82,0,0,1,1.56-.66,8.06,8.06,0,0,1,2-.23,9.6,9.6,0,0,1,1.85.19Z"/><path d="M28.8,43.18l-.17,1.11H23.76l1.15-8.18h1.38l-1,7.07Z"/><path d="M34.42,36.11l-.17,1.15H30.94l-.33,2.28h2.93l-.17,1.15H30.44l-.33,2.45h4.15l-.16,1.15H28.56l1.16-8.18Z"/><path d="M42.31,36.11l-1.13,8.18H40.09l-3.74-5.78h0l-.81,5.78H34.19l1.15-8.18h1.08l3.75,5.71h0L41,36.11Z"/><path d="M49.44,37.44a8.7,8.7,0,0,0-1.77-.22,5.48,5.48,0,0,0-1.71.26,4,4,0,0,0-1.34.74,3.37,3.37,0,0,0-.85,1.14,3,3,0,0,0-.31,1.35A2.73,2.73,0,0,0,43.77,42a2.14,2.14,0,0,0,.87.87,2.74,2.74,0,0,0,1.3.31,5.32,5.32,0,0,0,.69,0,3.22,3.22,0,0,0,.71-.18l.21-1.5H46.24l.14-1.06h2.7l-.5,3.49a6,6,0,0,1-1.17.37A7.3,7.3,0,0,1,46,44.4a5,5,0,0,1-1.64-.26,3.77,3.77,0,0,1-1.26-.75,3.41,3.41,0,0,1-.79-1.17A3.74,3.74,0,0,1,42,40.75a4.49,4.49,0,0,1,.26-1.49A4.69,4.69,0,0,1,43,37.92a4.61,4.61,0,0,1,1.17-1,5.82,5.82,0,0,1,1.56-.66,8.06,8.06,0,0,1,2-.23,9.6,9.6,0,0,1,1.85.19Z"/><path d="M55.75,36.11l-.17,1.17H53.12l-1,7h-1.4l1-7H49.29l.17-1.17Z"/><path d="M63.1,36.11l-1.16,8.18h-1.4L61,40.8H56.72l-.49,3.49h-1.4L56,36.11h1.39l-.46,3.41h4.3l.48-3.41Z"/><path d="M64,43.59a.81.81,0,0,1-.24.59.84.84,0,0,1-.6.25.87.87,0,0,1-.41-.11,1,1,0,0,1-.3-.3.79.79,0,0,1-.11-.43.78.78,0,0,1,.11-.42.81.81,0,0,1,.3-.31.86.86,0,0,1,.41-.1.82.82,0,0,1,.84.83Zm.66-4a.79.79,0,0,1-.25.6.8.8,0,0,1-.57.24.78.78,0,0,1-.42-.11.81.81,0,0,1-.31-.3.8.8,0,0,1-.12-.43.78.78,0,0,1,.25-.59.85.85,0,0,1,.6-.24.8.8,0,0,1,.57.24A.78.78,0,0,1,64.67,39.57Z"/><path d="M70.48,36.05l-1.23,8.24H67.9l1.24-8.24Z"/><path d="M77.35,38.47a4,4,0,0,1-.25,1.39,7.63,7.63,0,0,1-.85,1.55l-2,2.94H72.76L75,41l0,0a2.42,2.42,0,0,1-.46.17,1.66,1.66,0,0,1-.46.05,1.91,1.91,0,0,1-1-.25,2,2,0,0,1-.69-.72,2.14,2.14,0,0,1-.25-1.05,3.26,3.26,0,0,1,.38-1.55,3,3,0,0,1,1-1.17A2.61,2.61,0,0,1,75.06,36a2.28,2.28,0,0,1,1.2.31,2,2,0,0,1,.81.88A2.83,2.83,0,0,1,77.35,38.47Zm-1.37,0a1.25,1.25,0,0,0-.27-.84.94.94,0,0,0-.73-.32,1.18,1.18,0,0,0-.7.24,1.64,1.64,0,0,0-.54.65,1.92,1.92,0,0,0-.2.84,1,1,0,0,0,.25.73,1,1,0,0,0,.73.27,1.26,1.26,0,0,0,.72-.23,1.71,1.71,0,0,0,.54-.59A1.62,1.62,0,0,0,76,38.43Z"/><path d="M86.09,37.38l-.54-.09a5.6,5.6,0,0,0-.68,0,5,5,0,0,0-1.64.25,3.55,3.55,0,0,0-1.24.72,3.39,3.39,0,0,0-.82,1.17,3.64,3.64,0,0,0-.29,1.42,2.61,2.61,0,0,0,.28,1.24,1.91,1.91,0,0,0,.78.81,2.31,2.31,0,0,0,1.17.29,3.76,3.76,0,0,0,1.3-.26,7.11,7.11,0,0,0,1.39-.72l-.21,1.55A5.85,5.85,0,0,1,83,44.4,3.7,3.7,0,0,1,81.13,44a3.18,3.18,0,0,1-1.26-1.26,3.93,3.93,0,0,1-.44-1.86,4.66,4.66,0,0,1,.69-2.51,4.5,4.5,0,0,1,1.94-1.71A6.41,6.41,0,0,1,84.91,36a7.6,7.6,0,0,1,.76,0l.67.09Z"/><path d="M94.91,44.29H93.55l-.1-5.91h0l-3.18,5.91h-.37l-1.42-6h0l-1.94,6H85.1l2.68-8.18h1.38l1.3,5.36,2.85-5.36h1.43Z"/><path d="M109.6,36.11l-4,8.26h-.55l-1.5-5.63-2.74,5.63h-.56l-1.81-8.26h1.36L101,41.53h0l2.6-5.42h.58l1.48,5.48h0l2.51-5.48Z"/><path d="M114.31,36.11l-.17,1.15h-3.31l-.32,2.28h2.93l-.17,1.15h-2.93L110,43.14h4.14L114,44.29h-5.53l1.16-8.18Z"/><path d="M116.64,36.11l-1.15,8.18h-1.4l1.14-8.18Z"/><path d="M123.77,37.44a8.71,8.71,0,0,0-1.78-.22,5.46,5.46,0,0,0-1.7.26,3.87,3.87,0,0,0-1.34.74,3.4,3.4,0,0,0-.86,1.14,3.16,3.16,0,0,0-.3,1.35A2.62,2.62,0,0,0,118.1,42a2.14,2.14,0,0,0,.87.87,2.73,2.73,0,0,0,1.29.31,5.37,5.37,0,0,0,.7,0,3.36,3.36,0,0,0,.71-.18l.21-1.5h-1.32l.15-1.06h2.7l-.5,3.49a6,6,0,0,1-1.17.37,7.3,7.3,0,0,1-1.43.14,5,5,0,0,1-1.64-.26,3.58,3.58,0,0,1-1.26-.75,3.27,3.27,0,0,1-.79-1.17,3.74,3.74,0,0,1-.28-1.47,4.47,4.47,0,0,1,1-2.83,4.61,4.61,0,0,1,1.17-1,5.82,5.82,0,0,1,1.56-.66,8.06,8.06,0,0,1,2-.23,9.6,9.6,0,0,1,1.85.19Z"/><path d="M131.85,36.11l-1.16,8.18h-1.4l.49-3.49h-4.31L125,44.29h-1.4l1.15-8.18h1.39l-.47,3.41H130l.48-3.41Z"/><path d="M138.11,36.11l-.17,1.17h-2.46l-1,7h-1.4l1-7h-2.44l.17-1.17Z"/><path d="M143.22,36.05,142,44.29h-1.36l1.24-8.24Z"/><path d="M150,38a2,2,0,0,1-.38,1.19,2.44,2.44,0,0,1-1.07.81,1.78,1.78,0,0,1,1.12,1.78,2.47,2.47,0,0,1-.36,1.3,2.56,2.56,0,0,1-1,.93,2.91,2.91,0,0,1-1.4.35,2.68,2.68,0,0,1-1.25-.29,2,2,0,0,1-.85-.81,2.18,2.18,0,0,1-.31-1.17,2.38,2.38,0,0,1,.21-1,2.19,2.19,0,0,1,.59-.79,2.32,2.32,0,0,1,.91-.47,1.67,1.67,0,0,1-.87-1.58,2.15,2.15,0,0,1,.33-1.14,2.24,2.24,0,0,1,.9-.85,2.49,2.49,0,0,1,1.22-.31,2.57,2.57,0,0,1,1.16.26,1.84,1.84,0,0,1,.78.73A2.05,2.05,0,0,1,150,38Zm-1.68,3.68a1.07,1.07,0,0,0-.3-.8,1.09,1.09,0,0,0-.81-.3,1.24,1.24,0,0,0-.67.19,1.42,1.42,0,0,0-.49.54,1.45,1.45,0,0,0-.19.73,1.08,1.08,0,0,0,.3.79,1,1,0,0,0,.78.31,1.34,1.34,0,0,0,.69-.2,1.41,1.41,0,0,0,.5-.53A1.45,1.45,0,0,0,148.3,41.72Zm.32-3.59a.87.87,0,0,0-.25-.66.89.89,0,0,0-.63-.25,1,1,0,0,0-.57.18,1.23,1.23,0,0,0-.4.47,1.52,1.52,0,0,0-.14.63.9.9,0,0,0,.24.65.88.88,0,0,0,.65.24,1,1,0,0,0,.56-.17,1.23,1.23,0,0,0,.4-.47A1.48,1.48,0,0,0,148.62,38.13Z"/><path d="M155.27,39a8.28,8.28,0,0,1-.25,2,7,7,0,0,1-.68,1.79,3.54,3.54,0,0,1-1,1.16,2.24,2.24,0,0,1-1.28.41,1.92,1.92,0,0,1-1.63-.77,3.67,3.67,0,0,1-.57-2.22,9.13,9.13,0,0,1,.16-1.6,7.8,7.8,0,0,1,.46-1.55,4.77,4.77,0,0,1,.67-1.21,3.19,3.19,0,0,1,.88-.77,2.17,2.17,0,0,1,1.1-.28,1.94,1.94,0,0,1,1.16.35,2.09,2.09,0,0,1,.74,1A4.76,4.76,0,0,1,155.27,39Zm-1.37-.3a2.14,2.14,0,0,0-.23-1.13.71.71,0,0,0-.63-.37.92.92,0,0,0-.68.39,3.41,3.41,0,0,0-.58,1,8.39,8.39,0,0,0-.4,1.44,8.61,8.61,0,0,0-.14,1.49,2.67,2.67,0,0,0,.21,1.19.7.7,0,0,0,.64.4c.29,0,.57-.22.85-.64a6,6,0,0,0,.68-1.76A8.38,8.38,0,0,0,153.9,38.72Z"/><path d="M164.61,37.44a8.54,8.54,0,0,0-1.77-.22,5.46,5.46,0,0,0-1.7.26,3.78,3.78,0,0,0-1.34.74,3.4,3.4,0,0,0-.86,1.14,3.16,3.16,0,0,0-.3,1.35,2.73,2.73,0,0,0,.3,1.29,2.27,2.27,0,0,0,.87.87,2.77,2.77,0,0,0,1.3.31,5.32,5.32,0,0,0,.69,0,3.45,3.45,0,0,0,.72-.18l.2-1.5h-1.31l.15-1.06h2.7l-.51,3.49a6,6,0,0,1-1.17.37,7.2,7.2,0,0,1-1.42.14,5.1,5.1,0,0,1-1.65-.26,3.63,3.63,0,0,1-1.25-.75,3.3,3.3,0,0,1-.8-1.17,3.93,3.93,0,0,1-.28-1.47,4.49,4.49,0,0,1,.26-1.49,4.69,4.69,0,0,1,.76-1.34,4.61,4.61,0,0,1,1.17-1,5.82,5.82,0,0,1,1.56-.66,8.12,8.12,0,0,1,2-.23,9.6,9.6,0,0,1,1.85.19Z"/><path d="M170.78,44.29h-1.5l-.87-1.81a11.37,11.37,0,0,0-.55-1,2.42,2.42,0,0,0-.32-.4.86.86,0,0,0-.35-.19,1.7,1.7,0,0,0-.5-.06h-.41l-.48,3.48h-1.4l1.15-8.18h2.08a4.12,4.12,0,0,1,1.3.18,2.33,2.33,0,0,1,.85.5,1.86,1.86,0,0,1,.48.73,2.7,2.7,0,0,1,.14.85,2,2,0,0,1-.48,1.33,2.37,2.37,0,0,1-1.32.76v0a1.3,1.3,0,0,1,.43.38,2.65,2.65,0,0,1,.32.55ZM169,38.37a1,1,0,0,0-.37-.82,1.69,1.69,0,0,0-1.06-.29h-.74l-.33,2.45h.7a2.61,2.61,0,0,0,1-.17,1.34,1.34,0,0,0,.61-.47A1.18,1.18,0,0,0,169,38.37Z"/><path d="M176.41,44.29h-1.35l-.39-2.22h-2.56l-1,2.22H169.7L173.48,36h1.41Zm-1.89-3.22L174,37.59h0l-1.41,3.48Z"/><path d="M185.7,44.29h-1.36l-.11-5.91h0L181,44.29h-.38l-1.41-6h0l-1.95,6h-1.38l2.68-8.18H180l1.3,5.36,2.85-5.36h1.43Z"/><path d="M62.83,48.11l-1.16,8.18h-1.4l.49-3.49H56.45L56,56.29h-1.4l1.15-8.18H57.1l-.47,3.41h4.31l.48-3.41Z"/><path d="M68.34,56.29H67l-.39-2.22H64.05l-.95,2.22H61.63L65.42,48h1.4Zm-1.89-3.22-.54-3.48h0l-1.41,3.48Z"/><path d="M76.54,48.11,75.4,56.29H74.32l-3.75-5.78h0l-.8,5.78H68.42l1.14-8.18h1.09l3.74,5.71h0l.8-5.71Z"/><path d="M79.21,48.11a5.82,5.82,0,0,1,2,.31,3.82,3.82,0,0,1,1.41.86,3.32,3.32,0,0,1,.84,1.28,4.36,4.36,0,0,1,.28,1.59,4.58,4.58,0,0,1-.5,2.15,3.64,3.64,0,0,1-1.44,1.47,4.31,4.31,0,0,1-2.15.52H76.3l1.15-8.18Zm3.09,4A2.91,2.91,0,0,0,82,50.87a2.64,2.64,0,0,0-.69-.89,2.79,2.79,0,0,0-1-.54,3.55,3.55,0,0,0-1.12-.18h-.59l-.81,5.88h1.27a3.3,3.3,0,0,0,2.37-.77A3,3,0,0,0,82.3,52.12Z"/><path d="M92.88,56.29H91.52l-.1-5.91h0l-3.19,5.91h-.37l-1.41-6h0l-1.94,6H83.08l2.67-8.18h1.39l1.29,5.36,2.85-5.36h1.43Z"/><path d="M99.08,56.29H97.73l-.39-2.22H94.79l-1,2.22H92.37L96.16,48h1.4Zm-1.89-3.22-.54-3.48h0l-1.41,3.48Z"/><path d="M102.07,48.11a5.76,5.76,0,0,1,2,.31,3.94,3.94,0,0,1,1.42.86,3.56,3.56,0,0,1,.84,1.28,4.85,4.85,0,0,1-.23,3.74,3.55,3.55,0,0,1-1.43,1.47,4.32,4.32,0,0,1-2.16.52H99.15l1.15-8.18Zm3.08,4a2.77,2.77,0,0,0-.26-1.25,2.74,2.74,0,0,0-.68-.89,2.93,2.93,0,0,0-1-.54,3.5,3.5,0,0,0-1.12-.18h-.58l-.82,5.88H102a3.3,3.3,0,0,0,2.37-.77A3,3,0,0,0,105.15,52.12Z"/><path d="M112.38,48.11l-.17,1.15H108.9l-.33,2.28h2.93l-.17,1.15H108.4l-.33,2.45h4.15l-.17,1.15h-5.53l1.16-8.18Z"/><path d="M117.17,53l-.19,1.3h-3.25l.18-1.3Z"/><path d="M121.9,48.11a5.76,5.76,0,0,1,2,.31,3.94,3.94,0,0,1,1.42.86,3.56,3.56,0,0,1,.84,1.28,4.85,4.85,0,0,1-.23,3.74,3.55,3.55,0,0,1-1.43,1.47,4.32,4.32,0,0,1-2.16.52H119l1.15-8.18Zm3.08,4a2.77,2.77,0,0,0-.26-1.25A2.74,2.74,0,0,0,124,50a3,3,0,0,0-1-.54,3.61,3.61,0,0,0-1.13-.18h-.58l-.82,5.88h1.27a3.3,3.3,0,0,0,2.37-.77A3,3,0,0,0,125,52.12Z"/><path d="M132,56.29h-1.35l-.39-2.22h-2.55l-1,2.22H125.3L129.09,48h1.4Zm-1.89-3.22-.54-3.48h0l-1.41,3.48Z"/><path d="M137.65,48.11l-.17,1.17H135l-1,7h-1.4l1-7h-2.44l.17-1.17Z"/><path d="M141.65,56.29h-1.36l-.38-2.22h-2.56l-.95,2.22h-1.46L138.72,48h1.4Zm-1.9-3.22-.54-3.48h0l-1.41,3.48Z"/><path d="M153.14,56.29h-1.36l-.1-5.91h0l-3.18,5.91h-.37l-1.42-6h0l-1.94,6h-1.39L146,48.11h1.38l1.3,5.36,2.85-5.36H153Z"/><path d="M159.34,56.29H158l-.38-2.22H155l-.95,2.22h-1.46L156.41,48h1.4Zm-1.89-3.22-.54-3.48h0l-1.42,3.48Z"/><path d="M164.85,48.11l-3,4.39-.52,3.79H160l.54-3.79-1.83-4.39h1.4l1.25,3.07,2-3.07Z"/><path d="M171,48.11l-4,8.26h-.62l-1.64-8.26h1.32l1,5.3h0l2.49-5.3Z"/><path d="M175.36,56.29H174l-.39-2.22h-2.55l-.95,2.22h-1.47L172.44,48h1.4Zm-1.89-3.22-.54-3.48h0l-1.41,3.48Z"/><path d="M181.82,56.29h-1.5l-.88-1.81q-.37-.75-.54-1a2,2,0,0,0-.33-.4.83.83,0,0,0-.34-.19,1.75,1.75,0,0,0-.5-.06h-.41l-.48,3.48h-1.4l1.14-8.18h2.08a4,4,0,0,1,1.3.18,2.38,2.38,0,0,1,.86.5,1.73,1.73,0,0,1,.47.73,2.45,2.45,0,0,1,.15.85A2,2,0,0,1,181,51.7a2.3,2.3,0,0,1-1.32.76v0a1.33,1.33,0,0,1,.44.38,3.18,3.18,0,0,1,.32.55ZM180,50.37a1,1,0,0,0-.36-.82,1.73,1.73,0,0,0-1.07-.29h-.73l-.33,2.45h.69a2.62,2.62,0,0,0,1-.17,1.31,1.31,0,0,0,.6-.47A1.18,1.18,0,0,0,180,50.37Z"/><path d="M187.34,48.11l-3,4.39-.52,3.79h-1.39L183,52.5l-1.83-4.39h1.41l1.24,3.07,2-3.07Z"/></g></g></svg>