<svg xmlns="http://www.w3.org/2000/svg" viewBox="0 0 163.59 56.37"><title>Resurs 8</title><g id="Lager_2" data-name="Lager 2"><g id="Lager_1-2" data-name="Lager 1"><path d="M82.15,8.29H80.79l-.11-5.91h0L77.48,8.29H77.1l-1.41-6h0l-2,6H72.34L75,.11H76.4l1.29,5.36L80.55.11H82Z"/><path d="M90.34,3.56A5.45,5.45,0,0,1,89.79,6a4.27,4.27,0,0,1-1.55,1.73,4,4,0,0,1-2.18.63,3.49,3.49,0,0,1-1.79-.47A3.21,3.21,0,0,1,83,6.64a3.92,3.92,0,0,1-.44-1.85A5.14,5.14,0,0,1,82.92,3a4.8,4.8,0,0,1,.92-1.56,4.07,4.07,0,0,1,1.4-1A3.94,3.94,0,0,1,86.94,0a3.54,3.54,0,0,1,1.78.45,3,3,0,0,1,1.2,1.27A4,4,0,0,1,90.34,3.56Zm-1.42,0a2.71,2.71,0,0,0-.25-1.2A1.81,1.81,0,0,0,88,1.51a2,2,0,0,0-1.08-.29,2.37,2.37,0,0,0-1.41.47A3.32,3.32,0,0,0,84.41,3,4.27,4.27,0,0,0,84,4.83a2.86,2.86,0,0,0,.26,1.24,1.83,1.83,0,0,0,.73.82,2,2,0,0,0,1.08.29,2.31,2.31,0,0,0,1.42-.49,3.28,3.28,0,0,0,1.05-1.33A4.56,4.56,0,0,0,88.92,3.52Z"/><path d="M93.11.11a5.82,5.82,0,0,1,2,.31,3.82,3.82,0,0,1,1.41.86,3.32,3.32,0,0,1,.84,1.28,4.58,4.58,0,0,1,.28,1.59,4.46,4.46,0,0,1-.51,2.15,3.55,3.55,0,0,1-1.43,1.47,4.31,4.31,0,0,1-2.15.52H90.2L91.35.11Zm3.09,4a2.91,2.91,0,0,0-.26-1.25A2.77,2.77,0,0,0,95.25,2a2.88,2.88,0,0,0-1-.54,3.59,3.59,0,0,0-1.12-.18h-.59l-.81,5.88H93a3.3,3.3,0,0,0,2.37-.77A3,3,0,0,0,96.2,4.12Z"/><path d="M103.42.11l-.17,1.15H99.94l-.32,2.28h2.93l-.17,1.15H99.45l-.34,2.45h4.15l-.16,1.15H97.57L98.73.11Z"/><path d="M108.23,7.18l-.17,1.11h-4.87L104.34.11h1.39l-1,7.07Z"/><path d="M109.17,7.59a.78.78,0,0,1-.25.59.82.82,0,0,1-.59.25.82.82,0,0,1-.71-.41.8.8,0,0,1-.12-.43.88.88,0,0,1,.11-.42.92.92,0,0,1,.31-.31.86.86,0,0,1,.41-.1.81.81,0,0,1,.59.24A.79.79,0,0,1,109.17,7.59Zm.66-4a.79.79,0,0,1-.25.6.82.82,0,0,1-.58.24.8.8,0,0,1-.42-.11.89.89,0,0,1-.31-.3.89.89,0,0,1-.11-.43.78.78,0,0,1,.25-.59.81.81,0,0,1,.59-.24.82.82,0,0,1,.58.24A.78.78,0,0,1,109.83,3.57Z"/><path d="M117.76,4.63,112,7.11V5.81L116.31,4,112,2.28V1l5.79,2.49Z"/><path d="M123.64,4.63l-5.79,2.48V5.81L122.19,4l-4.34-1.76V1l5.79,2.49Z"/><path d="M129,.11l-.15,1.15h-2.91l-.31,2.28h2.58L128,4.69h-2.59l-.52,3.6h-1.37L124.72.11Z"/><path d="M133.1,7.18l-.17,1.11h-4.87L129.21.11h1.38l-1,7.07Z"/><path d="M140.4,3.56A5.45,5.45,0,0,1,139.84,6a4.2,4.2,0,0,1-1.55,1.73,4,4,0,0,1-2.18.63,3.52,3.52,0,0,1-1.79-.47,3.28,3.28,0,0,1-1.24-1.29,3.91,3.91,0,0,1-.43-1.85A5.13,5.13,0,0,1,133,3a5.19,5.19,0,0,1,.92-1.56,4.17,4.17,0,0,1,1.4-1A4,4,0,0,1,137,0a3.48,3.48,0,0,1,1.77.45A3.09,3.09,0,0,1,140,1.72,4,4,0,0,1,140.4,3.56Zm-1.42,0a2.71,2.71,0,0,0-.25-1.2,1.87,1.87,0,0,0-.71-.81,2,2,0,0,0-1.08-.29,2.42,2.42,0,0,0-1.42.47A3.5,3.5,0,0,0,134.46,3a4.26,4.26,0,0,0-.4,1.81,2.72,2.72,0,0,0,.26,1.24,1.87,1.87,0,0,0,.72.82,2.06,2.06,0,0,0,1.09.29,2.33,2.33,0,0,0,1.42-.49,3.26,3.26,0,0,0,1-1.33A4.4,4.4,0,0,0,139,3.52Z"/><path d="M145.91,8.29h-1.35l-.39-2.22h-2.55l-1,2.22h-1.46L143,0h1.4ZM144,5.07l-.54-3.48h0L142,5.07Z"/><path d="M151.55.11l-.17,1.17h-2.46l-1,7h-1.4l1-7h-2.44l.17-1.17Z"/><path d="M156.58,4.63l-5.79,2.48V5.81L155.13,4l-4.34-1.76V1l5.79,2.49Z"/><path d="M162.46,4.63l-5.79,2.48V5.81L161,4l-4.34-1.76V1l5.79,2.49Z"/><path d="M104,13.38l-.54-.09a5.6,5.6,0,0,0-.68,0,5,5,0,0,0-1.64.25,3.55,3.55,0,0,0-1.24.72,3.39,3.39,0,0,0-.82,1.17,3.64,3.64,0,0,0-.29,1.42A2.61,2.61,0,0,0,99,18.05a1.91,1.91,0,0,0,.78.81,2.31,2.31,0,0,0,1.17.29,3.76,3.76,0,0,0,1.3-.26,6.84,6.84,0,0,0,1.39-.72l-.21,1.55a5.85,5.85,0,0,1-2.63.68A3.7,3.7,0,0,1,99,20a3.18,3.18,0,0,1-1.26-1.26,3.93,3.93,0,0,1-.44-1.86A4.66,4.66,0,0,1,98,14.32a4.5,4.5,0,0,1,1.94-1.71,6.41,6.41,0,0,1,2.85-.61,7.6,7.6,0,0,1,.76,0l.67.09Z"/><path d="M111.23,15.56a5.45,5.45,0,0,1-.55,2.48,4.2,4.2,0,0,1-1.55,1.73,4,4,0,0,1-2.18.63,3.49,3.49,0,0,1-1.79-.47,3.21,3.21,0,0,1-1.24-1.29,3.92,3.92,0,0,1-.44-1.85,5.14,5.14,0,0,1,.33-1.82,4.8,4.8,0,0,1,.92-1.56,4.07,4.07,0,0,1,1.4-1,3.94,3.94,0,0,1,1.7-.37,3.49,3.49,0,0,1,1.78.45,3,3,0,0,1,1.2,1.27A4,4,0,0,1,111.23,15.56Zm-1.41,0a2.86,2.86,0,0,0-.25-1.2,1.89,1.89,0,0,0-.72-.81,2,2,0,0,0-1.07-.29,2.37,2.37,0,0,0-1.42.47A3.32,3.32,0,0,0,105.3,15a4.27,4.27,0,0,0-.41,1.81,2.86,2.86,0,0,0,.26,1.24,1.89,1.89,0,0,0,.73.82,2,2,0,0,0,1.08.29,2.31,2.31,0,0,0,1.42-.49,3.28,3.28,0,0,0,1.05-1.33A4.4,4.4,0,0,0,109.82,15.52Z"/><path d="M117.47,20.29H116l-.87-1.81a11.37,11.37,0,0,0-.55-1,2.42,2.42,0,0,0-.32-.4.86.86,0,0,0-.35-.19,1.7,1.7,0,0,0-.5-.06H113l-.48,3.48h-1.4l1.15-8.18h2.08a4.12,4.12,0,0,1,1.3.18,2.33,2.33,0,0,1,.85.5,1.86,1.86,0,0,1,.48.73,2.7,2.7,0,0,1,.14.85,2,2,0,0,1-.48,1.33,2.37,2.37,0,0,1-1.32.76v.05a1.3,1.3,0,0,1,.43.38,2.65,2.65,0,0,1,.32.55Zm-1.83-5.92a1,1,0,0,0-.37-.82,1.69,1.69,0,0,0-1.06-.29h-.74l-.33,2.45h.7a2.61,2.61,0,0,0,1-.17,1.34,1.34,0,0,0,.61-.47A1.18,1.18,0,0,0,115.64,14.37Z"/><path d="M123.29,12.11l-.17,1.15h-3.31l-.32,2.28h2.93l-.17,1.15h-2.93L119,19.14h4.14L123,20.29h-5.53l1.16-8.18Z"/><path d="M133.05,15.56a5.45,5.45,0,0,1-.56,2.48,4.2,4.2,0,0,1-1.55,1.73,4,4,0,0,1-2.18.63,3.52,3.52,0,0,1-1.79-.47,3.28,3.28,0,0,1-1.24-1.29,3.91,3.91,0,0,1-.43-1.85,5.13,5.13,0,0,1,.32-1.82,5.19,5.19,0,0,1,.92-1.56,4.17,4.17,0,0,1,1.4-1,4,4,0,0,1,1.71-.37,3.48,3.48,0,0,1,1.77.45,3.09,3.09,0,0,1,1.21,1.27A4,4,0,0,1,133.05,15.56Zm-1.42,0a2.71,2.71,0,0,0-.25-1.2,1.87,1.87,0,0,0-.71-.81,2.05,2.05,0,0,0-1.08-.29,2.42,2.42,0,0,0-1.42.47A3.5,3.5,0,0,0,127.11,15a4.26,4.26,0,0,0-.4,1.81,2.72,2.72,0,0,0,.26,1.24,1.87,1.87,0,0,0,.72.82,2.06,2.06,0,0,0,1.09.29,2.33,2.33,0,0,0,1.42-.49,3.26,3.26,0,0,0,1-1.33A4.4,4.4,0,0,0,131.63,15.52Z"/><path d="M138.34,12.11l-.16,1.15h-2.9L135,15.54h2.57l-.15,1.15H134.8l-.52,3.6H132.9l1.18-8.18Z"/><path d="M145.42,14.48a2.48,2.48,0,0,1-.35,1.3,2.38,2.38,0,0,1-1,.9,3.05,3.05,0,0,1-1.44.32h-1.17L141,20.29h-1.4l1.14-8.18h2a4.07,4.07,0,0,1,1,.12,2.45,2.45,0,0,1,.86.41,2.05,2.05,0,0,1,.6.73A2.53,2.53,0,0,1,145.42,14.48Zm-1.42,0a1.28,1.28,0,0,0-.18-.68,1.16,1.16,0,0,0-.53-.44,2.1,2.1,0,0,0-.84-.16H142l-.37,2.66h.77a1.91,1.91,0,0,0,.86-.17,1.29,1.29,0,0,0,.54-.49A1.34,1.34,0,0,0,144,14.5Z"/><path d="M147.51,12.11l-1.16,8.18H145l1.15-8.18Z"/><path d="M155.39,12.11l-1.13,8.18h-1.09l-3.74-5.78h0l-.81,5.78h-1.34l1.15-8.18h1.08l3.75,5.71h0l.79-5.71Z"/><path d="M161,12.11l-.17,1.15h-3.31l-.32,2.28h2.92L160,16.69H157l-.34,2.45h4.15l-.16,1.15h-5.54l1.16-8.18Z"/><path d="M162,20a1.76,1.76,0,0,1-.29,1,2.33,2.33,0,0,1-.83.75,3.06,3.06,0,0,1-1.19.35l.12-.62a1.27,1.27,0,0,0,.62-.34,1.15,1.15,0,0,0,.28-.61.8.8,0,0,1-.51-.74.81.81,0,0,1,.24-.6.83.83,0,0,1,.62-.24.86.86,0,0,1,.67.32A1.16,1.16,0,0,1,162,20Z"/><path d="M11.17,32.29H9.67l-.88-1.81q-.37-.75-.54-1a2,2,0,0,0-.33-.4.77.77,0,0,0-.34-.19,1.7,1.7,0,0,0-.5-.06H6.67l-.48,3.48H4.79l1.15-8.18H8a4,4,0,0,1,1.29.18,2.38,2.38,0,0,1,.86.5,1.73,1.73,0,0,1,.47.73,2.45,2.45,0,0,1,.15.85,2,2,0,0,1-.49,1.33A2.3,2.3,0,0,1,9,28.46v.05a1.33,1.33,0,0,1,.44.38,3.18,3.18,0,0,1,.32.55ZM9.33,26.37A1,1,0,0,0,9,25.55a1.73,1.73,0,0,0-1.07-.29H7.17l-.33,2.45h.7a2.61,2.61,0,0,0,1-.17,1.39,1.39,0,0,0,.61-.47A1.25,1.25,0,0,0,9.33,26.37Z"/><path d="M17,24.11l-.17,1.15H13.51l-.32,2.28h2.93L16,28.69H13l-.34,2.45h4.15l-.16,1.15H11.14l1.16-8.18Z"/><path d="M19.68,24.11a5.76,5.76,0,0,1,2,.31,3.94,3.94,0,0,1,1.42.86,3.56,3.56,0,0,1,.84,1.28,4.85,4.85,0,0,1-.23,3.74,3.55,3.55,0,0,1-1.43,1.47,4.32,4.32,0,0,1-2.16.52H16.76l1.15-8.18Zm3.08,4a2.77,2.77,0,0,0-.26-1.25,2.74,2.74,0,0,0-.68-.89,2.93,2.93,0,0,0-1-.54,3.5,3.5,0,0,0-1.12-.18h-.58l-.82,5.88h1.27A3.3,3.3,0,0,0,22,30.37,3,3,0,0,0,22.76,28.12Z"/><path d="M31.28,32.29H29.92l-.38-2.22H27L26,32.29H24.57L28.35,24h1.4Zm-1.9-3.22-.53-3.48h0L27.4,29.07Z"/><path d="M39.47,24.11l-1.14,8.18H37.25l-3.74-5.78h0l-.8,5.78H31.35l1.15-8.18h1.08l3.75,5.71h0l.79-5.71Z"/><path d="M42.15,24.11a5.76,5.76,0,0,1,2,.31,3.94,3.94,0,0,1,1.42.86,3.56,3.56,0,0,1,.84,1.28,4.85,4.85,0,0,1-.23,3.74,3.55,3.55,0,0,1-1.43,1.47,4.32,4.32,0,0,1-2.16.52H39.23l1.15-8.18Zm3.08,4A2.77,2.77,0,0,0,45,26.87a2.74,2.74,0,0,0-.68-.89,2.93,2.93,0,0,0-1-.54,3.5,3.5,0,0,0-1.12-.18h-.58l-.82,5.88h1.27a3.3,3.3,0,0,0,2.37-.77A3,3,0,0,0,45.23,28.12Z"/><path d="M58.67,24.11l-4,8.26h-.56l-1.5-5.63L49.9,32.37h-.56l-1.82-8.26h1.37L50,29.53h0l2.6-5.42h.58l1.47,5.48h0l2.51-5.48Z"/><path d="M65.81,24.11l-1.15,8.18h-1.4l.49-3.49H59.44L59,32.29h-1.4l1.15-8.18h1.39l-.47,3.41h4.31l.48-3.41Z"/><path d="M68.11,24.11,67,32.29h-1.4l1.15-8.18Z"/><path d="M74.4,24.11l-.17,1.17H71.77l-1,7h-1.4l1-7H67.93l.17-1.17Z"/><path d="M79.31,24.11l-.17,1.15H75.83l-.33,2.28h2.93l-.17,1.15H75.33L75,31.14h4.15L79,32.29H73.45l1.16-8.18Z"/><path d="M82.46,31.59a.78.78,0,0,1-.25.59.82.82,0,0,1-.59.25.82.82,0,0,1-.71-.41.8.8,0,0,1-.12-.43.79.79,0,0,1,.12-.42.81.81,0,0,1,.3-.31.86.86,0,0,1,.41-.1.81.81,0,0,1,.59.24A.79.79,0,0,1,82.46,31.59Z"/><path d="M92.44,25.44a8.62,8.62,0,0,0-1.77-.22,5.52,5.52,0,0,0-1.71.26,3.82,3.82,0,0,0-1.33.74,3.28,3.28,0,0,0-.86,1.14,3.16,3.16,0,0,0-.3,1.35,2.73,2.73,0,0,0,.3,1.29,2.14,2.14,0,0,0,.87.87,2.74,2.74,0,0,0,1.3.31,5.32,5.32,0,0,0,.69,0,3.22,3.22,0,0,0,.71-.18l.21-1.5H89.24l.14-1.06h2.7l-.5,3.49a6,6,0,0,1-1.17.37A7.2,7.2,0,0,1,89,32.4a5.05,5.05,0,0,1-1.65-.26,3.77,3.77,0,0,1-1.26-.75,3.41,3.41,0,0,1-.79-1.17A3.93,3.93,0,0,1,85,28.75a4.49,4.49,0,0,1,.26-1.49A4.69,4.69,0,0,1,86,25.92a4.61,4.61,0,0,1,1.17-1,5.82,5.82,0,0,1,1.56-.66,8.06,8.06,0,0,1,2-.23,9.6,9.6,0,0,1,1.85.19Z"/><path d="M97.27,31.18l-.17,1.11H92.23l1.15-8.18h1.38l-1,7.07Z"/><path d="M104.56,27.56A5.45,5.45,0,0,1,104,30a4.2,4.2,0,0,1-1.55,1.73,4,4,0,0,1-2.18.63,3.49,3.49,0,0,1-1.79-.47,3.28,3.28,0,0,1-1.24-1.29,3.92,3.92,0,0,1-.44-1.85A5.14,5.14,0,0,1,97.14,27a4.8,4.8,0,0,1,.92-1.56,4.17,4.17,0,0,1,1.4-1,4,4,0,0,1,1.71-.37,3.48,3.48,0,0,1,1.77.45,3,3,0,0,1,1.2,1.27A4,4,0,0,1,104.56,27.56Zm-1.41,0a2.86,2.86,0,0,0-.25-1.2,1.89,1.89,0,0,0-.72-.81,2,2,0,0,0-1.07-.29,2.39,2.39,0,0,0-1.42.47A3.4,3.4,0,0,0,98.63,27a4.26,4.26,0,0,0-.4,1.81,2.86,2.86,0,0,0,.25,1.24,1.89,1.89,0,0,0,.73.82,2,2,0,0,0,1.08.29,2.31,2.31,0,0,0,1.42-.49,3.28,3.28,0,0,0,1.05-1.33A4.4,4.4,0,0,0,103.15,27.52Z"/><path d="M109.21,25.73a3.27,3.27,0,0,0-.84-.41,3,3,0,0,0-.87-.14,1.41,1.41,0,0,0-.94.3,1,1,0,0,0-.36.78.71.71,0,0,0,.11.4,1.81,1.81,0,0,0,.32.4c.15.13.38.31.7.54s.41.29.62.45a4.07,4.07,0,0,1,.56.54,3.18,3.18,0,0,1,.41.66,2.16,2.16,0,0,1,.15.83,2.22,2.22,0,0,1-1.23,2,2.91,2.91,0,0,1-1.34.3,4.42,4.42,0,0,1-2.34-.67l.2-1.31a4.82,4.82,0,0,0,1.12.61,2.91,2.91,0,0,0,1,.19,1.45,1.45,0,0,0,.59-.12,1,1,0,0,0,.44-.34.79.79,0,0,0,.17-.52,1,1,0,0,0-.1-.45,1.67,1.67,0,0,0-.29-.38,2.4,2.4,0,0,0-.41-.36l-.47-.36a5.91,5.91,0,0,1-1-.82,2.57,2.57,0,0,1-.46-.7,1.87,1.87,0,0,1-.17-.83,2.08,2.08,0,0,1,.36-1.19,2.37,2.37,0,0,1,1-.84,3.08,3.08,0,0,1,1.39-.31,3.78,3.78,0,0,1,1,.13,4,4,0,0,1,.9.34Z"/><path d="M114.08,25.73a3.38,3.38,0,0,0-.83-.41,3,3,0,0,0-.87-.14,1.42,1.42,0,0,0-.95.3,1,1,0,0,0-.36.78.8.8,0,0,0,.11.4,1.62,1.62,0,0,0,.33.4,6.85,6.85,0,0,0,.7.54l.61.45a4.07,4.07,0,0,1,.56.54,2.81,2.81,0,0,1,.41.66,2.15,2.15,0,0,1,.16.83,2.19,2.19,0,0,1-.33,1.18,2.15,2.15,0,0,1-.9.84,3,3,0,0,1-1.35.3,4.42,4.42,0,0,1-2.34-.67l.2-1.31a4.68,4.68,0,0,0,1.13.61,2.82,2.82,0,0,0,1,.19,1.45,1.45,0,0,0,.59-.12,1,1,0,0,0,.45-.34.85.85,0,0,0,.16-.52,1,1,0,0,0-.1-.45,1.67,1.67,0,0,0-.29-.38,2.77,2.77,0,0,0-.4-.36l-.48-.36a6.37,6.37,0,0,1-1-.82,2.57,2.57,0,0,1-.46-.7,2,2,0,0,1-.17-.83,2.08,2.08,0,0,1,.36-1.19,2.37,2.37,0,0,1,1-.84A3.11,3.11,0,0,1,112.4,24a3.72,3.72,0,0,1,1,.13,4.09,4.09,0,0,1,.91.34Z"/><path d="M120,24.11l-3,4.39-.53,3.79h-1.38l.53-3.79-1.83-4.39h1.41l1.24,3.07,2-3.07Z"/><path d="M127.54,25.38a4.53,4.53,0,0,0-.54-.09,5.49,5.49,0,0,0-.68,0,4.85,4.85,0,0,0-1.63.25,3.51,3.51,0,0,0-1.25.72,3.23,3.23,0,0,0-.81,1.17,3.48,3.48,0,0,0-.3,1.42,2.73,2.73,0,0,0,.28,1.24,1.91,1.91,0,0,0,.78.81,2.34,2.34,0,0,0,1.18.29,3.75,3.75,0,0,0,1.29-.26,7.17,7.17,0,0,0,1.4-.72L127,31.72a5.85,5.85,0,0,1-2.63.68,3.7,3.7,0,0,1-1.83-.45,3.1,3.1,0,0,1-1.25-1.26,3.82,3.82,0,0,1-.45-1.86,4.66,4.66,0,0,1,.69-2.51,4.55,4.55,0,0,1,1.94-1.71,6.41,6.41,0,0,1,2.85-.61,7.32,7.32,0,0,1,.76,0l.67.09Z"/><path d="M134.81,27.56a5.45,5.45,0,0,1-.56,2.48,4.2,4.2,0,0,1-1.55,1.73,4,4,0,0,1-2.18.63,3.52,3.52,0,0,1-1.79-.47,3.28,3.28,0,0,1-1.24-1.29,3.92,3.92,0,0,1-.44-1.85,5.14,5.14,0,0,1,.33-1.82,5,5,0,0,1,.92-1.56,4.17,4.17,0,0,1,1.4-1,4,4,0,0,1,1.71-.37,3.48,3.48,0,0,1,1.77.45,3,3,0,0,1,1.2,1.27A4,4,0,0,1,134.81,27.56Zm-1.42,0a2.86,2.86,0,0,0-.25-1.2,1.89,1.89,0,0,0-.72-.81,2,2,0,0,0-1.07-.29,2.39,2.39,0,0,0-1.42.47A3.4,3.4,0,0,0,128.87,27a4.26,4.26,0,0,0-.4,1.81,2.86,2.86,0,0,0,.25,1.24,2,2,0,0,0,.73.82,2,2,0,0,0,1.08.29,2.29,2.29,0,0,0,1.42-.49A3.28,3.28,0,0,0,133,29.36,4.4,4.4,0,0,0,133.39,27.52Z"/><path d="M140.32,32.29H139l-.39-2.22H136l-.95,2.22h-1.47L137.4,24h1.4Zm-1.89-3.22-.54-3.48h0l-1.41,3.48Z"/><path d="M146,24.11l-.17,1.17h-2.46l-1,7H141l1-7h-2.44l.17-1.17Z"/><path d="M147.57,24.11l-1.15,8.18H145l1.15-8.18Z"/><path d="M155.45,24.11l-1.13,8.18h-1.09l-3.74-5.78h0l-.81,5.78h-1.34l1.15-8.18h1.08l3.75,5.71h0l.79-5.71Z"/><path d="M162.58,25.44a8.7,8.7,0,0,0-1.77-.22,5.48,5.48,0,0,0-1.71.26,4,4,0,0,0-1.34.74,3.37,3.37,0,0,0-.85,1.14,3.18,3.18,0,0,0-.31,1.35,2.73,2.73,0,0,0,.31,1.29,2.14,2.14,0,0,0,.87.87,2.74,2.74,0,0,0,1.3.31,5.32,5.32,0,0,0,.69,0,3.22,3.22,0,0,0,.71-.18l.21-1.5h-1.31l.14-1.06h2.7l-.5,3.49a6,6,0,0,1-1.17.37,7.3,7.3,0,0,1-1.43.14,5,5,0,0,1-1.64-.26,3.77,3.77,0,0,1-1.26-.75,3.41,3.41,0,0,1-.79-1.17,3.74,3.74,0,0,1-.28-1.47,4.49,4.49,0,0,1,.26-1.49,4.69,4.69,0,0,1,.76-1.34,4.61,4.61,0,0,1,1.17-1,5.82,5.82,0,0,1,1.56-.66,8.06,8.06,0,0,1,2-.23,9.6,9.6,0,0,1,1.85.19Z"/><path d="M5,43.18l-.17,1.11H0l1.15-8.18H2.53l-1,7.07Z"/><path d="M10.66,36.11l-.17,1.15H7.17l-.32,2.28H9.78l-.17,1.15H6.68l-.33,2.45H10.5l-.17,1.15H4.8L6,36.11Z"/><path d="M18.55,36.11l-1.14,8.18H16.33l-3.74-5.78h0l-.8,5.78H10.43l1.15-8.18h1.08l3.75,5.71h0l.79-5.71Z"/><path d="M25.68,37.44a8.71,8.71,0,0,0-1.78-.22,5.46,5.46,0,0,0-1.7.26,3.87,3.87,0,0,0-1.34.74A3.54,3.54,0,0,0,20,39.36a3.16,3.16,0,0,0-.3,1.35A2.62,2.62,0,0,0,20,42a2.14,2.14,0,0,0,.87.87,2.73,2.73,0,0,0,1.29.31,5.37,5.37,0,0,0,.7,0,3.36,3.36,0,0,0,.71-.18l.21-1.5H22.47l.15-1.06h2.7l-.5,3.49a6,6,0,0,1-1.17.37,7.3,7.3,0,0,1-1.43.14,5,5,0,0,1-1.64-.26,3.67,3.67,0,0,1-1.26-.75,3.27,3.27,0,0,1-.79-1.17,3.74,3.74,0,0,1-.28-1.47,4.47,4.47,0,0,1,1-2.83,4.61,4.61,0,0,1,1.17-1A5.82,5.82,0,0,1,22,36.23,8.06,8.06,0,0,1,24,36a9.6,9.6,0,0,1,1.85.19Z"/><path d="M32,36.11l-.17,1.17H29.36l-1,7H27l1-7H25.52l.17-1.17Z"/><path d="M39.34,36.11l-1.16,8.18h-1.4l.49-3.49H33l-.49,3.49h-1.4l1.15-8.18h1.39l-.47,3.41h4.31l.48-3.41Z"/><path d="M40.25,43.59a.78.78,0,0,1-.25.59.82.82,0,0,1-.59.25A.82.82,0,0,1,38.7,44a.8.8,0,0,1-.12-.43.88.88,0,0,1,.11-.42.92.92,0,0,1,.31-.31.86.86,0,0,1,.41-.1A.81.81,0,0,1,40,43,.79.79,0,0,1,40.25,43.59Zm.66-4a.79.79,0,0,1-.25.6.83.83,0,0,1-1,.13.8.8,0,0,1-.42-.73.78.78,0,0,1,.25-.59.81.81,0,0,1,.59-.24.82.82,0,0,1,.58.24A.78.78,0,0,1,40.91,39.57Z"/><path d="M46.72,36.05l-1.23,8.24H44.14l1.23-8.24Z"/><path d="M53.48,38a2,2,0,0,1-.39,1.19A2.34,2.34,0,0,1,52,40a1.79,1.79,0,0,1,1.13,1.78,2.39,2.39,0,0,1-.37,1.3,2.5,2.5,0,0,1-1,.93,2.87,2.87,0,0,1-1.39.35,2.72,2.72,0,0,1-1.26-.29,2.07,2.07,0,0,1-.85-.81,2.26,2.26,0,0,1-.3-1.17,2.54,2.54,0,0,1,.2-1,2.31,2.31,0,0,1,.59-.79,2.39,2.39,0,0,1,.91-.47,1.91,1.91,0,0,1-.66-.67,1.83,1.83,0,0,1-.2-.91,2.23,2.23,0,0,1,.32-1.14,2.37,2.37,0,0,1,.9-.85A2.5,2.5,0,0,1,51.27,36a2.53,2.53,0,0,1,1.15.26,1.84,1.84,0,0,1,.78.73A2.06,2.06,0,0,1,53.48,38Zm-1.69,3.68a1,1,0,0,0-1.11-1.1,1.23,1.23,0,0,0-.66.19,1.45,1.45,0,0,0-.5.54,1.56,1.56,0,0,0-.19.73,1.08,1.08,0,0,0,.3.79,1,1,0,0,0,.79.31,1.28,1.28,0,0,0,.68-.2,1.37,1.37,0,0,0,.51-.53A1.55,1.55,0,0,0,51.79,41.72Zm.33-3.59a.87.87,0,0,0-.89-.91,1,1,0,0,0-.56.18,1.15,1.15,0,0,0-.4.47,1.39,1.39,0,0,0-.15.63.84.84,0,0,0,.89.89,1,1,0,0,0,.56-.17,1.15,1.15,0,0,0,.4-.47A1.35,1.35,0,0,0,52.12,38.13Z"/><path d="M62.19,37.38a4.19,4.19,0,0,0-.54-.09,5.49,5.49,0,0,0-.68,0,4.85,4.85,0,0,0-1.63.25,3.51,3.51,0,0,0-1.25.72,3.23,3.23,0,0,0-.81,1.17,3.48,3.48,0,0,0-.3,1.42,2.73,2.73,0,0,0,.28,1.24,1.91,1.91,0,0,0,.78.81,2.37,2.37,0,0,0,1.18.29,3.75,3.75,0,0,0,1.29-.26,7.17,7.17,0,0,0,1.4-.72l-.22,1.55a5.85,5.85,0,0,1-2.63.68A3.7,3.7,0,0,1,57.23,44,3.1,3.1,0,0,1,56,42.69a3.82,3.82,0,0,1-.45-1.86,4.66,4.66,0,0,1,.69-2.51,4.52,4.52,0,0,1,2-1.71A6.35,6.35,0,0,1,61,36a7.27,7.27,0,0,1,.75,0l.68.09Z"/><path d="M71,44.29H69.66l-.11-5.91h0l-3.19,5.91H66l-1.41-6h0l-1.94,6H61.21l2.67-8.18h1.39l1.29,5.36,2.86-5.36h1.42Z"/><path d="M85.71,36.11l-4,8.26h-.55l-1.5-5.63-2.73,5.63h-.57l-1.81-8.26h1.37l1.14,5.42h0l2.61-5.42h.58l1.47,5.48h0l2.5-5.48Z"/><path d="M90.42,36.11l-.17,1.15H86.93l-.32,2.28h2.93l-.17,1.15H86.44l-.33,2.45h4.15l-.17,1.15H84.56l1.16-8.18Z"/><path d="M92.74,36.11l-1.15,8.18h-1.4l1.15-8.18Z"/><path d="M99.87,37.44a8.62,8.62,0,0,0-1.77-.22,5.52,5.52,0,0,0-1.71.26,3.82,3.82,0,0,0-1.33.74,3.28,3.28,0,0,0-.86,1.14,3.16,3.16,0,0,0-.3,1.35A2.73,2.73,0,0,0,94.2,42a2.14,2.14,0,0,0,.87.87,2.74,2.74,0,0,0,1.3.31,5.32,5.32,0,0,0,.69,0,3.22,3.22,0,0,0,.71-.18l.21-1.5H96.67l.14-1.06h2.7L99,43.89a6,6,0,0,1-1.17.37,7.3,7.3,0,0,1-1.43.14,5,5,0,0,1-1.64-.26,3.77,3.77,0,0,1-1.26-.75,3.41,3.41,0,0,1-.79-1.17,3.74,3.74,0,0,1-.28-1.47,4.49,4.49,0,0,1,.26-1.49,4.69,4.69,0,0,1,.76-1.34,4.61,4.61,0,0,1,1.17-1,5.82,5.82,0,0,1,1.56-.66,8.06,8.06,0,0,1,2-.23,9.6,9.6,0,0,1,1.85.19Z"/><path d="M108,36.11l-1.16,8.18h-1.4l.5-3.49h-4.32l-.49,3.49h-1.4l1.15-8.18h1.39l-.46,3.41h4.3l.48-3.41Z"/><path d="M114.22,36.11l-.17,1.17h-2.47l-1,7h-1.4l1-7h-2.43l.17-1.17Z"/><path d="M119.32,36.05l-1.22,8.24h-1.35L118,36.05Z"/><path d="M126,41.31a3.17,3.17,0,0,1-.39,1.53A3.06,3.06,0,0,1,124.52,44a2.64,2.64,0,0,1-1.42.42,2.44,2.44,0,0,1-1.23-.31,2.12,2.12,0,0,1-.81-.89,2.91,2.91,0,0,1-.28-1.32,3.58,3.58,0,0,1,.3-1.38,8,8,0,0,1,.83-1.52l1.92-2.87h1.52l-2.22,3.32,0,0a1.74,1.74,0,0,1,.94-.22,1.86,1.86,0,0,1,1,.26,1.73,1.73,0,0,1,.67.72A2.53,2.53,0,0,1,126,41.31Zm-1.35.12a1,1,0,0,0-.27-.75.91.91,0,0,0-.69-.28,1.4,1.4,0,0,0-.76.22,1.65,1.65,0,0,0-.77,1.38,1.2,1.2,0,0,0,.29.83.9.9,0,0,0,.71.32,1.24,1.24,0,0,0,.72-.24,1.66,1.66,0,0,0,.56-.64A1.83,1.83,0,0,0,124.62,41.43Z"/><path d="M131.52,39a8.28,8.28,0,0,1-.25,2,7,7,0,0,1-.68,1.79,3.54,3.54,0,0,1-1,1.16,2.24,2.24,0,0,1-1.28.41,1.92,1.92,0,0,1-1.63-.77,3.67,3.67,0,0,1-.57-2.22,9.13,9.13,0,0,1,.16-1.6,8.53,8.53,0,0,1,.45-1.55,5.11,5.11,0,0,1,.68-1.21,3.19,3.19,0,0,1,.88-.77,2.17,2.17,0,0,1,1.1-.28,1.94,1.94,0,0,1,1.16.35,2.09,2.09,0,0,1,.74,1A4.76,4.76,0,0,1,131.52,39Zm-1.37-.3a2.14,2.14,0,0,0-.23-1.13.71.71,0,0,0-.63-.37.92.92,0,0,0-.68.39,3.41,3.41,0,0,0-.58,1,8.39,8.39,0,0,0-.4,1.44,8.61,8.61,0,0,0-.14,1.49,2.67,2.67,0,0,0,.21,1.19.7.7,0,0,0,.64.4c.29,0,.57-.22.85-.64a6,6,0,0,0,.68-1.76A8.38,8.38,0,0,0,130.15,38.72Z"/><path d="M140.86,37.44a8.54,8.54,0,0,0-1.77-.22,5.41,5.41,0,0,0-1.7.26,3.78,3.78,0,0,0-1.34.74,3.4,3.4,0,0,0-.86,1.14,3.16,3.16,0,0,0-.3,1.35,2.73,2.73,0,0,0,.3,1.29,2.21,2.21,0,0,0,.87.87,2.77,2.77,0,0,0,1.3.31,5.32,5.32,0,0,0,.69,0,3.45,3.45,0,0,0,.72-.18l.2-1.5h-1.31l.14-1.06h2.71L140,43.89a6,6,0,0,1-1.17.37,7.2,7.2,0,0,1-1.42.14,5.05,5.05,0,0,1-1.65-.26,3.63,3.63,0,0,1-1.25-.75,3.3,3.3,0,0,1-.8-1.17,3.93,3.93,0,0,1-.28-1.47,4.49,4.49,0,0,1,.26-1.49,4.69,4.69,0,0,1,.76-1.34,4.61,4.61,0,0,1,1.17-1,5.82,5.82,0,0,1,1.56-.66,8.12,8.12,0,0,1,2-.23,9.6,9.6,0,0,1,1.85.19Z"/><path d="M147,44.29h-1.5l-.87-1.81a11.37,11.37,0,0,0-.55-1,2.42,2.42,0,0,0-.32-.4.86.86,0,0,0-.35-.19,1.7,1.7,0,0,0-.5-.06h-.41l-.48,3.48h-1.4l1.15-8.18h2.08a4.12,4.12,0,0,1,1.3.18,2.33,2.33,0,0,1,.85.5,1.86,1.86,0,0,1,.48.73,2.7,2.7,0,0,1,.14.85,2,2,0,0,1-.48,1.33,2.36,2.36,0,0,1-1.33.76v0a1.24,1.24,0,0,1,.44.38,2.65,2.65,0,0,1,.32.55Zm-1.83-5.92a1,1,0,0,0-.37-.82,1.69,1.69,0,0,0-1.06-.29H143l-.33,2.45h.7a2.61,2.61,0,0,0,1-.17,1.34,1.34,0,0,0,.61-.47A1.18,1.18,0,0,0,145.2,38.37Z"/><path d="M152.66,44.29H151.3l-.38-2.22h-2.56l-1,2.22H146L149.73,36h1.4Zm-1.89-3.22-.54-3.48h0l-1.41,3.48Z"/><path d="M162,44.29h-1.36l-.11-5.91h0l-3.18,5.91h-.38l-1.41-6h0l-1.95,6h-1.38l2.68-8.18h1.38l1.3,5.36,2.85-5.36h1.43Z"/><path d="M39.08,48.11l-1.16,8.18h-1.4L37,52.8H32.7l-.49,3.49h-1.4L32,48.11h1.39l-.47,3.41h4.31l.48-3.41Z"/><path d="M44.59,56.29H43.24l-.39-2.22H40.3l-.95,2.22H37.88L41.67,48h1.4ZM42.7,53.07l-.54-3.48h0l-1.41,3.48Z"/><path d="M52.79,48.11l-1.14,8.18H50.57l-3.75-5.78h0L46,56.29H44.67l1.14-8.18H46.9l3.74,5.71h0l.79-5.71Z"/><path d="M55.46,48.11a5.82,5.82,0,0,1,2,.31,3.82,3.82,0,0,1,1.41.86,3.32,3.32,0,0,1,.84,1.28,4.78,4.78,0,0,1-.22,3.74,3.64,3.64,0,0,1-1.44,1.47,4.31,4.31,0,0,1-2.15.52H52.55l1.15-8.18Zm3.09,4a2.91,2.91,0,0,0-.26-1.25,2.79,2.79,0,0,0-1.66-1.43,3.55,3.55,0,0,0-1.12-.18h-.59l-.81,5.88h1.27a3.3,3.3,0,0,0,2.37-.77A3,3,0,0,0,58.55,52.12Z"/><path d="M69.13,56.29H67.77l-.1-5.91h0l-3.19,5.91h-.37l-1.41-6h0l-1.94,6H59.33L62,48.11h1.39l1.29,5.36,2.85-5.36H69Z"/><path d="M75.33,56.29H74l-.39-2.22H71l-1,2.22H68.62L72.41,48h1.4Zm-1.89-3.22-.54-3.48h0l-1.41,3.48Z"/><path d="M78.32,48.11a5.8,5.8,0,0,1,2,.31,3.94,3.94,0,0,1,1.42.86,3.56,3.56,0,0,1,.84,1.28,4.85,4.85,0,0,1-.23,3.74,3.55,3.55,0,0,1-1.43,1.47,4.32,4.32,0,0,1-2.16.52H75.4l1.15-8.18Zm3.08,4a2.77,2.77,0,0,0-.26-1.25,2.74,2.74,0,0,0-.68-.89,2.93,2.93,0,0,0-1-.54,3.5,3.5,0,0,0-1.12-.18h-.58L77,55.14h1.27a3.3,3.3,0,0,0,2.37-.77A3,3,0,0,0,81.4,52.12Z"/><path d="M88.62,48.11l-.16,1.15H85.14l-.32,2.28h2.93l-.17,1.15H84.65l-.33,2.45h4.15l-.17,1.15H82.77l1.16-8.18Z"/><path d="M93.42,53l-.19,1.3H90l.18-1.3Z"/><path d="M98.15,48.11a5.76,5.76,0,0,1,2,.31,3.94,3.94,0,0,1,1.42.86,3.56,3.56,0,0,1,.84,1.28,4.85,4.85,0,0,1-.23,3.74,3.55,3.55,0,0,1-1.43,1.47,4.32,4.32,0,0,1-2.16.52H95.23l1.15-8.18Zm3.08,4a2.77,2.77,0,0,0-.26-1.25,2.74,2.74,0,0,0-.68-.89,2.93,2.93,0,0,0-1-.54,3.5,3.5,0,0,0-1.12-.18h-.58l-.82,5.88h1.27a3.3,3.3,0,0,0,2.37-.77A3,3,0,0,0,101.23,52.12Z"/><path d="M108.26,56.29h-1.35l-.39-2.22H104l-1,2.22h-1.47L105.34,48h1.4Zm-1.89-3.22-.54-3.48h0l-1.41,3.48Z"/><path d="M113.9,48.11l-.17,1.17h-2.46l-1,7h-1.4l1-7h-2.44l.17-1.17Z"/><path d="M117.9,56.29h-1.36l-.39-2.22H113.6l-.95,2.22h-1.46L115,48h1.4ZM116,53.07l-.54-3.48h0L114,53.07Z"/><path d="M129.39,56.29H128l-.1-5.91h0l-3.18,5.91h-.37l-1.42-6h0l-1.94,6h-1.39l2.68-8.18h1.38l1.3,5.36,2.85-5.36h1.43Z"/><path d="M135.59,56.29h-1.36l-.38-2.22h-2.56l-.95,2.22h-1.46L132.66,48h1.4Zm-1.9-3.22-.53-3.48h0l-1.42,3.48Z"/><path d="M141.1,48.11l-3,4.39-.52,3.79h-1.39l.54-3.79-1.83-4.39h1.4l1.25,3.07,2-3.07Z"/><path d="M147.29,48.11l-4,8.26h-.61L141,48.11h1.32l1,5.3h0l2.49-5.3Z"/><path d="M151.61,56.29h-1.35l-.39-2.22h-2.55l-.95,2.22H144.9L148.69,48h1.4Zm-1.89-3.22-.54-3.48h0l-1.41,3.48Z"/><path d="M158.07,56.29h-1.5l-.88-1.81q-.37-.75-.54-1a2,2,0,0,0-.33-.4.83.83,0,0,0-.34-.19,1.75,1.75,0,0,0-.5-.06h-.41l-.48,3.48h-1.4l1.14-8.18h2.08a4,4,0,0,1,1.3.18,2.38,2.38,0,0,1,.86.5,1.73,1.73,0,0,1,.47.73,2.45,2.45,0,0,1,.15.85,2,2,0,0,1-.49,1.33,2.3,2.3,0,0,1-1.32.76v0a1.33,1.33,0,0,1,.44.38,3.18,3.18,0,0,1,.32.55Zm-1.84-5.92a1,1,0,0,0-.36-.82,1.73,1.73,0,0,0-1.07-.29h-.73l-.33,2.45h.69a2.62,2.62,0,0,0,1-.17,1.31,1.31,0,0,0,.6-.47A1.18,1.18,0,0,0,156.23,50.37Z"/><path d="M163.59,48.11l-3,4.39-.52,3.79h-1.39l.54-3.79-1.83-4.39h1.41l1.24,3.07,2-3.07Z"/></g></g></svg>