<svg xmlns="http://www.w3.org/2000/svg" viewBox="0 0 185.47 68.92"><title>Resurs 15</title><g id="Lager_2" data-name="Lager 2"><g id="Lager_1-2" data-name="Lager 1"><path d="M102.15,15.41V2.59h1.76l2.36,6.79h0l2.34-6.79h1.78V15.41h-1.84V7.61h0l-1.82,5.51h-.92L104,7.61h0v7.8Z" transform="translate(-0.86 -2.48)"/><path d="M112.05,5.62a3.25,3.25,0,0,1,.27-1.37,2.82,2.82,0,0,1,.72-1,3,3,0,0,1,1-.58,3.25,3.25,0,0,1,3.21.58,2.9,2.9,0,0,1,.7,1,3.25,3.25,0,0,1,.27,1.37v6.76a3.25,3.25,0,0,1-.27,1.39,2.83,2.83,0,0,1-.7,1,2.93,2.93,0,0,1-1,.6,3.15,3.15,0,0,1-2.21,0,3.16,3.16,0,0,1-1.7-1.55,3.25,3.25,0,0,1-.27-1.39Zm1.83,6.76a1.25,1.25,0,0,0,.37,1,1.39,1.39,0,0,0,1.75,0,1.25,1.25,0,0,0,.37-1V5.62a1.23,1.23,0,0,0-.37-1,1.36,1.36,0,0,0-1.75,0,1.23,1.23,0,0,0-.37,1Z" transform="translate(-0.86 -2.48)"/><path d="M119.82,15.41V2.59h2.72a3.12,3.12,0,0,1,2.4.87,3.38,3.38,0,0,1,.82,2.44v6a3.57,3.57,0,0,1-.87,2.65,3.44,3.44,0,0,1-2.51.86Zm1.84-11.09v9.36h.84a1.35,1.35,0,0,0,1.1-.39,1.82,1.82,0,0,0,.33-1.21V5.9a2,2,0,0,0-.31-1.17,1.33,1.33,0,0,0-1.12-.41Z" transform="translate(-0.86 -2.48)"/><path d="M127.49,15.41V2.59H133V4.32h-3.63V8.08h3.17V9.81h-3.17v3.76H133v1.84Z" transform="translate(-0.86 -2.48)"/><path d="M134.15,15.41V2.59H136v11h3.63v1.84Z" transform="translate(-0.86 -2.48)"/><path d="M140.7,11.32V9.49h1.84v1.83Zm0,4.09V13.57h1.84v1.84Z" transform="translate(-0.86 -2.48)"/><path d="M143.62,5.76V2.59h1.83V4.43Zm2.52,0V2.59H148V4.43Z" transform="translate(-0.86 -2.48)"/><path d="M149.16,15.41V2.59h5.47V4.32H151V8.21h3.17V9.94H151v5.47Z" transform="translate(-0.86 -2.48)"/><path d="M155.82,15.41V2.59h1.84v11h3.63v1.84Z" transform="translate(-0.86 -2.48)"/><path d="M162.37,5.62a3.25,3.25,0,0,1,.27-1.37,2.82,2.82,0,0,1,.72-1,3.07,3.07,0,0,1,1-.58,3.24,3.24,0,0,1,1.1-.2,3.34,3.34,0,0,1,1.11.2,3.23,3.23,0,0,1,1,.58,2.9,2.9,0,0,1,.7,1,3.25,3.25,0,0,1,.27,1.37v6.76a3.25,3.25,0,0,1-.27,1.39,2.83,2.83,0,0,1-.7,1,2.93,2.93,0,0,1-1,.6,3.34,3.34,0,0,1-1.11.2,3.24,3.24,0,0,1-1.1-.2,2.8,2.8,0,0,1-1-.6,2.75,2.75,0,0,1-.72-1,3.25,3.25,0,0,1-.27-1.39Zm1.84,6.76a1.22,1.22,0,0,0,.37,1,1.39,1.39,0,0,0,1.75,0,1.25,1.25,0,0,0,.36-1V5.62a1.23,1.23,0,0,0-.36-1,1.36,1.36,0,0,0-1.75,0,1.2,1.2,0,0,0-.37,1Z" transform="translate(-0.86 -2.48)"/><path d="M169.11,15.41,172,2.59h1.53l2.86,12.82h-1.84L174,12.65h-2.5l-.54,2.76Zm4.53-4.48-.9-4.65h0l-.9,4.65Z" transform="translate(-0.86 -2.48)"/><path d="M177.48,15.41V4.32h-2.13V2.59h6.09V4.32h-2.13V15.41Z" transform="translate(-0.86 -2.48)"/><path d="M181.71,5.76V2.59h1.83V4.43Zm2.52,0V2.59h1.83V4.43Z" transform="translate(-0.86 -2.48)"/><path d="M117.09,25.75v.8a2.84,2.84,0,0,1-.23,1.12,3,3,0,0,1-.62.95,2.94,2.94,0,0,1-.93.65,2.57,2.57,0,0,1-1.14.25,3.93,3.93,0,0,1-1.06-.15,2.43,2.43,0,0,1-1-.5,2.68,2.68,0,0,1-.71-.93,3.23,3.23,0,0,1-.28-1.45v-7a3.2,3.2,0,0,1,.21-1.17,2.75,2.75,0,0,1,.62-.94,2.8,2.8,0,0,1,.94-.62,3.19,3.19,0,0,1,1.22-.23,2.79,2.79,0,0,1,2.1.85,2.92,2.92,0,0,1,.62,1,3.32,3.32,0,0,1,.23,1.23v.72h-1.84v-.61a1.48,1.48,0,0,0-.3-.93,1,1,0,0,0-.83-.4.93.93,0,0,0-.91.42,2.29,2.29,0,0,0-.23,1.07v6.56a1.61,1.61,0,0,0,.25.93,1,1,0,0,0,.87.38,1.43,1.43,0,0,0,.39-.06,1.11,1.11,0,0,0,.38-.21,1.08,1.08,0,0,0,.27-.4,1.42,1.42,0,0,0,.11-.63v-.63Z" transform="translate(-0.86 -2.48)"/><path d="M118.47,19.62a3.25,3.25,0,0,1,.27-1.37,2.82,2.82,0,0,1,.72-1,3.14,3.14,0,0,1,1-.58,3.26,3.26,0,0,1,3.22.58,2.9,2.9,0,0,1,.7,1,3.25,3.25,0,0,1,.27,1.37v6.76a3.25,3.25,0,0,1-.27,1.39,2.83,2.83,0,0,1-.7.95,3,3,0,0,1-1,.6,3.18,3.18,0,0,1-2.22,0,2.85,2.85,0,0,1-1-.6,2.75,2.75,0,0,1-.72-.95,3.25,3.25,0,0,1-.27-1.39Zm1.84,6.76a1.22,1.22,0,0,0,.37,1,1.29,1.29,0,0,0,.87.31,1.27,1.27,0,0,0,.87-.31,1.22,1.22,0,0,0,.37-1V19.62a1.2,1.2,0,0,0-.37-1,1.28,1.28,0,0,0-.87-.32,1.3,1.3,0,0,0-.87.32,1.2,1.2,0,0,0-.37,1Z" transform="translate(-0.86 -2.48)"/><path d="M126.25,29.41V16.59h2.95c2.16,0,3.24,1.26,3.24,3.76a4.82,4.82,0,0,1-.35,1.93,2.76,2.76,0,0,1-1.23,1.28l2,5.85h-2l-1.71-5.47h-1.09v5.47Zm1.84-11.09v4h1a1.83,1.83,0,0,0,.77-.14,1,1,0,0,0,.45-.39,1.51,1.51,0,0,0,.2-.62,5.3,5.3,0,0,0,.06-.85,5.43,5.43,0,0,0-.06-.86,1.79,1.79,0,0,0-.21-.64,1.48,1.48,0,0,0-1.3-.5Z" transform="translate(-0.86 -2.48)"/><path d="M133.92,29.41V16.59h5.47v1.73h-3.64v3.76h3.17v1.73h-3.17v3.76h3.64v1.84Z" transform="translate(-0.86 -2.48)"/><path d="M143.82,19.62a3.25,3.25,0,0,1,.27-1.37,2.82,2.82,0,0,1,.72-1,3,3,0,0,1,1-.58,3.25,3.25,0,0,1,3.21.58,2.9,2.9,0,0,1,.7,1,3.25,3.25,0,0,1,.27,1.37v6.76a3.25,3.25,0,0,1-.27,1.39,2.83,2.83,0,0,1-.7.95,2.93,2.93,0,0,1-1,.6,3.15,3.15,0,0,1-2.21,0,3.16,3.16,0,0,1-1.7-1.55,3.25,3.25,0,0,1-.27-1.39Zm1.83,6.76a1.25,1.25,0,0,0,.37,1,1.39,1.39,0,0,0,1.75,0,1.25,1.25,0,0,0,.37-1V19.62a1.23,1.23,0,0,0-.37-1,1.36,1.36,0,0,0-1.75,0,1.23,1.23,0,0,0-.37,1Z" transform="translate(-0.86 -2.48)"/><path d="M151.59,29.41V16.59h5.47v1.73h-3.63v3.89h3.17v1.73h-3.17v5.47Z" transform="translate(-0.86 -2.48)"/><path d="M161.6,29.41V16.59h2.75a4.2,4.2,0,0,1,1.34.2,2.59,2.59,0,0,1,1,.7,2.8,2.8,0,0,1,.65,1.18,7.39,7.39,0,0,1,.18,1.83,8.72,8.72,0,0,1-.1,1.46,3.26,3.26,0,0,1-.42,1.11,2.71,2.71,0,0,1-1,1,3.33,3.33,0,0,1-1.66.35h-.93v5Zm1.84-11.09v4.36h.88a1.82,1.82,0,0,0,.86-.17.9.9,0,0,0,.45-.45,1.46,1.46,0,0,0,.17-.66c0-.27,0-.56,0-.88s0-.59,0-.86a1.73,1.73,0,0,0-.16-.71,1.09,1.09,0,0,0-.43-.47,1.7,1.7,0,0,0-.83-.16Z" transform="translate(-0.86 -2.48)"/><path d="M169,29.41V16.59h1.84V29.41Z" transform="translate(-0.86 -2.48)"/><path d="M172.53,29.41V16.59h1.76l2.77,7.72h0V16.59h1.83V29.41h-1.72L174.4,21.7h0v7.71Z" transform="translate(-0.86 -2.48)"/><path d="M180.59,29.41V16.59h5.47v1.73h-3.63v3.76h3.16v1.73h-3.16v3.76h3.63v1.84Z" transform="translate(-0.86 -2.48)"/><path d="M.86,43.41V30.59h3c2.16,0,3.24,1.26,3.24,3.76a4.82,4.82,0,0,1-.35,1.93,2.78,2.78,0,0,1-1.24,1.28l2,5.85H5.51L3.8,37.94H2.7v5.47ZM2.7,32.32v4h1a1.84,1.84,0,0,0,.78-.14A1.07,1.07,0,0,0,5,35.79a1.88,1.88,0,0,0,.2-.62,7,7,0,0,0,0-.85,7.12,7.12,0,0,0,0-.86A1.79,1.79,0,0,0,5,32.82a1.48,1.48,0,0,0-1.3-.5Z" transform="translate(-0.86 -2.48)"/><path d="M8.53,43.41V30.59H14v1.73H10.37v3.76h3.17v1.73H10.37v3.76H14v1.84Z" transform="translate(-0.86 -2.48)"/><path d="M15.19,43.41V30.59h2.72a3.12,3.12,0,0,1,2.4.87,3.38,3.38,0,0,1,.82,2.44v6a3.57,3.57,0,0,1-.87,2.65,3.44,3.44,0,0,1-2.51.86ZM17,32.32v9.36h.84a1.35,1.35,0,0,0,1.1-.39,1.82,1.82,0,0,0,.33-1.21V33.9A2,2,0,0,0,19,32.73a1.33,1.33,0,0,0-1.12-.41Z" transform="translate(-0.86 -2.48)"/><path d="M25.38,43.41l2.86-12.82h1.53l2.86,12.82H30.8l-.54-2.76h-2.5l-.54,2.76Zm4.54-4.48L29,34.28h0l-.9,4.65Z" transform="translate(-0.86 -2.48)"/><path d="M33.46,43.41V30.59h1.77L38,38.31h0V30.59h1.84V43.41H38.14L35.33,35.7h0v7.71Z" transform="translate(-0.86 -2.48)"/><path d="M41.52,43.41V30.59h2.72a3.16,3.16,0,0,1,2.41.87,3.43,3.43,0,0,1,.82,2.44v6a3.57,3.57,0,0,1-.88,2.65,3.44,3.44,0,0,1-2.51.86Zm1.84-11.09v9.36h.85a1.37,1.37,0,0,0,1.1-.39,1.88,1.88,0,0,0,.32-1.21V33.9a1.91,1.91,0,0,0-.31-1.17,1.3,1.3,0,0,0-1.11-.41Z" transform="translate(-0.86 -2.48)"/><path d="M62.06,30.59,60.15,43.41H58.43L57,35.09h0L55.6,43.41H53.87L52,30.59h1.95l.92,8.14h0l1.44-8.14h1.41l1.49,8.34h0l.88-8.34Z" transform="translate(-0.86 -2.48)"/><path d="M63.21,43.41V30.59h1.84v5.49h2.27V30.59h1.83V43.41H67.32V37.7H65.05v5.71Z" transform="translate(-0.86 -2.48)"/><path d="M70.94,43.41V30.59h1.83V43.41Z" transform="translate(-0.86 -2.48)"/><path d="M75.76,43.41V32.32H73.64V30.59h6.08v1.73H77.6V43.41Z" transform="translate(-0.86 -2.48)"/><path d="M80.53,43.41V30.59H86v1.73H82.37v3.76h3.16v1.73H82.37v3.76H86v1.84Z" transform="translate(-0.86 -2.48)"/><path d="M87.08,44.74V41.57h1.84v1.84Z" transform="translate(-0.86 -2.48)"/><path d="M93.78,33.62a3.25,3.25,0,0,1,.27-1.37,2.82,2.82,0,0,1,.72-1,3,3,0,0,1,1-.58,3.25,3.25,0,0,1,3.21.58,2.9,2.9,0,0,1,.7,1,3.25,3.25,0,0,1,.27,1.37v.64H98.1v-.64a1.23,1.23,0,0,0-.37-1,1.36,1.36,0,0,0-1.75,0,1.23,1.23,0,0,0-.37,1v6.76a1.25,1.25,0,0,0,.37,1,1.39,1.39,0,0,0,1.75,0,1.25,1.25,0,0,0,.37-1V38H96.64V36.35h3.29v4a3.25,3.25,0,0,1-.27,1.39,2.83,2.83,0,0,1-.7.95,2.93,2.93,0,0,1-1,.6,3.15,3.15,0,0,1-2.21,0,3.16,3.16,0,0,1-1.7-1.55,3.25,3.25,0,0,1-.27-1.39Z" transform="translate(-0.86 -2.48)"/><path d="M101.55,43.41V30.59h1.84v11H107v1.84Z" transform="translate(-0.86 -2.48)"/><path d="M108.11,33.62a3.25,3.25,0,0,1,.27-1.37,2.82,2.82,0,0,1,.72-1,2.93,2.93,0,0,1,1-.58,3.24,3.24,0,0,1,1.1-.2,3.29,3.29,0,0,1,1.11.2,3.23,3.23,0,0,1,1,.58,2.9,2.9,0,0,1,.7,1,3.25,3.25,0,0,1,.27,1.37v6.76a3.25,3.25,0,0,1-.27,1.39,2.83,2.83,0,0,1-.7.95,2.93,2.93,0,0,1-1,.6,3.29,3.29,0,0,1-1.11.2,3.24,3.24,0,0,1-1.1-.2,2.68,2.68,0,0,1-1-.6,2.75,2.75,0,0,1-.72-.95,3.25,3.25,0,0,1-.27-1.39Zm1.83,6.76a1.22,1.22,0,0,0,.37,1,1.39,1.39,0,0,0,1.75,0,1.25,1.25,0,0,0,.37-1V33.62a1.23,1.23,0,0,0-.37-1,1.36,1.36,0,0,0-1.75,0,1.2,1.2,0,0,0-.37,1Z" transform="translate(-0.86 -2.48)"/><path d="M121.82,34.28H120v-.41a1.94,1.94,0,0,0-.3-1.09,1.09,1.09,0,0,0-1-.46,1.2,1.2,0,0,0-.61.14,1.31,1.31,0,0,0-.38.36,1.62,1.62,0,0,0-.2.53,4.23,4.23,0,0,0,0,.63c0,.25,0,.46,0,.63a1.39,1.39,0,0,0,.14.45,1.1,1.1,0,0,0,.31.34,3.7,3.7,0,0,0,.57.29l1.41.55a3.83,3.83,0,0,1,1,.55,2.4,2.4,0,0,1,.59.73,3.61,3.61,0,0,1,.27,1,9.49,9.49,0,0,1,.07,1.25,6.54,6.54,0,0,1-.16,1.51,3.26,3.26,0,0,1-.52,1.18,2.59,2.59,0,0,1-1,.79,3.55,3.55,0,0,1-1.5.29,3.22,3.22,0,0,1-1.24-.24,2.89,2.89,0,0,1-1-.65,3.28,3.28,0,0,1-.66-1,2.92,2.92,0,0,1-.24-1.2v-.68h1.84v.58a1.56,1.56,0,0,0,.29.91,1.17,1.17,0,0,0,1,.4,1.59,1.59,0,0,0,.73-.13,1,1,0,0,0,.41-.39,1.56,1.56,0,0,0,.17-.6c0-.24,0-.5,0-.79s0-.61,0-.83a1.4,1.4,0,0,0-.14-.52,1,1,0,0,0-.34-.32,3.13,3.13,0,0,0-.55-.27l-1.31-.54A2.91,2.91,0,0,1,116,36a4.41,4.41,0,0,1-.41-2,4.66,4.66,0,0,1,.2-1.36,3.07,3.07,0,0,1,.59-1.12,2.9,2.9,0,0,1,1-.75,3.28,3.28,0,0,1,1.39-.28,3,3,0,0,1,1.25.26,3.08,3.08,0,0,1,1,.66,2.76,2.76,0,0,1,.83,2Z" transform="translate(-0.86 -2.48)"/><path d="M129.13,34.28h-1.84v-.41a2,2,0,0,0-.29-1.09,1.09,1.09,0,0,0-1-.46,1.09,1.09,0,0,0-1,.5,1.62,1.62,0,0,0-.2.53,3.22,3.22,0,0,0,0,.63,5.83,5.83,0,0,0,0,.63,1.39,1.39,0,0,0,.14.45,1,1,0,0,0,.31.34,3.7,3.7,0,0,0,.57.29l1.4.55a3.52,3.52,0,0,1,1,.55,2.44,2.44,0,0,1,.6.73,3.61,3.61,0,0,1,.27,1,11.59,11.59,0,0,1,.07,1.25,6.54,6.54,0,0,1-.16,1.51,3.26,3.26,0,0,1-.52,1.18,2.75,2.75,0,0,1-1,.79,3.55,3.55,0,0,1-1.5.29,3.19,3.19,0,0,1-1.24-.24,2.71,2.71,0,0,1-1-.65,3,3,0,0,1-.9-2.16v-.68h1.84v.58a1.5,1.5,0,0,0,.29.91,1.16,1.16,0,0,0,1,.4,1.62,1.62,0,0,0,.73-.13,1,1,0,0,0,.41-.39,1.56,1.56,0,0,0,.17-.6c0-.24,0-.5,0-.79s0-.61,0-.83a1.39,1.39,0,0,0-.15-.52.92.92,0,0,0-.33-.32,3.13,3.13,0,0,0-.55-.27l-1.31-.54a2.9,2.9,0,0,1-1.6-1.29,4.41,4.41,0,0,1-.4-2,4.35,4.35,0,0,1,.2-1.36,3.07,3.07,0,0,1,.59-1.12,2.77,2.77,0,0,1,1-.75,3.33,3.33,0,0,1,1.4-.28,3,3,0,0,1,1.25.26,3.19,3.19,0,0,1,1,.66,2.81,2.81,0,0,1,.83,2Z" transform="translate(-0.86 -2.48)"/><path d="M132.21,43.41V38l-2.52-7.4h1.94l1.48,5.1h0l1.48-5.1h1.94L134,38v5.42Z" transform="translate(-0.86 -2.48)"/><path d="M146.66,39.75v.8a2.83,2.83,0,0,1-.22,1.12,3.08,3.08,0,0,1-1.55,1.6,2.65,2.65,0,0,1-1.15.25,4,4,0,0,1-1.06-.15,2.43,2.43,0,0,1-1-.5,2.8,2.8,0,0,1-.71-.93,3.23,3.23,0,0,1-.28-1.45V33.44a3,3,0,0,1,.22-1.17,2.59,2.59,0,0,1,.61-.94,2.9,2.9,0,0,1,.94-.62,3.19,3.19,0,0,1,1.22-.23,2.79,2.79,0,0,1,2.1.85,3,3,0,0,1,.63,1,3.32,3.32,0,0,1,.22,1.23v.72h-1.84v-.61a1.48,1.48,0,0,0-.3-.93,1,1,0,0,0-.83-.4.93.93,0,0,0-.91.42,2.29,2.29,0,0,0-.22,1.07v6.56a1.69,1.69,0,0,0,.24.93,1,1,0,0,0,.87.38,1.43,1.43,0,0,0,.39-.06,1.06,1.06,0,0,0,.39-.21,1.22,1.22,0,0,0,.27-.4,1.6,1.6,0,0,0,.1-.63v-.63Z" transform="translate(-0.86 -2.48)"/><path d="M148.05,33.62a3.25,3.25,0,0,1,.27-1.37,2.82,2.82,0,0,1,.72-1,2.93,2.93,0,0,1,1-.58,3.25,3.25,0,0,1,3.21.58,2.9,2.9,0,0,1,.7,1,3.25,3.25,0,0,1,.27,1.37v6.76a3.25,3.25,0,0,1-.27,1.39,2.83,2.83,0,0,1-.7.95,2.93,2.93,0,0,1-1,.6,3.15,3.15,0,0,1-2.21,0,2.68,2.68,0,0,1-1-.6,2.75,2.75,0,0,1-.72-.95,3.25,3.25,0,0,1-.27-1.39Zm1.83,6.76a1.25,1.25,0,0,0,.37,1,1.39,1.39,0,0,0,1.75,0,1.25,1.25,0,0,0,.37-1V33.62a1.23,1.23,0,0,0-.37-1,1.36,1.36,0,0,0-1.75,0,1.23,1.23,0,0,0-.37,1Z" transform="translate(-0.86 -2.48)"/><path d="M154.78,43.41l2.86-12.82h1.53L162,43.41H160.2l-.54-2.76h-2.51l-.54,2.76Zm4.53-4.48-.9-4.65h0l-.9,4.65Z" transform="translate(-0.86 -2.48)"/><path d="M163.15,43.41V32.32H161V30.59h6.09v1.73H165V43.41Z" transform="translate(-0.86 -2.48)"/><path d="M168,43.41V30.59h1.84V43.41Z" transform="translate(-0.86 -2.48)"/><path d="M171.52,43.41V30.59h1.76l2.77,7.72h0V30.59h1.84V43.41H176.2l-2.81-7.71h0v7.71Z" transform="translate(-0.86 -2.48)"/><path d="M179.47,33.62a3.25,3.25,0,0,1,.27-1.37,2.82,2.82,0,0,1,.72-1,3.07,3.07,0,0,1,1-.58,3.24,3.24,0,0,1,1.1-.2,3.34,3.34,0,0,1,1.11.2,3.23,3.23,0,0,1,1,.58,2.9,2.9,0,0,1,.7,1,3.25,3.25,0,0,1,.27,1.37v.64h-1.84v-.64a1.23,1.23,0,0,0-.36-1,1.36,1.36,0,0,0-1.75,0,1.2,1.2,0,0,0-.37,1v6.76a1.22,1.22,0,0,0,.37,1,1.39,1.39,0,0,0,1.75,0,1.25,1.25,0,0,0,.36-1V38h-1.45V36.35h3.29v4a3.25,3.25,0,0,1-.27,1.39,2.83,2.83,0,0,1-.7.95,2.93,2.93,0,0,1-1,.6,3.34,3.34,0,0,1-1.11.2,3.24,3.24,0,0,1-1.1-.2,2.8,2.8,0,0,1-1-.6,2.75,2.75,0,0,1-.72-.95,3.25,3.25,0,0,1-.27-1.39Z" transform="translate(-0.86 -2.48)"/><path d="M5.56,57.41V44.59H7.4v11H11v1.84Z" transform="translate(-0.86 -2.48)"/><path d="M12.22,57.41V44.59h5.47v1.73H14.06v3.76h3.17v1.73H14.06v3.76h3.63v1.84Z" transform="translate(-0.86 -2.48)"/><path d="M18.81,57.41V44.59h1.76l2.78,7.72h0V44.59h1.84V57.41H23.49L20.68,49.7h0v7.71Z" transform="translate(-0.86 -2.48)"/><path d="M26.77,47.62A3.25,3.25,0,0,1,27,46.25a2.82,2.82,0,0,1,.72-1,2.93,2.93,0,0,1,1-.58,3.24,3.24,0,0,1,1.1-.2,3.29,3.29,0,0,1,1.11.2,3.23,3.23,0,0,1,1,.58,2.9,2.9,0,0,1,.7,1,3.25,3.25,0,0,1,.27,1.37v.64H31.09v-.64a1.23,1.23,0,0,0-.37-1,1.36,1.36,0,0,0-1.75,0,1.2,1.2,0,0,0-.37,1v6.76a1.22,1.22,0,0,0,.37,1,1.39,1.39,0,0,0,1.75,0,1.25,1.25,0,0,0,.37-1V52H29.63V50.35h3.29v4a3.25,3.25,0,0,1-.27,1.39,2.83,2.83,0,0,1-.7.95,2.93,2.93,0,0,1-1,.6,3.29,3.29,0,0,1-1.11.2,3.24,3.24,0,0,1-1.1-.2,2.68,2.68,0,0,1-1-.6,2.75,2.75,0,0,1-.72-.95,3.25,3.25,0,0,1-.27-1.39Z" transform="translate(-0.86 -2.48)"/><path d="M35.75,57.41V46.32H33.62V44.59h6.09v1.73H37.58V57.41Z" transform="translate(-0.86 -2.48)"/><path d="M40.52,57.41V44.59h1.83v5.49h2.27V44.59h1.84V57.41H44.62V51.7H42.35v5.71Z" transform="translate(-0.86 -2.48)"/><path d="M48.08,53.32V51.49h1.83v1.83Zm0,4.09V55.57h1.83v1.84Z" transform="translate(-0.86 -2.48)"/><path d="M56.81,57.41V46.54L55,47.89v-2l1.84-1.35h1.83V57.41Z" transform="translate(-0.86 -2.48)"/><path d="M62,57.41,64.08,52l0,0a.67.67,0,0,1-.28.12,2.19,2.19,0,0,1-.49,0,1.83,1.83,0,0,1-.9-.23,1.89,1.89,0,0,1-.65-.6,1.72,1.72,0,0,1-.2-.38,2.87,2.87,0,0,1-.11-.53,7.64,7.64,0,0,1-.07-.82c0-.33,0-.75,0-1.25s0-.77,0-1a5.7,5.7,0,0,1,.07-.69,2.47,2.47,0,0,1,.12-.47,3.19,3.19,0,0,1,.21-.41,2.42,2.42,0,0,1,1-.92,2.79,2.79,0,0,1,1.36-.33,2.76,2.76,0,0,1,1.35.34,2.51,2.51,0,0,1,1,.91,3.32,3.32,0,0,1,.22.41,1.86,1.86,0,0,1,.14.47,5.92,5.92,0,0,1,.06.69c0,.27,0,.62,0,1s0,.72,0,1a5.17,5.17,0,0,1-.06.65,4.66,4.66,0,0,1-.11.52c0,.15-.1.31-.16.47L64,57.41Zm1.17-7.8a.87.87,0,0,0,.27.67.92.92,0,0,0,1.26,0,.87.87,0,0,0,.27-.67V47.24a.87.87,0,0,0-.27-.67.92.92,0,0,0-1.26,0,.87.87,0,0,0-.27.67Z" transform="translate(-0.86 -2.48)"/><path d="M70.11,54.78a.9.9,0,0,0,.24.67.93.93,0,0,0,.66.23.7.7,0,0,0,.69-.31,1.77,1.77,0,0,0,.21-.61h1.83a2.65,2.65,0,0,1-.73,2,2.53,2.53,0,0,1-.87.59,2.88,2.88,0,0,1-1.13.22,2.81,2.81,0,0,1-1.47-.36,2.45,2.45,0,0,1-1.2-1.79,7.91,7.91,0,0,1-.07-1v-3a7.91,7.91,0,0,1,.07-1,2.45,2.45,0,0,1,1.2-1.79A2.81,2.81,0,0,1,71,48.17a3,3,0,0,1,1.14.22A2.53,2.53,0,0,1,73,49a3.07,3.07,0,0,1,.72,2.11H71.91a1.2,1.2,0,0,0-.24-.82A.9.9,0,0,0,71,50a.87.87,0,0,0-.66.26,1.14,1.14,0,0,0-.24.78Z" transform="translate(-0.86 -2.48)"/><path d="M74.82,57.41V48.28h1.84v.88h0a2.74,2.74,0,0,1,.69-.71,1.81,1.81,0,0,1,1-.28,1.64,1.64,0,0,1,1,.29,2.79,2.79,0,0,1,.65.63,3.91,3.91,0,0,1,.76-.65A2.08,2.08,0,0,1,82,48.17a2.19,2.19,0,0,1,.7.12,1.74,1.74,0,0,1,.65.39,2.05,2.05,0,0,1,.47.69,2.66,2.66,0,0,1,.18,1v7H82.13V51.09a1.24,1.24,0,0,0-.23-.79.83.83,0,0,0-.67-.29.78.78,0,0,0-.72.32,1.85,1.85,0,0,0-.2.94v6.14H78.48V51.09a1.18,1.18,0,0,0-.24-.79.79.79,0,0,0-.66-.29.78.78,0,0,0-.72.32,1.85,1.85,0,0,0-.2.94v6.14Z" transform="translate(-0.86 -2.48)"/><path d="M98.46,44.59,96.55,57.41H94.82l-1.4-8.32h0L92,57.41H90.27L88.36,44.59H90.3l.92,8.14h0l1.44-8.14h1.4l1.5,8.34h0l.88-8.34Z" transform="translate(-0.86 -2.48)"/><path d="M99.61,57.41V44.59h5.47v1.73h-3.63v3.76h3.16v1.73h-3.16v3.76h3.63v1.84Z" transform="translate(-0.86 -2.48)"/><path d="M106.32,57.41V44.59h1.84V57.41Z" transform="translate(-0.86 -2.48)"/><path d="M109.83,47.62a3.25,3.25,0,0,1,.27-1.37,2.82,2.82,0,0,1,.72-1,3.14,3.14,0,0,1,1-.58,3.26,3.26,0,0,1,3.22.58,2.9,2.9,0,0,1,.7,1,3.25,3.25,0,0,1,.27,1.37v.64h-1.84v-.64a1.2,1.2,0,0,0-.37-1,1.28,1.28,0,0,0-.87-.32,1.3,1.3,0,0,0-.87.32,1.2,1.2,0,0,0-.37,1v6.76a1.22,1.22,0,0,0,.37,1,1.29,1.29,0,0,0,.87.31,1.27,1.27,0,0,0,.87-.31,1.22,1.22,0,0,0,.37-1V52H112.7V50.35H116v4a3.25,3.25,0,0,1-.27,1.39,2.83,2.83,0,0,1-.7.95,3,3,0,0,1-1,.6,3.18,3.18,0,0,1-2.22,0,2.85,2.85,0,0,1-1-.6,2.75,2.75,0,0,1-.72-.95,3.25,3.25,0,0,1-.27-1.39Z" transform="translate(-0.86 -2.48)"/><path d="M117.61,57.41V44.59h1.84v5.49h2.26V44.59h1.84V57.41h-1.84V51.7h-2.26v5.71Z" transform="translate(-0.86 -2.48)"/><path d="M126.48,57.41V46.32h-2.12V44.59h6.08v1.73h-2.12V57.41Z" transform="translate(-0.86 -2.48)"/><path d="M136.53,57.41V46.54l-1.84,1.35v-2l1.84-1.35h1.83V57.41Z" transform="translate(-0.86 -2.48)"/><path d="M141.46,57.41l3.22-11.09h-2V47.8H141V44.59h5.48v1.84l-3.12,11Z" transform="translate(-0.86 -2.48)"/><path d="M153.21,44.59v1.73h-3.63v3.46a2,2,0,0,1,.64-.43,2.31,2.31,0,0,1,.89-.17,2.09,2.09,0,0,1,1.52.57,2.26,2.26,0,0,1,.58,1.7v3.31a2.78,2.78,0,0,1-.22,1.15,2.58,2.58,0,0,1-.61.87,2.63,2.63,0,0,1-.87.55,3,3,0,0,1-1,.19,3,3,0,0,1-1-.19,2.63,2.63,0,0,1-.87-.55,2.7,2.7,0,0,1-.6-.87,2.78,2.78,0,0,1-.23-1.15v-.54h1.84v.47a1,1,0,0,0,.26.73.92.92,0,0,0,.67.26.8.8,0,0,0,.64-.25,1,1,0,0,0,.23-.7v-3a.91.91,0,0,0-.25-.65.8.8,0,0,0-.62-.27.9.9,0,0,0-.39.08,1.17,1.17,0,0,0-.27.19.66.66,0,0,0-.17.24,2,2,0,0,0-.1.19H148V44.59Z" transform="translate(-0.86 -2.48)"/><path d="M159.76,58.47a1,1,0,0,0,.27.61.87.87,0,0,0,.71.29.71.71,0,0,0,.64-.28,1.15,1.15,0,0,0,.2-.71v-1.8h0a2.27,2.27,0,0,1-.73.69,1.86,1.86,0,0,1-1,.25,1.66,1.66,0,0,1-1.61-.87,2.66,2.66,0,0,1-.23-.75,7.86,7.86,0,0,1-.07-1.21V51.22c0-.66,0-1.15,0-1.46a1.74,1.74,0,0,1,.85-1.35,1.79,1.79,0,0,1,1-.24,2,2,0,0,1,.59.08,1.58,1.58,0,0,1,.44.19,2.6,2.6,0,0,1,.36.3l.34.37v-.83h1.84V58.52a3.14,3.14,0,0,1-.15.95,2.36,2.36,0,0,1-.5.85,2.52,2.52,0,0,1-.86.64,3,3,0,0,1-2.11.11,2.2,2.2,0,0,1-.83-.46,2.51,2.51,0,0,1-.67-.82,3.5,3.5,0,0,1-.37-1.32Zm0-3.87a1.56,1.56,0,0,0,.19.76.77.77,0,0,0,.71.32.84.84,0,0,0,.66-.28,1,1,0,0,0,.26-.71V51.14a1.24,1.24,0,0,0-.25-.81.82.82,0,0,0-.67-.32.74.74,0,0,0-.68.34,1.71,1.71,0,0,0-.22.9Z" transform="translate(-0.86 -2.48)"/><path d="M164.93,57.41V48.28h1.84v1a5.63,5.63,0,0,1,1.09-.79,2.86,2.86,0,0,1,1.34-.29v1.95a1.55,1.55,0,0,0-.56-.11,2.05,2.05,0,0,0-.62.1,1.72,1.72,0,0,0-.61.33,1.79,1.79,0,0,0-.46.61,2.22,2.22,0,0,0-.18.94v5.42Z" transform="translate(-0.86 -2.48)"/><path d="M173.3,57.41v-.94h0a3.46,3.46,0,0,1-.72.78,1.76,1.76,0,0,1-1,.27,2.58,2.58,0,0,1-.66-.1,1.79,1.79,0,0,1-1.13-1.1,3.31,3.31,0,0,1-.19-1.23,6.09,6.09,0,0,1,.13-1.36,2.18,2.18,0,0,1,.46-1,1.93,1.93,0,0,1,.89-.57,4.35,4.35,0,0,1,1.42-.19h.2l.19,0,.22,0h.27v-.95a1.4,1.4,0,0,0-.2-.77.78.78,0,0,0-.72-.31,1,1,0,0,0-.65.23,1.13,1.13,0,0,0-.39.69h-1.78a2.89,2.89,0,0,1,.82-2,2.63,2.63,0,0,1,.87-.57,2.88,2.88,0,0,1,1.13-.21,3.14,3.14,0,0,1,1.08.18,2.41,2.41,0,0,1,.88.54,2.59,2.59,0,0,1,.58.9,3.46,3.46,0,0,1,.22,1.26v6.36Zm0-3.93a3.64,3.64,0,0,0-.5,0,1.77,1.77,0,0,0-1,.28,1.13,1.13,0,0,0-.42,1,1.31,1.31,0,0,0,.25.84.83.83,0,0,0,.7.33.92.92,0,0,0,.73-.31,1.3,1.3,0,0,0,.26-.86Z" transform="translate(-0.86 -2.48)"/><path d="M176.49,57.41V48.28h1.83v.88h0a2.74,2.74,0,0,1,.69-.71,1.85,1.85,0,0,1,1-.28,1.68,1.68,0,0,1,1,.29,2.74,2.74,0,0,1,.64.63,3.91,3.91,0,0,1,.76-.65,2.1,2.1,0,0,1,1.15-.27,2.19,2.19,0,0,1,.7.12,1.74,1.74,0,0,1,.65.39,2.05,2.05,0,0,1,.47.69,2.66,2.66,0,0,1,.18,1v7h-1.84V51.09a1.18,1.18,0,0,0-.23-.79.83.83,0,0,0-.67-.29.8.8,0,0,0-.72.32,1.86,1.86,0,0,0-.19.94v6.14h-1.84V51.09a1.24,1.24,0,0,0-.23-.79.83.83,0,0,0-.67-.29.78.78,0,0,0-.72.32,1.85,1.85,0,0,0-.2.94v6.14Z" transform="translate(-0.86 -2.48)"/><path d="M26.8,71.41V58.59h1.84v5.49H30.9V58.59h1.84V71.41H30.9V65.7H28.64v5.71Z" transform="translate(-0.86 -2.48)"/><path d="M33.64,71.41,36.5,58.59H38l2.86,12.82H39.06l-.54-2.76H36l-.54,2.76Zm4.54-4.48-.9-4.65h0l-.9,4.65Z" transform="translate(-0.86 -2.48)"/><path d="M41.72,71.41V58.59h1.77l2.77,7.72h0V58.59h1.84V71.41H46.4L43.59,63.7h0v7.71Z" transform="translate(-0.86 -2.48)"/><path d="M49.79,71.41V58.59H52.5a3.16,3.16,0,0,1,2.41.87,3.43,3.43,0,0,1,.82,2.44v6a3.57,3.57,0,0,1-.88,2.65,3.44,3.44,0,0,1-2.51.86Zm1.83-11.09v9.36h.85a1.37,1.37,0,0,0,1.1-.39,1.88,1.88,0,0,0,.32-1.21V61.9a1.91,1.91,0,0,0-.31-1.17,1.3,1.3,0,0,0-1.11-.41Z" transform="translate(-0.86 -2.48)"/><path d="M57.45,71.41V58.59h1.77l2.36,6.79h0L64,58.59h1.78V71.41H63.9v-7.8h0L62,69.12h-.91l-1.8-5.51h0v7.8Z" transform="translate(-0.86 -2.48)"/><path d="M66.63,71.41,69.5,58.59H71l2.86,12.82H72.05l-.54-2.76H69l-.54,2.76Zm4.54-4.48-.9-4.65h0l-.9,4.65Z" transform="translate(-0.86 -2.48)"/><path d="M74.79,71.41V58.59h2.72a3.15,3.15,0,0,1,2.4.87,3.43,3.43,0,0,1,.82,2.44v6a3.53,3.53,0,0,1-.88,2.65,3.43,3.43,0,0,1-2.51.86Zm1.83-11.09v9.36h.85a1.36,1.36,0,0,0,1.1-.39,1.88,1.88,0,0,0,.32-1.21V61.9a2,2,0,0,0-.3-1.17,1.34,1.34,0,0,0-1.12-.41Z" transform="translate(-0.86 -2.48)"/><path d="M82.46,71.41V58.59h5.47v1.73H84.29v3.76h3.17v1.73H84.29v3.76h3.64v1.84Z" transform="translate(-0.86 -2.48)"/><path d="M92.39,67.34V65.5h5.42v1.84Z" transform="translate(-0.86 -2.48)"/><path d="M102.81,71.41V58.59h2.72a3.12,3.12,0,0,1,2.4.87,3.38,3.38,0,0,1,.82,2.44v6a3.57,3.57,0,0,1-.87,2.65,3.44,3.44,0,0,1-2.51.86Zm1.84-11.09v9.36h.84a1.35,1.35,0,0,0,1.1-.39,1.82,1.82,0,0,0,.33-1.21V61.9a2,2,0,0,0-.31-1.17,1.33,1.33,0,0,0-1.12-.41Z" transform="translate(-0.86 -2.48)"/><path d="M109.44,71.41l2.86-12.82h1.53l2.86,12.82h-1.84l-.54-2.76h-2.5l-.54,2.76ZM114,66.93l-.9-4.65h0l-.9,4.65Z" transform="translate(-0.86 -2.48)"/><path d="M117.81,71.41V60.32h-2.13V58.59h6.09v1.73h-2.13V71.41Z" transform="translate(-0.86 -2.48)"/><path d="M120.76,71.41l2.86-12.82h1.53L128,71.41h-1.83l-.54-2.76h-2.51l-.54,2.76Zm4.53-4.48-.9-4.65h0l-.9,4.65Z" transform="translate(-0.86 -2.48)"/><path d="M132.26,71.41V58.59H134l2.36,6.79h0l2.34-6.79h1.78V71.41H138.7v-7.8h0l-1.82,5.51h-.92l-1.8-5.51h0v7.8Z" transform="translate(-0.86 -2.48)"/><path d="M141.44,71.41l2.86-12.82h1.53l2.86,12.82h-1.83l-.54-2.76h-2.5l-.54,2.76ZM146,66.93l-.9-4.65h0l-.9,4.65Z" transform="translate(-0.86 -2.48)"/><path d="M150.31,71.41V66l-2.52-7.4h2l1.47,5.1h0l1.48-5.1h1.94L152.15,66v5.42Z" transform="translate(-0.86 -2.48)"/><path d="M165.16,58.59l-2.62,12.82h-1.62l-2.61-12.82h1.94l1.46,9h0l1.48-9Z" transform="translate(-0.86 -2.48)"/><path d="M164.77,71.41l2.86-12.82h1.53L172,71.41h-1.83l-.54-2.76h-2.51l-.54,2.76Zm4.53-4.48-.9-4.65h0l-.9,4.65Z" transform="translate(-0.86 -2.48)"/><path d="M172.92,71.41V58.59h3c2.16,0,3.24,1.26,3.24,3.76a4.66,4.66,0,0,1-.35,1.93,2.71,2.71,0,0,1-1.23,1.28l2,5.85h-1.94l-1.71-5.47h-1.1v5.47Zm1.84-11.09v4h1a1.88,1.88,0,0,0,.78-.14,1.07,1.07,0,0,0,.45-.39,1.68,1.68,0,0,0,.19-.62,5.3,5.3,0,0,0,.06-.85,5.43,5.43,0,0,0-.06-.86,1.61,1.61,0,0,0-.21-.64,1.48,1.48,0,0,0-1.3-.5Z" transform="translate(-0.86 -2.48)"/><path d="M182,71.41V66l-2.52-7.4h1.94l1.48,5.1h0l1.48-5.1h1.94L183.81,66v5.42Z" transform="translate(-0.86 -2.48)"/></g></g></svg>