<svg xmlns="http://www.w3.org/2000/svg" viewBox="0 0 208.56 68.92"><title>Resurs 16</title><g id="Lager_2" data-name="Lager 2"><g id="Lager_1-2" data-name="Lager 1"><path d="M134.24,15.41V2.59H136l2.36,6.79h0l2.34-6.79h1.78V15.41h-1.84V7.61h0l-1.82,5.51h-.92l-1.8-5.51h0v7.8Z" transform="translate(-0.76 -2.48)"/><path d="M144.14,5.62a3.25,3.25,0,0,1,.27-1.37,2.82,2.82,0,0,1,.72-1,3.14,3.14,0,0,1,1-.58,3.18,3.18,0,0,1,2.22,0,3.3,3.3,0,0,1,1,.58,2.92,2.92,0,0,1,.71,1,3.25,3.25,0,0,1,.27,1.37v6.76a3.25,3.25,0,0,1-.27,1.39,2.86,2.86,0,0,1-.71,1,3,3,0,0,1-1,.6,3.18,3.18,0,0,1-2.22,0,2.85,2.85,0,0,1-1-.6,2.75,2.75,0,0,1-.72-1,3.25,3.25,0,0,1-.27-1.39ZM146,12.38a1.22,1.22,0,0,0,.37,1,1.27,1.27,0,0,0,.87.31,1.29,1.29,0,0,0,.87-.31,1.22,1.22,0,0,0,.37-1V5.62a1.2,1.2,0,0,0-.37-1,1.3,1.3,0,0,0-.87-.32,1.28,1.28,0,0,0-.87.32,1.2,1.2,0,0,0-.37,1Z" transform="translate(-0.76 -2.48)"/><path d="M151.92,15.41V2.59h2.71a3.16,3.16,0,0,1,2.41.87,3.43,3.43,0,0,1,.82,2.44v6a3.57,3.57,0,0,1-.88,2.65,3.44,3.44,0,0,1-2.51.86Zm1.83-11.09v9.36h.85a1.37,1.37,0,0,0,1.1-.39,1.88,1.88,0,0,0,.32-1.21V5.9a1.91,1.91,0,0,0-.31-1.17,1.3,1.3,0,0,0-1.11-.41Z" transform="translate(-0.76 -2.48)"/><path d="M159.58,15.41V2.59h5.48V4.32h-3.64V8.08h3.17V9.81h-3.17v3.76h3.64v1.84Z" transform="translate(-0.76 -2.48)"/><path d="M166.24,15.41V2.59h1.84v11h3.64v1.84Z" transform="translate(-0.76 -2.48)"/><path d="M172.8,11.32V9.49h1.83v1.83Zm0,4.09V13.57h1.83v1.84Z" transform="translate(-0.76 -2.48)"/><path d="M175.71,5.76V2.59h1.84V4.43Zm2.52,0V2.59h1.84V4.43Z" transform="translate(-0.76 -2.48)"/><path d="M181.26,15.41V2.59h2.68a3.72,3.72,0,0,1,1.5.27,2.94,2.94,0,0,1,1,.72,2.69,2.69,0,0,1,.56,1,4.07,4.07,0,0,1,.18,1.21V6.3a4.33,4.33,0,0,1-.08.88,2.24,2.24,0,0,1-.25.63,2.46,2.46,0,0,1-.93.87,1.94,1.94,0,0,1,.95.9,3.59,3.59,0,0,1,.31,1.62v.72a3.76,3.76,0,0,1-.82,2.59,3.39,3.39,0,0,1-2.62.9Zm1.83-11.09V7.85h.83a1.39,1.39,0,0,0,1.23-.46,2.37,2.37,0,0,0,.32-1.34,2.06,2.06,0,0,0-.35-1.3,1.57,1.57,0,0,0-1.27-.43Zm0,5.15v4.1h.79a1.92,1.92,0,0,0,.88-.16,1.08,1.08,0,0,0,.47-.45,1.6,1.6,0,0,0,.2-.68,8,8,0,0,0,0-.87,5.17,5.17,0,0,0-.06-.84,1.47,1.47,0,0,0-.21-.62,1.09,1.09,0,0,0-.49-.37,2.51,2.51,0,0,0-.81-.11Z" transform="translate(-0.76 -2.48)"/><path d="M189,15.41V2.59h1.83V15.41Z" transform="translate(-0.76 -2.48)"/><path d="M193.8,15.41V4.32h-2.12V2.59h6.08V4.32h-2.12V15.41Z" transform="translate(-0.76 -2.48)"/><path d="M198.57,15.41V2.59H204V4.32h-3.63V8.08h3.17V9.81h-3.17v3.76H204v1.84Z" transform="translate(-0.76 -2.48)"/><path d="M204.69,5.76V2.59h1.84V4.43Zm2.52,0V2.59h1.84V4.43Z" transform="translate(-0.76 -2.48)"/><path d="M140.07,25.75v.8a2.83,2.83,0,0,1-.22,1.12,3,3,0,0,1-1.55,1.6,2.6,2.6,0,0,1-1.14.25,4.06,4.06,0,0,1-1.07-.15,2.43,2.43,0,0,1-1-.5,2.8,2.8,0,0,1-.71-.93,3.37,3.37,0,0,1-.28-1.45v-7a3.2,3.2,0,0,1,.22-1.17,2.73,2.73,0,0,1,.61-.94,2.85,2.85,0,0,1,.95-.62,3.14,3.14,0,0,1,1.21-.23,2.82,2.82,0,0,1,2.11.85,3.09,3.09,0,0,1,.62,1,3.32,3.32,0,0,1,.22,1.23v.72h-1.83v-.61a1.49,1.49,0,0,0-.31-.93,1,1,0,0,0-.83-.4.94.94,0,0,0-.91.42,2.29,2.29,0,0,0-.22,1.07v6.56a1.69,1.69,0,0,0,.24.93,1,1,0,0,0,.87.38,1.43,1.43,0,0,0,.39-.06,1.06,1.06,0,0,0,.39-.21,1.08,1.08,0,0,0,.27-.4,1.58,1.58,0,0,0,.11-.63v-.63Z" transform="translate(-0.76 -2.48)"/><path d="M141.46,19.62a3.25,3.25,0,0,1,.27-1.37,2.82,2.82,0,0,1,.72-1,3,3,0,0,1,1-.58,3.34,3.34,0,0,1,1.11-.2,3.31,3.31,0,0,1,2.1.78,2.92,2.92,0,0,1,.71,1,3.41,3.41,0,0,1,.27,1.37v6.76a3.41,3.41,0,0,1-.27,1.39,2.86,2.86,0,0,1-.71.95,2.93,2.93,0,0,1-1,.6,3.24,3.24,0,0,1-1.1.2,3.34,3.34,0,0,1-1.11-.2,3.16,3.16,0,0,1-1.7-1.55,3.25,3.25,0,0,1-.27-1.39Zm1.83,6.76a1.25,1.25,0,0,0,.37,1,1.39,1.39,0,0,0,1.75,0,1.22,1.22,0,0,0,.37-1V19.62a1.2,1.2,0,0,0-.37-1,1.36,1.36,0,0,0-1.75,0,1.23,1.23,0,0,0-.37,1Z" transform="translate(-0.76 -2.48)"/><path d="M149.23,29.41V16.59h3c2.16,0,3.24,1.26,3.24,3.76a4.82,4.82,0,0,1-.35,1.93,2.78,2.78,0,0,1-1.24,1.28l2,5.85h-1.94l-1.71-5.47h-1.1v5.47Zm1.84-11.09v4h1a1.84,1.84,0,0,0,.78-.14,1.07,1.07,0,0,0,.45-.39,1.88,1.88,0,0,0,.2-.62,7,7,0,0,0,.05-.85,7.12,7.12,0,0,0-.05-.86,1.79,1.79,0,0,0-.22-.64,1.48,1.48,0,0,0-1.3-.5Z" transform="translate(-0.76 -2.48)"/><path d="M156.9,29.41V16.59h5.47v1.73h-3.63v3.76h3.17v1.73h-3.17v3.76h3.63v1.84Z" transform="translate(-0.76 -2.48)"/><path d="M166.8,19.62a3.25,3.25,0,0,1,.27-1.37,2.82,2.82,0,0,1,.72-1,3.14,3.14,0,0,1,1-.58,3.26,3.26,0,0,1,3.22.58,3,3,0,0,1,.7,1,3.25,3.25,0,0,1,.27,1.37v6.76a3.25,3.25,0,0,1-.27,1.39,3,3,0,0,1-.7.95,3,3,0,0,1-1,.6,3.18,3.18,0,0,1-2.22,0,2.85,2.85,0,0,1-1-.6,2.75,2.75,0,0,1-.72-.95,3.25,3.25,0,0,1-.27-1.39Zm1.84,6.76a1.22,1.22,0,0,0,.37,1,1.38,1.38,0,0,0,1.74,0,1.22,1.22,0,0,0,.37-1V19.62a1.2,1.2,0,0,0-.37-1,1.34,1.34,0,0,0-1.74,0,1.2,1.2,0,0,0-.37,1Z" transform="translate(-0.76 -2.48)"/><path d="M174.58,29.41V16.59h5.47v1.73h-3.64v3.89h3.17v1.73h-3.17v5.47Z" transform="translate(-0.76 -2.48)"/><path d="M184.59,29.41V16.59h2.75a4.13,4.13,0,0,1,1.33.2,2.62,2.62,0,0,1,1.05.7,2.78,2.78,0,0,1,.64,1.18,7.39,7.39,0,0,1,.18,1.83,10.08,10.08,0,0,1-.09,1.46,3.09,3.09,0,0,1-.43,1.11,2.64,2.64,0,0,1-1,1,3.31,3.31,0,0,1-1.65.35h-.94v5Zm1.83-11.09v4.36h.88a1.86,1.86,0,0,0,.87-.17,1,1,0,0,0,.45-.45,1.77,1.77,0,0,0,.17-.66c0-.27,0-.56,0-.88s0-.59,0-.86a1.9,1.9,0,0,0-.16-.71,1.05,1.05,0,0,0-.44-.47,1.65,1.65,0,0,0-.82-.16Z" transform="translate(-0.76 -2.48)"/><path d="M192,29.41V16.59h1.83V29.41Z" transform="translate(-0.76 -2.48)"/><path d="M195.51,29.41V16.59h1.77l2.77,7.72h0V16.59h1.84V29.41h-1.73l-2.81-7.71h0v7.71Z" transform="translate(-0.76 -2.48)"/><path d="M203.58,29.41V16.59h5.47v1.73h-3.64v3.76h3.17v1.73h-3.17v3.76h3.64v1.84Z" transform="translate(-0.76 -2.48)"/><path d="M.76,33.62A3.25,3.25,0,0,1,1,32.25a2.82,2.82,0,0,1,.72-1,2.93,2.93,0,0,1,1-.58,3.24,3.24,0,0,1,1.1-.2,3.29,3.29,0,0,1,1.11.2,3.23,3.23,0,0,1,1,.58,2.9,2.9,0,0,1,.7,1,3.25,3.25,0,0,1,.27,1.37v6.76a3.25,3.25,0,0,1-.27,1.39,2.83,2.83,0,0,1-.7.95,2.93,2.93,0,0,1-1,.6,3.29,3.29,0,0,1-1.11.2,3.24,3.24,0,0,1-1.1-.2,2.68,2.68,0,0,1-1-.6A2.75,2.75,0,0,1,1,41.77a3.25,3.25,0,0,1-.27-1.39Zm1.83,6.76a1.22,1.22,0,0,0,.37,1,1.31,1.31,0,0,0,.87.31,1.32,1.32,0,0,0,.88-.31,1.25,1.25,0,0,0,.37-1V33.62a1.23,1.23,0,0,0-.37-1,1.36,1.36,0,0,0-1.75,0,1.2,1.2,0,0,0-.37,1Z" transform="translate(-0.76 -2.48)"/><path d="M8.53,43.41V30.59h3c2.16,0,3.24,1.26,3.24,3.76a4.66,4.66,0,0,1-.35,1.93,2.71,2.71,0,0,1-1.23,1.28l2,5.85H13.18l-1.71-5.47h-1.1v5.47Zm1.84-11.09v4h1a1.88,1.88,0,0,0,.78-.14,1.07,1.07,0,0,0,.45-.39,1.68,1.68,0,0,0,.19-.62,5.3,5.3,0,0,0,.06-.85,5.43,5.43,0,0,0-.06-.86,1.61,1.61,0,0,0-.21-.64,1.48,1.48,0,0,0-1.3-.5Z" transform="translate(-0.76 -2.48)"/><path d="M15.37,43.41l2.86-12.82h1.53l2.87,12.82H20.79l-.54-2.76h-2.5l-.54,2.76Zm4.54-4.48L19,34.28h0l-.9,4.65Z" transform="translate(-0.76 -2.48)"/><path d="M23.45,43.41V30.59h1.77L28,38.31h0V30.59h1.83V43.41H28.13l-2.8-7.71h0v7.71Z" transform="translate(-0.76 -2.48)"/><path d="M31.41,33.62a3.25,3.25,0,0,1,.27-1.37,2.82,2.82,0,0,1,.72-1,3,3,0,0,1,1-.58,3.34,3.34,0,0,1,1.11-.2,3.31,3.31,0,0,1,2.1.78,2.92,2.92,0,0,1,.71,1,3.25,3.25,0,0,1,.27,1.37v.64H35.73v-.64a1.2,1.2,0,0,0-.37-1,1.36,1.36,0,0,0-1.75,0,1.23,1.23,0,0,0-.36,1v6.76a1.25,1.25,0,0,0,.36,1,1.39,1.39,0,0,0,1.75,0,1.22,1.22,0,0,0,.37-1V38H34.27V36.35h3.3v4a3.25,3.25,0,0,1-.27,1.39,2.86,2.86,0,0,1-.71.95,2.93,2.93,0,0,1-1,.6,3.24,3.24,0,0,1-1.1.2,3.34,3.34,0,0,1-1.11-.2,3.16,3.16,0,0,1-1.7-1.55,3.25,3.25,0,0,1-.27-1.39Z" transform="translate(-0.76 -2.48)"/><path d="M39.19,43.41V30.59h5.47v1.73H41v3.76h3.17v1.73H41v3.76h3.64v1.84Z" transform="translate(-0.76 -2.48)"/><path d="M48.37,43.41l2.86-12.82h1.53l2.86,12.82H53.78l-.54-2.76h-2.5l-.54,2.76Zm4.53-4.48L52,34.28h0l-.91,4.65Z" transform="translate(-0.76 -2.48)"/><path d="M56.45,43.41V30.59h1.76L61,38.31h0V30.59h1.84V43.41H61.13L58.32,35.7h0v7.71Z" transform="translate(-0.76 -2.48)"/><path d="M64.51,43.41V30.59h2.72a3.14,3.14,0,0,1,2.4.87,3.38,3.38,0,0,1,.82,2.44v6a3.57,3.57,0,0,1-.87,2.65,3.44,3.44,0,0,1-2.51.86Zm1.84-11.09v9.36h.84a1.35,1.35,0,0,0,1.1-.39,1.83,1.83,0,0,0,.32-1.21V33.9a2,2,0,0,0-.3-1.17,1.34,1.34,0,0,0-1.12-.41Z" transform="translate(-0.76 -2.48)"/><path d="M85.05,30.59,83.14,43.41H81.41L80,35.09h0l-1.38,8.32H76.86L75,30.59h1.94l.92,8.14h0l1.44-8.14h1.4l1.5,8.34h0l.88-8.34Z" transform="translate(-0.76 -2.48)"/><path d="M86.2,43.41V30.59H88v5.49H90.3V30.59h1.84V43.41H90.3V37.7H88v5.71Z" transform="translate(-0.76 -2.48)"/><path d="M93.92,43.41V30.59h1.84V43.41Z" transform="translate(-0.76 -2.48)"/><path d="M98.75,43.41V32.32H96.62V30.59h6.09v1.73h-2.13V43.41Z" transform="translate(-0.76 -2.48)"/><path d="M103.52,43.41V30.59H109v1.73h-3.64v3.76h3.17v1.73h-3.17v3.76H109v1.84Z" transform="translate(-0.76 -2.48)"/><path d="M110.07,44.74V41.57h1.83v1.84Z" transform="translate(-0.76 -2.48)"/><path d="M116.76,33.62a3.25,3.25,0,0,1,.27-1.37,2.82,2.82,0,0,1,.72-1,3.14,3.14,0,0,1,1-.58,3.26,3.26,0,0,1,3.22.58,2.9,2.9,0,0,1,.7,1,3.25,3.25,0,0,1,.27,1.37v.64h-1.84v-.64a1.2,1.2,0,0,0-.37-1,1.28,1.28,0,0,0-.87-.32,1.3,1.3,0,0,0-.87.32,1.2,1.2,0,0,0-.37,1v6.76a1.22,1.22,0,0,0,.37,1,1.29,1.29,0,0,0,.87.31,1.27,1.27,0,0,0,.87-.31,1.22,1.22,0,0,0,.37-1V38h-1.45V36.35h3.29v4a3.25,3.25,0,0,1-.27,1.39,2.83,2.83,0,0,1-.7.95,3,3,0,0,1-1,.6,3.18,3.18,0,0,1-2.22,0,2.85,2.85,0,0,1-1-.6,2.75,2.75,0,0,1-.72-.95,3.25,3.25,0,0,1-.27-1.39Z" transform="translate(-0.76 -2.48)"/><path d="M124.54,43.41V30.59h1.84v11H130v1.84Z" transform="translate(-0.76 -2.48)"/><path d="M131.09,33.62a3.25,3.25,0,0,1,.27-1.37,2.82,2.82,0,0,1,.72-1,3.14,3.14,0,0,1,1-.58,3.26,3.26,0,0,1,3.22.58,3,3,0,0,1,.7,1,3.25,3.25,0,0,1,.27,1.37v6.76a3.25,3.25,0,0,1-.27,1.39,3,3,0,0,1-.7.95,3,3,0,0,1-1,.6,3.18,3.18,0,0,1-2.22,0,2.85,2.85,0,0,1-1-.6,2.75,2.75,0,0,1-.72-.95,3.25,3.25,0,0,1-.27-1.39Zm1.84,6.76a1.22,1.22,0,0,0,.37,1,1.38,1.38,0,0,0,1.74,0,1.22,1.22,0,0,0,.37-1V33.62a1.2,1.2,0,0,0-.37-1,1.34,1.34,0,0,0-1.74,0,1.2,1.2,0,0,0-.37,1Z" transform="translate(-0.76 -2.48)"/><path d="M144.81,34.28H143v-.41a1.94,1.94,0,0,0-.3-1.09,1.08,1.08,0,0,0-1-.46,1.22,1.22,0,0,0-.61.14,1.27,1.27,0,0,0-.37.36,1.42,1.42,0,0,0-.2.53,3.21,3.21,0,0,0-.06.63,5.53,5.53,0,0,0,0,.63,1.37,1.37,0,0,0,.13.45,1.14,1.14,0,0,0,.32.34,3.7,3.7,0,0,0,.57.29l1.4.55a3.52,3.52,0,0,1,1,.55,2.4,2.4,0,0,1,.59.73,3,3,0,0,1,.27,1,9.38,9.38,0,0,1,.08,1.25,7.14,7.14,0,0,1-.16,1.51,3.27,3.27,0,0,1-.53,1.18,2.59,2.59,0,0,1-1,.79,3.5,3.5,0,0,1-1.49.29,3.15,3.15,0,0,1-1.24-.24,2.71,2.71,0,0,1-1-.65,3,3,0,0,1-.9-2.16v-.68h1.83v.58a1.51,1.51,0,0,0,.3.91,1.16,1.16,0,0,0,1,.4,1.65,1.65,0,0,0,.73-.13.94.94,0,0,0,.4-.39,1.28,1.28,0,0,0,.17-.6c0-.24,0-.5,0-.79s0-.61,0-.83a1.61,1.61,0,0,0-.15-.52.92.92,0,0,0-.33-.32,3.13,3.13,0,0,0-.55-.27l-1.32-.54A2.91,2.91,0,0,1,139,36a4.41,4.41,0,0,1-.4-2,4.66,4.66,0,0,1,.19-1.36,3.09,3.09,0,0,1,.6-1.12,2.77,2.77,0,0,1,1-.75,3.33,3.33,0,0,1,1.4-.28,3,3,0,0,1,1.25.26,3.19,3.19,0,0,1,1,.66,2.81,2.81,0,0,1,.83,2Z" transform="translate(-0.76 -2.48)"/><path d="M152.12,34.28h-1.84v-.41a1.94,1.94,0,0,0-.3-1.09,1.09,1.09,0,0,0-1-.46,1.22,1.22,0,0,0-.61.14,1.31,1.31,0,0,0-.38.36,1.87,1.87,0,0,0-.2.53,4.23,4.23,0,0,0,0,.63,5.53,5.53,0,0,0,0,.63,1.37,1.37,0,0,0,.13.45,1.14,1.14,0,0,0,.32.34,3.29,3.29,0,0,0,.57.29l1.4.55a3.52,3.52,0,0,1,1,.55,2.4,2.4,0,0,1,.59.73,3.29,3.29,0,0,1,.27,1,9.38,9.38,0,0,1,.08,1.25,6.52,6.52,0,0,1-.17,1.51,3.1,3.1,0,0,1-.52,1.18,2.59,2.59,0,0,1-1,.79,3.53,3.53,0,0,1-1.49.29,3.15,3.15,0,0,1-1.24-.24,2.84,2.84,0,0,1-1-.65,3.07,3.07,0,0,1-.65-1,2.93,2.93,0,0,1-.25-1.2v-.68h1.84v.58a1.51,1.51,0,0,0,.3.91,1.16,1.16,0,0,0,1,.4,1.65,1.65,0,0,0,.73-.13,1,1,0,0,0,.4-.39,1.4,1.4,0,0,0,.17-.6c0-.24,0-.5,0-.79a6.47,6.47,0,0,0,0-.83,1.4,1.4,0,0,0-.14-.52,1,1,0,0,0-.33-.32,3.53,3.53,0,0,0-.55-.27l-1.32-.54A2.91,2.91,0,0,1,146.31,36a4.41,4.41,0,0,1-.4-2,4.66,4.66,0,0,1,.19-1.36,2.94,2.94,0,0,1,.6-1.12,2.77,2.77,0,0,1,1-.75,3.33,3.33,0,0,1,1.4-.28,3,3,0,0,1,1.25.26,3.31,3.31,0,0,1,1,.66,2.81,2.81,0,0,1,.83,2Z" transform="translate(-0.76 -2.48)"/><path d="M155.19,43.41V38l-2.52-7.4h2l1.47,5.1h0l1.47-5.1h2L157,38v5.42Z" transform="translate(-0.76 -2.48)"/><path d="M169.65,39.75v.8a2.84,2.84,0,0,1-.23,1.12,3.18,3.18,0,0,1-.62.95,2.94,2.94,0,0,1-.93.65,2.57,2.57,0,0,1-1.14.25,3.93,3.93,0,0,1-1.06-.15,2.37,2.37,0,0,1-1-.5,2.68,2.68,0,0,1-.71-.93,3.23,3.23,0,0,1-.28-1.45V33.44a3.2,3.2,0,0,1,.21-1.17,2.88,2.88,0,0,1,.61-.94,3,3,0,0,1,.95-.62,3.18,3.18,0,0,1,1.21-.23,2.8,2.8,0,0,1,2.11.85,3.09,3.09,0,0,1,.62,1,3.32,3.32,0,0,1,.23,1.23v.72h-1.84v-.61a1.43,1.43,0,0,0-.31-.93,1,1,0,0,0-.82-.4.93.93,0,0,0-.91.42,2.29,2.29,0,0,0-.23,1.07v6.56a1.61,1.61,0,0,0,.25.93,1,1,0,0,0,.87.38,1.43,1.43,0,0,0,.39-.06,1.11,1.11,0,0,0,.38-.21,1.08,1.08,0,0,0,.27-.4,1.58,1.58,0,0,0,.11-.63v-.63Z" transform="translate(-0.76 -2.48)"/><path d="M171,33.62a3.25,3.25,0,0,1,.27-1.37,2.82,2.82,0,0,1,.72-1,3.14,3.14,0,0,1,1-.58,3.26,3.26,0,0,1,3.22.58,3,3,0,0,1,.7,1,3.25,3.25,0,0,1,.27,1.37v6.76a3.25,3.25,0,0,1-.27,1.39,3,3,0,0,1-.7.95,3,3,0,0,1-1,.6,3.18,3.18,0,0,1-2.22,0,2.85,2.85,0,0,1-1-.6,2.75,2.75,0,0,1-.72-.95,3.25,3.25,0,0,1-.27-1.39Zm1.84,6.76a1.22,1.22,0,0,0,.37,1,1.38,1.38,0,0,0,1.74,0,1.22,1.22,0,0,0,.37-1V33.62a1.2,1.2,0,0,0-.37-1,1.34,1.34,0,0,0-1.74,0,1.2,1.2,0,0,0-.37,1Z" transform="translate(-0.76 -2.48)"/><path d="M177.76,43.41l2.87-12.82h1.53L185,43.41h-1.84l-.54-2.76h-2.5l-.54,2.76Zm4.54-4.48-.9-4.65h0l-.9,4.65Z" transform="translate(-0.76 -2.48)"/><path d="M186.13,43.41V32.32H184V30.59h6.08v1.73H188V43.41Z" transform="translate(-0.76 -2.48)"/><path d="M191,43.41V30.59h1.83V43.41Z" transform="translate(-0.76 -2.48)"/><path d="M194.5,43.41V30.59h1.77L199,38.31h0V30.59h1.83V43.41h-1.73l-2.8-7.71h0v7.71Z" transform="translate(-0.76 -2.48)"/><path d="M202.46,33.62a3.25,3.25,0,0,1,.27-1.37,2.82,2.82,0,0,1,.72-1,3,3,0,0,1,1-.58,3.34,3.34,0,0,1,1.11-.2,3.31,3.31,0,0,1,2.1.78,2.92,2.92,0,0,1,.71,1,3.25,3.25,0,0,1,.27,1.37v.64h-1.84v-.64a1.2,1.2,0,0,0-.37-1,1.36,1.36,0,0,0-1.75,0,1.23,1.23,0,0,0-.36,1v6.76a1.25,1.25,0,0,0,.36,1,1.39,1.39,0,0,0,1.75,0,1.22,1.22,0,0,0,.37-1V38h-1.46V36.35h3.3v4a3.25,3.25,0,0,1-.27,1.39,2.86,2.86,0,0,1-.71.95,2.93,2.93,0,0,1-1,.6,3.24,3.24,0,0,1-1.1.2,3.34,3.34,0,0,1-1.11-.2,3.16,3.16,0,0,1-1.7-1.55,3.25,3.25,0,0,1-.27-1.39Z" transform="translate(-0.76 -2.48)"/><path d="M28.55,57.41V44.59h1.83v11H34v1.84Z" transform="translate(-0.76 -2.48)"/><path d="M35.21,57.41V44.59h5.47v1.73H37v3.76h3.17v1.73H37v3.76h3.64v1.84Z" transform="translate(-0.76 -2.48)"/><path d="M41.79,57.41V44.59h1.77l2.77,7.72h0V44.59H48.2V57.41H46.48L43.67,49.7h0v7.71Z" transform="translate(-0.76 -2.48)"/><path d="M49.75,47.62A3.25,3.25,0,0,1,50,46.25a2.82,2.82,0,0,1,.72-1,3.14,3.14,0,0,1,1-.58,3.18,3.18,0,0,1,2.22,0,3.3,3.3,0,0,1,1,.58,2.92,2.92,0,0,1,.71,1,3.25,3.25,0,0,1,.27,1.37v.64H54.07v-.64a1.2,1.2,0,0,0-.37-1,1.3,1.3,0,0,0-.87-.32,1.28,1.28,0,0,0-.87.32,1.2,1.2,0,0,0-.37,1v6.76a1.22,1.22,0,0,0,.37,1,1.27,1.27,0,0,0,.87.31,1.29,1.29,0,0,0,.87-.31,1.22,1.22,0,0,0,.37-1V52H52.61V50.35h3.3v4a3.25,3.25,0,0,1-.27,1.39,2.86,2.86,0,0,1-.71.95,3,3,0,0,1-1,.6,3.18,3.18,0,0,1-2.22,0,2.85,2.85,0,0,1-1-.6,2.75,2.75,0,0,1-.72-.95,3.25,3.25,0,0,1-.27-1.39Z" transform="translate(-0.76 -2.48)"/><path d="M58.73,57.41V46.32H56.61V44.59h6.08v1.73H60.57V57.41Z" transform="translate(-0.76 -2.48)"/><path d="M63.5,57.41V44.59h1.84v5.49h2.27V44.59h1.83V57.41H67.61V51.7H65.34v5.71Z" transform="translate(-0.76 -2.48)"/><path d="M71.06,53.32V51.49H72.9v1.83Zm0,4.09V55.57H72.9v1.84Z" transform="translate(-0.76 -2.48)"/><path d="M79.79,57.41V46.54L78,47.89v-2l1.83-1.35h1.84V57.41Z" transform="translate(-0.76 -2.48)"/><path d="M84.72,57.41,88,46.32h-2V47.8H84.31V44.59h5.47v1.84l-3.11,11Z" transform="translate(-0.76 -2.48)"/><path d="M93.09,54.78a.87.87,0,0,0,.25.67.92.92,0,0,0,.65.23.73.73,0,0,0,.7-.31,1.57,1.57,0,0,0,.2-.61h1.84a2.65,2.65,0,0,1-.74,2,2.59,2.59,0,0,1-.86.59,3,3,0,0,1-1.14.22,2.8,2.8,0,0,1-1.46-.36,2.45,2.45,0,0,1-.93-1,2.53,2.53,0,0,1-.27-.83,6.45,6.45,0,0,1-.07-1v-3a6.45,6.45,0,0,1,.07-1,2.53,2.53,0,0,1,.27-.83,2.45,2.45,0,0,1,.93-1A2.8,2.8,0,0,1,94,48.17a3.06,3.06,0,0,1,1.15.22A2.53,2.53,0,0,1,96,49a3.07,3.07,0,0,1,.72,2.11H94.89a1.2,1.2,0,0,0-.24-.82,1,1,0,0,0-1.31,0,1.09,1.09,0,0,0-.25.78Z" transform="translate(-0.76 -2.48)"/><path d="M97.81,57.41V48.28h1.84v.88h0a2.74,2.74,0,0,1,.69-.71,1.85,1.85,0,0,1,1-.28,1.64,1.64,0,0,1,1,.29,3,3,0,0,1,.65.63,4.17,4.17,0,0,1,.75-.65,2.12,2.12,0,0,1,1.16-.27,2.24,2.24,0,0,1,.7.12,1.82,1.82,0,0,1,.65.39,2,2,0,0,1,.46.69,2.66,2.66,0,0,1,.18,1v7h-1.83V51.09a1.18,1.18,0,0,0-.24-.79.79.79,0,0,0-.66-.29.78.78,0,0,0-.72.32,1.85,1.85,0,0,0-.2.94v6.14h-1.84V51.09a1.18,1.18,0,0,0-.23-.79.83.83,0,0,0-.67-.29.8.8,0,0,0-.72.32,1.86,1.86,0,0,0-.19.94v6.14Z" transform="translate(-0.76 -2.48)"/><path d="M121.44,44.59l-1.9,12.82h-1.73l-1.41-8.32h0L115,57.41h-1.73l-1.9-12.82h1.94l.92,8.14h0l1.44-8.14h1.41l1.49,8.34h0l.88-8.34Z" transform="translate(-0.76 -2.48)"/><path d="M122.59,57.41V44.59h5.48v1.73h-3.64v3.76h3.17v1.73h-3.17v3.76h3.64v1.84Z" transform="translate(-0.76 -2.48)"/><path d="M129.31,57.41V44.59h1.84V57.41Z" transform="translate(-0.76 -2.48)"/><path d="M132.82,47.62a3.25,3.25,0,0,1,.27-1.37,2.82,2.82,0,0,1,.72-1,3,3,0,0,1,1-.58,3.29,3.29,0,0,1,1.11-.2,3.31,3.31,0,0,1,2.1.78,3.06,3.06,0,0,1,.71,1,3.41,3.41,0,0,1,.27,1.37v.64h-1.84v-.64a1.2,1.2,0,0,0-.37-1,1.36,1.36,0,0,0-1.75,0,1.23,1.23,0,0,0-.37,1v6.76a1.25,1.25,0,0,0,.37,1,1.39,1.39,0,0,0,1.75,0,1.22,1.22,0,0,0,.37-1V52h-1.46V50.35H139v4a3.41,3.41,0,0,1-.27,1.39,3,3,0,0,1-.71.95,2.93,2.93,0,0,1-1,.6,3.24,3.24,0,0,1-1.1.2,3.29,3.29,0,0,1-1.11-.2,3.16,3.16,0,0,1-1.7-1.55,3.25,3.25,0,0,1-.27-1.39Z" transform="translate(-0.76 -2.48)"/><path d="M140.59,57.41V44.59h1.84v5.49h2.27V44.59h1.84V57.41H144.7V51.7h-2.27v5.71Z" transform="translate(-0.76 -2.48)"/><path d="M149.47,57.41V46.32h-2.13V44.59h6.09v1.73H151.3V57.41Z" transform="translate(-0.76 -2.48)"/><path d="M159.51,57.41V46.54l-1.83,1.35v-2l1.83-1.35h1.84V57.41Z" transform="translate(-0.76 -2.48)"/><path d="M168.84,44.59,166.75,50l0,0a.73.73,0,0,1,.28-.12,2.29,2.29,0,0,1,.5,0,1.88,1.88,0,0,1,.9.23,2,2,0,0,1,.65.6,1.75,1.75,0,0,1,.19.39,3.26,3.26,0,0,1,.13.52c0,.22,0,.49,0,.82s0,.75,0,1.25,0,.77,0,1,0,.49,0,.67a2.24,2.24,0,0,1-.14.49,3.07,3.07,0,0,1-.2.41,2.39,2.39,0,0,1-1,.92,2.75,2.75,0,0,1-1.35.33,2.6,2.6,0,0,1-1.35-.34,2.54,2.54,0,0,1-1-.91,2.37,2.37,0,0,1-.22-.41,1.53,1.53,0,0,1-.12-.49,3.83,3.83,0,0,1-.07-.67c0-.27,0-.62,0-1s0-.72,0-1,0-.48,0-.67a3.36,3.36,0,0,1,.11-.5c0-.15.1-.31.16-.47l2.41-6.45Zm-1.17,7.8a.87.87,0,0,0-.27-.67.92.92,0,0,0-1.26,0,.87.87,0,0,0-.27.67v2.37a.87.87,0,0,0,.27.67.92.92,0,0,0,1.26,0,.87.87,0,0,0,.27-.67Z" transform="translate(-0.76 -2.48)"/><path d="M170.73,47.24a2.78,2.78,0,0,1,.22-1.15,2.7,2.7,0,0,1,.6-.87,2.78,2.78,0,0,1,.88-.55,3,3,0,0,1,1-.19,3,3,0,0,1,1,.19,2.63,2.63,0,0,1,.87.55,2.7,2.7,0,0,1,.6.87,2.78,2.78,0,0,1,.23,1.15v7.52a2.78,2.78,0,0,1-.23,1.15,2.7,2.7,0,0,1-.6.87,2.63,2.63,0,0,1-.87.55,3,3,0,0,1-1,.19,3,3,0,0,1-1-.19,2.78,2.78,0,0,1-.88-.55,2.7,2.7,0,0,1-.6-.87,2.78,2.78,0,0,1-.22-1.15Zm1.83,7.52a.93.93,0,0,0,.25.66.89.89,0,0,0,.65.26.87.87,0,0,0,.65-.26.89.89,0,0,0,.25-.66V47.24a.91.91,0,0,0-.25-.66.87.87,0,0,0-.65-.26.89.89,0,0,0-.65.26,1,1,0,0,0-.25.66Z" transform="translate(-0.76 -2.48)"/><path d="M182.75,58.47a1,1,0,0,0,.26.61.88.88,0,0,0,.71.29.73.73,0,0,0,.65-.28,1.22,1.22,0,0,0,.2-.71v-1.8h0a2.17,2.17,0,0,1-.73.69,1.86,1.86,0,0,1-1,.25,1.64,1.64,0,0,1-1.6-.87,2.14,2.14,0,0,1-.23-.75,7.67,7.67,0,0,1-.08-1.21V51.22a12.69,12.69,0,0,1,.06-1.46,1.73,1.73,0,0,1,.84-1.35,1.8,1.8,0,0,1,1-.24,1.93,1.93,0,0,1,.58.08,1.65,1.65,0,0,1,.45.19,2.6,2.6,0,0,1,.36.3c.1.12.22.24.34.37v-.83h1.83V58.52a3.14,3.14,0,0,1-.15.95,2.34,2.34,0,0,1-.49.85,2.46,2.46,0,0,1-.87.64,3,3,0,0,1-2.1.11,2.2,2.2,0,0,1-.83-.46,2.43,2.43,0,0,1-.68-.82,3.7,3.7,0,0,1-.37-1.32Zm0-3.87a1.45,1.45,0,0,0,.19.76.75.75,0,0,0,.71.32.87.87,0,0,0,.66-.28,1,1,0,0,0,.26-.71V51.14a1.3,1.3,0,0,0-.25-.81.82.82,0,0,0-.67-.32.74.74,0,0,0-.68.34,1.62,1.62,0,0,0-.22.9Z" transform="translate(-0.76 -2.48)"/><path d="M187.92,57.41V48.28h1.83v1a5.67,5.67,0,0,1,1.1-.79,2.81,2.81,0,0,1,1.33-.29v1.95a1.51,1.51,0,0,0-.56-.11,2.05,2.05,0,0,0-.62.1,1.77,1.77,0,0,0-.6.33,1.81,1.81,0,0,0-.47.61,2.22,2.22,0,0,0-.18.94v5.42Z" transform="translate(-0.76 -2.48)"/><path d="M196.29,57.41v-.94h0a3.26,3.26,0,0,1-.73.78,1.73,1.73,0,0,1-1,.27,2.51,2.51,0,0,1-.66-.1,1.75,1.75,0,0,1-.64-.37,1.85,1.85,0,0,1-.5-.73,3.55,3.55,0,0,1-.18-1.23,6.81,6.81,0,0,1,.12-1.36,2.19,2.19,0,0,1,.47-1,2,2,0,0,1,.88-.57A4.39,4.39,0,0,1,195.4,52h.2l.2,0,.22,0h.27v-.95a1.4,1.4,0,0,0-.2-.77.78.78,0,0,0-.72-.31,1.08,1.08,0,0,0-.66.23,1.13,1.13,0,0,0-.39.69h-1.78a3,3,0,0,1,.83-2,2.69,2.69,0,0,1,.86-.57,3,3,0,0,1,1.14-.21,3.22,3.22,0,0,1,1.08.18,2.49,2.49,0,0,1,.88.54,2.74,2.74,0,0,1,.58.9,3.47,3.47,0,0,1,.21,1.26v6.36Zm0-3.93a3.92,3.92,0,0,0-.51,0,1.82,1.82,0,0,0-1,.28,1.13,1.13,0,0,0-.42,1,1.37,1.37,0,0,0,.25.84.85.85,0,0,0,.71.33.9.9,0,0,0,.72-.31,1.25,1.25,0,0,0,.27-.86Z" transform="translate(-0.76 -2.48)"/><path d="M199.47,57.41V48.28h1.84v.88h0a3,3,0,0,1,.7-.71,1.81,1.81,0,0,1,1-.28,1.64,1.64,0,0,1,1,.29,2.79,2.79,0,0,1,.65.63,3.91,3.91,0,0,1,.76-.65,2.06,2.06,0,0,1,1.15-.27,2.19,2.19,0,0,1,.7.12,1.74,1.74,0,0,1,.65.39,2.05,2.05,0,0,1,.47.69,2.66,2.66,0,0,1,.18,1v7h-1.84V51.09a1.24,1.24,0,0,0-.23-.79.83.83,0,0,0-.67-.29.78.78,0,0,0-.72.32,1.85,1.85,0,0,0-.2.94v6.14h-1.83V51.09a1.18,1.18,0,0,0-.24-.79.81.81,0,0,0-.66-.29.78.78,0,0,0-.72.32,1.75,1.75,0,0,0-.2.94v6.14Z" transform="translate(-0.76 -2.48)"/><path d="M49.79,71.41V58.59h1.83v5.49h2.27V58.59h1.84V71.41H53.89V65.7H51.62v5.71Z" transform="translate(-0.76 -2.48)"/><path d="M56.63,71.41l2.86-12.82H61l2.86,12.82H62l-.54-2.76H59l-.54,2.76Zm4.53-4.48-.9-4.65h0l-.9,4.65Z" transform="translate(-0.76 -2.48)"/><path d="M64.71,71.41V58.59h1.76l2.77,7.72h0V58.59h1.84V71.41H69.39L66.58,63.7h0v7.71Z" transform="translate(-0.76 -2.48)"/><path d="M72.77,71.41V58.59h2.72a3.14,3.14,0,0,1,2.4.87,3.38,3.38,0,0,1,.82,2.44v6a3.57,3.57,0,0,1-.87,2.65,3.44,3.44,0,0,1-2.51.86Zm1.84-11.09v9.36h.84a1.36,1.36,0,0,0,1.1-.39,1.83,1.83,0,0,0,.32-1.21V61.9a2,2,0,0,0-.3-1.17,1.34,1.34,0,0,0-1.12-.41Z" transform="translate(-0.76 -2.48)"/><path d="M80.44,71.41V58.59H82.2l2.36,6.79h0l2.34-6.79h1.78V71.41H86.88v-7.8h0L85,69.12h-.92l-1.8-5.51h0v7.8Z" transform="translate(-0.76 -2.48)"/><path d="M89.62,71.41l2.86-12.82H94l2.86,12.82H95l-.54-2.76H92l-.54,2.76Zm4.53-4.48-.9-4.65h0l-.9,4.65Z" transform="translate(-0.76 -2.48)"/><path d="M97.77,71.41V58.59h2.72a3.12,3.12,0,0,1,2.4.87,3.38,3.38,0,0,1,.82,2.44v6a3.57,3.57,0,0,1-.87,2.65,3.44,3.44,0,0,1-2.51.86Zm1.84-11.09v9.36h.84a1.35,1.35,0,0,0,1.1-.39,1.82,1.82,0,0,0,.33-1.21V61.9a2,2,0,0,0-.31-1.17,1.33,1.33,0,0,0-1.12-.41Z" transform="translate(-0.76 -2.48)"/><path d="M105.44,71.41V58.59h5.47v1.73h-3.63v3.76h3.16v1.73h-3.16v3.76h3.63v1.84Z" transform="translate(-0.76 -2.48)"/><path d="M115.38,67.34V65.5h5.41v1.84Z" transform="translate(-0.76 -2.48)"/><path d="M125.8,71.41V58.59h2.72a3.15,3.15,0,0,1,2.4.87,3.43,3.43,0,0,1,.82,2.44v6a3.57,3.57,0,0,1-.87,2.65,3.47,3.47,0,0,1-2.52.86Zm1.83-11.09v9.36h.85a1.36,1.36,0,0,0,1.1-.39,1.88,1.88,0,0,0,.32-1.21V61.9a2,2,0,0,0-.3-1.17,1.34,1.34,0,0,0-1.12-.41Z" transform="translate(-0.76 -2.48)"/><path d="M132.42,71.41l2.86-12.82h1.53l2.87,12.82h-1.84l-.54-2.76h-2.5l-.54,2.76ZM137,66.93l-.9-4.65h0l-.9,4.65Z" transform="translate(-0.76 -2.48)"/><path d="M140.79,71.41V60.32h-2.12V58.59h6.08v1.73h-2.12V71.41Z" transform="translate(-0.76 -2.48)"/><path d="M143.74,71.41l2.87-12.82h1.53L151,71.41h-1.84l-.54-2.76h-2.5l-.54,2.76Zm4.54-4.48-.9-4.65h0l-.9,4.65Z" transform="translate(-0.76 -2.48)"/><path d="M155.25,71.41V58.59H157l2.36,6.79h0l2.34-6.79h1.79V71.41h-1.84v-7.8h0l-1.81,5.51h-.92l-1.8-5.51h0v7.8Z" transform="translate(-0.76 -2.48)"/><path d="M164.43,71.41l2.86-12.82h1.53l2.86,12.82h-1.84l-.54-2.76h-2.5l-.54,2.76ZM169,66.93l-.9-4.65h0l-.9,4.65Z" transform="translate(-0.76 -2.48)"/><path d="M173.3,71.41V66l-2.52-7.4h1.94l1.48,5.1h0l1.47-5.1h1.95L175.14,66v5.42Z" transform="translate(-0.76 -2.48)"/><path d="M188.15,58.59l-2.63,12.82H183.9l-2.61-12.82h2l1.45,9h0l1.48-9Z" transform="translate(-0.76 -2.48)"/><path d="M187.75,71.41l2.87-12.82h1.53L195,71.41h-1.84l-.54-2.76h-2.5l-.54,2.76Zm4.54-4.48-.9-4.65h0l-.9,4.65Z" transform="translate(-0.76 -2.48)"/><path d="M195.91,71.41V58.59h3c2.16,0,3.24,1.26,3.24,3.76a4.82,4.82,0,0,1-.35,1.93,2.81,2.81,0,0,1-1.23,1.28l2,5.85h-1.95l-1.71-5.47h-1.1v5.47Zm1.83-11.09v4h1a1.83,1.83,0,0,0,.77-.14,1.07,1.07,0,0,0,.45-.39,1.68,1.68,0,0,0,.2-.62,5.4,5.4,0,0,0,0-.85,5.53,5.53,0,0,0,0-.86,1.79,1.79,0,0,0-.22-.64,1.46,1.46,0,0,0-1.29-.5Z" transform="translate(-0.76 -2.48)"/><path d="M205,71.41V66l-2.52-7.4h1.95l1.47,5.1h0l1.47-5.1h1.95L206.8,66v5.42Z" transform="translate(-0.76 -2.48)"/></g></g></svg>