<svg xmlns="http://www.w3.org/2000/svg" viewBox="0 0 207.86 68.92"><title>Resurs 23</title><g id="Lager_2" data-name="Lager 2"><g id="Lager_1-2" data-name="Lager 1"><path d="M.86,15.41V2.59H2.63L5,9.38H5L7.36,2.59H9.14V15.41H7.31V7.61h0L5.45,13.12H4.54L2.74,7.61h0v7.8Z" transform="translate(-0.76 -2.48)"/><path d="M10.76,5.62A3.25,3.25,0,0,1,11,4.25a2.82,2.82,0,0,1,.72-1,3.14,3.14,0,0,1,1-.58A3.26,3.26,0,0,1,16,3.26a2.9,2.9,0,0,1,.7,1,3.25,3.25,0,0,1,.27,1.37v6.76a3.25,3.25,0,0,1-.27,1.39,2.83,2.83,0,0,1-.7,1,3,3,0,0,1-1,.6,3.18,3.18,0,0,1-2.22,0,2.85,2.85,0,0,1-1-.6,2.75,2.75,0,0,1-.72-1,3.25,3.25,0,0,1-.27-1.39Zm1.84,6.76a1.22,1.22,0,0,0,.37,1,1.29,1.29,0,0,0,.87.31,1.27,1.27,0,0,0,.87-.31,1.22,1.22,0,0,0,.37-1V5.62a1.2,1.2,0,0,0-.37-1,1.28,1.28,0,0,0-.87-.32,1.3,1.3,0,0,0-.87.32,1.2,1.2,0,0,0-.37,1Z" transform="translate(-0.76 -2.48)"/><path d="M18.54,15.41V2.59h2.72a3.15,3.15,0,0,1,2.4.87,3.38,3.38,0,0,1,.82,2.44v6a3.57,3.57,0,0,1-.87,2.65,3.46,3.46,0,0,1-2.51.86ZM20.38,4.32v9.36h.84a1.36,1.36,0,0,0,1.1-.39,1.83,1.83,0,0,0,.32-1.21V5.9a2,2,0,0,0-.3-1.17,1.34,1.34,0,0,0-1.12-.41Z" transform="translate(-0.76 -2.48)"/><path d="M26.21,15.41V2.59h5.47V4.32H28V8.08h3.17V9.81H28v3.76h3.64v1.84Z" transform="translate(-0.76 -2.48)"/><path d="M32.87,15.41V2.59H34.7v11h3.64v1.84Z" transform="translate(-0.76 -2.48)"/><path d="M39.42,11.32V9.49h1.84v1.83Zm0,4.09V13.57h1.84v1.84Z" transform="translate(-0.76 -2.48)"/><path d="M42.34,5.76V2.59h1.83V4.43Zm2.52,0V2.59h1.83V4.43Z" transform="translate(-0.76 -2.48)"/><path d="M47.88,15.41V2.59h2.68a3.72,3.72,0,0,1,1.5.27,2.76,2.76,0,0,1,1,.72,2.71,2.71,0,0,1,.57,1,4.42,4.42,0,0,1,.17,1.21V6.3a4.33,4.33,0,0,1-.08.88,2.58,2.58,0,0,1-.24.63,2.57,2.57,0,0,1-.94.87,1.94,1.94,0,0,1,.95.9,3.46,3.46,0,0,1,.31,1.62v.72A3.71,3.71,0,0,1,53,14.51a3.39,3.39,0,0,1-2.62.9ZM49.72,4.32V7.85h.82a1.4,1.4,0,0,0,1.24-.46,2.37,2.37,0,0,0,.31-1.34,2.06,2.06,0,0,0-.35-1.3,1.56,1.56,0,0,0-1.27-.43Zm0,5.15v4.1h.79a1.9,1.9,0,0,0,.87-.16,1.16,1.16,0,0,0,.48-.45,1.75,1.75,0,0,0,.2-.68q0-.4,0-.87a6.78,6.78,0,0,0-.05-.84,1.63,1.63,0,0,0-.22-.62,1.11,1.11,0,0,0-.48-.37,2.59,2.59,0,0,0-.81-.11Z" transform="translate(-0.76 -2.48)"/><path d="M55.6,15.41V2.59h1.84V15.41Z" transform="translate(-0.76 -2.48)"/><path d="M60.43,15.41V4.32H58.3V2.59h6.09V4.32H62.26V15.41Z" transform="translate(-0.76 -2.48)"/><path d="M65.19,15.41V2.59h5.48V4.32H67V8.08H70.2V9.81H67v3.76h3.64v1.84Z" transform="translate(-0.76 -2.48)"/><path d="M71.31,5.76V2.59h1.84V4.43Zm2.52,0V2.59h1.84V4.43Z" transform="translate(-0.76 -2.48)"/><path d="M6.7,25.75v.8a2.84,2.84,0,0,1-.23,1.12,3.18,3.18,0,0,1-.62.95,2.94,2.94,0,0,1-.93.65,2.57,2.57,0,0,1-1.14.25,3.93,3.93,0,0,1-1.06-.15,2.37,2.37,0,0,1-1-.5A2.68,2.68,0,0,1,1,27.94a3.23,3.23,0,0,1-.28-1.45v-7A3.2,3.2,0,0,1,1,18.27a2.88,2.88,0,0,1,.61-.94,3,3,0,0,1,.95-.62,3.18,3.18,0,0,1,1.21-.23,2.8,2.8,0,0,1,2.11.85,3.09,3.09,0,0,1,.62,1,3.32,3.32,0,0,1,.23,1.23v.72H4.86v-.61a1.43,1.43,0,0,0-.31-.93,1,1,0,0,0-.82-.4.93.93,0,0,0-.91.42,2.29,2.29,0,0,0-.23,1.07v6.56a1.69,1.69,0,0,0,.24.93,1,1,0,0,0,.88.38,1.43,1.43,0,0,0,.39-.06,1.11,1.11,0,0,0,.38-.21,1.08,1.08,0,0,0,.27-.4,1.58,1.58,0,0,0,.11-.63v-.63Z" transform="translate(-0.76 -2.48)"/><path d="M8.08,19.62a3.25,3.25,0,0,1,.27-1.37,2.82,2.82,0,0,1,.72-1,3.14,3.14,0,0,1,1-.58,3.26,3.26,0,0,1,3.22.58,3,3,0,0,1,.7,1,3.25,3.25,0,0,1,.27,1.37v6.76A3.25,3.25,0,0,1,14,27.77a3,3,0,0,1-.7.95,3,3,0,0,1-1,.6,3.18,3.18,0,0,1-2.22,0,2.85,2.85,0,0,1-1-.6,2.75,2.75,0,0,1-.72-.95,3.25,3.25,0,0,1-.27-1.39Zm1.84,6.76a1.22,1.22,0,0,0,.37,1,1.38,1.38,0,0,0,1.74,0,1.22,1.22,0,0,0,.37-1V19.62a1.2,1.2,0,0,0-.37-1,1.34,1.34,0,0,0-1.74,0,1.2,1.2,0,0,0-.37,1Z" transform="translate(-0.76 -2.48)"/><path d="M15.86,29.41V16.59h2.95c2.16,0,3.24,1.26,3.24,3.76a4.82,4.82,0,0,1-.35,1.93,2.81,2.81,0,0,1-1.23,1.28l2,5.85H20.5l-1.71-5.47h-1.1v5.47Zm1.83-11.09v4h1a1.83,1.83,0,0,0,.77-.14,1.07,1.07,0,0,0,.45-.39,1.68,1.68,0,0,0,.2-.62,5.4,5.4,0,0,0,.05-.85,5.53,5.53,0,0,0-.05-.86,1.79,1.79,0,0,0-.22-.64,1.46,1.46,0,0,0-1.29-.5Z" transform="translate(-0.76 -2.48)"/><path d="M23.53,29.41V16.59H29v1.73H25.36v3.76h3.17v1.73H25.36v3.76H29v1.84Z" transform="translate(-0.76 -2.48)"/><path d="M33.43,19.62a3.25,3.25,0,0,1,.27-1.37,2.82,2.82,0,0,1,.72-1,2.93,2.93,0,0,1,1-.58,3.24,3.24,0,0,1,1.1-.2,3.29,3.29,0,0,1,1.11.2,3.23,3.23,0,0,1,1,.58,2.9,2.9,0,0,1,.7,1,3.25,3.25,0,0,1,.27,1.37v6.76a3.25,3.25,0,0,1-.27,1.39,2.83,2.83,0,0,1-.7.95,2.93,2.93,0,0,1-1,.6,3.29,3.29,0,0,1-1.11.2,3.24,3.24,0,0,1-1.1-.2,2.68,2.68,0,0,1-1-.6,2.75,2.75,0,0,1-.72-.95,3.25,3.25,0,0,1-.27-1.39Zm1.83,6.76a1.22,1.22,0,0,0,.37,1,1.39,1.39,0,0,0,1.75,0,1.25,1.25,0,0,0,.37-1V19.62a1.23,1.23,0,0,0-.37-1,1.36,1.36,0,0,0-1.75,0,1.2,1.2,0,0,0-.37,1Z" transform="translate(-0.76 -2.48)"/><path d="M41.2,29.41V16.59h5.47v1.73H43v3.89h3.17v1.73H43v5.47Z" transform="translate(-0.76 -2.48)"/><path d="M51.21,29.41V16.59H54a4.2,4.2,0,0,1,1.34.2,2.59,2.59,0,0,1,1,.7A2.8,2.8,0,0,1,57,18.67a7.39,7.39,0,0,1,.18,1.83,9.93,9.93,0,0,1-.1,1.46,3.26,3.26,0,0,1-.42,1.11,2.71,2.71,0,0,1-1,1A3.33,3.33,0,0,1,54,24.4h-.93v5Zm1.84-11.09v4.36h.88a1.82,1.82,0,0,0,.86-.17.9.9,0,0,0,.45-.45,1.6,1.6,0,0,0,.17-.66c0-.27,0-.56,0-.88s0-.59,0-.86a1.9,1.9,0,0,0-.16-.71,1.09,1.09,0,0,0-.43-.47,1.7,1.7,0,0,0-.83-.16Z" transform="translate(-0.76 -2.48)"/><path d="M58.59,29.41V16.59h1.83V29.41Z" transform="translate(-0.76 -2.48)"/><path d="M62.13,29.41V16.59H63.9l2.77,7.72h0V16.59h1.83V29.41H66.81L64,21.7h0v7.71Z" transform="translate(-0.76 -2.48)"/><path d="M70.2,29.41V16.59h5.47v1.73H72v3.76H75.2v1.73H72v3.76h3.63v1.84Z" transform="translate(-0.76 -2.48)"/><path d="M.76,33.62A3.25,3.25,0,0,1,1,32.25a2.82,2.82,0,0,1,.72-1,2.93,2.93,0,0,1,1-.58,3.24,3.24,0,0,1,1.1-.2,3.29,3.29,0,0,1,1.11.2,3.23,3.23,0,0,1,1,.58,2.9,2.9,0,0,1,.7,1,3.25,3.25,0,0,1,.27,1.37v6.76a3.25,3.25,0,0,1-.27,1.39,2.83,2.83,0,0,1-.7.95,2.93,2.93,0,0,1-1,.6,3.29,3.29,0,0,1-1.11.2,3.24,3.24,0,0,1-1.1-.2,2.68,2.68,0,0,1-1-.6A2.75,2.75,0,0,1,1,41.77a3.25,3.25,0,0,1-.27-1.39Zm1.83,6.76a1.22,1.22,0,0,0,.37,1,1.31,1.31,0,0,0,.87.31,1.32,1.32,0,0,0,.88-.31,1.25,1.25,0,0,0,.37-1V33.62a1.23,1.23,0,0,0-.37-1,1.36,1.36,0,0,0-1.75,0,1.2,1.2,0,0,0-.37,1Z" transform="translate(-0.76 -2.48)"/><path d="M8.53,43.41V30.59h3c2.16,0,3.24,1.26,3.24,3.76a4.66,4.66,0,0,1-.35,1.93,2.71,2.71,0,0,1-1.23,1.28l2,5.85H13.18l-1.71-5.47h-1.1v5.47Zm1.84-11.09v4h1a1.88,1.88,0,0,0,.78-.14,1.07,1.07,0,0,0,.45-.39,1.68,1.68,0,0,0,.19-.62,5.3,5.3,0,0,0,.06-.85,5.43,5.43,0,0,0-.06-.86,1.61,1.61,0,0,0-.21-.64,1.48,1.48,0,0,0-1.3-.5Z" transform="translate(-0.76 -2.48)"/><path d="M15.37,43.41l2.86-12.82h1.53l2.87,12.82H20.79l-.54-2.76h-2.5l-.54,2.76Zm4.54-4.48L19,34.28h0l-.9,4.65Z" transform="translate(-0.76 -2.48)"/><path d="M23.45,43.41V30.59h1.77L28,38.31h0V30.59h1.83V43.41H28.13l-2.8-7.71h0v7.71Z" transform="translate(-0.76 -2.48)"/><path d="M31.41,33.62a3.25,3.25,0,0,1,.27-1.37,2.82,2.82,0,0,1,.72-1,3,3,0,0,1,1-.58,3.34,3.34,0,0,1,1.11-.2,3.31,3.31,0,0,1,2.1.78,2.92,2.92,0,0,1,.71,1,3.25,3.25,0,0,1,.27,1.37v.64H35.73v-.64a1.2,1.2,0,0,0-.37-1,1.36,1.36,0,0,0-1.75,0,1.23,1.23,0,0,0-.36,1v6.76a1.25,1.25,0,0,0,.36,1,1.39,1.39,0,0,0,1.75,0,1.22,1.22,0,0,0,.37-1V38H34.27V36.35h3.3v4a3.25,3.25,0,0,1-.27,1.39,2.86,2.86,0,0,1-.71.95,2.93,2.93,0,0,1-1,.6,3.24,3.24,0,0,1-1.1.2,3.34,3.34,0,0,1-1.11-.2,3.16,3.16,0,0,1-1.7-1.55,3.25,3.25,0,0,1-.27-1.39Z" transform="translate(-0.76 -2.48)"/><path d="M39.19,43.41V30.59h5.47v1.73H41v3.76h3.17v1.73H41v3.76h3.64v1.84Z" transform="translate(-0.76 -2.48)"/><path d="M48.37,43.41l2.86-12.82h1.53l2.86,12.82H53.78l-.54-2.76h-2.5l-.54,2.76Zm4.53-4.48L52,34.28h0l-.91,4.65Z" transform="translate(-0.76 -2.48)"/><path d="M56.45,43.41V30.59h1.76L61,38.31h0V30.59h1.84V43.41H61.13L58.32,35.7h0v7.71Z" transform="translate(-0.76 -2.48)"/><path d="M64.51,43.41V30.59h2.72a3.14,3.14,0,0,1,2.4.87,3.38,3.38,0,0,1,.82,2.44v6a3.57,3.57,0,0,1-.87,2.65,3.44,3.44,0,0,1-2.51.86Zm1.84-11.09v9.36h.84a1.35,1.35,0,0,0,1.1-.39,1.83,1.83,0,0,0,.32-1.21V33.9a2,2,0,0,0-.3-1.17,1.34,1.34,0,0,0-1.12-.41Z" transform="translate(-0.76 -2.48)"/><path d="M85.05,30.59,83.14,43.41H81.41L80,35.09h0l-1.38,8.32H76.86L75,30.59h1.94l.92,8.14h0l1.44-8.14h1.4l1.5,8.34h0l.88-8.34Z" transform="translate(-0.76 -2.48)"/><path d="M86.2,43.41V30.59H88v5.49H90.3V30.59h1.84V43.41H90.3V37.7H88v5.71Z" transform="translate(-0.76 -2.48)"/><path d="M93.92,43.41V30.59h1.84V43.41Z" transform="translate(-0.76 -2.48)"/><path d="M98.75,43.41V32.32H96.62V30.59h6.09v1.73h-2.13V43.41Z" transform="translate(-0.76 -2.48)"/><path d="M103.52,43.41V30.59H109v1.73h-3.64v3.76h3.17v1.73h-3.17v3.76H109v1.84Z" transform="translate(-0.76 -2.48)"/><path d="M110.07,44.74V41.57h1.83v1.84Z" transform="translate(-0.76 -2.48)"/><path d="M116.76,33.62a3.25,3.25,0,0,1,.27-1.37,2.82,2.82,0,0,1,.72-1,3.14,3.14,0,0,1,1-.58,3.26,3.26,0,0,1,3.22.58,2.9,2.9,0,0,1,.7,1,3.25,3.25,0,0,1,.27,1.37v.64h-1.84v-.64a1.2,1.2,0,0,0-.37-1,1.28,1.28,0,0,0-.87-.32,1.3,1.3,0,0,0-.87.32,1.2,1.2,0,0,0-.37,1v6.76a1.22,1.22,0,0,0,.37,1,1.29,1.29,0,0,0,.87.31,1.27,1.27,0,0,0,.87-.31,1.22,1.22,0,0,0,.37-1V38h-1.46V36.35h3.3v4a3.25,3.25,0,0,1-.27,1.39,2.83,2.83,0,0,1-.7.95,3,3,0,0,1-1,.6,3.18,3.18,0,0,1-2.22,0,2.85,2.85,0,0,1-1-.6,2.75,2.75,0,0,1-.72-.95,3.25,3.25,0,0,1-.27-1.39Z" transform="translate(-0.76 -2.48)"/><path d="M124.54,43.41V30.59h1.84v11H130v1.84Z" transform="translate(-0.76 -2.48)"/><path d="M131.09,33.62a3.25,3.25,0,0,1,.27-1.37,2.82,2.82,0,0,1,.72-1,3.14,3.14,0,0,1,1-.58,3.18,3.18,0,0,1,2.22,0,3.48,3.48,0,0,1,1,.58,3,3,0,0,1,.7,1,3.25,3.25,0,0,1,.27,1.37v6.76a3.25,3.25,0,0,1-.27,1.39,3,3,0,0,1-.7.95,3.14,3.14,0,0,1-1,.6,3.18,3.18,0,0,1-2.22,0,2.85,2.85,0,0,1-1-.6,2.75,2.75,0,0,1-.72-.95,3.25,3.25,0,0,1-.27-1.39Zm1.84,6.76a1.22,1.22,0,0,0,.37,1,1.27,1.27,0,0,0,.87.31,1.29,1.29,0,0,0,.87-.31,1.22,1.22,0,0,0,.37-1V33.62a1.2,1.2,0,0,0-.37-1,1.3,1.3,0,0,0-.87-.32,1.28,1.28,0,0,0-.87.32,1.2,1.2,0,0,0-.37,1Z" transform="translate(-0.76 -2.48)"/><path d="M144.81,34.28H143v-.41a1.94,1.94,0,0,0-.3-1.09,1.08,1.08,0,0,0-1-.46,1.22,1.22,0,0,0-.61.14,1.45,1.45,0,0,0-.38.36,1.6,1.6,0,0,0-.19.53,3.21,3.21,0,0,0-.06.63,5.53,5.53,0,0,0,0,.63,1.37,1.37,0,0,0,.13.45,1.14,1.14,0,0,0,.32.34,3.7,3.7,0,0,0,.57.29l1.4.55a3.52,3.52,0,0,1,1,.55,2.4,2.4,0,0,1,.59.73,3.29,3.29,0,0,1,.28,1,11.59,11.59,0,0,1,.07,1.25,6.52,6.52,0,0,1-.17,1.51,3.1,3.1,0,0,1-.52,1.18,2.59,2.59,0,0,1-1,.79,3.5,3.5,0,0,1-1.49.29,3.19,3.19,0,0,1-1.24-.24,2.71,2.71,0,0,1-1-.65,3,3,0,0,1-.9-2.16v-.68h1.83v.58a1.51,1.51,0,0,0,.3.91,1.16,1.16,0,0,0,1,.4,1.65,1.65,0,0,0,.73-.13.94.94,0,0,0,.4-.39,1.28,1.28,0,0,0,.17-.6c0-.24,0-.5,0-.79a6.47,6.47,0,0,0,0-.83,1.4,1.4,0,0,0-.14-.52.92.92,0,0,0-.33-.32,3.13,3.13,0,0,0-.55-.27l-1.32-.54A2.91,2.91,0,0,1,139,36a4.41,4.41,0,0,1-.4-2,4.66,4.66,0,0,1,.19-1.36,3.09,3.09,0,0,1,.6-1.12,2.77,2.77,0,0,1,1-.75,3.33,3.33,0,0,1,1.4-.28,3,3,0,0,1,1.25.26,3.19,3.19,0,0,1,1,.66,2.81,2.81,0,0,1,.83,2Z" transform="translate(-0.76 -2.48)"/><path d="M152.11,34.28h-1.83v-.41a1.94,1.94,0,0,0-.3-1.09,1.09,1.09,0,0,0-1-.46,1.22,1.22,0,0,0-.61.14,1.31,1.31,0,0,0-.38.36,1.87,1.87,0,0,0-.2.53,4.23,4.23,0,0,0,0,.63,5.53,5.53,0,0,0,0,.63,1.37,1.37,0,0,0,.13.45,1,1,0,0,0,.32.34,3.54,3.54,0,0,0,.56.29l1.41.55a3.52,3.52,0,0,1,1,.55,2.4,2.4,0,0,1,.59.73,3.61,3.61,0,0,1,.27,1,9.49,9.49,0,0,1,.07,1.25,6.54,6.54,0,0,1-.16,1.51,3.26,3.26,0,0,1-.52,1.18,2.59,2.59,0,0,1-1,.79,3.53,3.53,0,0,1-1.49.29,3.24,3.24,0,0,1-1.25-.24,2.89,2.89,0,0,1-1-.65,3.07,3.07,0,0,1-.65-1,2.93,2.93,0,0,1-.25-1.2v-.68h1.84v.58a1.51,1.51,0,0,0,.3.91,1.16,1.16,0,0,0,1,.4,1.65,1.65,0,0,0,.73-.13,1,1,0,0,0,.4-.39,1.4,1.4,0,0,0,.17-.6c0-.24,0-.5,0-.79a6.47,6.47,0,0,0,0-.83,1.4,1.4,0,0,0-.14-.52,1.12,1.12,0,0,0-.33-.32,3.53,3.53,0,0,0-.55-.27l-1.32-.54A2.91,2.91,0,0,1,146.31,36a4.41,4.41,0,0,1-.41-2,4.66,4.66,0,0,1,.2-1.36,2.94,2.94,0,0,1,.6-1.12,2.77,2.77,0,0,1,1-.75,3.28,3.28,0,0,1,1.39-.28,3.05,3.05,0,0,1,1.26.26,3.31,3.31,0,0,1,1,.66,2.79,2.79,0,0,1,.82,2Z" transform="translate(-0.76 -2.48)"/><path d="M155.19,43.41V38l-2.52-7.4h2l1.47,5.1h0l1.48-5.1h1.94L157,38v5.42Z" transform="translate(-0.76 -2.48)"/><path d="M169.65,39.75v.8a2.84,2.84,0,0,1-.23,1.12,3.18,3.18,0,0,1-.62.95,2.94,2.94,0,0,1-.93.65,2.57,2.57,0,0,1-1.14.25,3.93,3.93,0,0,1-1.06-.15,2.37,2.37,0,0,1-1-.5,2.68,2.68,0,0,1-.71-.93,3.23,3.23,0,0,1-.28-1.45V33.44a3.2,3.2,0,0,1,.21-1.17,2.88,2.88,0,0,1,.61-.94,3,3,0,0,1,.95-.62,3.14,3.14,0,0,1,1.21-.23,2.8,2.8,0,0,1,2.11.85,3.09,3.09,0,0,1,.62,1,3.32,3.32,0,0,1,.23,1.23v.72h-1.84v-.61a1.43,1.43,0,0,0-.31-.93,1,1,0,0,0-.82-.4.93.93,0,0,0-.91.42,2.29,2.29,0,0,0-.23,1.07v6.56a1.61,1.61,0,0,0,.25.93,1,1,0,0,0,.87.38,1.31,1.31,0,0,0,.38-.06,1.06,1.06,0,0,0,.39-.21,1.08,1.08,0,0,0,.27-.4,1.58,1.58,0,0,0,.11-.63v-.63Z" transform="translate(-0.76 -2.48)"/><path d="M171,33.62a3.25,3.25,0,0,1,.27-1.37,2.82,2.82,0,0,1,.72-1,3.14,3.14,0,0,1,1-.58,3.26,3.26,0,0,1,3.22.58,3,3,0,0,1,.7,1,3.25,3.25,0,0,1,.27,1.37v6.76a3.25,3.25,0,0,1-.27,1.39,3,3,0,0,1-.7.95,3,3,0,0,1-1,.6,3.18,3.18,0,0,1-2.22,0,2.85,2.85,0,0,1-1-.6,2.75,2.75,0,0,1-.72-.95,3.25,3.25,0,0,1-.27-1.39Zm1.84,6.76a1.22,1.22,0,0,0,.37,1,1.38,1.38,0,0,0,1.74,0,1.22,1.22,0,0,0,.37-1V33.62a1.2,1.2,0,0,0-.37-1,1.34,1.34,0,0,0-1.74,0,1.2,1.2,0,0,0-.37,1Z" transform="translate(-0.76 -2.48)"/><path d="M177.76,43.41l2.87-12.82h1.53L185,43.41h-1.84l-.54-2.76h-2.5l-.54,2.76Zm4.54-4.48-.9-4.65h0l-.9,4.65Z" transform="translate(-0.76 -2.48)"/><path d="M186.13,43.41V32.32H184V30.59h6.08v1.73H188V43.41Z" transform="translate(-0.76 -2.48)"/><path d="M191,43.41V30.59h1.83V43.41Z" transform="translate(-0.76 -2.48)"/><path d="M194.5,43.41V30.59h1.77L199,38.31h0V30.59h1.83V43.41h-1.73l-2.8-7.71h0v7.71Z" transform="translate(-0.76 -2.48)"/><path d="M202.46,33.62a3.25,3.25,0,0,1,.27-1.37,2.82,2.82,0,0,1,.72-1,3,3,0,0,1,1-.58,3.18,3.18,0,0,1,2.22,0,3.3,3.3,0,0,1,1,.58,2.92,2.92,0,0,1,.71,1,3.25,3.25,0,0,1,.27,1.37v.64h-1.84v-.64a1.2,1.2,0,0,0-.37-1,1.3,1.3,0,0,0-.87-.32,1.28,1.28,0,0,0-.87.32,1.2,1.2,0,0,0-.37,1v6.76a1.22,1.22,0,0,0,.37,1,1.27,1.27,0,0,0,.87.31,1.29,1.29,0,0,0,.87-.31,1.22,1.22,0,0,0,.37-1V38h-1.46V36.35h3.3v4a3.25,3.25,0,0,1-.27,1.39,2.86,2.86,0,0,1-.71.95,3,3,0,0,1-1,.6,3.18,3.18,0,0,1-2.22,0,3.16,3.16,0,0,1-1.7-1.55,3.25,3.25,0,0,1-.27-1.39Z" transform="translate(-0.76 -2.48)"/><path d="M.86,57.41V44.59H2.7v11H6.34v1.84Z" transform="translate(-0.76 -2.48)"/><path d="M7.52,57.41V44.59H13v1.73H9.36v3.76h3.17v1.73H9.36v3.76H13v1.84Z" transform="translate(-0.76 -2.48)"/><path d="M14.11,57.41V44.59h1.77l2.77,7.72h0V44.59h1.84V57.41H18.79L16,49.7h0v7.71Z" transform="translate(-0.76 -2.48)"/><path d="M22.07,47.62a3.25,3.25,0,0,1,.27-1.37,2.82,2.82,0,0,1,.72-1,3,3,0,0,1,1-.58,3.25,3.25,0,0,1,3.21.58,2.9,2.9,0,0,1,.7,1,3.25,3.25,0,0,1,.27,1.37v.64H26.39v-.64a1.23,1.23,0,0,0-.37-1,1.36,1.36,0,0,0-1.75,0,1.23,1.23,0,0,0-.37,1v6.76a1.25,1.25,0,0,0,.37,1,1.39,1.39,0,0,0,1.75,0,1.25,1.25,0,0,0,.37-1V52H24.93V50.35h3.29v4A3.25,3.25,0,0,1,28,55.77a2.83,2.83,0,0,1-.7.95,2.93,2.93,0,0,1-1,.6,3.15,3.15,0,0,1-2.21,0,3.16,3.16,0,0,1-1.7-1.55,3.25,3.25,0,0,1-.27-1.39Z" transform="translate(-0.76 -2.48)"/><path d="M31.05,57.41V46.32H28.93V44.59H35v1.73H32.89V57.41Z" transform="translate(-0.76 -2.48)"/><path d="M35.82,57.41V44.59h1.84v5.49h2.26V44.59h1.84V57.41H39.92V51.7H37.66v5.71Z" transform="translate(-0.76 -2.48)"/><path d="M43.38,53.32V51.49h1.83v1.83Zm0,4.09V55.57h1.83v1.84Z" transform="translate(-0.76 -2.48)"/><path d="M52.11,57.41V46.54l-1.84,1.35v-2l1.84-1.35h1.83V57.41Z" transform="translate(-0.76 -2.48)"/><path d="M57,57.41l3.22-11.09h-2V47.8H56.63V44.59H62.1v1.84L59,57.41Z" transform="translate(-0.76 -2.48)"/><path d="M65.41,54.78a.9.9,0,0,0,.24.67,1,1,0,0,0,.66.23.7.7,0,0,0,.69-.31,1.44,1.44,0,0,0,.21-.61h1.84a2.65,2.65,0,0,1-.74,2,2.53,2.53,0,0,1-.87.59,2.88,2.88,0,0,1-1.13.22,2.83,2.83,0,0,1-1.47-.36,2.42,2.42,0,0,1-.92-1,2.14,2.14,0,0,1-.27-.83,6.4,6.4,0,0,1-.08-1v-3a6.4,6.4,0,0,1,.08-1,2.14,2.14,0,0,1,.27-.83,2.42,2.42,0,0,1,.92-1,2.83,2.83,0,0,1,1.47-.36,3,3,0,0,1,1.14.22,2.48,2.48,0,0,1,.88.59,3.07,3.07,0,0,1,.72,2.11H67.21a1.2,1.2,0,0,0-.24-.82.87.87,0,0,0-.66-.26.88.88,0,0,0-.66.26,1.14,1.14,0,0,0-.24.78Z" transform="translate(-0.76 -2.48)"/><path d="M70.13,57.41V48.28H72v.88h0a2.74,2.74,0,0,1,.69-.71,1.85,1.85,0,0,1,1-.28,1.68,1.68,0,0,1,1,.29,2.74,2.74,0,0,1,.64.63,3.91,3.91,0,0,1,.76-.65,2.1,2.1,0,0,1,1.15-.27,2.19,2.19,0,0,1,.7.12,1.74,1.74,0,0,1,.65.39,2.05,2.05,0,0,1,.47.69,2.66,2.66,0,0,1,.18,1v7H77.43V51.09a1.18,1.18,0,0,0-.23-.79.82.82,0,0,0-.66-.29.81.81,0,0,0-.73.32,1.86,1.86,0,0,0-.19.94v6.14H73.78V51.09a1.24,1.24,0,0,0-.23-.79.83.83,0,0,0-.67-.29.78.78,0,0,0-.72.32,1.85,1.85,0,0,0-.2.94v6.14Z" transform="translate(-0.76 -2.48)"/><path d="M93.76,44.59,91.85,57.41H90.12l-1.4-8.32h0L87.3,57.41H85.57L83.66,44.59h2l.91,8.14h0L88,44.59h1.4l1.5,8.34h0l.89-8.34Z" transform="translate(-0.76 -2.48)"/><path d="M94.91,57.41V44.59h5.47v1.73H96.75v3.76h3.17v1.73H96.75v3.76h3.63v1.84Z" transform="translate(-0.76 -2.48)"/><path d="M101.63,57.41V44.59h1.83V57.41Z" transform="translate(-0.76 -2.48)"/><path d="M105.14,47.62a3.25,3.25,0,0,1,.27-1.37,2.82,2.82,0,0,1,.72-1,2.93,2.93,0,0,1,1-.58,3.25,3.25,0,0,1,3.21.58,2.9,2.9,0,0,1,.7,1,3.25,3.25,0,0,1,.27,1.37v.64h-1.83v-.64a1.23,1.23,0,0,0-.37-1,1.36,1.36,0,0,0-1.75,0,1.2,1.2,0,0,0-.37,1v6.76a1.22,1.22,0,0,0,.37,1,1.39,1.39,0,0,0,1.75,0,1.25,1.25,0,0,0,.37-1V52H108V50.35h3.29v4a3.25,3.25,0,0,1-.27,1.39,2.83,2.83,0,0,1-.7.95,2.93,2.93,0,0,1-1,.6,3.15,3.15,0,0,1-2.21,0,2.68,2.68,0,0,1-1-.6,2.75,2.75,0,0,1-.72-.95,3.25,3.25,0,0,1-.27-1.39Z" transform="translate(-0.76 -2.48)"/><path d="M112.91,57.41V44.59h1.84v5.49H117V44.59h1.83V57.41H117V51.7h-2.27v5.71Z" transform="translate(-0.76 -2.48)"/><path d="M121.79,57.41V46.32h-2.13V44.59h6.09v1.73h-2.13V57.41Z" transform="translate(-0.76 -2.48)"/><path d="M131.83,57.41V46.54L130,47.89v-2l1.84-1.35h1.84V57.41Z" transform="translate(-0.76 -2.48)"/><path d="M141.15,44.59,139.07,50l0,0a.67.67,0,0,1,.28-.12,2.29,2.29,0,0,1,.5,0,1.88,1.88,0,0,1,.9.23,1.85,1.85,0,0,1,.64.6,1.8,1.8,0,0,1,.2.39,3.26,3.26,0,0,1,.13.52c0,.22,0,.49.05.82s0,.75,0,1.25,0,.77,0,1,0,.49-.05.67a2.24,2.24,0,0,1-.14.49,3.07,3.07,0,0,1-.2.41,2.45,2.45,0,0,1-1,.92,2.77,2.77,0,0,1-1.36.33,2.66,2.66,0,0,1-1.35-.34,2.59,2.59,0,0,1-.95-.91,2.46,2.46,0,0,1-.23-.41,1.88,1.88,0,0,1-.11-.49,3.83,3.83,0,0,1-.07-.67c0-.27,0-.62,0-1s0-.72,0-1,0-.48,0-.67a2.45,2.45,0,0,1,.11-.5c.05-.15.1-.31.16-.47l2.41-6.45ZM140,52.39a.87.87,0,0,0-.27-.67.92.92,0,0,0-1.26,0,.87.87,0,0,0-.27.67v2.37a.87.87,0,0,0,.27.67.92.92,0,0,0,1.26,0,.87.87,0,0,0,.27-.67Z" transform="translate(-0.76 -2.48)"/><path d="M143,47.24a2.78,2.78,0,0,1,.23-1.15,2.7,2.7,0,0,1,.6-.87,2.63,2.63,0,0,1,.87-.55,3,3,0,0,1,1-.19,3,3,0,0,1,1,.19,2.78,2.78,0,0,1,.88.55,2.7,2.7,0,0,1,.6.87,2.78,2.78,0,0,1,.22,1.15v7.52a2.78,2.78,0,0,1-.22,1.15,2.7,2.7,0,0,1-.6.87,2.78,2.78,0,0,1-.88.55,3,3,0,0,1-1,.19,3,3,0,0,1-1-.19,2.63,2.63,0,0,1-.87-.55,2.7,2.7,0,0,1-.6-.87,2.78,2.78,0,0,1-.23-1.15Zm1.84,7.52a.89.89,0,0,0,.25.66.87.87,0,0,0,.65.26.89.89,0,0,0,.65-.26.93.93,0,0,0,.25-.66V47.24a1,1,0,0,0-.25-.66.89.89,0,0,0-.65-.26.87.87,0,0,0-.65.26.91.91,0,0,0-.25.66Z" transform="translate(-0.76 -2.48)"/><path d="M155.07,58.47a1,1,0,0,0,.26.61.88.88,0,0,0,.71.29.74.74,0,0,0,.65-.28,1.21,1.21,0,0,0,.19-.71v-1.8h0a2.27,2.27,0,0,1-.73.69,1.86,1.86,0,0,1-1,.25,1.64,1.64,0,0,1-1.6-.87,2.36,2.36,0,0,1-.24-.75,7.86,7.86,0,0,1-.07-1.21V51.22c0-.66,0-1.15.05-1.46a1.77,1.77,0,0,1,.85-1.35,1.8,1.8,0,0,1,1-.24,2,2,0,0,1,.58.08,1.58,1.58,0,0,1,.44.19,2.6,2.6,0,0,1,.36.3l.34.37v-.83h1.84V58.52a3.14,3.14,0,0,1-.15.95,2.22,2.22,0,0,1-.5.85,2.42,2.42,0,0,1-.86.64,3,3,0,0,1-1.24.25,3,3,0,0,1-.87-.14,2.28,2.28,0,0,1-.83-.46,2.53,2.53,0,0,1-.67-.82,3.5,3.5,0,0,1-.37-1.32Zm0-3.87a1.45,1.45,0,0,0,.19.76.75.75,0,0,0,.71.32.83.83,0,0,0,.65-.28,1,1,0,0,0,.26-.71V51.14a1.24,1.24,0,0,0-.25-.81A.81.81,0,0,0,156,50a.75.75,0,0,0-.69.34,1.71,1.71,0,0,0-.21.9Z" transform="translate(-0.76 -2.48)"/><path d="M160.23,57.41V48.28h1.84v1a5.67,5.67,0,0,1,1.1-.79,2.81,2.81,0,0,1,1.33-.29v1.95a1.55,1.55,0,0,0-.56-.11,2.05,2.05,0,0,0-.62.1,1.77,1.77,0,0,0-.6.33,1.69,1.69,0,0,0-.47.61,2.22,2.22,0,0,0-.18.94v5.42Z" transform="translate(-0.76 -2.48)"/><path d="M168.6,57.41v-.94h0a3.48,3.48,0,0,1-.73.78,1.74,1.74,0,0,1-1,.27,2.5,2.5,0,0,1-.65-.1,1.67,1.67,0,0,1-.64-.37,1.75,1.75,0,0,1-.5-.73,3.31,3.31,0,0,1-.19-1.23,6.09,6.09,0,0,1,.13-1.36,2.09,2.09,0,0,1,.47-1,1.9,1.9,0,0,1,.88-.57,4.35,4.35,0,0,1,1.42-.19h.2l.2,0,.21,0h.27v-.95a1.32,1.32,0,0,0-.2-.77.78.78,0,0,0-.72-.31,1,1,0,0,0-.65.23,1.13,1.13,0,0,0-.39.69h-1.78a2.9,2.9,0,0,1,.83-2,2.59,2.59,0,0,1,.86-.57,2.92,2.92,0,0,1,1.13-.21,3.14,3.14,0,0,1,1.08.18,2.53,2.53,0,0,1,.89.54,2.57,2.57,0,0,1,.57.9,3.26,3.26,0,0,1,.22,1.26v6.36Zm0-3.93a3.64,3.64,0,0,0-.5,0,1.77,1.77,0,0,0-1,.28,1.13,1.13,0,0,0-.42,1,1.31,1.31,0,0,0,.25.84.83.83,0,0,0,.7.33.92.92,0,0,0,.73-.31,1.3,1.3,0,0,0,.26-.86Z" transform="translate(-0.76 -2.48)"/><path d="M171.79,57.41V48.28h1.83v.88h0a2.74,2.74,0,0,1,.69-.71,1.85,1.85,0,0,1,1-.28,1.68,1.68,0,0,1,1,.29,3,3,0,0,1,.65.63,3.85,3.85,0,0,1,.75-.65,2.1,2.1,0,0,1,1.15-.27,2.25,2.25,0,0,1,.71.12,1.7,1.7,0,0,1,.64.39,1.92,1.92,0,0,1,.47.69,2.66,2.66,0,0,1,.18,1v7H179.1V51.09a1.18,1.18,0,0,0-.24-.79.81.81,0,0,0-.66-.29.78.78,0,0,0-.72.32,1.75,1.75,0,0,0-.2.94v6.14h-1.84V51.09a1.24,1.24,0,0,0-.23-.79.83.83,0,0,0-.67-.29.78.78,0,0,0-.72.32,1.85,1.85,0,0,0-.2.94v6.14Z" transform="translate(-0.76 -2.48)"/><path d="M.86,71.41V58.59H2.7v5.49H5V58.59H6.8V71.41H5V65.7H2.7v5.71Z" transform="translate(-0.76 -2.48)"/><path d="M7.7,71.41l2.87-12.82H12.1L15,71.41H13.12l-.54-2.76h-2.5l-.54,2.76Zm4.54-4.48-.9-4.65h0l-.9,4.65Z" transform="translate(-0.76 -2.48)"/><path d="M15.79,71.41V58.59h1.76l2.77,7.72h0V58.59h1.83V71.41H20.47L17.66,63.7h0v7.71Z" transform="translate(-0.76 -2.48)"/><path d="M23.85,71.41V58.59h2.72a3.15,3.15,0,0,1,2.4.87,3.38,3.38,0,0,1,.82,2.44v6a3.57,3.57,0,0,1-.87,2.65,3.46,3.46,0,0,1-2.51.86Zm1.84-11.09v9.36h.84a1.36,1.36,0,0,0,1.1-.39A1.83,1.83,0,0,0,28,68.08V61.9a2,2,0,0,0-.3-1.17,1.34,1.34,0,0,0-1.12-.41Z" transform="translate(-0.76 -2.48)"/><path d="M31.52,71.41V58.59h1.76l2.36,6.79h0L38,58.59H39.8V71.41H38v-7.8h0l-1.82,5.51h-.92l-1.8-5.51h0v7.8Z" transform="translate(-0.76 -2.48)"/><path d="M40.7,71.41l2.86-12.82h1.53L48,71.41H46.12l-.54-2.76H43.07l-.54,2.76Zm4.53-4.48-.9-4.65h0l-.9,4.65Z" transform="translate(-0.76 -2.48)"/><path d="M48.85,71.41V58.59h2.72a3.14,3.14,0,0,1,2.4.87,3.38,3.38,0,0,1,.82,2.44v6a3.57,3.57,0,0,1-.87,2.65,3.44,3.44,0,0,1-2.51.86Zm1.84-11.09v9.36h.84a1.35,1.35,0,0,0,1.1-.39A1.82,1.82,0,0,0,53,68.08V61.9a2,2,0,0,0-.31-1.17,1.33,1.33,0,0,0-1.12-.41Z" transform="translate(-0.76 -2.48)"/><path d="M56.52,71.41V58.59H62v1.73H58.36v3.76h3.16v1.73H58.36v3.76H62v1.84Z" transform="translate(-0.76 -2.48)"/><path d="M66.46,67.34V65.5h5.41v1.84Z" transform="translate(-0.76 -2.48)"/><path d="M76.88,71.41V58.59h2.71a3.16,3.16,0,0,1,2.41.87,3.43,3.43,0,0,1,.82,2.44v6a3.53,3.53,0,0,1-.88,2.65,3.44,3.44,0,0,1-2.51.86Zm1.83-11.09v9.36h.85a1.37,1.37,0,0,0,1.1-.39A1.88,1.88,0,0,0,81,68.08V61.9a1.91,1.91,0,0,0-.31-1.17,1.3,1.3,0,0,0-1.11-.41Z" transform="translate(-0.76 -2.48)"/><path d="M83.5,71.41l2.86-12.82h1.53l2.86,12.82H88.92l-.54-2.76h-2.5l-.54,2.76ZM88,66.93l-.9-4.65h0l-.9,4.65Z" transform="translate(-0.76 -2.48)"/><path d="M91.87,71.41V60.32H89.75V58.59h6.08v1.73H93.71V71.41Z" transform="translate(-0.76 -2.48)"/><path d="M94.82,71.41l2.86-12.82h1.53l2.87,12.82h-1.84l-.54-2.76H97.2l-.54,2.76Zm4.54-4.48-.9-4.65h0l-.9,4.65Z" transform="translate(-0.76 -2.48)"/><path d="M106.32,71.41V58.59h1.77l2.36,6.79h0l2.34-6.79h1.78V71.41h-1.83v-7.8h0l-1.82,5.51H110l-1.8-5.51h0v7.8Z" transform="translate(-0.76 -2.48)"/><path d="M115.5,71.41l2.87-12.82h1.53l2.86,12.82h-1.84l-.54-2.76h-2.5l-.54,2.76ZM120,66.93l-.9-4.65h0l-.9,4.65Z" transform="translate(-0.76 -2.48)"/><path d="M124.38,71.41V66l-2.52-7.4h1.94l1.48,5.1h0l1.48-5.1h1.94L126.21,66v5.42Z" transform="translate(-0.76 -2.48)"/><path d="M139.23,58.59,136.6,71.41H135l-2.61-12.82h1.94l1.46,9h0l1.47-9Z" transform="translate(-0.76 -2.48)"/><path d="M138.83,71.41l2.86-12.82h1.53l2.87,12.82h-1.84l-.54-2.76h-2.5l-.54,2.76Zm4.54-4.48-.9-4.65h0l-.9,4.65Z" transform="translate(-0.76 -2.48)"/><path d="M147,71.41V58.59h2.95c2.16,0,3.24,1.26,3.24,3.76a4.82,4.82,0,0,1-.35,1.93,2.78,2.78,0,0,1-1.24,1.28l2,5.85h-1.94l-1.71-5.47h-1.1v5.47Zm1.83-11.09v4h1.05a1.83,1.83,0,0,0,.77-.14,1.07,1.07,0,0,0,.45-.39,1.68,1.68,0,0,0,.2-.62,7,7,0,0,0,.05-.85,7.12,7.12,0,0,0-.05-.86,1.79,1.79,0,0,0-.22-.64,1.47,1.47,0,0,0-1.29-.5Z" transform="translate(-0.76 -2.48)"/><path d="M156,71.41V66l-2.52-7.4h1.94l1.48,5.1h0l1.47-5.1h2L157.88,66v5.42Z" transform="translate(-0.76 -2.48)"/></g></g></svg>