<svg xmlns="http://www.w3.org/2000/svg" viewBox="0 0 171.6 56.37"><title>Resurs 8</title><g id="Lager_2" data-name="Lager 2"><g id="Lager_1-2" data-name="Lager 1"><path d="M95.85,8.29H94.49l-.11-5.91h0L91.18,8.29H90.8l-1.41-6h0l-2,6H86L88.72.11H90.1l1.29,5.36L94.25.11h1.43Z"/><path d="M104,3.56A5.32,5.32,0,0,1,103.48,6a4.18,4.18,0,0,1-1.54,1.73,4,4,0,0,1-2.18.63A3.49,3.49,0,0,1,98,7.93a3.14,3.14,0,0,1-1.24-1.29,3.92,3.92,0,0,1-.44-1.85A5.37,5.37,0,0,1,96.61,3a5,5,0,0,1,.93-1.56,4.13,4.13,0,0,1,1.39-1A4,4,0,0,1,100.64,0a3.54,3.54,0,0,1,1.78.45,3,3,0,0,1,1.2,1.27A4,4,0,0,1,104,3.56Zm-1.42,0a2.71,2.71,0,0,0-.25-1.2,1.81,1.81,0,0,0-.71-.81,2,2,0,0,0-1.08-.29,2.37,2.37,0,0,0-1.41.47A3.32,3.32,0,0,0,98.11,3a4.27,4.27,0,0,0-.41,1.81A2.86,2.86,0,0,0,98,6.07a1.83,1.83,0,0,0,.73.82,2,2,0,0,0,1.08.29,2.31,2.31,0,0,0,1.42-.49,3.28,3.28,0,0,0,1-1.33A4.56,4.56,0,0,0,102.62,3.52Z"/><path d="M106.81.11a5.82,5.82,0,0,1,2,.31,3.9,3.9,0,0,1,1.41.86,3.32,3.32,0,0,1,.84,1.28,4.58,4.58,0,0,1,.27,1.59,4.46,4.46,0,0,1-.5,2.15,3.55,3.55,0,0,1-1.43,1.47,4.32,4.32,0,0,1-2.16.52H103.9L105.05.11Zm3.09,4a2.91,2.91,0,0,0-.26-1.25A2.91,2.91,0,0,0,109,2a2.88,2.88,0,0,0-1-.54,3.59,3.59,0,0,0-1.12-.18h-.59l-.81,5.88h1.27a3.33,3.33,0,0,0,2.37-.77A3,3,0,0,0,109.9,4.12Z"/><path d="M117.12.11,117,1.26h-3.31l-.32,2.28h2.93l-.17,1.15h-2.93l-.34,2.45H117l-.16,1.15h-5.53L112.43.11Z"/><path d="M121.93,7.18l-.17,1.11h-4.87L118,.11h1.38l-1,7.07Z"/><path d="M122.87,7.59a.78.78,0,0,1-.25.59.82.82,0,0,1-.59.25.84.84,0,0,1-.41-.11.79.79,0,0,1-.3-.3.8.8,0,0,1-.12-.43.88.88,0,0,1,.11-.42.92.92,0,0,1,.31-.31.83.83,0,0,1,.41-.1.81.81,0,0,1,.59.24A.79.79,0,0,1,122.87,7.59Zm.66-4a.79.79,0,0,1-.25.6.82.82,0,0,1-.58.24.78.78,0,0,1-.42-.11A.89.89,0,0,1,122,4a.89.89,0,0,1-.11-.43.78.78,0,0,1,.25-.59.81.81,0,0,1,.59-.24.82.82,0,0,1,.58.24A.78.78,0,0,1,123.53,3.57Z"/><path d="M131.46,4.63l-5.79,2.48V5.81L130,4l-4.34-1.76V1l5.79,2.49Z"/><path d="M137.34,4.63l-5.79,2.48V5.81L135.89,4l-4.34-1.76V1l5.79,2.49Z"/><path d="M142,1.73a3.21,3.21,0,0,0-.83-.41,3,3,0,0,0-.87-.14,1.44,1.44,0,0,0-1,.3,1,1,0,0,0-.36.78.8.8,0,0,0,.11.4,1.88,1.88,0,0,0,.33.4,6.85,6.85,0,0,0,.7.54l.61.45a3.58,3.58,0,0,1,.56.54,2.81,2.81,0,0,1,.41.66,2,2,0,0,1,.16.83,2.27,2.27,0,0,1-.32,1.18,2.24,2.24,0,0,1-.91.84,2.92,2.92,0,0,1-1.35.3A4.42,4.42,0,0,1,137,7.73l.2-1.31a4.87,4.87,0,0,0,1.13.61,2.86,2.86,0,0,0,1,.19,1.5,1.5,0,0,0,.6-.12,1.07,1.07,0,0,0,.44-.34.85.85,0,0,0,.17-.52,1,1,0,0,0-.11-.45,1.61,1.61,0,0,0-.28-.38,2.86,2.86,0,0,0-.41-.36l-.48-.36a6.37,6.37,0,0,1-1-.82,2.82,2.82,0,0,1-.46-.7,2,2,0,0,1-.17-.83A2.08,2.08,0,0,1,138,1.15a2.43,2.43,0,0,1,1-.84A3.11,3.11,0,0,1,140.35,0a3.72,3.72,0,0,1,1,.13,3.91,3.91,0,0,1,.91.34Z"/><path d="M144.67.11l-1.15,8.18h-1.4L143.27.11Z"/><path d="M152.56.11l-1.14,8.18h-1.09l-3.74-5.78h0l-.8,5.78h-1.35L145.58.11h1.09l3.74,5.71h0l.79-5.71Z"/><path d="M159.44.11l-3.72,3.74,3.45,4.44h-1.62L154.3,3.93l-.6,4.36h-1.38L153.47.11h1.38l-.54,3.62L157.83.11Z"/><path d="M164.6,4.63l-5.79,2.48V5.81L163.14,4l-4.33-1.76V1l5.79,2.49Z"/><path d="M170.48,4.63l-5.79,2.48V5.81L169,4l-4.33-1.76V1l5.79,2.49Z"/><path d="M54.9,13.73a3.27,3.27,0,0,0-.84-.41,3,3,0,0,0-.87-.14,1.44,1.44,0,0,0-.95.3,1,1,0,0,0-.36.78.72.72,0,0,0,.12.4,1.81,1.81,0,0,0,.32.4,8.22,8.22,0,0,0,.7.54c.2.14.41.29.61.45a3.58,3.58,0,0,1,.56.54,2.51,2.51,0,0,1,.41.66,2,2,0,0,1,.16.83,2.27,2.27,0,0,1-.32,1.18,2.24,2.24,0,0,1-.91.84,2.92,2.92,0,0,1-1.35.3,4.36,4.36,0,0,1-2.33-.67L50,18.42a4.87,4.87,0,0,0,1.13.61,2.87,2.87,0,0,0,1,.19,1.45,1.45,0,0,0,.59-.12,1.07,1.07,0,0,0,.44-.34.85.85,0,0,0,.17-.52,1,1,0,0,0-.11-.45,1.61,1.61,0,0,0-.28-.38,2.86,2.86,0,0,0-.41-.36l-.47-.36a5.51,5.51,0,0,1-1-.82,2.61,2.61,0,0,1-.47-.7,2,2,0,0,1-.16-.83,2.08,2.08,0,0,1,.36-1.19,2.37,2.37,0,0,1,1-.84A3,3,0,0,1,53.21,12a3.85,3.85,0,0,1,1,.13,4,4,0,0,1,.9.34Z"/><path d="M61.27,12.11l-.17,1.17H58.64l-1,7h-1.4l1-7H54.8L55,12.11Z"/><path d="M65.26,20.29H63.91l-.39-2.22H61L60,20.29H58.55L62.34,12h1.4Zm-1.89-3.22-.54-3.48h0l-1.41,3.48Z"/><path d="M67.89,12.11l-1.16,8.18h-1.4l1.15-8.18Z"/><path d="M75.77,12.11l-1.13,8.18H73.55l-3.74-5.78h0L69,20.29H67.65l1.15-8.18h1.08l3.75,5.71h0l.79-5.71Z"/><path d="M80.57,19.18l-.17,1.11H75.54l1.14-8.18h1.39l-1,7.07Z"/><path d="M86.19,12.11,86,13.26H82.71l-.32,2.28h2.93l-.17,1.15H82.22l-.34,2.45H86l-.16,1.15H80.34l1.16-8.18Z"/><path d="M90.75,13.73a3.21,3.21,0,0,0-.83-.41,3,3,0,0,0-.87-.14,1.44,1.44,0,0,0-1,.3,1,1,0,0,0-.36.78.8.8,0,0,0,.11.4,1.88,1.88,0,0,0,.33.4,6.85,6.85,0,0,0,.7.54l.61.45a4.07,4.07,0,0,1,.56.54,2.81,2.81,0,0,1,.41.66,2.15,2.15,0,0,1,.16.83,2.19,2.19,0,0,1-.33,1.18,2.15,2.15,0,0,1-.9.84,2.92,2.92,0,0,1-1.35.3,4.42,4.42,0,0,1-2.34-.67l.2-1.31A4.68,4.68,0,0,0,87,19a2.86,2.86,0,0,0,1,.19,1.53,1.53,0,0,0,.6-.12,1.07,1.07,0,0,0,.44-.34.85.85,0,0,0,.17-.52,1,1,0,0,0-.11-.45,2,2,0,0,0-.28-.38,2.86,2.86,0,0,0-.41-.36l-.48-.36a6.37,6.37,0,0,1-1-.82,2.57,2.57,0,0,1-.46-.7,2,2,0,0,1-.17-.83,2.08,2.08,0,0,1,.36-1.19,2.43,2.43,0,0,1,1-.84A3.11,3.11,0,0,1,89.07,12a3.72,3.72,0,0,1,1,.13,3.91,3.91,0,0,1,.91.34Z"/><path d="M95.62,13.73a3,3,0,0,0-1.7-.55,1.44,1.44,0,0,0-1,.3,1,1,0,0,0-.36.78.8.8,0,0,0,.11.4,2.24,2.24,0,0,0,.33.4,6.85,6.85,0,0,0,.7.54c.2.14.41.29.61.45a3.58,3.58,0,0,1,.56.54,2.51,2.51,0,0,1,.41.66,2,2,0,0,1,.16.83,2.27,2.27,0,0,1-.32,1.18,2.24,2.24,0,0,1-.91.84,2.92,2.92,0,0,1-1.35.3,4.42,4.42,0,0,1-2.34-.67l.2-1.31A4.87,4.87,0,0,0,91.9,19a2.87,2.87,0,0,0,1,.19,1.48,1.48,0,0,0,.59-.12,1.07,1.07,0,0,0,.44-.34.85.85,0,0,0,.17-.52,1,1,0,0,0-.11-.45,1.61,1.61,0,0,0-.28-.38,2.86,2.86,0,0,0-.41-.36l-.47-.36a6.07,6.07,0,0,1-1-.82,2.82,2.82,0,0,1-.46-.7,2,2,0,0,1-.17-.83,2.08,2.08,0,0,1,.36-1.19,2.43,2.43,0,0,1,1-.84A3.11,3.11,0,0,1,93.94,12a3.72,3.72,0,0,1,1,.13,3.91,3.91,0,0,1,.91.34Z"/><path d="M102.7,13.73a3.21,3.21,0,0,0-.83-.41,3,3,0,0,0-.87-.14,1.44,1.44,0,0,0-1,.3,1,1,0,0,0-.36.78.8.8,0,0,0,.11.4,1.88,1.88,0,0,0,.33.4,6.85,6.85,0,0,0,.7.54l.61.45a4.07,4.07,0,0,1,.56.54,2.81,2.81,0,0,1,.41.66,2.15,2.15,0,0,1,.16.83,2.27,2.27,0,0,1-.32,1.18,2.24,2.24,0,0,1-.91.84,2.92,2.92,0,0,1-1.35.3,4.42,4.42,0,0,1-2.34-.67l.2-1.31A4.87,4.87,0,0,0,99,19a2.86,2.86,0,0,0,1,.19,1.5,1.5,0,0,0,.6-.12,1.07,1.07,0,0,0,.44-.34.85.85,0,0,0,.17-.52,1,1,0,0,0-.11-.45,2,2,0,0,0-.28-.38,2.86,2.86,0,0,0-.41-.36l-.48-.36a6.37,6.37,0,0,1-1-.82,2.82,2.82,0,0,1-.46-.7,2,2,0,0,1-.17-.83,2.08,2.08,0,0,1,.36-1.19,2.43,2.43,0,0,1,1-.84A3.11,3.11,0,0,1,101,12a3.72,3.72,0,0,1,1,.13,3.91,3.91,0,0,1,.91.34Z"/><path d="M109.07,12.11l-.17,1.17h-2.46l-1,7h-1.4l1-7H102.6l.17-1.17Z"/><path d="M114,12.11l-.17,1.15H110.5l-.32,2.28h2.93l-.17,1.15H110l-.34,2.45h4.15l-.16,1.15h-5.53l1.16-8.18Z"/><path d="M119.61,12.11l-.17,1.15h-3.31l-.32,2.28h2.93l-.17,1.15h-2.93l-.34,2.45h4.15l-.16,1.15h-5.53l1.16-8.18Z"/><path d="M124.42,19.18l-.17,1.11h-4.87l1.15-8.18h1.38l-1,7.07Z"/><path d="M131.33,20.29H130l-.39-2.22H127l-1,2.22h-1.47L128.41,12h1.4Zm-1.89-3.22-.54-3.48h0l-1.41,3.48Z"/><path d="M139.52,12.11l-1.13,8.18H137.3l-3.74-5.78h0l-.8,5.78H131.4l1.15-8.18h1.09l3.74,5.71h0l.79-5.71Z"/><path d="M142.2,12.11a5.82,5.82,0,0,1,2,.31,3.9,3.9,0,0,1,1.41.86,3.32,3.32,0,0,1,.84,1.28,4.58,4.58,0,0,1,.27,1.59,4.46,4.46,0,0,1-.5,2.15,3.55,3.55,0,0,1-1.43,1.47,4.32,4.32,0,0,1-2.16.52h-3.35l1.15-8.18Zm3.09,4a2.74,2.74,0,0,0-1.92-2.68,3.59,3.59,0,0,0-1.12-.18h-.59l-.81,5.88h1.27a3.33,3.33,0,0,0,2.37-.77A3,3,0,0,0,145.29,16.12Z"/><path d="M158.08,20.29h-1.36l-.11-5.91h0l-3.18,5.91H153l-1.41-6h0l-1.95,6h-1.38L151,12.11h1.38l1.29,5.36,2.86-5.36h1.43Z"/><path d="M161.41,12.11a5.82,5.82,0,0,1,2,.31,3.9,3.9,0,0,1,1.41.86,3.32,3.32,0,0,1,.84,1.28,4.58,4.58,0,0,1,.27,1.59,4.46,4.46,0,0,1-.5,2.15A3.55,3.55,0,0,1,164,19.77a4.32,4.32,0,0,1-2.16.52H158.5l1.15-8.18Zm3.09,4a2.74,2.74,0,0,0-1.92-2.68,3.59,3.59,0,0,0-1.12-.18h-.59l-.81,5.88h1.27a3.33,3.33,0,0,0,2.37-.77A3,3,0,0,0,164.5,16.12Z"/><path d="M171.3,12.11l-.16,1.15h-2.9l-.31,2.28h2.58l-.16,1.15h-2.59l-.52,3.6h-1.37L167,12.11Z"/><path d="M7.43,25.44a8.71,8.71,0,0,0-1.78-.22,5.46,5.46,0,0,0-1.7.26,3.87,3.87,0,0,0-1.34.74,3.54,3.54,0,0,0-.86,1.14,3.16,3.16,0,0,0-.3,1.35A2.62,2.62,0,0,0,1.76,30a2.14,2.14,0,0,0,.87.87,2.74,2.74,0,0,0,1.3.31,5.32,5.32,0,0,0,.69,0A3.22,3.22,0,0,0,5.33,31l.21-1.5H4.22l.15-1.06h2.7l-.5,3.49a6,6,0,0,1-1.17.37A7.3,7.3,0,0,1,4,32.4a5,5,0,0,1-1.64-.26,3.67,3.67,0,0,1-1.26-.75,3.27,3.27,0,0,1-.79-1.17A3.74,3.74,0,0,1,0,28.75a4.47,4.47,0,0,1,1-2.83,4.61,4.61,0,0,1,1.17-1,5.82,5.82,0,0,1,1.56-.66,8.06,8.06,0,0,1,2-.23,9.6,9.6,0,0,1,1.85.19Z"/><path d="M13.6,32.29H12.1l-.88-1.81q-.37-.75-.54-1a2,2,0,0,0-.33-.4.83.83,0,0,0-.34-.19,1.75,1.75,0,0,0-.5-.06H9.1l-.48,3.48H7.22l1.14-8.18h2.08a4,4,0,0,1,1.3.18,2.38,2.38,0,0,1,.86.5,1.73,1.73,0,0,1,.47.73,2.45,2.45,0,0,1,.15.85,2,2,0,0,1-.49,1.33,2.3,2.3,0,0,1-1.32.76v.05a1.33,1.33,0,0,1,.44.38,3.18,3.18,0,0,1,.32.55Zm-1.84-5.92a1,1,0,0,0-.36-.82,1.73,1.73,0,0,0-1.07-.29H9.6l-.33,2.45H10a2.62,2.62,0,0,0,1-.17,1.31,1.31,0,0,0,.6-.47A1.18,1.18,0,0,0,11.76,26.37Z"/><path d="M19.42,24.11l-.17,1.15H15.94l-.32,2.28h2.92l-.16,1.15H15.45l-.34,2.45h4.15l-.16,1.15H13.56l1.16-8.18Z"/><path d="M25.47,24.11l-3,4.39L22,32.29H20.59l.54-3.79L19.3,24.11h1.4L22,27.18l2-3.07Z"/><path d="M31.39,32.29H30l-.39-2.22H27.1l-1,2.22H24.68L28.47,24h1.4ZM29.5,29.07,29,25.59h0l-1.41,3.48Z"/><path d="M39.59,24.11l-1.14,8.18H37.36l-3.74-5.78h0l-.8,5.78H31.46l1.15-8.18H33.7l3.74,5.71h0l.79-5.71Z"/><path d="M42.26,24.11a5.82,5.82,0,0,1,2,.31,3.82,3.82,0,0,1,1.41.86,3.32,3.32,0,0,1,.84,1.28,4.58,4.58,0,0,1,.28,1.59,4.46,4.46,0,0,1-.51,2.15,3.55,3.55,0,0,1-1.43,1.47,4.31,4.31,0,0,1-2.15.52H39.35l1.15-8.18Zm3.09,4a2.91,2.91,0,0,0-.26-1.25A2.77,2.77,0,0,0,44.4,26a2.88,2.88,0,0,0-1-.54,3.59,3.59,0,0,0-1.12-.18h-.59l-.81,5.88h1.27a3.3,3.3,0,0,0,2.37-.77A3,3,0,0,0,45.35,28.12Z"/><path d="M56.7,27.56A5.45,5.45,0,0,1,56.14,30a4.2,4.2,0,0,1-1.55,1.73,4,4,0,0,1-2.18.63,3.52,3.52,0,0,1-1.79-.47,3.18,3.18,0,0,1-1.23-1.29A3.8,3.8,0,0,1,49,28.79,5.13,5.13,0,0,1,49.27,27a5.19,5.19,0,0,1,.92-1.56,4.17,4.17,0,0,1,1.4-1A4,4,0,0,1,53.3,24a3.48,3.48,0,0,1,1.77.45,3.09,3.09,0,0,1,1.21,1.27A4,4,0,0,1,56.7,27.56Zm-1.42,0a2.71,2.71,0,0,0-.25-1.2,1.87,1.87,0,0,0-.71-.81,2,2,0,0,0-1.08-.29,2.42,2.42,0,0,0-1.42.47,3.39,3.39,0,0,0-1,1.33,4.12,4.12,0,0,0-.41,1.81,2.72,2.72,0,0,0,.26,1.24,1.87,1.87,0,0,0,.72.82,2.06,2.06,0,0,0,1.09.29,2.33,2.33,0,0,0,1.42-.49,3.18,3.18,0,0,0,1-1.33A4.4,4.4,0,0,0,55.28,27.52Z"/><path d="M62.94,32.29h-1.5l-.88-1.81q-.37-.75-.54-1a2.42,2.42,0,0,0-.33-.4.83.83,0,0,0-.34-.19,1.75,1.75,0,0,0-.5-.06h-.41L58,32.29h-1.4l1.15-8.18h2.08a4.08,4.08,0,0,1,1.3.18,2.47,2.47,0,0,1,.86.5,1.84,1.84,0,0,1,.47.73,2.45,2.45,0,0,1,.14.85,2,2,0,0,1-.48,1.33,2.3,2.3,0,0,1-1.32.76v.05a1.33,1.33,0,0,1,.44.38,3.18,3.18,0,0,1,.32.55ZM61.1,26.37a1,1,0,0,0-.37-.82,1.67,1.67,0,0,0-1.06-.29h-.73l-.34,2.45h.7a2.53,2.53,0,0,0,1-.17,1.34,1.34,0,0,0,.61-.47A1.18,1.18,0,0,0,61.1,26.37Z"/><path d="M68.56,32.29H67.21l-.39-2.22H64.27l-.95,2.22H61.85L65.64,24H67Zm-1.89-3.22-.54-3.48h0l-1.41,3.48Z"/><path d="M76.76,24.11l-1.14,8.18H74.54l-3.75-5.78h0L70,32.29H68.64l1.14-8.18h1.09l3.74,5.71h0l.8-5.71Z"/><path d="M83.88,25.44a8.54,8.54,0,0,0-1.77-.22,5.46,5.46,0,0,0-1.7.26,3.87,3.87,0,0,0-1.34.74,3.4,3.4,0,0,0-.86,1.14,3.16,3.16,0,0,0-.3,1.35,2.73,2.73,0,0,0,.3,1.29,2.23,2.23,0,0,0,.88.87,2.7,2.7,0,0,0,1.29.31,5.32,5.32,0,0,0,.69,0,3.45,3.45,0,0,0,.72-.18l.2-1.5H80.68l.15-1.06h2.7L83,31.89a5.57,5.57,0,0,1-1.17.37,7.2,7.2,0,0,1-1.42.14,5.1,5.1,0,0,1-1.65-.26,3.63,3.63,0,0,1-1.25-.75,3.3,3.3,0,0,1-.8-1.17,3.92,3.92,0,0,1-.27-1.47,4.25,4.25,0,0,1,.26-1.49,4.43,4.43,0,0,1,.75-1.34,4.61,4.61,0,0,1,1.17-1,5.89,5.89,0,0,1,1.57-.66,8,8,0,0,1,2-.23,9.53,9.53,0,0,1,1.85.19Z"/><path d="M89.52,24.11l-.17,1.15H86l-.32,2.28h2.93l-.17,1.15H85.55l-.33,2.45h4.15l-.17,1.15H83.67l1.16-8.18Z"/><path d="M90.47,31.59a.81.81,0,0,1-.24.59.82.82,0,0,1-.6.25.8.8,0,0,1-.4-.11.89.89,0,0,1-.31-.3.79.79,0,0,1-.11-.43.78.78,0,0,1,.11-.42.81.81,0,0,1,.3-.31.86.86,0,0,1,.41-.1.81.81,0,0,1,.6.24A.82.82,0,0,1,90.47,31.59Z"/><path d="M100.46,25.44a8.71,8.71,0,0,0-1.78-.22,5.46,5.46,0,0,0-1.7.26,3.87,3.87,0,0,0-1.34.74,3.4,3.4,0,0,0-.86,1.14,3.16,3.16,0,0,0-.3,1.35,2.73,2.73,0,0,0,.3,1.29,2.23,2.23,0,0,0,.88.87,2.73,2.73,0,0,0,1.29.31,5.32,5.32,0,0,0,.69,0,3.45,3.45,0,0,0,.72-.18l.2-1.5H97.25l.15-1.06h2.7l-.51,3.49a5.57,5.57,0,0,1-1.17.37A7.2,7.2,0,0,1,97,32.4a5.1,5.1,0,0,1-1.65-.26,3.63,3.63,0,0,1-1.25-.75,3.3,3.3,0,0,1-.8-1.17A3.92,3.92,0,0,1,93,28.75a4.25,4.25,0,0,1,.26-1.49A4.43,4.43,0,0,1,94,25.92a4.61,4.61,0,0,1,1.17-1,6,6,0,0,1,1.57-.66,8,8,0,0,1,2-.23,9.53,9.53,0,0,1,1.85.19Z"/><path d="M105.28,31.18l-.17,1.11h-4.87l1.15-8.18h1.38l-1,7.07Z"/><path d="M112.58,27.56A5.45,5.45,0,0,1,112,30a4.2,4.2,0,0,1-1.55,1.73,4,4,0,0,1-2.18.63,3.52,3.52,0,0,1-1.79-.47,3.18,3.18,0,0,1-1.23-1.29,3.8,3.8,0,0,1-.44-1.85,5.13,5.13,0,0,1,.32-1.82,5.19,5.19,0,0,1,.92-1.56,4.17,4.17,0,0,1,1.4-1,4,4,0,0,1,1.71-.37,3.48,3.48,0,0,1,1.77.45,3.09,3.09,0,0,1,1.21,1.27A4,4,0,0,1,112.58,27.56Zm-1.42,0a2.71,2.71,0,0,0-.25-1.2,1.87,1.87,0,0,0-.71-.81,2,2,0,0,0-1.08-.29,2.42,2.42,0,0,0-1.42.47,3.39,3.39,0,0,0-1,1.33,4.12,4.12,0,0,0-.41,1.81,2.72,2.72,0,0,0,.26,1.24,1.87,1.87,0,0,0,.72.82,2.06,2.06,0,0,0,1.09.29,2.33,2.33,0,0,0,1.42-.49,3.18,3.18,0,0,0,1-1.33A4.4,4.4,0,0,0,111.16,27.52Z"/><path d="M117.22,25.73a3.21,3.21,0,0,0-.83-.41,3,3,0,0,0-.87-.14,1.44,1.44,0,0,0-1,.3,1,1,0,0,0-.36.78.8.8,0,0,0,.11.4,1.88,1.88,0,0,0,.33.4,6.85,6.85,0,0,0,.7.54l.61.45a4.07,4.07,0,0,1,.56.54,2.81,2.81,0,0,1,.41.66,2.15,2.15,0,0,1,.16.83,2.19,2.19,0,0,1-.33,1.18,2.15,2.15,0,0,1-.9.84,2.92,2.92,0,0,1-1.35.3,4.42,4.42,0,0,1-2.34-.67l.2-1.31a4.68,4.68,0,0,0,1.13.61,2.82,2.82,0,0,0,1,.19,1.45,1.45,0,0,0,.59-.12,1,1,0,0,0,.45-.34.85.85,0,0,0,.16-.52,1,1,0,0,0-.1-.45,1.67,1.67,0,0,0-.29-.38,2.33,2.33,0,0,0-.4-.36l-.48-.36a6.37,6.37,0,0,1-1-.82,2.57,2.57,0,0,1-.46-.7,2,2,0,0,1-.17-.83,2.08,2.08,0,0,1,.36-1.19,2.43,2.43,0,0,1,1-.84,3.11,3.11,0,0,1,1.39-.31,3.72,3.72,0,0,1,1,.13,4.09,4.09,0,0,1,.91.34Z"/><path d="M122.09,25.73a3,3,0,0,0-1.7-.55,1.44,1.44,0,0,0-1,.3,1,1,0,0,0-.36.78.8.8,0,0,0,.11.4,2.24,2.24,0,0,0,.33.4,6.85,6.85,0,0,0,.7.54c.2.14.41.29.61.45a3.58,3.58,0,0,1,.56.54,2.81,2.81,0,0,1,.41.66,2,2,0,0,1,.16.83,2.27,2.27,0,0,1-.32,1.18,2.24,2.24,0,0,1-.91.84,2.92,2.92,0,0,1-1.35.3,4.42,4.42,0,0,1-2.34-.67l.2-1.31a4.87,4.87,0,0,0,1.13.61,2.87,2.87,0,0,0,1,.19,1.48,1.48,0,0,0,.59-.12,1.07,1.07,0,0,0,.44-.34.85.85,0,0,0,.17-.52,1,1,0,0,0-.11-.45,1.61,1.61,0,0,0-.28-.38,2.86,2.86,0,0,0-.41-.36l-.48-.36a6.37,6.37,0,0,1-1-.82,2.82,2.82,0,0,1-.46-.7,2,2,0,0,1-.17-.83,2.08,2.08,0,0,1,.36-1.19,2.43,2.43,0,0,1,1-.84,3.11,3.11,0,0,1,1.39-.31,3.72,3.72,0,0,1,1,.13,3.91,3.91,0,0,1,.91.34Z"/><path d="M128,24.11l-3,4.39-.53,3.79H123.1l.54-3.79-1.84-4.39h1.41l1.25,3.07,2-3.07Z"/><path d="M135.56,25.38a4.79,4.79,0,0,0-.55-.09,5.49,5.49,0,0,0-.68,0,4.89,4.89,0,0,0-1.63.25,3.59,3.59,0,0,0-1.25.72,3.36,3.36,0,0,0-.81,1.17,3.47,3.47,0,0,0-.29,1.42,2.73,2.73,0,0,0,.27,1.24,2,2,0,0,0,.78.81,2.37,2.37,0,0,0,1.18.29,3.75,3.75,0,0,0,1.29-.26,6.9,6.9,0,0,0,1.4-.72l-.22,1.55a5.81,5.81,0,0,1-2.62.68,3.72,3.72,0,0,1-1.84-.45,3.16,3.16,0,0,1-1.25-1.26,3.82,3.82,0,0,1-.45-1.86,4.66,4.66,0,0,1,.69-2.51,4.52,4.52,0,0,1,1.95-1.71,6.35,6.35,0,0,1,2.85-.61,7.27,7.27,0,0,1,.75,0l.68.09Z"/><path d="M142.82,27.56a5.45,5.45,0,0,1-.56,2.48,4.2,4.2,0,0,1-1.55,1.73,4,4,0,0,1-2.18.63,3.52,3.52,0,0,1-1.79-.47,3.28,3.28,0,0,1-1.24-1.29,3.91,3.91,0,0,1-.43-1.85,5.13,5.13,0,0,1,.32-1.82,5.19,5.19,0,0,1,.92-1.56,4.17,4.17,0,0,1,1.4-1,4,4,0,0,1,1.71-.37,3.48,3.48,0,0,1,1.77.45,3.09,3.09,0,0,1,1.21,1.27A4,4,0,0,1,142.82,27.56Zm-1.42,0a2.71,2.71,0,0,0-.25-1.2,1.87,1.87,0,0,0-.71-.81,2.05,2.05,0,0,0-1.08-.29,2.42,2.42,0,0,0-1.42.47A3.5,3.5,0,0,0,136.88,27a4.26,4.26,0,0,0-.4,1.81,2.72,2.72,0,0,0,.26,1.24,1.87,1.87,0,0,0,.72.82,2.06,2.06,0,0,0,1.09.29,2.33,2.33,0,0,0,1.42-.49,3.26,3.26,0,0,0,1-1.33A4.4,4.4,0,0,0,141.4,27.52Z"/><path d="M148.33,32.29H147l-.39-2.22H144l-.95,2.22h-1.47L145.41,24h1.4Zm-1.89-3.22-.54-3.48h0l-1.41,3.48Z"/><path d="M154,24.11l-.17,1.17h-2.46l-1,7H149l1-7H147.5l.17-1.17Z"/><path d="M155.58,24.11l-1.15,8.18H153l1.15-8.18Z"/><path d="M163.47,24.11l-1.14,8.18h-1.08l-3.75-5.78h0l-.8,5.78h-1.35l1.15-8.18h1.09l3.74,5.71h0l.79-5.71Z"/><path d="M170.59,25.44a8.54,8.54,0,0,0-1.77-.22,5.46,5.46,0,0,0-1.7.26,3.78,3.78,0,0,0-1.34.74,3.4,3.4,0,0,0-.86,1.14,3.16,3.16,0,0,0-.3,1.35,2.73,2.73,0,0,0,.3,1.29,2.21,2.21,0,0,0,.87.87,2.77,2.77,0,0,0,1.3.31,5.32,5.32,0,0,0,.69,0,3.45,3.45,0,0,0,.72-.18l.2-1.5h-1.31l.15-1.06h2.7l-.51,3.49a6,6,0,0,1-1.17.37,7.2,7.2,0,0,1-1.42.14,5.1,5.1,0,0,1-1.65-.26,3.63,3.63,0,0,1-1.25-.75,3.3,3.3,0,0,1-.8-1.17,3.93,3.93,0,0,1-.28-1.47,4.49,4.49,0,0,1,.26-1.49,4.69,4.69,0,0,1,.76-1.34,4.61,4.61,0,0,1,1.17-1,5.82,5.82,0,0,1,1.56-.66,8.12,8.12,0,0,1,2-.23,9.6,9.6,0,0,1,1.85.19Z"/><path d="M10.49,43.18l-.17,1.11H5.45l1.14-8.18H8L7,43.18Z"/><path d="M16.1,36.11l-.17,1.15H12.62l-.32,2.28h2.93l-.17,1.15H12.13l-.34,2.45h4.15l-.16,1.15H10.25l1.16-8.18Z"/><path d="M24,36.11l-1.14,8.18H21.78L18,38.51h0l-.8,5.78H15.88L17,36.11h1.09l3.74,5.71h0l.8-5.71Z"/><path d="M31.12,37.44a8.54,8.54,0,0,0-1.77-.22,5.46,5.46,0,0,0-1.7.26,3.87,3.87,0,0,0-1.34.74,3.4,3.4,0,0,0-.86,1.14,3.16,3.16,0,0,0-.3,1.35,2.73,2.73,0,0,0,.3,1.29,2.23,2.23,0,0,0,.88.87,2.73,2.73,0,0,0,1.29.31,5.32,5.32,0,0,0,.69,0A3.45,3.45,0,0,0,29,43l.2-1.5H27.92l.15-1.06h2.7l-.51,3.49a5.57,5.57,0,0,1-1.17.37,7.2,7.2,0,0,1-1.42.14A5.1,5.1,0,0,1,26,44.14a3.63,3.63,0,0,1-1.25-.75,3.3,3.3,0,0,1-.8-1.17,3.92,3.92,0,0,1-.27-1.47A4.25,4.25,0,0,1,24,39.26a4.43,4.43,0,0,1,.75-1.34,4.61,4.61,0,0,1,1.17-1,5.89,5.89,0,0,1,1.57-.66,8,8,0,0,1,2-.23,9.53,9.53,0,0,1,1.85.19Z"/><path d="M37.44,36.11l-.17,1.17H34.81l-1,7h-1.4l1-7H31l.17-1.17Z"/><path d="M44.78,36.11l-1.15,8.18h-1.4l.49-3.49H38.41l-.49,3.49h-1.4l1.14-8.18h1.4l-.47,3.41H42.9l.48-3.41Z"/><path d="M45.69,43.59a.81.81,0,0,1-.24.59.82.82,0,0,1-.59.25.84.84,0,0,1-.41-.11.8.8,0,0,1-.42-.73.88.88,0,0,1,.11-.42.92.92,0,0,1,.31-.31.86.86,0,0,1,1,.14A.82.82,0,0,1,45.69,43.59Zm.67-4a.84.84,0,0,1-.83.84.78.78,0,0,1-.42-.11.89.89,0,0,1-.31-.3.79.79,0,0,1-.11-.43.78.78,0,0,1,.25-.59.81.81,0,0,1,.59-.24.84.84,0,0,1,.83.83Z"/><path d="M53,38.06a3,3,0,0,1-.24,1.13A7.59,7.59,0,0,1,52,40.58c-.36.54-1,1.34-1.81,2.4H52.8l-.19,1.31H47.76a.35.35,0,0,0,.05-.12.33.33,0,0,1,.06-.12c1-1.24,1.74-2.24,2.29-3a14.94,14.94,0,0,0,1.15-1.8,2.62,2.62,0,0,0,.34-1.08.88.88,0,0,0-.28-.67,1.08,1.08,0,0,0-.75-.25,2.16,2.16,0,0,0-.79.17,6,6,0,0,0-1,.55l.2-1.38a3.24,3.24,0,0,1,.89-.45,3.14,3.14,0,0,1,.94-.14,2.32,2.32,0,0,1,1.1.26,1.84,1.84,0,0,1,.75.74A2.22,2.22,0,0,1,53,38.06Z"/><path d="M58.83,39a8.28,8.28,0,0,1-.25,2,6.61,6.61,0,0,1-.68,1.79,3.33,3.33,0,0,1-1,1.16,2.21,2.21,0,0,1-1.28.41A1.9,1.9,0,0,1,54,43.63a3.67,3.67,0,0,1-.57-2.22,8.26,8.26,0,0,1,.16-1.6A8.53,8.53,0,0,1,54,38.26a4.79,4.79,0,0,1,.68-1.21,3.06,3.06,0,0,1,.88-.77,2.12,2.12,0,0,1,1.1-.28,2,2,0,0,1,1.16.35,2.15,2.15,0,0,1,.74,1A4.77,4.77,0,0,1,58.83,39Zm-1.36-.3a2.25,2.25,0,0,0-.23-1.13.74.74,0,0,0-.64-.37.9.9,0,0,0-.67.39,3.41,3.41,0,0,0-.58,1A8.39,8.39,0,0,0,55,40.1a7.76,7.76,0,0,0-.15,1.49A2.52,2.52,0,0,0,55,42.78a.69.69,0,0,0,.63.4c.29,0,.58-.22.85-.64a6.32,6.32,0,0,0,.69-1.76A8.38,8.38,0,0,0,57.47,38.72Z"/><path d="M64,39a8.28,8.28,0,0,1-.25,2,6.61,6.61,0,0,1-.68,1.79A3.43,3.43,0,0,1,62,44a2.21,2.21,0,0,1-1.28.41,1.9,1.9,0,0,1-1.62-.77,3.67,3.67,0,0,1-.57-2.22,8.26,8.26,0,0,1,.16-1.6,7.19,7.19,0,0,1,.45-1.55,5.1,5.1,0,0,1,.67-1.21,3.34,3.34,0,0,1,.88-.77,2.17,2.17,0,0,1,1.1-.28,1.94,1.94,0,0,1,1.16.35,2.11,2.11,0,0,1,.75,1A4.77,4.77,0,0,1,64,39Zm-1.36-.3a2.13,2.13,0,0,0-.24-1.13.71.71,0,0,0-.63-.37.92.92,0,0,0-.68.39,3.63,3.63,0,0,0-.58,1,8.39,8.39,0,0,0-.39,1.44A7.76,7.76,0,0,0,60,41.59a2.67,2.67,0,0,0,.21,1.19.71.71,0,0,0,.64.4c.29,0,.58-.22.85-.64a6.32,6.32,0,0,0,.69-1.76A8.89,8.89,0,0,0,62.62,38.72Z"/><path d="M70.35,37.38a4.53,4.53,0,0,0-.54-.09,5.49,5.49,0,0,0-.68,0,4.85,4.85,0,0,0-1.63.25,3.51,3.51,0,0,0-1.25.72,3.23,3.23,0,0,0-.81,1.17,3.48,3.48,0,0,0-.3,1.42,2.73,2.73,0,0,0,.28,1.24,1.91,1.91,0,0,0,.78.81,2.34,2.34,0,0,0,1.18.29,3.75,3.75,0,0,0,1.29-.26,7.17,7.17,0,0,0,1.4-.72l-.22,1.55a5.85,5.85,0,0,1-2.63.68A3.7,3.7,0,0,1,65.39,44a3.1,3.1,0,0,1-1.25-1.26,3.82,3.82,0,0,1-.45-1.86,4.66,4.66,0,0,1,.69-2.51,4.55,4.55,0,0,1,1.94-1.71A6.41,6.41,0,0,1,69.17,36a7.32,7.32,0,0,1,.76,0l.67.09Z"/><path d="M79.17,44.29H77.81l-.1-5.91h0L74.5,44.29h-.37l-1.41-6h0l-1.94,6H69.37L72,36.11h1.39l1.29,5.36,2.85-5.36H79Z"/><path d="M93.87,36.11l-4,8.26h-.55l-1.5-5.63-2.74,5.63h-.56l-1.81-8.26h1.37l1.14,5.42h0l2.6-5.42h.58l1.48,5.48h0l2.5-5.48Z"/><path d="M98.57,36.11l-.17,1.15H95.09l-.32,2.28H97.7l-.17,1.15H94.6l-.33,2.45h4.15l-.17,1.15H92.72l1.16-8.18Z"/><path d="M100.9,36.11l-1.15,8.18h-1.4l1.15-8.18Z"/><path d="M108,37.44a8.7,8.7,0,0,0-1.77-.22,5.48,5.48,0,0,0-1.71.26,4,4,0,0,0-1.34.74,3.37,3.37,0,0,0-.85,1.14,3,3,0,0,0-.31,1.35,2.73,2.73,0,0,0,.31,1.29,2.14,2.14,0,0,0,.87.87,2.74,2.74,0,0,0,1.3.31,5.32,5.32,0,0,0,.69,0,3.22,3.22,0,0,0,.71-.18l.21-1.5h-1.31L105,40.4h2.7l-.5,3.49a6,6,0,0,1-1.17.37,7.3,7.3,0,0,1-1.43.14,5,5,0,0,1-1.64-.26,3.77,3.77,0,0,1-1.26-.75,3.27,3.27,0,0,1-.79-1.17,3.74,3.74,0,0,1-.28-1.47,4.49,4.49,0,0,1,.26-1.49,4.69,4.69,0,0,1,.76-1.34,4.61,4.61,0,0,1,1.17-1,5.82,5.82,0,0,1,1.56-.66,8.06,8.06,0,0,1,2-.23,9.6,9.6,0,0,1,1.85.19Z"/><path d="M116.11,36.11,115,44.29h-1.4l.5-3.49h-4.32l-.49,3.49h-1.4L109,36.11h1.39l-.47,3.41h4.31l.48-3.41Z"/><path d="M122.37,36.11l-.17,1.17h-2.46l-1,7h-1.4l1-7h-2.43l.17-1.17Z"/><path d="M127.48,36.05l-1.22,8.24h-1.35l1.23-8.24Z"/><path d="M134.24,38a2,2,0,0,1-.38,1.19,2.39,2.39,0,0,1-1.07.81,1.78,1.78,0,0,1,1.12,1.78,2.49,2.49,0,0,1-1.36,2.23,2.91,2.91,0,0,1-1.4.35,2.71,2.71,0,0,1-1.25-.29,2,2,0,0,1-.85-.81,2.26,2.26,0,0,1-.3-1.17,2.37,2.37,0,0,1,.2-1,2.19,2.19,0,0,1,.59-.79,2.39,2.39,0,0,1,.91-.47,1.72,1.72,0,0,1-.87-1.58,2.15,2.15,0,0,1,.33-1.14,2.37,2.37,0,0,1,.9-.85A2.49,2.49,0,0,1,132,36a2.57,2.57,0,0,1,1.16.26A1.84,1.84,0,0,1,134,37,2.05,2.05,0,0,1,134.24,38Zm-1.68,3.68a1.07,1.07,0,0,0-.3-.8,1.09,1.09,0,0,0-.81-.3,1.18,1.18,0,0,0-.66.19,1.37,1.37,0,0,0-.5.54,1.45,1.45,0,0,0-.19.73,1.08,1.08,0,0,0,.3.79,1,1,0,0,0,.78.31,1.32,1.32,0,0,0,.69-.2,1.52,1.52,0,0,0,.51-.53A1.55,1.55,0,0,0,132.56,41.72Zm.32-3.59a.87.87,0,0,0-.25-.66.89.89,0,0,0-.63-.25,1,1,0,0,0-.56.18,1.17,1.17,0,0,0-.41.47,1.52,1.52,0,0,0-.14.63.83.83,0,0,0,.89.89,1,1,0,0,0,.56-.17,1.23,1.23,0,0,0,.4-.47A1.34,1.34,0,0,0,132.88,38.13Z"/><path d="M139.53,39a8.28,8.28,0,0,1-.25,2,6.61,6.61,0,0,1-.68,1.79,3.54,3.54,0,0,1-1,1.16,2.21,2.21,0,0,1-1.28.41,1.9,1.9,0,0,1-1.62-.77,3.67,3.67,0,0,1-.58-2.22,8.3,8.3,0,0,1,.17-1.6,7.19,7.19,0,0,1,.45-1.55,5.1,5.1,0,0,1,.67-1.21,3.19,3.19,0,0,1,.88-.77,2.17,2.17,0,0,1,1.1-.28,1.94,1.94,0,0,1,1.16.35,2.11,2.11,0,0,1,.75,1A4.77,4.77,0,0,1,139.53,39Zm-1.36-.3a2.13,2.13,0,0,0-.24-1.13.71.71,0,0,0-.63-.37.92.92,0,0,0-.68.39,3.63,3.63,0,0,0-.58,1,8.39,8.39,0,0,0-.39,1.44,7.76,7.76,0,0,0-.15,1.49,2.67,2.67,0,0,0,.21,1.19.71.71,0,0,0,.64.4c.29,0,.58-.22.85-.64a6.32,6.32,0,0,0,.69-1.76A8.89,8.89,0,0,0,138.17,38.72Z"/><path d="M148.88,37.44a8.71,8.71,0,0,0-1.78-.22,5.46,5.46,0,0,0-1.7.26,3.87,3.87,0,0,0-1.34.74,3.4,3.4,0,0,0-.86,1.14,3.16,3.16,0,0,0-.3,1.35,2.73,2.73,0,0,0,.3,1.29,2.23,2.23,0,0,0,.88.87,2.73,2.73,0,0,0,1.29.31,5.32,5.32,0,0,0,.69,0,3.45,3.45,0,0,0,.72-.18l.2-1.5h-1.31l.15-1.06h2.7L148,43.89a5.66,5.66,0,0,1-1.16.37,7.38,7.38,0,0,1-1.43.14,5,5,0,0,1-1.64-.26,3.58,3.58,0,0,1-1.26-.75,3.3,3.3,0,0,1-.8-1.17,3.92,3.92,0,0,1-.27-1.47,4.25,4.25,0,0,1,.26-1.49,4.43,4.43,0,0,1,.75-1.34,4.61,4.61,0,0,1,1.17-1,6,6,0,0,1,1.57-.66,8,8,0,0,1,2-.23,9.53,9.53,0,0,1,1.85.19Z"/><path d="M155,44.29h-1.5l-.87-1.81a11.37,11.37,0,0,0-.55-1,2.42,2.42,0,0,0-.32-.4.8.8,0,0,0-.35-.19,1.66,1.66,0,0,0-.5-.06h-.41l-.48,3.48h-1.4l1.15-8.18h2.08a4.12,4.12,0,0,1,1.3.18,2.47,2.47,0,0,1,.86.5,1.84,1.84,0,0,1,.47.73,2.7,2.7,0,0,1,.14.85,2,2,0,0,1-.48,1.33,2.3,2.3,0,0,1-1.32.76v0a1.3,1.3,0,0,1,.43.38,2.65,2.65,0,0,1,.32.55Zm-1.83-5.92a1,1,0,0,0-.37-.82,1.69,1.69,0,0,0-1.06-.29h-.73l-.34,2.45h.7a2.57,2.57,0,0,0,1-.17,1.34,1.34,0,0,0,.61-.47A1.18,1.18,0,0,0,153.21,38.37Z"/><path d="M160.67,44.29h-1.35l-.39-2.22h-2.55l-.95,2.22H154L157.75,36h1.4Zm-1.89-3.22-.54-3.48h0l-1.41,3.48Z"/><path d="M170,44.29H168.6l-.1-5.91h0l-3.18,5.91h-.37l-1.42-6h0l-1.94,6h-1.39l2.68-8.18h1.38l1.3,5.36,2.85-5.36h1.43Z"/><path d="M47.09,48.11l-1.16,8.18h-1.4L45,52.8H40.71l-.49,3.49h-1.4L40,48.11h1.39l-.46,3.41h4.3l.48-3.41Z"/><path d="M52.6,56.29H51.25l-.39-2.22H48.31l-1,2.22H45.9L49.68,48h1.4Zm-1.89-3.22-.54-3.48h0l-1.41,3.48Z"/><path d="M60.8,48.11l-1.14,8.18H58.58l-3.75-5.78h0L54,56.29H52.68l1.15-8.18h1.08l3.74,5.71h0l.79-5.71Z"/><path d="M63.47,48.11a5.82,5.82,0,0,1,2,.31,3.94,3.94,0,0,1,1.42.86,3.41,3.41,0,0,1,.83,1.28A4.36,4.36,0,0,1,68,52.15a4.58,4.58,0,0,1-.5,2.15,3.61,3.61,0,0,1-1.43,1.47,4.34,4.34,0,0,1-2.16.52H60.56l1.15-8.18Zm3.09,4a2.77,2.77,0,0,0-.26-1.25,2.74,2.74,0,0,0-.68-.89,2.93,2.93,0,0,0-1-.54,3.55,3.55,0,0,0-1.12-.18h-.58l-.82,5.88h1.27a3.3,3.3,0,0,0,2.37-.77A3,3,0,0,0,66.56,52.12Z"/><path d="M77.15,56.29H75.79l-.11-5.91h0l-3.18,5.91H72.1l-1.41-6h0l-2,6H67.34L70,48.11H71.4l1.29,5.36,2.86-5.36H77Z"/><path d="M83.34,56.29H82l-.39-2.22H79.05l-1,2.22H76.63L80.42,48h1.4Zm-1.89-3.22-.54-3.48h0l-1.41,3.48Z"/><path d="M86.33,48.11a5.72,5.72,0,0,1,2,.31,3.86,3.86,0,0,1,1.42.86,3.56,3.56,0,0,1,.84,1.28,4.58,4.58,0,0,1,.27,1.59,4.46,4.46,0,0,1-.5,2.15,3.55,3.55,0,0,1-1.43,1.47,4.32,4.32,0,0,1-2.16.52H83.42l1.14-8.18Zm3.09,4a2.74,2.74,0,0,0-1.92-2.68,3.59,3.59,0,0,0-1.12-.18h-.59L85,55.14h1.28a3.33,3.33,0,0,0,2.37-.77A3,3,0,0,0,89.42,52.12Z"/><path d="M96.64,48.11l-.17,1.15H93.16l-.33,2.28h2.93l-.17,1.15H92.67l-.34,2.45h4.15l-.16,1.15H90.78l1.16-8.18Z"/><path d="M101.44,53l-.2,1.3H98l.18-1.3Z"/><path d="M106.16,48.11a5.82,5.82,0,0,1,2,.31,3.9,3.9,0,0,1,1.41.86,3.44,3.44,0,0,1,.84,1.28,4.58,4.58,0,0,1,.27,1.59,4.46,4.46,0,0,1-.5,2.15,3.55,3.55,0,0,1-1.43,1.47,4.32,4.32,0,0,1-2.16.52h-3.35l1.15-8.18Zm3.09,4a2.74,2.74,0,0,0-1.92-2.68,3.59,3.59,0,0,0-1.12-.18h-.59l-.81,5.88h1.27a3.33,3.33,0,0,0,2.37-.77A3,3,0,0,0,109.25,52.12Z"/><path d="M116.27,56.29h-1.35l-.39-2.22H112l-1,2.22h-1.46L113.35,48h1.4Zm-1.89-3.22-.54-3.48h0l-1.41,3.48Z"/><path d="M121.91,48.11l-.17,1.17h-2.46l-1,7h-1.4l1-7h-2.43l.17-1.17Z"/><path d="M125.91,56.29h-1.36l-.38-2.22h-2.56l-1,2.22H119.2L123,48h1.4ZM124,53.07l-.54-3.48h0L122,53.07Z"/><path d="M137.4,56.29H136l-.1-5.91h0l-3.19,5.91h-.37l-1.41-6h0l-1.94,6H127.6l2.67-8.18h1.39L133,53.47l2.85-5.36h1.43Z"/><path d="M143.6,56.29h-1.35l-.39-2.22h-2.55l-.95,2.22h-1.47L140.68,48h1.4Zm-1.89-3.22-.54-3.48h0l-1.41,3.48Z"/><path d="M149.11,48.11l-3,4.39-.53,3.79h-1.38l.53-3.79-1.83-4.39h1.41l1.24,3.07,2-3.07Z"/><path d="M155.3,48.11l-4,8.26h-.62l-1.64-8.26h1.32l1,5.3h0l2.49-5.3Z"/><path d="M159.62,56.29h-1.35l-.39-2.22h-2.55l-1,2.22h-1.46L156.7,48h1.4Zm-1.89-3.22-.54-3.48h0l-1.41,3.48Z"/><path d="M166.08,56.29h-1.5l-.87-1.81c-.25-.5-.44-.84-.55-1a2.42,2.42,0,0,0-.32-.4.86.86,0,0,0-.35-.19,1.7,1.7,0,0,0-.5-.06h-.41l-.48,3.48h-1.4l1.15-8.18h2.08a4,4,0,0,1,1.29.18,2.38,2.38,0,0,1,.86.5,1.73,1.73,0,0,1,.47.73,2.45,2.45,0,0,1,.15.85,2,2,0,0,1-.49,1.33,2.3,2.3,0,0,1-1.32.76v0a1.24,1.24,0,0,1,.44.38,2.65,2.65,0,0,1,.32.55Zm-1.83-5.92a1,1,0,0,0-.37-.82,1.71,1.71,0,0,0-1.06-.29h-.74l-.33,2.45h.7a2.61,2.61,0,0,0,1-.17,1.34,1.34,0,0,0,.61-.47A1.18,1.18,0,0,0,164.25,50.37Z"/><path d="M171.6,48.11l-3,4.39-.53,3.79h-1.38l.54-3.79-1.84-4.39h1.41l1.25,3.07,2-3.07Z"/></g></g></svg>