<svg xmlns="http://www.w3.org/2000/svg" viewBox="0 0 184.57 56.37"><title>Resurs 8</title><g id="Lager_2" data-name="Lager 2"><g id="Lager_1-2" data-name="Lager 1"><path d="M97.77,8.29H96.41L96.3,2.38h0L93.1,8.29h-.38l-1.41-6h0l-2,6H88L90.63.11H92l1.29,5.36L96.17.11H97.6Z"/><path d="M106,3.56A5.45,5.45,0,0,1,105.4,6a4.18,4.18,0,0,1-1.54,1.73,4,4,0,0,1-2.18.63,3.49,3.49,0,0,1-1.79-.47,3.14,3.14,0,0,1-1.24-1.29,3.8,3.8,0,0,1-.44-1.85A5.37,5.37,0,0,1,98.53,3a5,5,0,0,1,.93-1.56A4.09,4.09,0,0,1,102.56,0a3.48,3.48,0,0,1,1.77.45,3,3,0,0,1,1.21,1.27A4,4,0,0,1,106,3.56Zm-1.42,0a2.71,2.71,0,0,0-.25-1.2,1.81,1.81,0,0,0-.71-.81,2,2,0,0,0-1.08-.29,2.42,2.42,0,0,0-1.42.47A3.39,3.39,0,0,0,100,3a4.27,4.27,0,0,0-.41,1.81,2.86,2.86,0,0,0,.26,1.24,1.87,1.87,0,0,0,.72.82,2.09,2.09,0,0,0,1.09.29,2.31,2.31,0,0,0,1.42-.49,3.28,3.28,0,0,0,1-1.33A4.56,4.56,0,0,0,104.54,3.52Z"/><path d="M108.73.11a5.82,5.82,0,0,1,2,.31,3.9,3.9,0,0,1,1.41.86A3.44,3.44,0,0,1,113,2.56a4.58,4.58,0,0,1,.27,1.59,4.46,4.46,0,0,1-.5,2.15,3.55,3.55,0,0,1-1.43,1.47,4.32,4.32,0,0,1-2.16.52h-3.35L107,.11Zm3.09,4a2.91,2.91,0,0,0-.26-1.25,2.91,2.91,0,0,0-.69-.89,2.88,2.88,0,0,0-1-.54,3.59,3.59,0,0,0-1.12-.18h-.59l-.81,5.88h1.27A3.33,3.33,0,0,0,111,6.37,3,3,0,0,0,111.82,4.12Z"/><path d="M119,.11l-.17,1.15h-3.31l-.32,2.28h2.93L118,4.69h-2.93l-.34,2.45h4.15l-.16,1.15h-5.54L114.34.11Z"/><path d="M123.85,7.18l-.17,1.11h-4.87L120,.11h1.38l-1,7.07Z"/><path d="M124.79,7.59a.85.85,0,0,1-.84.84.84.84,0,0,1-.41-.11.79.79,0,0,1-.3-.3.8.8,0,0,1-.12-.43.88.88,0,0,1,.11-.42.92.92,0,0,1,.31-.31.83.83,0,0,1,.41-.1.81.81,0,0,1,.59.24A.83.83,0,0,1,124.79,7.59Zm.66-4a.84.84,0,0,1-.83.84.78.78,0,0,1-.42-.11.89.89,0,0,1-.31-.3.89.89,0,0,1-.11-.43A.78.78,0,0,1,124,3a.81.81,0,0,1,.59-.24.84.84,0,0,1,.83.83Z"/><path d="M133.38,4.63l-5.79,2.48V5.81L131.93,4l-4.34-1.76V1l5.79,2.49Z"/><path d="M139.26,4.63l-5.79,2.48V5.81L137.81,4l-4.34-1.76V1l5.79,2.49Z"/><path d="M150.34.11l-4,8.26h-.55l-1.5-5.63-2.74,5.63H141L139.2.11h1.36l1.15,5.42h0l2.6-5.42h.58l1.48,5.48h0L148.93.11Z"/><path d="M156.73,3.56A5.45,5.45,0,0,1,156.18,6a4.2,4.2,0,0,1-1.55,1.73,4,4,0,0,1-2.18.63,3.49,3.49,0,0,1-1.79-.47,3.21,3.21,0,0,1-1.24-1.29A3.92,3.92,0,0,1,149,4.79,5.14,5.14,0,0,1,149.31,3a4.8,4.8,0,0,1,.92-1.56,4.07,4.07,0,0,1,1.4-1A4,4,0,0,1,153.34,0a3.48,3.48,0,0,1,1.77.45,3,3,0,0,1,1.2,1.27A4,4,0,0,1,156.73,3.56Zm-1.41,0a2.86,2.86,0,0,0-.25-1.2,1.89,1.89,0,0,0-.72-.81,2,2,0,0,0-1.07-.29,2.39,2.39,0,0,0-1.42.47A3.4,3.4,0,0,0,150.8,3a4.27,4.27,0,0,0-.41,1.81,2.86,2.86,0,0,0,.26,1.24,1.89,1.89,0,0,0,.73.82,2,2,0,0,0,1.08.29,2.31,2.31,0,0,0,1.42-.49,3.28,3.28,0,0,0,1.05-1.33A4.4,4.4,0,0,0,155.32,3.52Z"/><path d="M164.37,3.56A5.45,5.45,0,0,1,163.81,6a4.2,4.2,0,0,1-1.55,1.73,4,4,0,0,1-2.18.63,3.52,3.52,0,0,1-1.79-.47,3.28,3.28,0,0,1-1.24-1.29,3.92,3.92,0,0,1-.44-1.85A5.14,5.14,0,0,1,156.94,3a5,5,0,0,1,.92-1.56,4.17,4.17,0,0,1,1.4-1A4,4,0,0,1,161,0a3.48,3.48,0,0,1,1.77.45,3,3,0,0,1,1.2,1.27A4,4,0,0,1,164.37,3.56Zm-1.42,0a2.86,2.86,0,0,0-.25-1.2,1.89,1.89,0,0,0-.72-.81,2,2,0,0,0-1.07-.29,2.39,2.39,0,0,0-1.42.47A3.4,3.4,0,0,0,158.43,3a4.26,4.26,0,0,0-.4,1.81,2.86,2.86,0,0,0,.25,1.24,2,2,0,0,0,.73.82,2,2,0,0,0,1.08.29,2.29,2.29,0,0,0,1.42-.49,3.28,3.28,0,0,0,1.05-1.33A4.4,4.4,0,0,0,163,3.52Z"/><path d="M167.13.11a5.82,5.82,0,0,1,2,.31,3.94,3.94,0,0,1,1.42.86,3.41,3.41,0,0,1,.83,1.28,4.36,4.36,0,0,1,.28,1.59,4.58,4.58,0,0,1-.5,2.15,3.61,3.61,0,0,1-1.43,1.47,4.34,4.34,0,0,1-2.16.52h-3.36L165.37.11Zm3.09,4A2.91,2.91,0,0,0,170,2.87a2.74,2.74,0,0,0-.68-.89,2.93,2.93,0,0,0-1-.54,3.55,3.55,0,0,0-1.12-.18h-.59l-.81,5.88h1.27a3.3,3.3,0,0,0,2.37-.77A3,3,0,0,0,170.22,4.12Z"/><path d="M177.57,4.63l-5.79,2.48V5.81L176.11,4l-4.33-1.76V1l5.79,2.49Z"/><path d="M183.45,4.63l-5.79,2.48V5.81L182,4l-4.33-1.76V1l5.79,2.49Z"/><path d="M126.54,13.38l-.54-.09a5.76,5.76,0,0,0-.69,0,4.89,4.89,0,0,0-1.63.25,3.46,3.46,0,0,0-1.24.72,3.39,3.39,0,0,0-.82,1.17,3.64,3.64,0,0,0-.29,1.42,2.73,2.73,0,0,0,.27,1.24,2,2,0,0,0,.78.81,2.37,2.37,0,0,0,1.18.29,3.75,3.75,0,0,0,1.29-.26,6.9,6.9,0,0,0,1.4-.72L126,19.72a5.81,5.81,0,0,1-2.62.68,3.68,3.68,0,0,1-1.83-.45,3.18,3.18,0,0,1-1.26-1.26,3.81,3.81,0,0,1-.44-1.86,4.75,4.75,0,0,1,.68-2.51,4.52,4.52,0,0,1,2-1.71,6.41,6.41,0,0,1,2.85-.61,7.27,7.27,0,0,1,.75,0l.68.09Z"/><path d="M133.8,15.56a5.32,5.32,0,0,1-.56,2.48,4.18,4.18,0,0,1-1.54,1.73,4,4,0,0,1-2.18.63,3.49,3.49,0,0,1-1.79-.47,3.14,3.14,0,0,1-1.24-1.29,3.92,3.92,0,0,1-.44-1.85,5.37,5.37,0,0,1,.32-1.82,5,5,0,0,1,.93-1.56,4.13,4.13,0,0,1,1.39-1A4,4,0,0,1,130.4,12a3.48,3.48,0,0,1,1.77.45,3,3,0,0,1,1.21,1.27A4,4,0,0,1,133.8,15.56Zm-1.42,0a2.71,2.71,0,0,0-.25-1.2,1.81,1.81,0,0,0-.71-.81,2,2,0,0,0-1.08-.29,2.37,2.37,0,0,0-1.41.47A3.32,3.32,0,0,0,127.87,15a4.27,4.27,0,0,0-.41,1.81,2.86,2.86,0,0,0,.26,1.24,1.83,1.83,0,0,0,.73.82,2,2,0,0,0,1.08.29,2.31,2.31,0,0,0,1.42-.49A3.28,3.28,0,0,0,132,17.36,4.56,4.56,0,0,0,132.38,15.52Z"/><path d="M140,20.29h-1.5l-.87-1.81c-.25-.5-.44-.84-.55-1a2,2,0,0,0-.33-.4.77.77,0,0,0-.34-.19,1.7,1.7,0,0,0-.5-.06h-.41l-.48,3.48h-1.4l1.15-8.18h2.08a4,4,0,0,1,1.29.18,2.38,2.38,0,0,1,.86.5,1.73,1.73,0,0,1,.47.73,2.45,2.45,0,0,1,.15.85,2,2,0,0,1-.49,1.33,2.3,2.3,0,0,1-1.32.76v.05a1.33,1.33,0,0,1,.44.38,3.18,3.18,0,0,1,.32.55Zm-1.84-5.92a1,1,0,0,0-.36-.82,1.73,1.73,0,0,0-1.07-.29H136l-.33,2.45h.7a2.61,2.61,0,0,0,1-.17,1.39,1.39,0,0,0,.61-.47A1.25,1.25,0,0,0,138.2,14.37Z"/><path d="M145.86,12.11l-.17,1.15h-3.31l-.32,2.28H145l-.17,1.15h-2.93l-.34,2.45h4.15l-.16,1.15H140l1.16-8.18Z"/><path d="M155.61,15.56a5.45,5.45,0,0,1-.55,2.48,4.2,4.2,0,0,1-1.55,1.73,4,4,0,0,1-2.18.63,3.49,3.49,0,0,1-1.79-.47,3.28,3.28,0,0,1-1.24-1.29,3.92,3.92,0,0,1-.44-1.85,5.14,5.14,0,0,1,.33-1.82,4.8,4.8,0,0,1,.92-1.56,4.17,4.17,0,0,1,1.4-1,4,4,0,0,1,1.71-.37,3.48,3.48,0,0,1,1.77.45,3,3,0,0,1,1.2,1.27A4,4,0,0,1,155.61,15.56Zm-1.41,0a2.86,2.86,0,0,0-.25-1.2,1.89,1.89,0,0,0-.72-.81,2,2,0,0,0-1.07-.29,2.39,2.39,0,0,0-1.42.47A3.4,3.4,0,0,0,149.68,15a4.27,4.27,0,0,0-.41,1.81,2.86,2.86,0,0,0,.26,1.24,1.89,1.89,0,0,0,.73.82,2,2,0,0,0,1.08.29,2.31,2.31,0,0,0,1.42-.49,3.28,3.28,0,0,0,1.05-1.33A4.4,4.4,0,0,0,154.2,15.52Z"/><path d="M160.9,12.11l-.15,1.15h-2.91l-.31,2.28h2.58L160,16.69h-2.6l-.51,3.6h-1.38l1.17-8.18Z"/><path d="M168,14.48a2.48,2.48,0,0,1-.35,1.3,2.44,2.44,0,0,1-1,.9,3.08,3.08,0,0,1-1.44.32h-1.17l-.46,3.29h-1.4l1.14-8.18h2a4.07,4.07,0,0,1,1,.12,2.54,2.54,0,0,1,.86.41,2.05,2.05,0,0,1,.6.73A2.53,2.53,0,0,1,168,14.48Zm-1.42,0a1.28,1.28,0,0,0-.18-.68,1.16,1.16,0,0,0-.53-.44,2.1,2.1,0,0,0-.84-.16h-.44l-.37,2.66H165a1.87,1.87,0,0,0,.85-.17,1.32,1.32,0,0,0,.55-.49A1.34,1.34,0,0,0,166.57,14.5Z"/><path d="M170.08,12.11l-1.16,8.18h-1.4l1.15-8.18Z"/><path d="M178,12.11l-1.14,8.18h-1.08L172,14.51h0l-.8,5.78h-1.34L171,12.11h1.08l3.74,5.71h0l.79-5.71Z"/><path d="M183.58,12.11l-.17,1.15h-3.32l-.32,2.28h2.93l-.17,1.15H179.6l-.33,2.45h4.15l-.17,1.15h-5.53l1.16-8.18Z"/><path d="M2.64,24.11a4,4,0,0,1,2.24.5,1.66,1.66,0,0,1,.76,1.49,1.82,1.82,0,0,1-.29,1,2.17,2.17,0,0,1-.93.74,2.45,2.45,0,0,1,1.25.76,1.94,1.94,0,0,1,.42,1.27,2,2,0,0,1-.93,1.77,4.62,4.62,0,0,1-2.61.63H0l1.16-8.18Zm-.3,7.07a3.82,3.82,0,0,0,1.74-.32,1.09,1.09,0,0,0,.6-1.05,1.13,1.13,0,0,0-.54-1,2.64,2.64,0,0,0-1.5-.36H1.93l-.41,2.73Zm-.25-3.85.2,0h.32a2.2,2.2,0,0,0,1.22-.29.91.91,0,0,0,.43-.84.9.9,0,0,0-.32-.72,1.33,1.33,0,0,0-.89-.26H2.38Z"/><path d="M12.3,32.29H10.8l-.88-1.81q-.37-.75-.54-1a2.42,2.42,0,0,0-.33-.4.83.83,0,0,0-.34-.19,1.75,1.75,0,0,0-.5-.06H7.8l-.48,3.48H5.92l1.14-8.18H9.14a4,4,0,0,1,1.3.18,2.47,2.47,0,0,1,.86.5,1.73,1.73,0,0,1,.47.73,2.45,2.45,0,0,1,.15.85,2,2,0,0,1-.49,1.33,2.3,2.3,0,0,1-1.32.76v.05a1.33,1.33,0,0,1,.44.38,3.18,3.18,0,0,1,.32.55Zm-1.84-5.92a1,1,0,0,0-.36-.82A1.73,1.73,0,0,0,9,25.26H8.3L8,27.71h.69a2.53,2.53,0,0,0,1-.17,1.29,1.29,0,0,0,.61-.47A1.18,1.18,0,0,0,10.46,26.37Z"/><path d="M19.68,27.56A5.32,5.32,0,0,1,19.12,30a4.18,4.18,0,0,1-1.54,1.73,4,4,0,0,1-2.18.63,3.49,3.49,0,0,1-1.79-.47,3.21,3.21,0,0,1-1.24-1.29,3.92,3.92,0,0,1-.44-1.85A5.37,5.37,0,0,1,12.25,27a5,5,0,0,1,.93-1.56,4.07,4.07,0,0,1,1.4-1,3.94,3.94,0,0,1,1.7-.37,3.54,3.54,0,0,1,1.78.45,3,3,0,0,1,1.2,1.27A4,4,0,0,1,19.68,27.56Zm-1.42,0a2.71,2.71,0,0,0-.25-1.2,1.81,1.81,0,0,0-.71-.81,2,2,0,0,0-1.08-.29,2.37,2.37,0,0,0-1.41.47A3.32,3.32,0,0,0,13.75,27a4.27,4.27,0,0,0-.41,1.81,2.86,2.86,0,0,0,.26,1.24,1.83,1.83,0,0,0,.73.82,2,2,0,0,0,1.08.29,2.31,2.31,0,0,0,1.42-.49,3.28,3.28,0,0,0,1.05-1.33A4.56,4.56,0,0,0,18.26,27.52Z"/><path d="M30.48,24.11l-4,8.26h-.55l-1.5-5.63-2.73,5.63h-.57l-1.81-8.26H20.7l1.14,5.42h0l2.61-5.42h.58l1.47,5.48h0l2.51-5.48Z"/><path d="M37.45,24.11l-1.13,8.18H35.23l-3.74-5.78h0l-.81,5.78H29.33l1.15-8.18h1.08l3.75,5.71h0l.79-5.71Z"/><path d="M44.36,32.29H43l-.39-2.22H40.07l-1,2.22H37.65L41.44,24h1.4Zm-1.89-3.22-.54-3.48h0l-1.41,3.48Z"/><path d="M52.56,24.11l-1.14,8.18H50.33l-3.74-5.78h0l-.8,5.78H44.43l1.15-8.18h1.09l3.74,5.71h0l.79-5.71Z"/><path d="M55.23,24.11a5.82,5.82,0,0,1,2,.31,3.82,3.82,0,0,1,1.41.86,3.32,3.32,0,0,1,.84,1.28,4.58,4.58,0,0,1,.28,1.59,4.46,4.46,0,0,1-.51,2.15,3.55,3.55,0,0,1-1.43,1.47,4.31,4.31,0,0,1-2.15.52H52.32l1.15-8.18Zm3.09,4a2.74,2.74,0,0,0-1.92-2.68,3.59,3.59,0,0,0-1.12-.18h-.59l-.81,5.88h1.27a3.33,3.33,0,0,0,2.37-.77A3,3,0,0,0,58.32,28.12Z"/><path d="M69.67,27.56A5.45,5.45,0,0,1,69.11,30a4.2,4.2,0,0,1-1.55,1.73,4,4,0,0,1-2.18.63,3.52,3.52,0,0,1-1.79-.47,3.28,3.28,0,0,1-1.24-1.29,3.91,3.91,0,0,1-.43-1.85A5.13,5.13,0,0,1,62.24,27a5.19,5.19,0,0,1,.92-1.56,4.17,4.17,0,0,1,1.4-1A4,4,0,0,1,66.27,24a3.48,3.48,0,0,1,1.77.45,3.09,3.09,0,0,1,1.21,1.27A4,4,0,0,1,69.67,27.56Zm-1.42,0a2.71,2.71,0,0,0-.25-1.2,1.87,1.87,0,0,0-.71-.81,2,2,0,0,0-1.08-.29,2.42,2.42,0,0,0-1.42.47A3.5,3.5,0,0,0,63.73,27a4.26,4.26,0,0,0-.4,1.81,2.72,2.72,0,0,0,.26,1.24,1.87,1.87,0,0,0,.72.82,2.06,2.06,0,0,0,1.09.29,2.33,2.33,0,0,0,1.42-.49,3.26,3.26,0,0,0,1-1.33A4.4,4.4,0,0,0,68.25,27.52Z"/><path d="M75.9,32.29H74.4l-.87-1.81q-.37-.75-.54-1a3.06,3.06,0,0,0-.33-.4.83.83,0,0,0-.34-.19,1.78,1.78,0,0,0-.51-.06H71.4l-.48,3.48h-1.4l1.15-8.18h2.08a4.08,4.08,0,0,1,1.3.18,2.47,2.47,0,0,1,.86.5,1.84,1.84,0,0,1,.47.73,2.45,2.45,0,0,1,.14.85A2,2,0,0,1,75,27.7a2.3,2.3,0,0,1-1.32.76v.05a1.33,1.33,0,0,1,.44.38,3.17,3.17,0,0,1,.31.55Zm-1.83-5.92a1,1,0,0,0-.37-.82,1.67,1.67,0,0,0-1.06-.29h-.73l-.34,2.45h.7a2.53,2.53,0,0,0,1-.17,1.34,1.34,0,0,0,.61-.47A1.18,1.18,0,0,0,74.07,26.37Z"/><path d="M81.53,32.29H80.18l-.39-2.22H77.24l-.95,2.22H74.82L78.61,24H80Zm-1.89-3.22-.54-3.48h0l-1.41,3.48Z"/><path d="M89.73,24.11l-1.14,8.18H87.51l-3.75-5.78h0L83,32.29H81.61l1.14-8.18h1.09l3.74,5.71h0l.79-5.71Z"/><path d="M96.85,25.44a8.54,8.54,0,0,0-1.77-.22,5.46,5.46,0,0,0-1.7.26,3.87,3.87,0,0,0-1.34.74,3.4,3.4,0,0,0-.86,1.14,3.16,3.16,0,0,0-.3,1.35,2.73,2.73,0,0,0,.3,1.29,2.23,2.23,0,0,0,.88.87,2.7,2.7,0,0,0,1.29.31,5.32,5.32,0,0,0,.69,0,3.45,3.45,0,0,0,.72-.18l.2-1.5H93.65l.15-1.06h2.7L96,31.89a5.57,5.57,0,0,1-1.17.37,7.2,7.2,0,0,1-1.42.14,5.1,5.1,0,0,1-1.65-.26,3.63,3.63,0,0,1-1.25-.75,3.3,3.3,0,0,1-.8-1.17,3.93,3.93,0,0,1-.28-1.47,4.26,4.26,0,0,1,.27-1.49,4.43,4.43,0,0,1,.75-1.34,4.61,4.61,0,0,1,1.17-1,5.82,5.82,0,0,1,1.56-.66,8.12,8.12,0,0,1,2-.23,9.53,9.53,0,0,1,1.85.19Z"/><path d="M102.49,24.11l-.17,1.15H99l-.32,2.28h2.93l-.17,1.15H98.52l-.33,2.45h4.15l-.17,1.15H96.64l1.16-8.18Z"/><path d="M103.44,31.59a.81.81,0,0,1-.24.59.82.82,0,0,1-.6.25.8.8,0,0,1-.4-.11.89.89,0,0,1-.31-.3.79.79,0,0,1-.11-.43.78.78,0,0,1,.11-.42.81.81,0,0,1,.3-.31.86.86,0,0,1,.41-.1.81.81,0,0,1,.6.24A.82.82,0,0,1,103.44,31.59Z"/><path d="M113.42,25.44a8.54,8.54,0,0,0-1.77-.22,5.46,5.46,0,0,0-1.7.26,3.87,3.87,0,0,0-1.34.74,3.4,3.4,0,0,0-.86,1.14,3.16,3.16,0,0,0-.3,1.35,2.73,2.73,0,0,0,.3,1.29,2.23,2.23,0,0,0,.88.87,2.7,2.7,0,0,0,1.29.31,5.32,5.32,0,0,0,.69,0,3.45,3.45,0,0,0,.72-.18l.2-1.5h-1.31l.15-1.06h2.7l-.51,3.49a5.77,5.77,0,0,1-1.17.37,7.2,7.2,0,0,1-1.42.14,5.1,5.1,0,0,1-1.65-.26,3.63,3.63,0,0,1-1.25-.75,3.3,3.3,0,0,1-.8-1.17,3.93,3.93,0,0,1-.28-1.47,4.26,4.26,0,0,1,.27-1.49,4.43,4.43,0,0,1,.75-1.34,4.61,4.61,0,0,1,1.17-1,5.82,5.82,0,0,1,1.56-.66,8.12,8.12,0,0,1,2-.23,9.53,9.53,0,0,1,1.85.19Z"/><path d="M118.25,31.18l-.17,1.11h-4.87l1.15-8.18h1.38l-1,7.07Z"/><path d="M125.55,27.56A5.45,5.45,0,0,1,125,30a4.2,4.2,0,0,1-1.55,1.73,4,4,0,0,1-2.18.63,3.52,3.52,0,0,1-1.79-.47,3.28,3.28,0,0,1-1.24-1.29,3.91,3.91,0,0,1-.43-1.85,5.13,5.13,0,0,1,.32-1.82,5.19,5.19,0,0,1,.92-1.56,4.17,4.17,0,0,1,1.4-1,4,4,0,0,1,1.71-.37,3.48,3.48,0,0,1,1.77.45,3.09,3.09,0,0,1,1.21,1.27A4,4,0,0,1,125.55,27.56Zm-1.42,0a2.71,2.71,0,0,0-.25-1.2,1.87,1.87,0,0,0-.71-.81,2.05,2.05,0,0,0-1.08-.29,2.42,2.42,0,0,0-1.42.47A3.5,3.5,0,0,0,119.61,27a4.26,4.26,0,0,0-.4,1.81,2.72,2.72,0,0,0,.26,1.24,1.87,1.87,0,0,0,.72.82,2.06,2.06,0,0,0,1.09.29,2.33,2.33,0,0,0,1.42-.49,3.26,3.26,0,0,0,1-1.33A4.4,4.4,0,0,0,124.13,27.52Z"/><path d="M130.19,25.73a3.38,3.38,0,0,0-.83-.41,3,3,0,0,0-.87-.14,1.44,1.44,0,0,0-1,.3,1,1,0,0,0-.36.78.8.8,0,0,0,.11.4,1.62,1.62,0,0,0,.33.4,6.85,6.85,0,0,0,.7.54l.61.45a4.07,4.07,0,0,1,.56.54,2.81,2.81,0,0,1,.41.66,2.15,2.15,0,0,1,.16.83,2.19,2.19,0,0,1-.33,1.18,2.15,2.15,0,0,1-.9.84,2.92,2.92,0,0,1-1.35.3,4.42,4.42,0,0,1-2.34-.67l.2-1.31a4.68,4.68,0,0,0,1.13.61,2.82,2.82,0,0,0,1,.19,1.45,1.45,0,0,0,.59-.12,1,1,0,0,0,.45-.34.85.85,0,0,0,.16-.52,1,1,0,0,0-.1-.45,1.67,1.67,0,0,0-.29-.38,2.33,2.33,0,0,0-.4-.36l-.48-.36a6.37,6.37,0,0,1-1-.82,2.57,2.57,0,0,1-.46-.7,2,2,0,0,1-.17-.83,2.08,2.08,0,0,1,.36-1.19,2.37,2.37,0,0,1,1-.84,3.11,3.11,0,0,1,1.39-.31,3.72,3.72,0,0,1,1,.13,4.09,4.09,0,0,1,.91.34Z"/><path d="M135.06,25.73a3,3,0,0,0-1.7-.55,1.44,1.44,0,0,0-1,.3,1,1,0,0,0-.36.78.8.8,0,0,0,.11.4,2.24,2.24,0,0,0,.33.4,6.85,6.85,0,0,0,.7.54c.2.14.41.29.61.45a3.58,3.58,0,0,1,.56.54,2.81,2.81,0,0,1,.41.66,2,2,0,0,1,.16.83,2.27,2.27,0,0,1-.32,1.18,2.24,2.24,0,0,1-.91.84,2.92,2.92,0,0,1-1.35.3,4.42,4.42,0,0,1-2.34-.67l.2-1.31a4.87,4.87,0,0,0,1.13.61,2.86,2.86,0,0,0,1,.19,1.5,1.5,0,0,0,.6-.12,1.07,1.07,0,0,0,.44-.34.85.85,0,0,0,.17-.52,1,1,0,0,0-.11-.45,1.61,1.61,0,0,0-.28-.38,2.86,2.86,0,0,0-.41-.36l-.48-.36a6.37,6.37,0,0,1-1-.82,2.82,2.82,0,0,1-.46-.7,2,2,0,0,1-.17-.83,2.08,2.08,0,0,1,.36-1.19,2.43,2.43,0,0,1,1-.84,3.11,3.11,0,0,1,1.39-.31,3.72,3.72,0,0,1,1,.13,3.91,3.91,0,0,1,.91.34Z"/><path d="M140.94,24.11l-3,4.39-.53,3.79h-1.38l.54-3.79-1.84-4.39h1.41l1.25,3.07,2-3.07Z"/><path d="M148.52,25.38a4.19,4.19,0,0,0-.54-.09,5.49,5.49,0,0,0-.68,0,4.85,4.85,0,0,0-1.63.25,3.59,3.59,0,0,0-1.25.72,3.36,3.36,0,0,0-.81,1.17,3.47,3.47,0,0,0-.29,1.42,2.73,2.73,0,0,0,.27,1.24,1.91,1.91,0,0,0,.78.81,2.37,2.37,0,0,0,1.18.29,3.75,3.75,0,0,0,1.29-.26,7.17,7.17,0,0,0,1.4-.72L148,31.72a5.81,5.81,0,0,1-2.62.68,3.72,3.72,0,0,1-1.84-.45,3.1,3.1,0,0,1-1.25-1.26,3.82,3.82,0,0,1-.45-1.86,4.66,4.66,0,0,1,.69-2.51,4.52,4.52,0,0,1,1.95-1.71,6.35,6.35,0,0,1,2.85-.61,7.27,7.27,0,0,1,.75,0l.68.09Z"/><path d="M155.79,27.56a5.45,5.45,0,0,1-.56,2.48,4.2,4.2,0,0,1-1.55,1.73,4,4,0,0,1-2.18.63,3.52,3.52,0,0,1-1.79-.47,3.28,3.28,0,0,1-1.24-1.29,3.91,3.91,0,0,1-.43-1.85,5.13,5.13,0,0,1,.32-1.82,5,5,0,0,1,.92-1.56,4.17,4.17,0,0,1,1.4-1,4,4,0,0,1,1.71-.37,3.48,3.48,0,0,1,1.77.45,3.09,3.09,0,0,1,1.21,1.27A4,4,0,0,1,155.79,27.56Zm-1.42,0a2.71,2.71,0,0,0-.25-1.2,1.87,1.87,0,0,0-.71-.81,2.05,2.05,0,0,0-1.08-.29,2.42,2.42,0,0,0-1.42.47A3.5,3.5,0,0,0,149.85,27a4.26,4.26,0,0,0-.4,1.81,2.72,2.72,0,0,0,.26,1.24,1.87,1.87,0,0,0,.72.82,2.06,2.06,0,0,0,1.09.29,2.33,2.33,0,0,0,1.42-.49,3.26,3.26,0,0,0,1-1.33A4.4,4.4,0,0,0,154.37,27.52Z"/><path d="M161.3,32.29H160l-.39-2.22H157l-.95,2.22h-1.47L158.38,24h1.4Zm-1.89-3.22-.54-3.48h0l-1.41,3.48Z"/><path d="M166.94,24.11l-.17,1.17h-2.46l-1,7h-1.4l1-7h-2.44l.17-1.17Z"/><path d="M168.55,24.11l-1.15,8.18H166l1.15-8.18Z"/><path d="M176.44,24.11l-1.14,8.18h-1.09l-3.74-5.78h0l-.8,5.78h-1.35l1.15-8.18h1.09l3.74,5.71h0l.79-5.71Z"/><path d="M183.56,25.44a8.54,8.54,0,0,0-1.77-.22,5.41,5.41,0,0,0-1.7.26,3.78,3.78,0,0,0-1.34.74,3.4,3.4,0,0,0-.86,1.14,3.16,3.16,0,0,0-.3,1.35,2.73,2.73,0,0,0,.3,1.29,2.21,2.21,0,0,0,.87.87,2.77,2.77,0,0,0,1.3.31,5.32,5.32,0,0,0,.69,0,3.45,3.45,0,0,0,.72-.18l.2-1.5h-1.31l.14-1.06h2.71l-.51,3.49a6,6,0,0,1-1.17.37,7.2,7.2,0,0,1-1.42.14,5.05,5.05,0,0,1-1.65-.26,3.63,3.63,0,0,1-1.25-.75,3.3,3.3,0,0,1-.8-1.17,3.93,3.93,0,0,1-.28-1.47,4.49,4.49,0,0,1,.26-1.49,4.69,4.69,0,0,1,.76-1.34,4.61,4.61,0,0,1,1.17-1,5.82,5.82,0,0,1,1.56-.66,8.12,8.12,0,0,1,2-.23,9.6,9.6,0,0,1,1.85.19Z"/><path d="M26.57,43.18l-.17,1.11H21.53l1.15-8.18h1.38l-1,7.07Z"/><path d="M32.18,36.11,32,37.26H28.7l-.32,2.28h2.93l-.17,1.15H28.21l-.33,2.45H32l-.16,1.15H26.33l1.16-8.18Z"/><path d="M40.08,36.11l-1.14,8.18H37.86l-3.75-5.78h0l-.8,5.78H32l1.15-8.18h1.08l3.74,5.71h0l.79-5.71Z"/><path d="M47.21,37.44a8.71,8.71,0,0,0-1.78-.22,5.46,5.46,0,0,0-1.7.26,3.87,3.87,0,0,0-1.34.74,3.4,3.4,0,0,0-.86,1.14,3.16,3.16,0,0,0-.3,1.35,2.73,2.73,0,0,0,.3,1.29,2.23,2.23,0,0,0,.88.87,2.73,2.73,0,0,0,1.29.31,5.32,5.32,0,0,0,.69,0,3.45,3.45,0,0,0,.72-.18l.2-1.5H44l.15-1.06h2.7l-.51,3.49a5.66,5.66,0,0,1-1.16.37,7.38,7.38,0,0,1-1.43.14,5,5,0,0,1-1.64-.26,3.58,3.58,0,0,1-1.26-.75,3.3,3.3,0,0,1-.8-1.17,3.92,3.92,0,0,1-.27-1.47A4.25,4.25,0,0,1,40,39.26a4.43,4.43,0,0,1,.75-1.34,4.61,4.61,0,0,1,1.17-1,6,6,0,0,1,1.57-.66,8,8,0,0,1,2-.23,9.53,9.53,0,0,1,1.85.19Z"/><path d="M53.52,36.11l-.17,1.17H50.89l-1,7H48.5l1-7H47.05l.17-1.17Z"/><path d="M60.86,36.11l-1.15,8.18h-1.4l.49-3.49H54.49L54,44.29H52.6l1.14-8.18h1.4l-.47,3.41H59l.48-3.41Z"/><path d="M61.77,43.59a.81.81,0,0,1-.24.59.82.82,0,0,1-.59.25.84.84,0,0,1-.41-.11.79.79,0,0,1-.3-.3.8.8,0,0,1-.12-.43.88.88,0,0,1,.11-.42.92.92,0,0,1,.31-.31.83.83,0,0,1,.41-.1.81.81,0,0,1,.59.24A.82.82,0,0,1,61.77,43.59Zm.67-4a.84.84,0,0,1-.83.84.78.78,0,0,1-.42-.11.8.8,0,0,1-.42-.73A.78.78,0,0,1,61,39a.81.81,0,0,1,.59-.24.84.84,0,0,1,.83.83Z"/><path d="M69.07,38.06a3,3,0,0,1-.24,1.13,7.59,7.59,0,0,1-.78,1.39c-.35.54-1,1.34-1.81,2.4h2.64l-.19,1.31H63.84a.23.23,0,0,0,0-.12.33.33,0,0,1,.06-.12c1-1.24,1.75-2.24,2.29-3a14.94,14.94,0,0,0,1.15-1.8,2.62,2.62,0,0,0,.34-1.08.88.88,0,0,0-.28-.67,1.08,1.08,0,0,0-.75-.25,2.16,2.16,0,0,0-.79.17,6,6,0,0,0-1,.55l.2-1.38a3.39,3.39,0,0,1,.89-.45A3.14,3.14,0,0,1,67,36a2.32,2.32,0,0,1,1.1.26,1.84,1.84,0,0,1,.75.74A2.22,2.22,0,0,1,69.07,38.06Z"/><path d="M74.6,36.11l-.2,1.3H72.13l-.26,1.73a2.74,2.74,0,0,1,1.23.37,2,2,0,0,1,.79.83,2.52,2.52,0,0,1,.27,1.19A2.82,2.82,0,0,1,73.77,43a2.54,2.54,0,0,1-1.08,1,3.4,3.4,0,0,1-1.6.37,3.46,3.46,0,0,1-2-.61l.42-1.22a3.57,3.57,0,0,0,.82.47,2.29,2.29,0,0,0,.81.14A1.81,1.81,0,0,0,72,43a1.3,1.3,0,0,0,.59-.57,1.57,1.57,0,0,0,.21-.8,1.17,1.17,0,0,0-.44-1,1.87,1.87,0,0,0-1.2-.36,4.11,4.11,0,0,0-.82.09l.74-4.26Z"/><path d="M83.47,37.38l-.54-.09a5.64,5.64,0,0,0-.69,0,4.89,4.89,0,0,0-1.63.25,3.46,3.46,0,0,0-1.24.72,3.39,3.39,0,0,0-.82,1.17,3.64,3.64,0,0,0-.29,1.42,2.61,2.61,0,0,0,.28,1.24,1.94,1.94,0,0,0,.77.81,2.37,2.37,0,0,0,1.18.29,3.7,3.7,0,0,0,1.29-.26,6.9,6.9,0,0,0,1.4-.72L83,43.72a5.78,5.78,0,0,1-2.62.68A3.68,3.68,0,0,1,78.51,44a3.18,3.18,0,0,1-1.26-1.26,3.93,3.93,0,0,1-.44-1.86,4.66,4.66,0,0,1,.69-2.51,4.44,4.44,0,0,1,1.94-1.71A6.41,6.41,0,0,1,82.29,36,7.27,7.27,0,0,1,83,36l.68.09Z"/><path d="M92.29,44.29H90.93l-.1-5.91h0l-3.18,5.91h-.37l-1.42-6h0l-2,6H82.48l2.68-8.18h1.38l1.3,5.36,2.85-5.36h1.43Z"/><path d="M107,36.11l-4,8.26h-.55L101,38.74l-2.74,5.63h-.56l-1.81-8.26H97.2l1.15,5.42h0l2.6-5.42h.58L103,41.59h0l2.51-5.48Z"/><path d="M111.69,36.11l-.17,1.15h-3.31l-.32,2.28h2.93l-.17,1.15h-2.93l-.34,2.45h4.15l-.16,1.15h-5.53L107,36.11Z"/><path d="M114,36.11l-1.15,8.18h-1.41l1.15-8.18Z"/><path d="M121.15,37.44a8.71,8.71,0,0,0-1.78-.22,5.46,5.46,0,0,0-1.7.26,3.87,3.87,0,0,0-1.34.74,3.4,3.4,0,0,0-.86,1.14,3.16,3.16,0,0,0-.3,1.35,2.62,2.62,0,0,0,.31,1.29,2.14,2.14,0,0,0,.87.87,2.73,2.73,0,0,0,1.29.31,5.32,5.32,0,0,0,.69,0,3.45,3.45,0,0,0,.72-.18l.2-1.5h-1.31l.15-1.06h2.7l-.5,3.49a6,6,0,0,1-1.17.37,7.3,7.3,0,0,1-1.43.14,5,5,0,0,1-1.64-.26,3.58,3.58,0,0,1-1.26-.75,3.27,3.27,0,0,1-.79-1.17,3.74,3.74,0,0,1-.28-1.47,4.25,4.25,0,0,1,.26-1.49,4.43,4.43,0,0,1,.75-1.34,4.49,4.49,0,0,1,1.18-1,5.82,5.82,0,0,1,1.56-.66,8,8,0,0,1,2-.23,9.62,9.62,0,0,1,1.86.19Z"/><path d="M129.22,36.11l-1.15,8.18h-1.4l.49-3.49h-4.31l-.49,3.49H121l1.14-8.18h1.4L123,39.52h4.31l.48-3.41Z"/><path d="M135.49,36.11l-.17,1.17h-2.46l-1,7h-1.4l1-7H129l.17-1.17Z"/><path d="M141.75,38.12a1.93,1.93,0,0,1-.38,1.22,2.36,2.36,0,0,1-1.12.75,1.81,1.81,0,0,1,1.05,1.79,2.41,2.41,0,0,1-.18.9,2.25,2.25,0,0,1-.55.8,2.6,2.6,0,0,1-.92.59,3.41,3.41,0,0,1-1.29.23,4.36,4.36,0,0,1-1-.13,6.1,6.1,0,0,1-1-.35l.18-1.23a6.92,6.92,0,0,0,.89.36,3.26,3.26,0,0,0,.9.13,1.88,1.88,0,0,0,.8-.17,1.3,1.3,0,0,0,.56-.47,1.2,1.2,0,0,0,.2-.67,1.09,1.09,0,0,0-.3-.79,1.38,1.38,0,0,0-.8-.39l-.37,0-.23,0,.17-1.23h.33a2.13,2.13,0,0,0,.88-.16,1.39,1.39,0,0,0,.59-.43,1,1,0,0,0-.09-1.36,1.21,1.21,0,0,0-.84-.29,3.18,3.18,0,0,0-.84.13,5.07,5.07,0,0,0-.94.4l.19-1.36a4.53,4.53,0,0,1,1.8-.39,2.77,2.77,0,0,1,1.22.26,1.93,1.93,0,0,1,.82.75A2,2,0,0,1,141.75,38.12Z"/><path d="M147.35,39a8.28,8.28,0,0,1-.25,2,6.61,6.61,0,0,1-.68,1.79,3.33,3.33,0,0,1-1,1.16,2.21,2.21,0,0,1-1.28.41,1.9,1.9,0,0,1-1.62-.77,3.67,3.67,0,0,1-.57-2.22,8.26,8.26,0,0,1,.16-1.6,8.53,8.53,0,0,1,.45-1.55,4.79,4.79,0,0,1,.68-1.21,3.06,3.06,0,0,1,.88-.77,2.12,2.12,0,0,1,1.1-.28,2,2,0,0,1,1.16.35,2.15,2.15,0,0,1,.74,1A4.77,4.77,0,0,1,147.35,39Zm-1.36-.3a2.25,2.25,0,0,0-.23-1.13.74.74,0,0,0-.64-.37.9.9,0,0,0-.67.39,3.22,3.22,0,0,0-.58,1,8.39,8.39,0,0,0-.4,1.44,7.76,7.76,0,0,0-.15,1.49,2.52,2.52,0,0,0,.22,1.19.69.69,0,0,0,.63.4c.29,0,.58-.22.85-.64a6.32,6.32,0,0,0,.69-1.76A8.38,8.38,0,0,0,146,38.72Z"/><path d="M152.5,39a8.28,8.28,0,0,1-.25,2,6.61,6.61,0,0,1-.68,1.79,3.54,3.54,0,0,1-1,1.16,2.24,2.24,0,0,1-1.28.41,1.9,1.9,0,0,1-1.62-.77,3.67,3.67,0,0,1-.58-2.22,8.3,8.3,0,0,1,.17-1.6,7.19,7.19,0,0,1,.45-1.55,5.1,5.1,0,0,1,.67-1.21,3.19,3.19,0,0,1,.88-.77,2.17,2.17,0,0,1,1.1-.28,1.94,1.94,0,0,1,1.16.35,2.11,2.11,0,0,1,.75,1A4.77,4.77,0,0,1,152.5,39Zm-1.36-.3a2.13,2.13,0,0,0-.24-1.13.71.71,0,0,0-.63-.37.92.92,0,0,0-.68.39,3.63,3.63,0,0,0-.58,1,8.39,8.39,0,0,0-.39,1.44,7.76,7.76,0,0,0-.15,1.49,2.67,2.67,0,0,0,.21,1.19.71.71,0,0,0,.64.4c.29,0,.58-.22.85-.64a6.32,6.32,0,0,0,.69-1.76A8.89,8.89,0,0,0,151.14,38.72Z"/><path d="M161.85,37.44a8.71,8.71,0,0,0-1.78-.22,5.46,5.46,0,0,0-1.7.26,3.87,3.87,0,0,0-1.34.74,3.4,3.4,0,0,0-.86,1.14,3.16,3.16,0,0,0-.3,1.35,2.73,2.73,0,0,0,.3,1.29,2.23,2.23,0,0,0,.88.87,2.73,2.73,0,0,0,1.29.31,5.32,5.32,0,0,0,.69,0,3.45,3.45,0,0,0,.72-.18l.2-1.5h-1.31l.15-1.06h2.7L161,43.89a5.66,5.66,0,0,1-1.16.37,7.38,7.38,0,0,1-1.43.14,5,5,0,0,1-1.64-.26,3.58,3.58,0,0,1-1.26-.75,3.3,3.3,0,0,1-.8-1.17,3.92,3.92,0,0,1-.27-1.47,4.25,4.25,0,0,1,.26-1.49,4.43,4.43,0,0,1,.75-1.34,4.61,4.61,0,0,1,1.17-1,6,6,0,0,1,1.57-.66,8,8,0,0,1,2-.23,9.53,9.53,0,0,1,1.85.19Z"/><path d="M168,44.29h-1.5l-.87-1.81a11.37,11.37,0,0,0-.55-1,2.42,2.42,0,0,0-.32-.4.8.8,0,0,0-.35-.19,1.66,1.66,0,0,0-.5-.06h-.41L163,44.29h-1.4l1.15-8.18h2.08a4.12,4.12,0,0,1,1.3.18,2.47,2.47,0,0,1,.86.5,1.84,1.84,0,0,1,.47.73,2.7,2.7,0,0,1,.14.85,2,2,0,0,1-.48,1.33,2.3,2.3,0,0,1-1.32.76v0a1.3,1.3,0,0,1,.43.38,2.65,2.65,0,0,1,.32.55Zm-1.83-5.92a1,1,0,0,0-.37-.82,1.69,1.69,0,0,0-1.06-.29H164l-.34,2.45h.7a2.57,2.57,0,0,0,1-.17,1.34,1.34,0,0,0,.61-.47A1.18,1.18,0,0,0,166.18,38.37Z"/><path d="M173.64,44.29h-1.35l-.39-2.22h-2.55l-.95,2.22h-1.47L170.72,36h1.4Zm-1.89-3.22-.54-3.48h0l-1.41,3.48Z"/><path d="M182.93,44.29h-1.36l-.1-5.91h0l-3.18,5.91h-.37l-1.42-6h0l-1.95,6h-1.38l2.68-8.18h1.38l1.3,5.36,2.85-5.36h1.43Z"/><path d="M60.06,48.11,58.9,56.29H57.5L58,52.8H53.68l-.49,3.49h-1.4l1.15-8.18h1.39l-.47,3.41h4.31l.48-3.41Z"/><path d="M65.57,56.29H64.22l-.39-2.22H61.28l-1,2.22H58.87L62.65,48h1.4Zm-1.89-3.22-.54-3.48h0L61.7,53.07Z"/><path d="M73.77,48.11l-1.14,8.18H71.55L67.8,50.51h0L67,56.29H65.65l1.15-8.18h1.08l3.74,5.71h0l.79-5.71Z"/><path d="M76.44,48.11a5.82,5.82,0,0,1,2,.31,3.94,3.94,0,0,1,1.42.86,3.41,3.41,0,0,1,.83,1.28A4.36,4.36,0,0,1,81,52.15a4.58,4.58,0,0,1-.5,2.15,3.61,3.61,0,0,1-1.43,1.47,4.34,4.34,0,0,1-2.16.52H73.53l1.15-8.18Zm3.09,4a2.91,2.91,0,0,0-.26-1.25,2.74,2.74,0,0,0-.68-.89,2.93,2.93,0,0,0-1-.54,3.55,3.55,0,0,0-1.12-.18H75.9l-.81,5.88h1.27a3.3,3.3,0,0,0,2.37-.77A3,3,0,0,0,79.53,52.12Z"/><path d="M90.12,56.29H88.76l-.11-5.91h0l-3.18,5.91h-.38l-1.41-6h0l-2,6H80.31L83,48.11h1.38l1.29,5.36,2.86-5.36H90Z"/><path d="M96.31,56.29H95l-.39-2.22H92l-1,2.22H89.6L93.39,48h1.4Zm-1.89-3.22-.54-3.48h0l-1.41,3.48Z"/><path d="M99.3,48.11a5.72,5.72,0,0,1,2,.31,3.94,3.94,0,0,1,1.42.86,3.56,3.56,0,0,1,.84,1.28,4.58,4.58,0,0,1,.27,1.59,4.46,4.46,0,0,1-.5,2.15,3.55,3.55,0,0,1-1.43,1.47,4.32,4.32,0,0,1-2.16.52H96.39l1.14-8.18Zm3.09,4a2.77,2.77,0,0,0-.27-1.25,2.74,2.74,0,0,0-.68-.89,2.88,2.88,0,0,0-1-.54,3.61,3.61,0,0,0-1.13-.18h-.58l-.82,5.88h1.28a3.33,3.33,0,0,0,2.37-.77A3,3,0,0,0,102.39,52.12Z"/><path d="M109.61,48.11l-.17,1.15h-3.31l-.33,2.28h2.93l-.17,1.15h-2.93l-.33,2.45h4.15l-.16,1.15h-5.54l1.16-8.18Z"/><path d="M114.41,53l-.2,1.3H111l.18-1.3Z"/><path d="M119.13,48.11a5.82,5.82,0,0,1,2,.31,3.9,3.9,0,0,1,1.41.86,3.44,3.44,0,0,1,.84,1.28,4.58,4.58,0,0,1,.27,1.59,4.46,4.46,0,0,1-.5,2.15,3.55,3.55,0,0,1-1.43,1.47,4.32,4.32,0,0,1-2.16.52h-3.35l1.14-8.18Zm3.09,4a2.74,2.74,0,0,0-1.92-2.68,3.59,3.59,0,0,0-1.12-.18h-.59l-.82,5.88h1.28a3.33,3.33,0,0,0,2.37-.77A3,3,0,0,0,122.22,52.12Z"/><path d="M129.24,56.29h-1.35l-.39-2.22H125l-1,2.22h-1.46L126.32,48h1.4Zm-1.89-3.22-.54-3.48h0l-1.41,3.48Z"/><path d="M134.88,48.11l-.17,1.17h-2.46l-1,7h-1.4l1-7h-2.43l.17-1.17Z"/><path d="M138.88,56.29h-1.36l-.38-2.22h-2.56l-1,2.22h-1.46L136,48h1.4ZM137,53.07l-.53-3.48h0L135,53.07Z"/><path d="M150.37,56.29H149l-.1-5.91h0l-3.19,5.91h-.37l-1.41-6h0l-1.94,6h-1.39l2.68-8.18h1.39l1.29,5.36,2.85-5.36h1.43Z"/><path d="M156.57,56.29h-1.35l-.39-2.22h-2.56l-.94,2.22h-1.47L153.65,48h1.4Zm-1.89-3.22-.54-3.48h0l-1.41,3.48Z"/><path d="M162.08,48.11l-3,4.39-.53,3.79h-1.38l.53-3.79-1.83-4.39h1.41l1.24,3.07,2-3.07Z"/><path d="M168.27,48.11l-4,8.26h-.62L162,48.11h1.32l1,5.3h0l2.49-5.3Z"/><path d="M172.59,56.29h-1.35l-.39-2.22H168.3l-1,2.22h-1.46L169.67,48h1.4Zm-1.89-3.22-.54-3.48h0l-1.41,3.48Z"/><path d="M179.05,56.29h-1.5l-.87-1.81c-.25-.5-.44-.84-.55-1a2.42,2.42,0,0,0-.32-.4.86.86,0,0,0-.35-.19,1.7,1.7,0,0,0-.5-.06h-.41l-.48,3.48h-1.4l1.15-8.18h2.08a4,4,0,0,1,1.29.18,2.38,2.38,0,0,1,.86.5,1.73,1.73,0,0,1,.47.73,2.45,2.45,0,0,1,.15.85,2,2,0,0,1-.49,1.33,2.3,2.3,0,0,1-1.32.76v0a1.24,1.24,0,0,1,.44.38,2.65,2.65,0,0,1,.32.55Zm-1.84-5.92a1,1,0,0,0-.36-.82,1.71,1.71,0,0,0-1.06-.29h-.74l-.33,2.45h.7a2.61,2.61,0,0,0,1-.17,1.34,1.34,0,0,0,.61-.47A1.18,1.18,0,0,0,177.21,50.37Z"/><path d="M184.57,48.11l-3,4.39-.53,3.79H179.7l.54-3.79-1.84-4.39h1.41l1.25,3.07,2-3.07Z"/></g></g></svg>